<svg width="64" height="40" viewBox="0 0 64 40" fill="none" xmlns="http://www.w3.org/2000/svg">

<g id="size=Coloured">
<g id="Logo_2">
<path id="Vector" d="M50.5545 16.3272C51.3861 16.3272 52.3325 17.0497 52.3325 18.0477C52.3325 18.6099 52.1535 19.0442 51.8901 19.4409C51.7211 19.6937 51.5924 19.9846 51.5393 20.1955C51.482 20.4333 51.3567 21.0093 52.0602 21.0189C52.5179 21.0304 53.6442 20.6318 54.554 19.5335C55.254 18.6516 55.6701 17.5329 55.6701 16.3127C55.6701 13.4616 53.3825 11.1494 50.5545 11.1494C47.7257 11.1494 45.434 13.4616 45.434 16.3127C45.434 17.5329 45.8496 18.6516 46.5503 19.5335C47.4614 20.6318 48.587 21.0303 49.0441 21.0189C49.7476 21.0093 49.6202 20.4333 49.5657 20.1955C49.5139 19.9848 49.3846 19.6937 49.2143 19.4409C48.9515 19.0442 48.7718 18.6099 48.7718 18.0477C48.7739 17.0497 49.719 16.3272 50.5545 16.3272ZM59.6036 21.5457C59.3938 21.3719 59.0261 21.1183 58.2708 21.0019C57.223 20.845 56.2878 21.091 55.7247 21.3146C54.9844 21.6079 54.0726 22.2745 53.4427 23.1428C52.778 24.0604 52.4342 25.4453 52.7637 26.8891C52.857 27.2955 52.9579 27.5243 53.1084 27.8094C53.3051 28.1965 53.8241 28.737 54.2784 28.8346C54.6372 28.9088 54.9178 28.7023 55.0554 28.5462C55.9704 27.4851 59.4388 23.3753 59.8147 22.8505C60.1838 22.3289 59.9426 21.8279 59.6036 21.5458V21.5457ZM45.3824 21.3146C44.8193 21.091 43.8849 20.8452 42.8369 21.0019C42.0818 21.1184 41.7105 21.3719 41.5036 21.5457C41.1643 21.8279 40.9212 22.329 41.2924 22.8503C41.6662 23.3753 45.1339 27.4849 46.0491 28.546C46.1867 28.7023 46.4672 28.909 46.8268 28.8346C47.2837 28.737 47.8006 28.1964 47.9967 27.8092C48.1493 27.5243 48.248 27.2953 48.3439 26.8891C48.6729 25.4453 48.3236 24.0602 47.6652 23.1427C47.0345 22.2745 46.1213 21.6079 45.3824 21.3146ZM39.2801 25.0733H35.0055L36.7597 22.7612H32.0105L30.3183 24.9875C29.6856 25.8722 29.6244 26.7651 29.6244 27.3848V27.7351C29.6244 28.1401 29.875 28.3602 30.2467 28.3602H39.2801C39.6445 28.3602 39.8902 28.1591 39.8902 27.7474V25.6883C39.8902 25.2738 39.6445 25.0733 39.2801 25.0733ZM14.9462 16.9054C14.8781 16.518 14.6159 16.3272 14.2749 16.3272H13.0667C11.8096 16.3272 10.7001 16.9946 10.0785 18.0027C10.0785 18.0027 8.92563 19.848 7.63371 21.9249H15.8356L14.9462 16.9054ZM28.4557 16.9401C28.4557 16.5284 28.2106 16.3272 27.8436 16.3272H25.3844C25.0201 16.3272 24.7743 16.5284 24.7743 16.9401V21.6054L22.4433 17.4111C21.9774 16.6381 21.1931 16.3444 20.2778 16.3273H18.4602C18.0992 16.3273 17.8526 16.5284 17.8526 16.9403V21.9276H20.9076L21.3775 22.7614H17.8527V27.7476C17.8527 28.1591 18.0992 28.3637 18.4603 28.3637H20.9254C21.2917 28.3637 21.5343 28.1591 21.5343 27.7476L21.5329 23.0531L23.8857 27.2813C24.3467 28.0501 25.134 28.344 26.0431 28.3637H27.8436C28.2106 28.3637 28.4557 28.1591 28.4557 27.7476V22.7614H25.4225L24.9541 21.9276H28.4557V16.9403V16.9401ZM15.9813 22.7612H11.9307C12.0343 23.3283 12.7815 27.5451 12.8256 27.7904C12.8945 28.1701 13.1308 28.3636 13.4773 28.3636H16.2641C16.5195 28.3636 16.6482 28.2833 16.7681 28.1374C16.8497 28.0358 16.8838 27.8817 16.8457 27.656L15.9815 22.7612H15.9813ZM4.0892 27.6091C3.97874 27.7979 3.97874 27.9963 4.04622 28.1251C4.12392 28.2757 4.29682 28.3637 4.48344 28.3637H7.37765C7.74277 28.3637 8.06897 28.1667 8.25069 27.8721L11.4446 22.7612H7.11207C5.62472 25.1477 4.12658 27.554 4.0892 27.6091ZM30.3278 19.6101H34.4001L32.644 21.9248H37.3918L39.1234 19.6448C39.6582 18.9399 39.782 18.3089 39.782 17.7505V16.9564C39.782 16.5494 39.5361 16.3272 39.1618 16.3272H30.3278C29.9634 16.3272 29.7196 16.5284 29.7196 16.9401V18.9992C29.7196 19.4098 29.9634 19.6101 30.3278 19.6101Z" fill="#007DBA"/>
</g>
</g>
</svg>
