<svg width="30" height="30" viewBox="0 0 30 30" fill="none" xmlns="http://www.w3.org/2000/svg">

<g id="size=24x24px" clip-path="url(#clip0_964_20528)">
<g id="Layer_x0020_1">
<g id="_2405588477232">
<g id="Group">
<g id="Group_2">
<path id="Vector" d="M2.71204 9.12021V20.8802C2.71204 21.6362 3.10804 22.3202 3.76804 22.7042L13.956 28.5842C14.604 28.9562 15.408 28.9562 16.056 28.5842L26.244 22.7042C26.892 22.3322 27.3 21.6362 27.3 20.8802V9.12021C27.3 8.36421 26.904 7.68021 26.244 7.29621L16.056 1.41621C15.408 1.04421 14.604 1.04421 13.956 1.41621L3.76804 7.29621C3.12004 7.66821 2.72404 8.36421 2.72404 9.12021H2.71204Z" fill="#213147"/>
<g id="Group_3">
<g id="Group_4">
<g id="Group_5">
<path id="Vector_2" d="M17.22 17.2797L15.768 21.2637C15.732 21.3717 15.732 21.4917 15.768 21.6117L18.264 28.4637L21.156 26.7957L17.688 17.2797C17.604 17.0637 17.304 17.0637 17.22 17.2797Z" fill="#12AAFF"/>
</g>
<g id="Group_6">
<path id="Vector_3" d="M20.136 10.5839C20.052 10.3679 19.752 10.3679 19.668 10.5839L18.216 14.5679C18.18 14.6759 18.18 14.7959 18.216 14.9159L22.308 26.1359L25.2 24.4679L20.136 10.5959V10.5839Z" fill="#12AAFF"/>
</g>
</g>
</g>
<g id="Group_7">
<path id="Vector_4" d="M15 1.86C15.072 1.86 15.144 1.884 15.204 1.92L26.22 8.28C26.352 8.352 26.424 8.496 26.424 8.64V21.36C26.424 21.504 26.34 21.648 26.22 21.72L15.204 28.08C15.144 28.116 15.072 28.14 15 28.14C14.928 28.14 14.856 28.116 14.796 28.08L3.77998 21.72C3.64798 21.648 3.57598 21.504 3.57598 21.36V8.628C3.57598 8.484 3.65998 8.34 3.77998 8.268L14.796 1.908C14.856 1.872 14.928 1.848 15 1.848V1.86ZM15 0C14.604 0 14.22 0.096 13.86 0.3L2.84398 6.66C2.13598 7.068 1.70398 7.812 1.70398 8.628V21.348C1.70398 22.164 2.13598 22.908 2.84398 23.316L13.86 29.676C14.208 29.88 14.604 29.976 15 29.976C15.396 29.976 15.78 29.88 16.14 29.676L27.156 23.316C27.864 22.908 28.296 22.164 28.296 21.348V8.628C28.296 7.812 27.864 7.068 27.156 6.66L16.128 0.3C15.78 0.096 15.384 0 14.988 0H15Z" fill="#9DCCED"/>
</g>
<path id="Vector_5" d="M7.70398 26.1478L8.72398 23.3638L10.764 25.0558L8.85598 26.8078L7.70398 26.1478Z" fill="#213147"/>
<g id="Group_8">
<path id="Vector_6" d="M14.064 7.72782H11.268C11.064 7.72782 10.872 7.85982 10.8 8.05182L4.81201 24.4678L7.70401 26.1358L14.304 8.05182C14.364 7.88382 14.244 7.71582 14.076 7.71582L14.064 7.72782Z" fill="white"/>
<path id="Vector_7" d="M18.96 7.72782H16.164C15.96 7.72782 15.768 7.85982 15.696 8.05182L8.85596 26.7958L11.748 28.4638L19.188 8.05182C19.248 7.88382 19.128 7.71582 18.96 7.71582V7.72782Z" fill="white"/>
</g>
</g>
</g>
</g>
</g>
</g>
<defs>
<clipPath id="clip0_964_20528">
<rect width="30" height="30" fill="white"/>
</clipPath>
</defs>
</svg>
