<svg width="24" height="24" viewBox="0 0 24 24" fill="none" xmlns="http://www.w3.org/2000/svg">

<g id="Size=24x24px" clip-path="url(#clip0_964_20528)">
<path id="Vector" d="M19.4012 4.11719H4.58289V17.5853H19.4012V4.11719Z" fill="white"/>
<path id="Vector_2" fill-rule="evenodd" clip-rule="evenodd" d="M23.992 12.0002C23.992 18.6188 18.623 23.9842 12 23.9842C5.37694 23.9842 0.00793457 18.6188 0.00793457 12.0002C0.00793457 5.38155 5.37694 0.0161133 12 0.0161133C18.623 0.0161133 23.992 5.38155 23.992 12.0002ZM8.60176 16.7692H6.27444C5.7854 16.7692 5.54384 16.7692 5.39655 16.675C5.23746 16.572 5.14025 16.4012 5.12846 16.2128C5.11962 16.0391 5.24041 15.8271 5.48198 15.4032L11.2284 5.28103C11.4729 4.8512 11.5966 4.63629 11.7528 4.5568C11.9207 4.47143 12.121 4.47143 12.289 4.5568C12.4451 4.63629 12.5688 4.8512 12.8133 5.28103L13.9947 7.34184L14.0007 7.35236C14.2648 7.81348 14.3987 8.04732 14.4572 8.29275C14.522 8.56066 14.522 8.84328 14.4572 9.11119C14.3983 9.35848 14.2657 9.59401 13.9976 10.0621L10.9792 15.3943L10.9714 15.408C10.7055 15.8729 10.5708 16.1086 10.3841 16.2863C10.1808 16.4807 9.93629 16.6219 9.6682 16.7015C9.42368 16.7692 9.14971 16.7692 8.60176 16.7692ZM14.479 16.7692H17.8138C18.3057 16.7692 18.5532 16.7692 18.7006 16.6722C18.8597 16.5691 18.9598 16.3953 18.9687 16.207C18.9772 16.039 18.859 15.8352 18.6275 15.4359C18.6195 15.4223 18.6115 15.4085 18.6034 15.3944L16.933 12.5387L16.914 12.5066C16.6792 12.1099 16.5607 11.9096 16.4086 11.8322C16.2407 11.7468 16.0432 11.7468 15.8754 11.8322C15.7222 11.9116 15.5985 12.1207 15.3539 12.5417L13.6895 15.3974L13.6838 15.4072C13.4401 15.8275 13.3183 16.0375 13.3271 16.2099C13.3389 16.3983 13.4361 16.572 13.5952 16.675C13.7396 16.7692 13.987 16.7692 14.479 16.7692Z" fill="#E84142"/>
</g>
<defs>
<clipPath id="clip0_964_20528">
<rect width="24" height="24" fill="white"/>
</clipPath>
</defs>
</svg>
