<svg width="24" height="24" viewBox="0 0 24 24" fill="none" xmlns="http://www.w3.org/2000/svg">

<g id="size=24" clip-path="url(#clip0_964_20528)">
<path id="Vector" d="M4.39452e-06 1.896C4.39452e-06 1.2465 4.39881e-06 0.921937 0.122442 0.672C0.239629 0.43275 0.432942 0.239437 0.672192 0.12225C0.921942 0 1.2465 0 1.896 0H22.104C22.7533 0 23.0783 0 23.328 0.122437C23.5671 0.239625 23.7604 0.432937 23.8778 0.672187C24 0.921937 24 1.24669 24 1.89619V22.1042C24 22.7535 24 23.0784 23.8778 23.3282C23.7604 23.5672 23.5671 23.7606 23.328 23.8779C23.0783 24.0002 22.7533 24.0002 22.104 24.0002H1.896C1.2465 24.0002 0.921942 24.0002 0.672004 23.8779C0.432754 23.7606 0.239442 23.5672 0.122254 23.3282C-0.000183105 23.0784 -0.000183105 22.7535 -0.000183105 22.1042V1.896H4.39452e-06Z" fill="#0000FF"/>
</g>
<defs>
<clipPath id="clip0_964_20528">
<rect width="24" height="24" fill="white"/>
</clipPath>
</defs>
</svg>
