<svg width="64" height="40" viewBox="0 0 64 40" fill="none" xmlns="http://www.w3.org/2000/svg">

<g id="size=Coloured">
<g id="Logo_2">
<path id="Vector" d="M10.6201 22.1802C10.0601 21.8202 9.32008 21.5802 8.10008 21.2802C7.72008 21.1802 7.34008 20.9802 7.22008 20.7002C6.90008 21.0202 6.84008 21.7602 6.90008 22.1802C6.96008 22.6802 7.54008 23.4802 8.40008 23.5202C8.92008 23.5402 9.60008 23.4002 9.92008 23.3402C10.4801 23.2202 11.3401 23.5602 11.4801 24.2402H11.7401C11.7201 23.3602 11.2401 22.6002 10.6201 22.1802Z" fill="#005BAB"/>
<path id="Vector_2" d="M11.3001 26.54C11.2801 26.68 11.2401 26.78 11.0801 26.76C10.9001 26.74 10.9201 26.6 10.9401 26.5L11.0601 25.56L10.8001 25.54L10.6801 26.5C10.6601 26.8 10.7401 26.96 11.0801 27C11.4201 27.04 11.5401 26.9 11.5801 26.6L11.7001 25.64L11.4201 25.6L11.3001 26.54Z" fill="#005BAB"/>
<path id="Vector_3" d="M9.99999 25.4198L9.53999 25.3198L9.23999 26.6798L9.51999 26.7398L9.63999 26.1598L9.71999 26.1798C9.79999 26.1998 9.81999 26.1998 9.87999 26.2398C9.95999 26.2798 9.93999 26.3998 9.91999 26.4798C9.89999 26.5798 9.85999 26.7398 9.87999 26.8198L10.16 26.8998V26.8598C10.1 26.7998 10.18 26.4798 10.2 26.4198C10.22 26.2998 10.22 26.2198 10.08 26.1598C10.26 26.1798 10.32 26.0198 10.34 25.8798C10.36 25.5998 10.28 25.4798 9.99999 25.4198ZM10.08 25.8198C10.06 25.9598 9.99999 26.0198 9.87999 25.9998L9.69999 25.9398L9.77999 25.5798L9.97999 25.6198C10.06 25.6398 10.1 25.6998 10.08 25.8198Z" fill="#005BAB"/>
<path id="Vector_4" d="M8.7003 25.08C8.3003 24.98 8.2003 25.22 8.1003 25.56L8.0403 25.76C7.9403 26.12 7.9003 26.38 8.3003 26.5C8.4003 26.52 8.5003 26.5 8.5803 26.38V26.52L8.7603 26.58L8.9603 25.86L8.5603 25.72L8.4803 25.92L8.6603 25.96C8.6003 26.16 8.5203 26.3 8.3803 26.26C8.2003 26.22 8.2403 26.04 8.2803 25.92L8.3803 25.54C8.4003 25.44 8.4603 25.2 8.6403 25.26C8.8003 25.32 8.7803 25.42 8.7603 25.56L9.0003 25.62C9.0203 25.56 9.0403 25.5 9.0403 25.46C9.0603 25.24 8.9203 25.14 8.7003 25.08Z" fill="#005BAB"/>
<path id="Vector_5" d="M59.3998 12.9199H52.7798L50.3998 17.1599H51.3998L46.3198 27.0399H51.3598L52.3798 24.6199H55.5598L55.6598 27.0399H59.9998L59.3998 12.9199ZM53.7598 21.3999L55.3198 17.6399L55.4598 21.3999H53.7598Z" fill="#005BAB"/>
<path id="Vector_6" d="M12.2398 21.5197C12.2598 18.8397 10.2998 16.9397 9.07977 17.0997C8.21977 17.1797 7.51977 17.5197 7.13977 18.5197C6.77977 19.4597 7.09977 20.6997 8.27977 20.9797C9.53977 21.2997 10.2798 21.5597 10.8198 21.9197C11.4798 22.3597 11.9998 23.2197 12.0198 24.2197H12.2598C12.2598 23.5597 12.2598 21.7397 12.2398 21.5197Z" fill="#005BAB"/>
<path id="Vector_7" d="M12.4802 21.4999C12.5002 22.6599 12.5002 23.8199 12.5202 24.2399H12.8402C12.8402 23.8199 12.8202 22.5799 12.8402 21.4799C12.8602 19.9999 13.2002 19.0799 13.8202 18.2799C14.2202 17.7399 15.3602 16.9799 15.3602 15.5799C15.3602 13.9199 14.1202 12.9599 12.6802 12.9399C11.2402 12.9599 10.0002 13.9199 10.0002 15.5799C10.0002 16.9799 11.1402 17.7399 11.5402 18.2799C12.1202 19.0599 12.4402 20.0199 12.4802 21.4999Z" fill="#005BAB"/>
<path id="Vector_8" d="M14.5201 26.1801C14.6601 26.1001 14.6801 25.9801 14.6601 25.8601C14.6401 25.7601 14.6401 25.7001 14.5801 25.6401C14.5201 25.5801 14.4001 25.5601 14.2801 25.5601L13.8201 25.6201L14.0001 26.9801L14.4601 26.9201C14.6401 26.9001 14.7401 26.8401 14.7801 26.6601C14.8001 26.5801 14.7801 26.5001 14.7801 26.4601C14.7401 26.3001 14.6601 26.1801 14.5201 26.1801ZM14.1001 25.7801L14.2201 25.7601C14.3401 25.7401 14.3801 25.8001 14.4001 25.9001C14.4201 25.9801 14.4001 26.0201 14.3801 26.0601C14.3401 26.1001 14.2601 26.1201 14.2001 26.1201H14.1601L14.1001 25.7801ZM14.4601 26.7201C14.4201 26.7401 14.3601 26.7401 14.3001 26.7601H14.2401L14.1801 26.3401L14.2801 26.3201C14.4401 26.3001 14.4801 26.3601 14.5001 26.5001C14.5001 26.5801 14.5201 26.6801 14.4601 26.7201Z" fill="#005BAB"/>
<path id="Vector_9" d="M15.9799 26.2002L15.7199 26.2602C15.7399 26.3402 15.7999 26.5602 15.6599 26.6002C15.4799 26.6402 15.4399 26.4602 15.4199 26.3402L15.3399 25.9602C15.3199 25.8602 15.2599 25.6002 15.4599 25.5802C15.5799 25.5602 15.5999 25.7202 15.6399 25.8002L15.8799 25.7402C15.8799 25.7002 15.8599 25.6802 15.8599 25.6402C15.7999 25.4202 15.6399 25.3202 15.4199 25.3602C15.0198 25.4402 15.0399 25.7002 15.0999 26.0402L15.1399 26.2402C15.2199 26.6002 15.2999 26.8602 15.6999 26.7802C15.9799 26.7202 16.0199 26.5202 15.9999 26.2602C15.9799 26.2602 15.9799 26.2202 15.9799 26.2002Z" fill="#005BAB"/>
<path id="Vector_10" d="M19.68 13.18L19.62 13.16C17.3 12.08 14.88 11.52 12.62 11.52C10.18 11.52 7.84 12.02 5.68 13.04L5.62 13.06L5.58 13.12C4.54 15.3 4 17.56 4 19.88C4 22.2 4.56 24.58 5.6 26.76L5.62 26.82L5.68 26.84C8.02 27.92 10.38 28.48 12.66 28.48C15.08 28.48 17.5 27.96 19.62 26.96L19.68 26.94L19.7 26.88C20.8 24.68 21.34 22.4 21.34 20.12C21.34 17.84 20.78 15.46 19.7 13.24L19.68 13.18ZM19.42 26.68C17.34 27.62 15.02 28.14 12.66 28.14C10.46 28.14 8.18 27.62 5.9 26.56C4.9 24.46 4.36 22.16 4.36 19.9C4.36 17.66 4.88 15.44 5.88 13.34C8 12.36 10.26 11.88 12.62 11.88C14.82 11.88 17.16 12.42 19.4 13.46C20.44 15.6 20.98 17.92 20.98 20.12C20.98 22.32 20.46 24.54 19.42 26.68Z" fill="#005BAB"/>
<path id="Vector_11" d="M16.3 25.2001L16.38 26.6201L16.64 26.5401L16.6 26.1801L16.9 26.1001L17.06 26.4201L17.32 26.3401L16.62 25.1001L16.3 25.2001ZM16.58 25.9601L16.52 25.3201L16.8 25.9001L16.58 25.9601Z" fill="#005BAB"/>
<path id="Vector_12" d="M17.2199 21.2802C16.0199 21.5802 15.2599 21.8202 14.6999 22.1802C14.0799 22.5802 13.5999 23.3602 13.5999 24.2202H13.8599C13.9999 23.5402 14.8799 23.2002 15.4199 23.3202C15.7399 23.3802 16.3999 23.5202 16.9399 23.5002C17.7999 23.4602 18.3799 22.6602 18.4399 22.1602C18.4999 21.7402 18.4399 21.0002 18.1199 20.6802C17.9799 20.9602 17.5999 21.1802 17.2199 21.2802Z" fill="#005BAB"/>
<path id="Vector_13" d="M14.5002 21.9197C15.0402 21.5597 15.7602 21.2997 17.0402 20.9797C18.2202 20.6797 18.5402 19.4397 18.1802 18.5197C17.8002 17.5197 17.0802 17.1797 16.2402 17.0997C15.0002 16.9397 13.0602 18.8397 13.0802 21.5197C13.0602 21.7397 13.0802 23.5397 13.0802 24.2197H13.3602C13.3602 23.2197 13.8602 22.3797 14.5002 21.9197Z" fill="#005BAB"/>
<path id="Vector_14" d="M12.58 25.6602H12.06L12.02 27.0202H12.28L12.3 26.4402H12.48C12.58 26.4402 12.68 26.4202 12.76 26.3602C12.86 26.2802 12.9 26.1602 12.9 26.0402C12.9 25.8602 12.84 25.6602 12.58 25.6602ZM12.44 26.2602H12.3L12.32 25.8602H12.44C12.58 25.8602 12.64 25.8802 12.64 26.0402C12.64 26.2202 12.56 26.2602 12.44 26.2602Z" fill="#005BAB"/>
<path id="Vector_15" d="M34.4801 19.7201C35.9401 18.9801 37.2801 17.5601 37.2801 15.9401C37.2801 14.2001 36.0201 12.9801 33.7801 12.9601C31.9601 12.9401 27.6401 12.9601 27.6401 12.9601L25.5401 17.1801H26.6001L24.1401 27.0401H30.7601C33.8001 27.0401 36.1201 24.8801 36.1201 22.5601C36.1201 21.6201 36.0001 20.2601 34.4801 19.7201ZM32.2601 22.4401C32.0601 23.2001 31.2201 23.5001 30.6201 23.5001H29.0801L29.6801 21.1801H31.2801C31.8801 21.1601 32.4601 21.6801 32.2601 22.4401ZM32.9801 17.5801C32.7801 18.4801 31.9601 18.5801 31.5001 18.5801H30.3001L30.7801 16.5801H32.0801C32.4401 16.5801 33.2201 16.6201 32.9801 17.5801Z" fill="#005BAB"/>
<path id="Vector_16" d="M44.4399 23.5797C41.7599 23.5797 41.0999 21.8597 41.0999 20.6997C41.0999 19.1197 42.1999 16.8997 45.2199 16.8997C46.4999 16.8997 47.4799 17.3797 48.2999 18.0397L50.4599 14.1197L47.3999 12.6797L46.9999 13.0397C46.6799 12.8597 46.2999 12.7797 45.9399 12.7797C40.0799 12.7797 36.6599 17.5997 36.6599 21.5597C36.6599 24.5597 38.4799 27.4797 43.2799 27.3397C44.1399 27.3197 44.7799 27.1997 45.7799 26.8597L47.9199 22.4597C47.2599 22.9397 45.7999 23.5797 44.4399 23.5797Z" fill="#005BAB"/>
</g>
</g>
</svg>
