<svg width="24" height="24" viewBox="0 0 24 24" fill="none" xmlns="http://www.w3.org/2000/svg">

<g id="Size=24x24px" clip-path="url(#clip0_964_20528)">
<g id="logo">
<path id="Oval 2" fill-rule="evenodd" clip-rule="evenodd" d="M12 24C18.6274 24 24 18.6274 24 12C24 5.37258 18.6274 0 12 0C5.37258 0 0 5.37258 0 12C0 18.6274 5.37258 24 12 24Z" fill="#F3BA2F"/>
<path id="Vector" d="M9.52948 11.7271L12.0008 9.24432L14.4731 11.7291L15.9103 10.2837L12.0008 6.35352L8.09131 10.2827L9.52948 11.7271Z" fill="white"/>
<path id="Vector_2" d="M5.64697 12.7063L7.11252 11.2397L8.5791 12.7063L7.11252 14.1719L5.64697 12.7063Z" fill="white"/>
<path id="Vector_3" d="M9.5293 13.6841L12.0003 16.1688L14.4723 13.6831L15.9103 15.127L12.0013 19.0587L8.09131 15.1301L9.5293 13.6841Z" fill="white"/>
<path id="Vector_4" d="M15.4219 12.7063L16.8874 11.2402L18.354 12.7053L16.8874 14.1724L15.4219 12.7063Z" fill="white"/>
<path id="Vector_5" d="M13.4646 12.7083L11.9985 11.2402L10.9144 12.3251L10.7891 12.4495L10.5325 12.7063L11.9985 14.1724L13.4646 12.7093V12.7083Z" fill="white"/>
</g>
</g>
<defs>
<clipPath id="clip0_964_20528">
<rect width="24" height="24" fill="white"/>
</clipPath>
</defs>
</svg>
