<svg width="24" height="24" viewBox="0 0 24 24" fill="none" xmlns="http://www.w3.org/2000/svg">

<g id="Size=24x24px">
<g id="Logo_2">
<path id="Vector" d="M12.1023 22.4001C12.1023 22.4001 21.0046 19.3769 21.0046 8.25944V4.26105C21.0046 3.82917 20.6703 3.46694 20.2384 3.43908C18.6223 3.36942 14.7911 3.03506 12.1023 1.6001C9.41348 3.03506 5.58227 3.36942 3.96619 3.43908C3.53431 3.46694 3.19995 3.82917 3.19995 4.26105V8.25944C3.19995 19.3769 12.1023 22.4001 12.1023 22.4001Z" fill="#009FE8"/>
<path id="Vector_2" d="M15.6966 9.72241C15.5851 8.51035 14.5542 8.0924 13.2307 7.96702V6.26735H12.1997V7.91129C11.935 7.91129 11.6424 7.91129 11.3638 7.91129V6.25342H10.3329L10.3468 7.93915C10.1239 7.93915 8.28491 7.95308 8.28491 7.95308V9.02583H9.59449V14.4452H8.43816L8.42423 15.6852C8.42423 15.6852 10.0542 15.6712 10.2911 15.6852V17.3848H11.3081V15.6991C11.5867 15.713 11.8654 15.713 12.1301 15.713V17.3848H13.161V15.6852C14.8885 15.6016 16.0867 15.1697 16.2538 13.5536C16.3792 12.258 15.7802 11.6589 14.8049 11.4221C15.404 11.1434 15.7802 10.614 15.6966 9.72241ZM14.2337 13.3446C14.2198 14.6124 12.0604 14.4592 11.3777 14.4592V12.2022C12.0604 12.2022 14.2477 12.0211 14.2337 13.3446ZM13.774 10.1682C13.7601 11.3246 11.9629 11.1852 11.3917 11.1713V9.12334C11.9629 9.12334 13.7879 8.95616 13.774 10.1682Z" fill="white"/>
</g>
</g>
</svg>
