<svg width="64" height="40" viewBox="0 0 64 40" fill="none" xmlns="http://www.w3.org/2000/svg">

<g id="size=Coloured">
<g id="Group">
<path id="Vector" d="M10.1729 22.1604L11.8025 20.8765C11.5309 20.5555 11.284 20.2098 11.0371 19.8641C9.13583 17.2468 8.02471 14.5554 8.81484 12.1851H4V14.753L10.1729 22.1604Z" fill="#EF4823"/>
<path id="Vector_2" d="M12.7656 18.3332C12.8643 17.4937 13.1359 15.9135 14.7162 14.753C16.0989 13.7406 17.8273 13.5431 19.3582 14.1604V12.1851H10.8396C10.2717 14.5801 11.7532 17.2468 12.7656 18.3332Z" fill="#EF4823"/>
<path id="Vector_3" d="M14.815 15.9135C13.2101 17.1727 13.6051 19.148 15.0866 20.9011C16.2471 22.2592 17.778 23.2221 19.3335 22.5061V16.6789C17.9508 15.2962 16.2471 14.8023 14.815 15.9135Z" fill="#EF4823"/>
<path id="Vector_4" d="M4 17.79V26.9753L8.642 23.3456L4 17.79Z" fill="#EF4823"/>
<path id="Vector_5" d="M12.4444 21.6167C11.9999 21.9871 11.432 22.4315 10.79 22.9007L11.3826 23.6167C12.2468 24.6784 13.5308 26.4809 15.1111 25.9871L15.1604 26.0612L14.0246 26.9501H19.3086V23.4686C16.6419 24.9007 14.2962 23.592 12.4444 21.6167Z" fill="#EF4823"/>
<path id="Vector_6" d="M9.90161 24.8521L9.28433 24.1113C8.00037 25.099 6.64233 26.136 5.55591 26.9755H11.4572C11.0868 26.1854 10.3708 25.4447 9.90161 24.8521Z" fill="#EF4823"/>
<path id="Vector_7" d="M32.1484 18.3579C33.5558 18.111 34.4694 16.9505 34.4694 15.4443C34.4694 13.4443 32.6669 12.1851 29.6051 12.1851H23.5063V12.2591C24.7409 12.9258 24.7162 13.9875 24.7162 14.9752V24.1357C24.7162 25.1728 24.7409 26.2345 23.5063 26.8765V26.9506H26.4446C29.3089 26.9506 31.5064 27 33.136 26.2592C34.8891 25.4691 35.9262 24.0617 35.9262 22.3333C35.9509 20.1357 34.2472 18.8024 32.1484 18.3579ZM27.1113 13.5431L29.0372 13.5678C30.4694 13.5678 31.9262 14.2345 31.9262 15.79C31.9262 17.6419 30.6422 18.1357 28.7903 18.1357H27.1113V13.5431ZM28.9632 25.4444H27.1113V19.6172V19.5431H29.1113C31.4323 19.5431 33.3583 20.3826 33.3583 22.5555C33.3583 24.679 31.3336 25.4444 28.9632 25.4444Z" fill="#006788"/>
<path id="Vector_8" d="M40.6177 24.1604C40.6177 25.4197 40.593 26.3086 41.8276 27.0246V27.0987H37.7041V27.0246C38.9387 26.3333 38.914 25.4197 38.914 24.1604V15.1727C38.914 13.9135 38.9387 12.9258 37.7041 12.2591V12.1851H41.1362V12.2098C41.235 12.4814 41.3831 12.6295 41.4819 12.7777C41.5807 12.9258 41.8029 13.2221 41.8029 13.2221L49.6548 23.4197V15.074C49.6548 13.8147 49.6795 12.9258 48.4449 12.2344V12.1851H52.5437V12.2591C51.3338 12.9258 51.3338 13.8394 51.3338 15.0987V27.8148C50.5931 27.5185 48.4943 25.8641 47.0128 23.9382C44.3461 20.4814 40.6177 15.6666 40.6177 15.6666V24.1604Z" fill="#006788"/>
<path id="Vector_9" d="M56.3703 14.8517C56.3703 13.8147 56.3456 12.9011 55.1604 12.2344V12.1851H59.9999V12.2591C58.8148 12.9011 58.7901 13.8641 58.7901 14.8764V24.3333C58.7901 25.3456 58.7654 26.358 59.9999 27.0246V27.0987H55.1604V27.0246C56.395 26.358 56.3703 25.3456 56.3703 24.3333V14.8517Z" fill="#006788"/>
</g>
</g>
</svg>
