<svg width="64" height="40" viewBox="0 0 64 40" fill="none" xmlns="http://www.w3.org/2000/svg">

<g id="size=Coloured">
<g id="Group">
<path id="Vector" d="M22.1696 9.42383C22.3098 9.45655 22.4547 9.48927 22.5949 9.51732C24.0627 9.83518 25.1425 11.116 25.1425 12.6165C25.1519 17.5667 25.1519 22.5169 25.1378 27.4719C25.1332 29.0565 23.7589 30.4635 22.1696 30.5523C22.0387 30.5617 21.9031 30.5663 21.7722 30.5663C16.9716 30.5663 12.1709 30.5523 7.37027 30.5757C5.64073 30.585 4.51886 29.4445 4.17763 28.2946C4.10284 28.0281 4.06077 27.7523 4 27.4812C4 22.4889 4 17.4966 4 12.5043C4.0187 12.4388 4.04674 12.3734 4.05609 12.308C4.201 10.9711 5.23405 9.81181 6.53822 9.52667C6.7065 9.49394 6.87011 9.45655 7.03839 9.42383C12.0821 9.42383 17.1258 9.42383 22.1696 9.42383ZM7.51518 20.0161C7.64139 19.9133 7.7489 19.8338 7.84239 19.7403C9.09514 18.4736 10.3479 17.2068 11.596 15.94C12.2925 15.2342 12.5729 14.3974 12.4233 13.4111C12.227 12.1116 11.0678 11.0926 9.75424 11.0879C9.22603 11.0879 8.69782 11.0879 8.16493 11.0879C7.33288 11.0926 6.64574 11.5974 6.47278 12.4108C6.38397 12.8128 6.38864 13.2428 6.38397 13.6589C6.37929 17.8565 6.37929 22.0542 6.38397 26.2565C6.38397 26.5977 6.39799 26.939 6.41201 27.2802C6.44941 28.0375 7.03839 28.762 7.78163 28.8789C8.64172 29.0097 9.50649 28.9911 10.3292 28.6545C11.5352 28.1637 12.2691 27.0839 12.2317 25.8265C12.2083 25.0692 11.8718 24.4428 11.3436 23.9053C10.6891 23.2415 10.0347 22.573 9.38029 21.9093C8.77261 21.2969 8.1696 20.6846 7.51518 20.0161ZM13.4844 20.0068C13.5499 19.9367 13.6013 19.8759 13.6574 19.8245C14.9242 18.5296 16.191 17.2348 17.4624 15.94C18.1869 15.2014 18.4581 14.3226 18.2571 13.313C17.9906 11.9667 16.7799 11.0365 15.5552 11.0879C15.0644 11.1066 14.5736 11.0926 14.0828 11.0926C14.0127 11.0926 13.9379 11.102 13.8397 11.1113C13.9238 11.2609 13.994 11.3731 14.0547 11.4853C14.6437 12.5931 14.7559 13.7757 14.5596 14.9911C14.4193 15.8652 14.0875 16.6645 13.4564 17.3096C12.6477 18.1417 11.8437 18.9737 11.035 19.8058C10.9789 19.8665 10.9229 19.9273 10.8527 20.0021C10.9229 20.0769 10.9789 20.1423 11.035 20.1984C11.7736 20.9557 12.5402 21.6896 13.2507 22.4702C14.2931 23.6061 14.6624 24.9851 14.4334 26.4855C14.3258 27.2054 14.0127 27.8926 13.793 28.5937C13.7649 28.6872 13.7228 28.776 13.6761 28.9022C13.807 28.9022 13.9005 28.9022 13.9893 28.9022C15.9526 28.9022 17.9111 28.9022 19.8744 28.9022C20.3185 28.9022 20.7626 28.9209 21.202 28.8882C21.445 28.8695 21.6834 28.7667 21.9218 28.7059C21.9218 28.6779 21.9218 28.6498 21.9218 28.6171C19.1265 25.7517 16.3172 22.8909 13.4844 20.0068ZM19.7435 11.0178C19.7342 11.0459 19.7248 11.0739 19.7155 11.0973C19.7996 11.2469 19.8884 11.3871 19.9586 11.5414C20.5148 12.6772 20.6363 13.8692 20.4026 15.0986C20.225 16.0382 19.809 16.8422 19.1031 17.5153C18.3178 18.2585 17.5793 19.0485 16.822 19.8198C16.7706 19.8759 16.7192 19.932 16.6537 20.0068C18.6871 22.0729 20.7065 24.1296 22.7258 26.1864C22.7492 26.1724 22.7679 26.1583 22.7913 26.1443C22.7913 26.0462 22.7913 25.9433 22.7913 25.8451C22.7913 23.6669 22.7913 21.4932 22.7913 19.315C22.7913 17.1787 22.7959 15.0425 22.7913 12.9016C22.7913 12.0789 22.2771 11.3404 21.4964 11.1721C20.9262 11.0505 20.3278 11.0646 19.7435 11.0178Z" fill="#00549E"/>
<path id="Vector_2" d="M38.2404 18.9787C38.6004 19.348 38.965 19.6799 39.2782 20.0539C40.0822 21.0262 40.4935 22.1527 40.4889 23.4241C40.4889 24.9761 40.0448 26.3503 38.8481 27.4068C38.0021 28.1547 36.9924 28.5614 35.8845 28.7156C35.3423 28.7904 34.786 28.8231 34.2344 28.8278C32.0328 28.8418 29.8264 28.8325 27.6248 28.8325C27.3022 28.8325 27.3022 28.8325 27.3022 28.5146C27.3022 22.8165 27.3022 17.1183 27.3022 11.4155C27.3022 11.1163 27.3022 11.1163 27.3022 11.1163C29.4338 11.1163 31.8785 11.107 34.0101 11.121C34.9496 11.1257 35.8658 11.2846 36.7353 11.6539C38.6144 12.4486 39.6568 14.0799 39.5914 16.1227C39.5586 17.0856 39.1707 17.8896 38.563 18.6141C38.4601 18.745 38.3433 18.8666 38.2404 18.9787ZM30.5744 25.7754C30.6912 25.7754 30.78 25.7754 30.8735 25.7754C31.9253 25.7754 32.9723 25.7801 34.0241 25.7707C34.3747 25.766 34.7253 25.7567 35.0712 25.7146C36.3333 25.565 37.1466 24.7049 37.1887 23.4849C37.2308 22.3443 36.5576 21.4422 35.4498 21.1944C35.1273 21.1196 34.786 21.0963 34.4541 21.0963C33.2481 21.0869 32.0421 21.0916 30.8361 21.0916C30.752 21.0916 30.6678 21.1056 30.5744 21.1103C30.5744 22.6669 30.5744 24.2001 30.5744 25.7754ZM30.5697 18.0532C30.6305 18.0626 30.6678 18.0672 30.7052 18.0672C32.2712 18.0672 33.8324 18.0719 35.3984 18.0626C35.4872 18.0626 35.6041 17.9924 35.6648 17.9177C36.0996 17.4081 36.3146 16.8145 36.3099 16.1414C36.3052 15.2579 35.8144 14.5474 34.9777 14.2996C34.6318 14.1968 34.2625 14.136 33.9026 14.1314C32.8695 14.108 31.8318 14.122 30.7987 14.122C30.7239 14.122 30.6491 14.1314 30.5697 14.136C30.5697 15.4495 30.5697 16.7397 30.5697 18.0532Z" fill="#00549E"/>
<path id="Vector_3" d="M41.7086 11.1296C41.8161 11.125 41.8909 11.1203 41.9657 11.1203C44.2982 11.1203 46.6354 11.1063 48.968 11.125C50.16 11.1343 51.3146 11.3634 52.3757 11.9477C53.7967 12.7283 54.6007 13.9343 54.8531 15.5236C55.0635 16.8512 54.9139 18.1319 54.2781 19.3193C53.5536 20.6702 52.3943 21.5022 50.9453 21.951C50.8705 21.9743 50.8004 21.9977 50.6882 22.0351C52.2775 24.2975 53.8528 26.5366 55.4561 28.8177C55.3439 28.8271 55.2738 28.8364 55.199 28.8364C54.0725 28.8364 52.9413 28.8318 51.8147 28.8411C51.6371 28.8411 51.5342 28.7803 51.4361 28.6401C49.9964 26.5833 48.5473 24.5313 47.1076 22.4792C46.986 22.3062 46.8645 22.2361 46.6495 22.2408C46.1914 22.2595 45.7333 22.2548 45.2705 22.2408C45.0695 22.2361 45.0227 22.3062 45.0227 22.4932C45.0274 24.4985 45.0274 26.5039 45.0274 28.5092C45.0274 28.8364 45.0274 28.8364 44.6955 28.8364C43.784 28.8364 42.8725 28.8318 41.9657 28.8411C41.7693 28.8411 41.6992 28.7944 41.6992 28.584C41.7039 22.8485 41.7039 17.1082 41.7039 11.3727C41.7086 11.2979 41.7086 11.2278 41.7086 11.1296ZM45.0321 14.1353C45.0321 14.2381 45.0321 14.3129 45.0321 14.3924C45.0321 15.9069 45.0368 17.4214 45.0274 18.9406C45.0274 19.1557 45.0882 19.2211 45.3032 19.2211C46.3924 19.2117 47.4815 19.2398 48.5707 19.2071C49.0241 19.193 49.4915 19.137 49.9169 18.992C51.7633 18.361 51.983 16.0425 51.0014 15.0094C50.4358 14.4158 49.7346 14.1446 48.9353 14.1306C47.7059 14.1119 46.4765 14.1259 45.2471 14.1259C45.191 14.1213 45.1303 14.1306 45.0321 14.1353Z" fill="#00549E"/>
<path id="Vector_4" d="M56.6205 11.1299C57.7516 11.1299 58.8501 11.1299 59.9813 11.1299C59.986 11.2187 59.9953 11.3028 59.9953 11.387C59.9953 17.1085 59.9953 22.83 60 28.5515C60 28.7712 59.9439 28.846 59.7149 28.8414C58.766 28.8273 57.8171 28.832 56.8682 28.8414C56.6625 28.8414 56.6064 28.7806 56.6111 28.5749C56.6158 22.8394 56.6158 17.0991 56.6158 11.3636C56.6111 11.2935 56.6158 11.2234 56.6205 11.1299Z" fill="#00549E"/>
</g>
</g>
</svg>
