<svg width="64" height="40" viewBox="0 0 64 40" fill="none" xmlns="http://www.w3.org/2000/svg">

<g id="size=Coloured">
<g id="Bank_Syariah_Indonesia 2" clip-path="url(#clip0_964_20528)">
<g id="layer1">
<g id="text1001">
<path id="path1048" d="M30.5208 23.0562C30.6403 23.0562 30.7433 23.0427 30.8298 23.0156C30.9162 22.9885 30.9868 22.9507 31.0415 22.9022C31.0977 22.8523 31.1388 22.7938 31.1647 22.7268C31.1906 22.6583 31.2036 22.5835 31.2036 22.5022C31.2036 22.3439 31.1467 22.2191 31.0329 22.1278C30.9191 22.0352 30.7484 21.9888 30.5208 21.9888H29.8509V23.0562L30.5208 23.0562ZM29.8509 20.6476V21.6936H30.4041C30.5222 21.6936 30.6245 21.6808 30.7109 21.6551C30.7988 21.6295 30.8708 21.5938 30.927 21.5482C30.9846 21.5025 31.0271 21.4476 31.0545 21.3834C31.0819 21.3178 31.0956 21.2465 31.0956 21.1695C31.0956 20.9884 31.0408 20.8565 30.9313 20.7738C30.8219 20.6897 30.6519 20.6476 30.4214 20.6476L29.8509 20.6476ZM30.4214 20.3203C30.6115 20.3203 30.775 20.3388 30.9119 20.3759C31.0502 20.413 31.1633 20.4658 31.2512 20.5342C31.3405 20.6027 31.406 20.6868 31.4478 20.7866C31.4896 20.885 31.5105 20.9963 31.5105 21.1203C31.5105 21.1959 31.4982 21.2686 31.4737 21.3385C31.4507 21.407 31.4154 21.4711 31.3678 21.531C31.3203 21.5909 31.2598 21.6451 31.1863 21.6936C31.1143 21.7407 31.0293 21.7792 30.9313 21.8091C31.159 21.8519 31.3297 21.9325 31.4435 22.0508C31.5587 22.1678 31.6163 22.3218 31.6163 22.5129C31.6163 22.6426 31.5919 22.761 31.5429 22.868C31.4953 22.9749 31.4247 23.0669 31.3311 23.1439C31.2389 23.2209 31.1251 23.2808 30.9897 23.3236C30.8543 23.3649 30.7001 23.3856 30.5273 23.3856H29.4338V20.3203H30.4214Z" fill="#00A39D"/>
<path id="path1050" d="M33.8897 22.2476L33.4035 21.0005C33.3891 20.9635 33.374 20.9207 33.3581 20.8722C33.3423 20.8223 33.3272 20.7695 33.3128 20.7139C33.2825 20.8294 33.2515 20.9257 33.2198 21.0027L32.7336 22.2476H33.8897ZM34.7627 23.3856H34.4386C34.4011 23.3856 34.3709 23.3764 34.3478 23.3578C34.3248 23.3393 34.3075 23.3158 34.296 23.2872L34.0064 22.5471H32.6169L32.3274 23.2872C32.3187 23.3129 32.3022 23.3357 32.2777 23.3557C32.2532 23.3756 32.2229 23.3856 32.1869 23.3856H31.8628L33.101 20.3203H33.5245L34.7627 23.3856Z" fill="#00A39D"/>
<path id="path1052" d="M37.7403 20.3203V23.3856H37.5306C37.4975 23.3856 37.4694 23.3799 37.4464 23.3685C37.4248 23.3571 37.4032 23.3379 37.3815 23.3108L35.5902 21.0006C35.593 21.0362 35.5952 21.0712 35.5966 21.1054C35.5981 21.1396 35.5988 21.1717 35.5988 21.2016V23.3856H35.2314V20.3203H35.4475C35.4663 20.3203 35.4821 20.3218 35.4951 20.3246C35.508 20.326 35.5196 20.3295 35.5297 20.3353C35.5397 20.3396 35.5498 20.3467 35.5599 20.3567C35.57 20.3652 35.5808 20.3766 35.5923 20.3909L37.3837 22.699C37.3808 22.6619 37.3779 22.6263 37.3751 22.592C37.3736 22.5564 37.3729 22.5229 37.3729 22.4915V20.3203L37.7403 20.3203Z" fill="#00A39D"/>
<path id="path1054" d="M39.0089 21.6637H39.1666C39.2213 21.6637 39.2653 21.6572 39.2984 21.6444C39.3315 21.6302 39.3618 21.6066 39.3892 21.5738L40.4199 20.4187C40.4487 20.3816 40.479 20.356 40.5107 20.3417C40.5424 20.3274 40.5813 20.3203 40.6274 20.3203H40.9818L39.8019 21.6401C39.7731 21.6744 39.745 21.7029 39.7176 21.7257C39.6917 21.7471 39.6636 21.7649 39.6334 21.7792C39.6723 21.792 39.7075 21.8113 39.7392 21.8369C39.7709 21.8612 39.8019 21.8932 39.8322 21.9332L41.0639 23.3856H40.7008C40.6735 23.3856 40.6497 23.3842 40.6295 23.3813C40.6108 23.3771 40.5942 23.3714 40.5798 23.3642C40.5654 23.3557 40.5525 23.3464 40.5409 23.3364C40.5309 23.325 40.5208 23.3122 40.5107 23.298L39.4432 22.0808C39.4144 22.0452 39.3834 22.0202 39.3503 22.0059C39.3171 21.9903 39.2667 21.9824 39.199 21.9824H39.0089V23.3857H38.5918V20.3204H39.0089V21.6637Z" fill="#00A39D"/>
<path id="path1056" d="M44.2665 20.7995C44.2535 20.8209 44.2391 20.8373 44.2232 20.8487C44.2088 20.8587 44.1908 20.8637 44.1692 20.8637C44.1447 20.8637 44.1159 20.8515 44.0828 20.8273C44.0496 20.8031 44.0079 20.7767 43.9574 20.7482C43.9085 20.7182 43.8487 20.6911 43.7781 20.6669C43.7089 20.6426 43.6247 20.6305 43.5253 20.6305C43.4316 20.6305 43.3488 20.6434 43.2768 20.669C43.2062 20.6932 43.1464 20.7268 43.0974 20.7695C43.0499 20.8123 43.0139 20.863 42.9894 20.9214C42.9649 20.9785 42.9526 21.0405 42.9526 21.1075C42.9526 21.1931 42.9735 21.2644 43.0153 21.3214C43.0585 21.3771 43.1147 21.4248 43.1838 21.4648C43.2544 21.5047 43.3337 21.5396 43.4215 21.5696C43.5109 21.5981 43.6016 21.628 43.6938 21.6594C43.7875 21.6908 43.8782 21.7264 43.9661 21.7664C44.0554 21.8049 44.1346 21.8541 44.2038 21.914C44.2744 21.9739 44.3306 22.0473 44.3723 22.1343C44.4156 22.2213 44.4372 22.3282 44.4372 22.4552C44.4372 22.5892 44.4141 22.7154 44.368 22.8338C44.3219 22.9507 44.2542 23.0527 44.1649 23.1397C44.077 23.2267 43.9682 23.2951 43.8386 23.345C43.7104 23.3949 43.5642 23.4199 43.3999 23.4199C43.1982 23.4199 43.0153 23.3842 42.8511 23.3129C42.6868 23.2402 42.5464 23.1425 42.4297 23.0199L42.5507 22.8231C42.5622 22.8074 42.5759 22.7946 42.5918 22.7846C42.609 22.7732 42.6278 22.7675 42.6479 22.7675C42.6667 22.7675 42.6876 22.7753 42.7106 22.791C42.7351 22.8053 42.7625 22.8238 42.7927 22.8466C42.823 22.8694 42.8575 22.8944 42.8964 22.9215C42.9353 22.9486 42.9793 22.9735 43.0283 22.9963C43.0787 23.0192 43.1356 23.0384 43.199 23.0541C43.2624 23.0684 43.3337 23.0755 43.4129 23.0755C43.5123 23.0755 43.6009 23.0619 43.6787 23.0349C43.7565 23.0078 43.822 22.97 43.8753 22.9215C43.9301 22.8716 43.9718 22.8124 44.0007 22.7439C44.0295 22.6755 44.0439 22.5992 44.0439 22.5151C44.0439 22.4224 44.0223 22.3468 43.9791 22.2883C43.9373 22.2284 43.8818 22.1785 43.8127 22.1386C43.7435 22.0986 43.6643 22.0651 43.575 22.038C43.4856 22.0095 43.3949 21.981 43.3027 21.9525C43.2105 21.9225 43.1197 21.8883 43.0304 21.8498C42.9411 21.8113 42.8619 21.7614 42.7927 21.7001C42.7236 21.6387 42.6674 21.5625 42.6242 21.4712C42.5824 21.3785 42.5615 21.2644 42.5615 21.1289C42.5615 21.0205 42.5824 20.9157 42.6242 20.8145C42.6674 20.7132 42.7293 20.6234 42.81 20.545C42.8921 20.4665 42.9922 20.4038 43.1104 20.3567C43.2299 20.3097 43.3668 20.2861 43.5209 20.2861C43.6938 20.2861 43.8508 20.3132 43.992 20.3674C44.1346 20.4216 44.26 20.5 44.368 20.6027L44.2665 20.7995Z" fill="#00A39D"/>
<path id="path1058" d="M46.1875 22.1642V23.3856H45.7683V22.1642L44.6338 20.3203H45.0011C45.0386 20.3203 45.0681 20.3296 45.0897 20.3481C45.1113 20.3652 45.1301 20.388 45.1459 20.4166L45.8547 21.608C45.8806 21.6579 45.9044 21.705 45.926 21.7492C45.9476 21.792 45.9663 21.8355 45.9822 21.8797C45.998 21.8355 46.016 21.792 46.0362 21.7492C46.0564 21.705 46.0787 21.6579 46.1032 21.608L46.8098 20.4166C46.8228 20.3923 46.8408 20.3702 46.8638 20.3502C46.8869 20.3303 46.9164 20.3203 46.9524 20.3203H47.3219L46.1875 22.1642Z" fill="#00A39D"/>
<path id="path1060" d="M49.1241 22.2476L48.6379 21.0005C48.6235 20.9635 48.6084 20.9207 48.5925 20.8722C48.5767 20.8223 48.5616 20.7695 48.5471 20.7139C48.5169 20.8294 48.4859 20.9257 48.4542 21.0027L47.968 22.2476H49.1241ZM49.9971 23.3856H49.673C49.6355 23.3856 49.6053 23.3764 49.5822 23.3578C49.5592 23.3393 49.5419 23.3158 49.5304 23.2872L49.2408 22.5471H47.8513L47.5618 23.2872C47.5531 23.3129 47.5366 23.3357 47.5121 23.3557C47.4876 23.3756 47.4573 23.3856 47.4213 23.3856H47.0972L48.3354 20.3203H48.7589L49.9971 23.3856Z" fill="#00A39D"/>
<path id="path1062" d="M51.3237 21.8048C51.4447 21.8048 51.5513 21.7906 51.6435 21.762C51.7372 21.7321 51.815 21.6907 51.8769 21.638C51.9403 21.5838 51.9878 21.5196 52.0195 21.4455C52.0512 21.3713 52.0671 21.2893 52.0671 21.1995C52.0671 21.0169 52.0066 20.8793 51.8855 20.7866C51.7645 20.6939 51.583 20.6476 51.341 20.6476H50.8829V21.8048H51.3237ZM52.7542 23.3856H52.3826C52.3062 23.3856 52.25 23.3564 52.214 23.2979L51.4101 22.2027C51.3857 22.1685 51.359 22.1442 51.3302 22.13C51.3028 22.1143 51.2596 22.1065 51.2005 22.1065H50.8829V23.3856H50.4658V20.3203H51.341C51.5369 20.3203 51.7062 20.3403 51.8488 20.3802C51.9914 20.4187 52.1088 20.475 52.201 20.5492C52.2947 20.6233 52.3638 20.7132 52.4085 20.8187C52.4531 20.9228 52.4755 21.0398 52.4755 21.1695C52.4755 21.2779 52.4582 21.3792 52.4236 21.4733C52.389 21.5674 52.3386 21.6523 52.2723 21.7278C52.2075 21.802 52.1276 21.8654 52.0325 21.9182C51.9388 21.971 51.8322 22.0109 51.7127 22.038C51.766 22.0679 51.8121 22.1114 51.851 22.1685L52.7542 23.3856Z" fill="#00A39D"/>
<path id="path1064" d="M53.6533 23.3856H53.2341V20.3203H53.6533V23.3856Z" fill="#00A39D"/>
<path id="path1066" d="M56.1492 22.2476L55.663 21.0005C55.6486 20.9635 55.6335 20.9207 55.6177 20.8722C55.6018 20.8223 55.5867 20.7695 55.5723 20.7139C55.542 20.8294 55.5111 20.9257 55.4794 21.0027L54.9932 22.2476H56.1492ZM57.0222 23.3856H56.6981C56.6606 23.3856 56.6304 23.3764 56.6073 23.3578C56.5843 23.3393 56.567 23.3158 56.5555 23.2872L56.2659 22.5471H54.8765L54.5869 23.2872C54.5783 23.3129 54.5617 23.3357 54.5372 23.3557C54.5127 23.3756 54.4825 23.3856 54.4464 23.3856H54.1223L55.3605 20.3203H55.784L57.0222 23.3856Z" fill="#00A39D"/>
<path id="path1068" d="M59.9998 20.3203V23.3856H59.5806V21.9909H57.9102V23.3856H57.491V20.3203H57.9102V21.6872H59.5806V20.3203H59.9998Z" fill="#00A39D"/>
<path id="path1070" d="M29.853 27.664H29.4338V24.5986H29.853V27.664Z" fill="#00A39D"/>
<path id="path1072" d="M33.2132 24.5987V27.664H33.0035C32.9704 27.664 32.9423 27.6583 32.9193 27.6469C32.8977 27.6354 32.8761 27.6162 32.8544 27.5891L31.0631 25.2789C31.0659 25.3145 31.0681 25.3495 31.0695 25.3837C31.071 25.4179 31.0717 25.45 31.0717 25.48V27.664H30.7043V24.5987H30.9204C30.9392 24.5987 30.955 24.6001 30.968 24.6029C30.9809 24.6043 30.9925 24.6079 31.0026 24.6136C31.0126 24.6179 31.0227 24.625 31.0328 24.635C31.0429 24.6436 31.0537 24.655 31.0652 24.6692L32.8566 26.9773C32.8537 26.9402 32.8509 26.9046 32.848 26.8703C32.8465 26.8347 32.8458 26.8012 32.8458 26.7698V24.5986L33.2132 24.5987Z" fill="#00A39D"/>
<path id="path1074" d="M36.7486 26.1324C36.7486 26.362 36.7118 26.5709 36.6384 26.7591C36.5649 26.9474 36.4612 27.1085 36.3272 27.2425C36.1932 27.3766 36.0319 27.4807 35.8431 27.5549C35.6559 27.6276 35.4484 27.664 35.2208 27.664H34.0647V24.5986H35.2208C35.4484 24.5986 35.6559 24.6357 35.8431 24.7099C36.0319 24.7826 36.1932 24.8867 36.3272 25.0222C36.4612 25.1562 36.5649 25.3174 36.6384 25.5056C36.7118 25.6939 36.7486 25.9028 36.7486 26.1324ZM36.3185 26.1324C36.3185 25.9441 36.2926 25.7758 36.2407 25.6275C36.1889 25.4792 36.1154 25.3537 36.0203 25.2511C35.9253 25.1484 35.81 25.0699 35.6746 25.0158C35.5392 24.9616 35.3879 24.9345 35.2208 24.9345H34.4839V27.3281H35.2208C35.3879 27.3281 35.5392 27.301 35.6746 27.2468C35.81 27.1926 35.9253 27.1149 36.0203 27.0137C36.1154 26.911 36.1889 26.7855 36.2407 26.6372C36.2926 26.4889 36.3185 26.3206 36.3185 26.1324Z" fill="#00A39D"/>
<path id="path1076" d="M40.2729 26.1319C40.2729 26.3615 40.2361 26.5726 40.1626 26.7651C40.0892 26.9562 39.9854 27.1209 39.8515 27.2592C39.7175 27.3975 39.5561 27.5052 39.3674 27.5822C39.1801 27.6578 38.9727 27.6956 38.7451 27.6956C38.5175 27.6956 38.31 27.6578 38.1227 27.5822C37.9355 27.5052 37.7748 27.3975 37.6409 27.2592C37.5069 27.1209 37.4032 26.9562 37.3297 26.7651C37.2562 26.5726 37.2195 26.3615 37.2195 26.1319C37.2195 25.9023 37.2562 25.692 37.3297 25.5009C37.4032 25.3084 37.5069 25.1429 37.6409 25.0046C37.7748 24.8649 37.9355 24.7565 38.1227 24.6795C38.31 24.6025 38.5175 24.564 38.7451 24.564C38.9727 24.564 39.1801 24.6025 39.3674 24.6795C39.5561 24.7565 39.7175 24.8649 39.8515 25.0046C39.9854 25.1429 40.0892 25.3084 40.1626 25.5009C40.2361 25.692 40.2729 25.9023 40.2729 26.1319ZM39.8428 26.1319C39.8428 25.9437 39.8169 25.7747 39.765 25.625C39.7132 25.4752 39.6397 25.349 39.5446 25.2463C39.4495 25.1422 39.3343 25.0624 39.1989 25.0068C39.0635 24.9511 38.9122 24.9233 38.7451 24.9233C38.5794 24.9233 38.4289 24.9511 38.2935 25.0068C38.158 25.0624 38.0421 25.1422 37.9455 25.2463C37.8505 25.349 37.777 25.4752 37.7251 25.625C37.6733 25.7747 37.6473 25.9437 37.6473 26.1319C37.6473 26.3202 37.6733 26.4891 37.7251 26.6389C37.777 26.7872 37.8505 26.9134 37.9455 27.0175C38.0421 27.1202 38.158 27.1993 38.2935 27.2549C38.4289 27.3091 38.5794 27.3362 38.7451 27.3362C38.9122 27.3362 39.0635 27.3091 39.1989 27.2549C39.3343 27.1993 39.4495 27.1202 39.5446 27.0175C39.6397 26.9134 39.7132 26.7872 39.765 26.6389C39.8169 26.4891 39.8428 26.3202 39.8428 26.1319Z" fill="#00A39D"/>
<path id="path1078" d="M43.4409 24.5987V27.664H43.2313C43.1982 27.664 43.1701 27.6583 43.1471 27.6469C43.1254 27.6354 43.1038 27.6162 43.0822 27.5891L41.2908 25.2789C41.2937 25.3145 41.2959 25.3495 41.2973 25.3837C41.2988 25.4179 41.2995 25.45 41.2995 25.48V27.664H40.9321V24.5987H41.1482C41.1669 24.5987 41.1828 24.6001 41.1958 24.6029C41.2087 24.6043 41.2203 24.6079 41.2303 24.6136C41.2404 24.6179 41.2505 24.625 41.2606 24.635C41.2707 24.6436 41.2815 24.655 41.293 24.6692L43.0844 26.9773C43.0815 26.9402 43.0786 26.9046 43.0757 26.8703C43.0743 26.8347 43.0736 26.8012 43.0736 26.7698V24.5986L43.4409 24.5987Z" fill="#00A39D"/>
<path id="path1080" d="M46.2025 27.326L46.2003 27.664H44.2922V24.5986H46.2003V24.9366H44.7115V25.9548H45.9172V26.28H44.7115V27.326H46.2025Z" fill="#00A39D"/>
<path id="path1082" d="M48.4325 25.0773C48.4195 25.0987 48.4051 25.1151 48.3893 25.1265C48.3749 25.1365 48.3568 25.1415 48.3352 25.1415C48.3107 25.1415 48.2819 25.1294 48.2488 25.1051C48.2157 25.0809 48.1739 25.0545 48.1235 25.026C48.0745 24.9961 48.0147 24.969 47.9441 24.9447C47.875 24.9205 47.7907 24.9084 47.6913 24.9084C47.5976 24.9084 47.5148 24.9212 47.4428 24.9469C47.3722 24.9711 47.3124 25.0046 47.2634 25.0474C47.2159 25.0902 47.1799 25.1408 47.1554 25.1993C47.1309 25.2563 47.1186 25.3183 47.1186 25.3854C47.1186 25.4709 47.1395 25.5422 47.1813 25.5993C47.2245 25.6549 47.2807 25.7027 47.3499 25.7426C47.4204 25.7825 47.4997 25.8175 47.5876 25.8474C47.6769 25.8759 47.7676 25.9059 47.8598 25.9372C47.9535 25.9686 48.0442 26.0043 48.1321 26.0442C48.2214 26.0827 48.3007 26.1319 48.3698 26.1918C48.4404 26.2517 48.4966 26.3251 48.5384 26.4121C48.5816 26.4991 48.6032 26.6061 48.6032 26.733C48.6032 26.867 48.5801 26.9932 48.534 27.1116C48.4879 27.2285 48.4202 27.3305 48.3309 27.4175C48.243 27.5045 48.1343 27.5729 48.0046 27.6229C47.8764 27.6728 47.7302 27.6977 47.5659 27.6977C47.3643 27.6977 47.1813 27.6621 47.0171 27.5908C46.8529 27.518 46.7124 27.4204 46.5957 27.2977L46.7167 27.1009C46.7282 27.0852 46.7419 27.0724 46.7578 27.0624C46.7751 27.051 46.7938 27.0453 46.814 27.0453C46.8327 27.0453 46.8536 27.0532 46.8766 27.0688C46.9011 27.0831 46.9285 27.1016 46.9587 27.1245C46.989 27.1473 47.0236 27.1722 47.0625 27.1993C47.1014 27.2264 47.1453 27.2514 47.1943 27.2742C47.2447 27.297 47.3016 27.3162 47.365 27.3319C47.4284 27.3462 47.4997 27.3533 47.5789 27.3533C47.6783 27.3533 47.7669 27.3398 47.8447 27.3127C47.9225 27.2856 47.988 27.2478 48.0413 27.1993C48.0961 27.1494 48.1379 27.0902 48.1667 27.0218C48.1955 26.9533 48.2099 26.877 48.2099 26.7929C48.2099 26.7002 48.1883 26.6246 48.1451 26.5662C48.1033 26.5063 48.0478 26.4563 47.9787 26.4164C47.9095 26.3765 47.8303 26.343 47.741 26.3159C47.6517 26.2874 47.5609 26.2588 47.4687 26.2303C47.3765 26.2004 47.2857 26.1661 47.1964 26.1276C47.1071 26.0891 47.0279 26.0392 46.9587 25.9779C46.8896 25.9166 46.8334 25.8403 46.7902 25.749C46.7484 25.6563 46.7275 25.5422 46.7275 25.4068C46.7275 25.2984 46.7484 25.1936 46.7902 25.0923C46.8334 24.9911 46.8953 24.9012 46.976 24.8228C47.0581 24.7444 47.1583 24.6816 47.2764 24.6346C47.396 24.5875 47.5328 24.564 47.687 24.564C47.8598 24.564 48.0169 24.5911 48.158 24.6452C48.3007 24.6994 48.426 24.7779 48.534 24.8806L48.4325 25.0773Z" fill="#00A39D"/>
<path id="path1084" d="M49.6729 27.664H49.2537V24.5986H49.6729V27.664Z" fill="#00A39D"/>
<path id="path1086" d="M52.1688 26.526L51.6826 25.2789C51.6682 25.2418 51.653 25.199 51.6372 25.1505C51.6213 25.1006 51.6062 25.0478 51.5918 24.9922C51.5616 25.1077 51.5306 25.204 51.4989 25.281L51.0127 26.526H52.1688ZM53.0418 27.664H52.7176C52.6802 27.664 52.6499 27.6547 52.6269 27.6361C52.6038 27.6176 52.5865 27.5941 52.575 27.5656L52.2855 26.8254H50.896L50.6064 27.5656C50.5978 27.5912 50.5812 27.614 50.5567 27.634C50.5323 27.654 50.502 27.664 50.466 27.664H50.1418L51.38 24.5986H51.8036L53.0418 27.664Z" fill="#00A39D"/>
</g>
<path id="path851" d="M8.35975 25.7172C8.69783 25.7172 8.97284 25.6739 9.18477 25.5871C9.40175 25.5004 9.57079 25.3882 9.6919 25.2505C9.813 25.1127 9.89626 24.9571 9.94168 24.7837C9.98709 24.6102 10.0098 24.4342 10.0098 24.2557C10.0098 24.0517 9.98204 23.868 9.92654 23.7048C9.87608 23.5415 9.78525 23.4038 9.65405 23.2915C9.5279 23.1793 9.35886 23.0926 9.14693 23.0314C8.935 22.9702 8.66756 22.9396 8.34461 22.9396H6.55833V25.7172H8.35975ZM6.55833 18.4555V21.2102H7.89047C8.17305 21.2102 8.42787 21.1898 8.65494 21.149C8.88201 21.1082 9.07376 21.0368 9.23019 20.9347C9.39166 20.8327 9.51276 20.6924 9.5935 20.5139C9.67928 20.3353 9.72217 20.1109 9.72217 19.8405C9.72217 19.5752 9.68937 19.3559 9.62378 19.1824C9.55818 19.0039 9.45726 18.861 9.32102 18.7539C9.18477 18.6468 9.01069 18.5703 8.79875 18.5244C8.59187 18.4784 8.34461 18.4555 8.05699 18.4555H6.55833ZM8.05699 16.5195C8.81894 16.5195 9.46735 16.5909 10.0022 16.7338C10.5371 16.8766 10.9736 17.0781 11.3117 17.3383C11.6497 17.5985 11.8945 17.9147 12.0459 18.2871C12.2023 18.6595 12.2805 19.0753 12.2805 19.5344C12.2805 19.7844 12.2452 20.0267 12.1745 20.2614C12.1039 20.4909 11.9929 20.7077 11.8415 20.9118C11.6901 21.1107 11.4958 21.2944 11.2587 21.4627C11.0215 21.6311 10.7364 21.7765 10.4034 21.8989C11.13 22.0774 11.6674 22.3657 12.0156 22.7636C12.3638 23.1615 12.5378 23.6767 12.5378 24.3093C12.5378 24.7837 12.447 25.225 12.2654 25.6331C12.0837 26.0412 11.8163 26.3983 11.463 26.7043C11.1149 27.0053 10.6834 27.2425 10.1687 27.416C9.65405 27.5843 9.06619 27.6685 8.40517 27.6685H4V16.5195H8.05699Z" fill="#00A39D"/>
<path id="path853" d="M20.3966 18.7939C20.3209 18.9162 20.2402 19.0079 20.1544 19.069C20.0736 19.1302 19.9677 19.1608 19.8365 19.1608C19.7204 19.1608 19.5943 19.1251 19.458 19.0537C19.3268 18.9773 19.1755 18.8932 19.0039 18.8015C18.8374 18.7098 18.6456 18.6283 18.4286 18.5569C18.2117 18.4805 17.9644 18.4423 17.6869 18.4423C17.2075 18.4423 16.8492 18.5467 16.6121 18.7557C16.38 18.9595 16.2639 19.2372 16.2639 19.5888C16.2639 19.813 16.3346 19.999 16.4758 20.1467C16.6171 20.2945 16.8013 20.4219 17.0284 20.5289C17.2605 20.6359 17.5229 20.7353 17.8156 20.827C18.1133 20.9136 18.416 21.013 18.7238 21.1251C19.0316 21.2321 19.3319 21.3595 19.6246 21.5072C19.9223 21.655 20.1847 21.8436 20.4117 22.0728C20.6438 22.3021 20.8305 22.5824 20.9718 22.9136C21.1131 23.2397 21.1838 23.6346 21.1838 24.0983C21.1838 24.613 21.0955 25.0945 20.9189 25.5429C20.7422 25.9913 20.4849 26.3836 20.1468 26.7199C19.8138 27.0512 19.4 27.3136 18.9055 27.5072C18.416 27.6957 17.8585 27.79 17.2327 27.79C16.8896 27.79 16.5389 27.7543 16.1807 27.683C15.8274 27.6117 15.4843 27.5123 15.1513 27.3849C14.8182 27.2524 14.5054 27.097 14.2127 26.9187C13.92 26.7403 13.6652 26.5416 13.4482 26.3225L14.2051 25.1149C14.2657 25.0282 14.3439 24.9569 14.4398 24.9008C14.5407 24.8397 14.6492 24.8091 14.7653 24.8091C14.9166 24.8091 15.068 24.8575 15.2194 24.9544C15.3758 25.0512 15.5499 25.1582 15.7417 25.2754C15.9384 25.3926 16.163 25.4996 16.4153 25.5964C16.6676 25.6932 16.9653 25.7416 17.3084 25.7416C17.7727 25.7416 18.1335 25.6397 18.3908 25.4359C18.6482 25.227 18.7768 24.8983 18.7768 24.4499C18.7768 24.19 18.7062 23.9786 18.5649 23.8155C18.4236 23.6524 18.2369 23.5174 18.0048 23.4104C17.7777 23.3034 17.5178 23.2091 17.2252 23.1276C16.9325 23.0461 16.6323 22.9569 16.3245 22.8601C16.0167 22.7582 15.7164 22.6359 15.4238 22.4932C15.1311 22.3455 14.8687 22.1544 14.6366 21.92C14.4095 21.6805 14.2253 21.3849 14.084 21.0334C13.9428 20.6767 13.8721 20.2385 13.8721 19.7187C13.8721 19.3009 13.9554 18.8932 14.1219 18.4958C14.2884 18.0983 14.5331 17.7442 14.8561 17.4334C15.179 17.1226 15.5751 16.8754 16.0444 16.692C16.5137 16.5034 17.0511 16.4092 17.6566 16.4092C17.9947 16.4092 18.3227 16.4372 18.6406 16.4933C18.9635 16.5442 19.2688 16.6232 19.5564 16.7302C19.8441 16.8321 20.1115 16.9569 20.3587 17.1047C20.611 17.2474 20.8356 17.4105 21.0324 17.5939L20.3966 18.7939Z" fill="#00A39D"/>
<path id="path915" fill-rule="evenodd" clip-rule="evenodd" d="M29.5406 16.0585C27.5762 15.8672 26.8856 16.9488 26.5002 17.4837C26.0088 15.345 25.1777 15.5136 24.2886 14.9748C25.5736 14.2289 25.9331 13.0693 25.8977 12.2104C27.1564 13.1333 28.0341 13.0343 29.121 12.735C28.5802 14.349 28.9217 14.8045 29.5406 16.0585Z" fill="#F8AD3C"/>
<path id="path855" d="M25.4321 27.6733H22.7717V16.272C24.4365 16.4975 25.4348 17.8744 25.4321 19.3318V27.6733Z" fill="#00A39D"/>
</g>
</g>
</g>
<defs>
<clipPath id="clip0_964_20528">
<rect width="56" height="15.5793" fill="white" transform="translate(4 12.2104)"/>
</clipPath>
</defs>
</svg>
