<svg width="64" height="40" viewBox="0 0 64 40" fill="none" xmlns="http://www.w3.org/2000/svg">

<g id="size=Coloured">
<g id="BSS_2">
<path id="Vector" fill-rule="evenodd" clip-rule="evenodd" d="M38.0042 18.4871C38.0399 18.4665 38.0809 18.4564 38.1222 18.4579C38.1845 18.4565 38.246 18.4727 38.2993 18.5046C38.3234 18.5213 38.3439 18.5425 38.3596 18.567C38.3753 18.5916 38.3859 18.619 38.3908 18.6476V18.6856C38.3932 18.7251 38.3817 18.7643 38.3583 18.7965C38.3318 18.8262 38.2949 18.845 38.255 18.849H38.2196C38.201 18.8521 38.1821 18.8521 38.1635 18.849V18.8694C38.158 18.9062 38.158 18.9436 38.1635 18.9803C38.1741 19.0377 38.1984 19.0918 38.2344 19.1379C38.2778 19.1925 38.3308 19.239 38.3908 19.2751C38.4567 19.3214 38.5308 19.3551 38.6092 19.3743C38.6987 19.3982 38.7909 19.4109 38.8836 19.4123C38.9593 19.4109 39.0345 19.4011 39.1079 19.3831C39.1668 19.3668 39.2226 19.3412 39.2732 19.3072C39.3232 19.2751 39.368 19.2358 39.406 19.1905C39.4424 19.1478 39.4713 19.0995 39.4916 19.0475C39.5385 18.9289 39.5664 18.8039 39.5742 18.6768C39.5828 18.543 39.5739 18.4086 39.5477 18.277C39.5121 18.0845 39.4972 17.8889 39.5034 17.6933C39.5106 17.5327 39.5466 17.3746 39.6097 17.2263C39.6665 17.1048 39.7591 17.0031 39.8753 16.9345C40.0024 16.8617 40.1475 16.8253 40.2943 16.8294C40.3649 16.8291 40.4352 16.837 40.5039 16.8528C40.5672 16.8697 40.6278 16.8952 40.6839 16.9286C40.7344 16.9636 40.7791 17.0059 40.8167 17.0541C40.8498 17.1031 40.8737 17.1574 40.8875 17.2147C40.8976 17.2579 40.8976 17.3028 40.8875 17.346C40.8739 17.3866 40.8482 17.4222 40.8138 17.4481C40.7832 17.4745 40.7468 17.4935 40.7075 17.5036C40.6655 17.5168 40.6217 17.5236 40.5777 17.524H40.4655L40.5216 17.4277C40.5398 17.3985 40.5509 17.3656 40.5541 17.3314C40.5613 17.2899 40.5613 17.2474 40.5541 17.2059C40.5495 17.1716 40.5374 17.1388 40.5186 17.1096C40.5059 17.0854 40.4877 17.0644 40.4655 17.0483C40.4427 17.0314 40.4166 17.0194 40.3888 17.0133C40.3565 17.0086 40.3237 17.0086 40.2914 17.0133C40.2332 17.0143 40.1754 17.0242 40.1202 17.0425C40.0773 17.0558 40.0387 17.08 40.0081 17.1125C39.9748 17.1498 39.9479 17.1922 39.9284 17.238C39.9057 17.2882 39.8898 17.3412 39.8812 17.3956C39.8812 17.4598 39.8812 17.5269 39.8635 17.5941C39.8458 17.6612 39.8635 17.7371 39.8635 17.8129C39.8635 17.9676 39.8871 18.1223 39.9048 18.277C39.9295 18.49 39.9216 18.7055 39.8812 18.9161C39.851 19.0756 39.774 19.2228 39.6598 19.3393C39.5568 19.4345 39.4353 19.5079 39.3027 19.5553C39.1625 19.6037 39.0144 19.6265 38.8659 19.6224C38.7466 19.6227 38.628 19.604 38.5147 19.567C38.4078 19.5334 38.3078 19.481 38.2196 19.4123C38.1317 19.3465 38.0567 19.2654 37.9983 19.173C37.9404 19.0837 37.8994 18.9848 37.8773 18.8811C37.87 18.8347 37.87 18.7874 37.8773 18.741C37.8805 18.6987 37.8937 18.6578 37.9156 18.6214C37.9325 18.5863 37.9605 18.5576 37.9953 18.5396L38.0042 18.4871ZM41.5103 18.1953C41.4696 18.1679 41.4248 18.1472 41.3775 18.134C41.3265 18.1199 41.2739 18.112 41.221 18.1106C41.1588 18.1125 41.0972 18.1233 41.0381 18.1427C40.977 18.1644 40.9186 18.1928 40.8639 18.2274C40.8046 18.2623 40.7492 18.3034 40.6987 18.3499C40.6451 18.3972 40.5957 18.449 40.5511 18.5046C40.508 18.5588 40.4695 18.6164 40.436 18.6768C40.4031 18.7346 40.3754 18.7951 40.3534 18.8578C40.3288 18.9177 40.312 18.9805 40.3032 19.0445C40.2943 19.1045 40.2943 19.1655 40.3032 19.2255C40.3107 19.2672 40.3246 19.3076 40.3445 19.3452C40.3644 19.3823 40.3892 19.4167 40.4183 19.4473C40.4492 19.4809 40.4876 19.5069 40.5304 19.5232C40.5777 19.5402 40.6277 19.5491 40.678 19.5494C40.7441 19.5464 40.8091 19.5316 40.8698 19.5057C40.935 19.4776 40.9956 19.4402 41.0499 19.3948C41.0941 19.359 41.1365 19.321 41.1768 19.2809V19.3189C41.1812 19.3526 41.1926 19.3851 41.2104 19.4143C41.2282 19.4434 41.2519 19.4686 41.2801 19.4882C41.3422 19.5287 41.4151 19.55 41.4896 19.5494C41.5443 19.5486 41.5983 19.5377 41.649 19.5173C41.7048 19.4976 41.7575 19.4701 41.8054 19.4356C41.8544 19.4 41.9007 19.361 41.9441 19.3189L41.9648 19.3014L41.8556 19.5203H42.2569L42.2717 19.4765C42.3139 19.3636 42.3652 19.2543 42.4251 19.1496C42.5038 19.0087 42.5906 18.8723 42.6849 18.741C42.7302 18.6768 42.7795 18.6154 42.8324 18.5572C42.8806 18.5046 42.9318 18.4549 42.9859 18.4083C43.0288 18.3704 43.0764 18.338 43.1275 18.312C43.1646 18.2948 43.2047 18.2849 43.2456 18.2828H43.3164H43.3371V18.312C43.341 18.3283 43.341 18.3453 43.3371 18.3616C43.3371 18.385 43.3135 18.4142 43.2958 18.4492C43.2781 18.4842 43.1954 18.6068 43.1335 18.6943C43.1039 18.7381 43.0744 18.7819 43.0479 18.8286C43.0204 18.8727 42.9957 18.9185 42.9741 18.9657C42.949 19.0135 42.9311 19.0646 42.921 19.1175C42.9121 19.1658 42.9121 19.2152 42.921 19.2634C42.9267 19.302 42.9407 19.3388 42.9623 19.3714C42.982 19.4043 43.0081 19.4331 43.039 19.4561C43.0689 19.481 43.1028 19.5007 43.1393 19.5144C43.1765 19.5263 43.2154 19.5323 43.2544 19.5319C43.3131 19.5301 43.371 19.5183 43.4256 19.4969C43.4853 19.4726 43.5418 19.4412 43.5938 19.4035C43.6494 19.365 43.7017 19.322 43.7503 19.2751C43.7925 19.2381 43.832 19.1982 43.8683 19.1554V19.208C43.8758 19.2497 43.8897 19.2901 43.9096 19.3276C43.9295 19.3648 43.9543 19.3992 43.9834 19.4298C44.0143 19.4634 44.0527 19.4893 44.0956 19.5057C44.1429 19.5227 44.1928 19.5316 44.2431 19.5319C44.3092 19.5289 44.3742 19.5141 44.4349 19.4882C44.4997 19.4594 44.5603 19.4221 44.615 19.3773C44.6592 19.3415 44.7016 19.3035 44.7419 19.2634V19.3014C44.7463 19.3351 44.7577 19.3676 44.7755 19.3968C44.7933 19.4259 44.817 19.4511 44.8452 19.4706C44.9073 19.5112 44.9803 19.5325 45.0547 19.5319C45.1094 19.5311 45.1634 19.5202 45.2141 19.4998C45.2699 19.4801 45.3226 19.4526 45.3705 19.4181C45.4195 19.3825 45.4658 19.3435 45.5092 19.3014C45.5564 19.2576 45.6036 19.2109 45.6479 19.1613L45.6804 19.1204C45.6773 19.1456 45.6773 19.1711 45.6804 19.1963C45.6892 19.2463 45.7083 19.294 45.7365 19.3364C45.7641 19.3784 45.8003 19.4142 45.8427 19.4415C45.8825 19.4692 45.9263 19.4908 45.9726 19.5057C46.0207 19.5233 46.0717 19.5322 46.1231 19.5319C46.2472 19.5293 46.3692 19.4994 46.4802 19.4444C46.5378 19.4179 46.5931 19.3866 46.6454 19.351C46.6973 19.3145 46.7466 19.2745 46.793 19.2313C46.8842 19.1461 46.9618 19.0477 47.0232 18.9395C47.0645 18.8659 47.0962 18.7874 47.1176 18.706C47.1489 18.723 47.1815 18.7376 47.215 18.7498C47.2767 18.7709 47.3416 18.7818 47.4069 18.7819H47.4777L47.4511 18.849C47.4275 18.909 47.4116 18.9718 47.4039 19.0358C47.3936 19.0957 47.3936 19.1569 47.4039 19.2167C47.4114 19.2585 47.4253 19.2988 47.4452 19.3364C47.4651 19.3736 47.4899 19.4079 47.519 19.4385C47.5499 19.4721 47.5883 19.4981 47.6312 19.5144C47.6775 19.5313 47.7264 19.5401 47.7758 19.5407C47.8419 19.5376 47.9068 19.5228 47.9676 19.4969C48.0324 19.4681 48.0929 19.4308 48.1476 19.386C48.1919 19.3503 48.2343 19.3123 48.2745 19.2722V19.3101C48.2789 19.3439 48.2904 19.3764 48.3082 19.4055C48.3259 19.4347 48.3497 19.4598 48.3778 19.4794C48.44 19.52 48.5129 19.5413 48.5874 19.5407C48.642 19.5399 48.6961 19.529 48.7467 19.5086C48.8019 19.4895 48.8537 19.4619 48.9002 19.4269C48.9492 19.3913 48.9955 19.3523 49.0389 19.3101C49.1013 19.2728 49.1614 19.2319 49.2189 19.1876V19.2372C49.2273 19.2832 49.2454 19.3269 49.2721 19.3656C49.2968 19.4062 49.3313 19.4403 49.3724 19.4648C49.4076 19.4929 49.4476 19.5146 49.4904 19.529C49.5353 19.5431 49.5821 19.55 49.6292 19.5494C49.6883 19.5484 49.747 19.5386 49.8033 19.5203C49.8618 19.5018 49.9175 19.4753 49.9685 19.4415C50.0222 19.4091 50.0735 19.373 50.122 19.3335C50.1692 19.2926 50.2194 19.2459 50.2696 19.1963C50.5027 18.9482 50.5647 18.6126 50.1781 19.0533C50.1338 19.1 50.0866 19.1438 50.0394 19.1846C49.9951 19.2222 49.9488 19.2573 49.9007 19.2897C49.8604 19.3198 49.8156 19.3434 49.7679 19.3597C49.7272 19.3745 49.6843 19.3824 49.641 19.3831H49.5967L49.5524 19.3627C49.5456 19.364 49.5386 19.364 49.5318 19.3627C49.5301 19.353 49.5301 19.3431 49.5318 19.3335C49.5274 19.2911 49.5324 19.2482 49.5465 19.208C49.5674 19.1388 49.5961 19.0723 49.6321 19.0095L49.9567 18.3383H50.4821L50.547 18.1661H50.0453L50.2725 17.7429H49.8918L49.6734 18.1661H49.4491L49.3901 18.3383H49.5849L49.3665 18.7585L49.3104 18.8432C49.2371 18.947 49.1552 19.0446 49.0655 19.135C49.0293 19.1742 48.9909 19.2112 48.9504 19.2459C48.9156 19.2761 48.8791 19.3044 48.8412 19.3306C48.8127 19.3529 48.7808 19.3706 48.7467 19.3831C48.7257 19.3939 48.7025 19.3999 48.6789 19.4006C48.6644 19.4047 48.649 19.4047 48.6346 19.4006C48.6248 19.3925 48.6184 19.381 48.6169 19.3685C48.6051 19.3082 48.6092 19.2459 48.6287 19.1876C48.6604 19.0978 48.6999 19.0109 48.7467 18.9278C48.7999 18.8227 48.8589 18.7148 48.9209 18.6009C48.9828 18.4871 49.0537 18.3675 49.1304 18.239H48.7408L48.7231 18.2828C48.6999 18.2544 48.6742 18.2281 48.6464 18.204C48.6057 18.1767 48.5609 18.156 48.5136 18.1427C48.4626 18.1286 48.4101 18.1208 48.3572 18.1194C48.2949 18.1213 48.2333 18.1321 48.1742 18.1515C48.1131 18.1732 48.0547 18.2015 48.0001 18.2361C47.9407 18.271 47.8853 18.3121 47.8348 18.3587L47.764 18.4287L47.7374 18.4696L47.6666 18.5601L47.6134 18.598C47.5897 18.6133 47.5639 18.6251 47.5367 18.633C47.5083 18.6361 47.4796 18.6361 47.4511 18.633C47.4237 18.6362 47.3959 18.6362 47.3685 18.633C47.3418 18.6264 47.3161 18.6166 47.2918 18.6039C47.2683 18.5949 47.2457 18.5841 47.2239 18.5718L47.1973 18.5542V18.4871L47.1826 18.3996C47.1762 18.3627 47.1664 18.3266 47.1531 18.2916C47.1399 18.2596 47.1231 18.2293 47.1029 18.2011C47.0846 18.1738 47.0604 18.1508 47.0321 18.134C47.0028 18.1191 46.9705 18.1111 46.9376 18.1106C46.9123 18.1057 46.8862 18.1057 46.8609 18.1106C46.8361 18.122 46.8163 18.1416 46.8048 18.1661C46.7941 18.1849 46.7881 18.2059 46.7871 18.2274C46.7827 18.2486 46.7827 18.2704 46.7871 18.2916C46.7898 18.3118 46.7958 18.3315 46.8048 18.3499C46.8136 18.3662 46.8234 18.3818 46.8343 18.3966V18.4258V18.4521C46.8403 18.4898 46.8403 18.5282 46.8343 18.5659C46.8294 18.6138 46.8185 18.6608 46.8019 18.706C46.7845 18.7592 46.7628 18.811 46.7369 18.8607C46.7074 18.9132 46.6749 18.9657 46.6395 19.0183C46.6082 19.066 46.5726 19.1109 46.5333 19.1525C46.4956 19.1933 46.4541 19.2304 46.4093 19.2634C46.3715 19.2939 46.3298 19.3194 46.2854 19.3393C46.2478 19.3541 46.2078 19.362 46.1673 19.3627C46.1345 19.3625 46.1026 19.3523 46.0758 19.3335C46.0513 19.3114 46.0356 19.2814 46.0316 19.2488C46.0284 19.2256 46.0284 19.202 46.0316 19.1788C46.0352 19.1482 46.0411 19.118 46.0493 19.0883C46.0493 19.0562 46.0758 19.0124 46.0965 18.9599C46.1172 18.9074 46.1467 18.8403 46.1821 18.7644L46.5303 18.0639L47.1413 16.8557H46.7369L46.1939 17.9239C46.0522 18.2157 45.946 18.4229 45.8722 18.5747L45.8486 18.6301C45.8132 18.6856 45.7778 18.741 45.7424 18.7906C45.669 18.8945 45.5871 18.9921 45.4974 19.0825C45.4613 19.1217 45.4229 19.1587 45.3823 19.1934C45.3475 19.2236 45.3111 19.2518 45.2731 19.278C45.2446 19.3004 45.2128 19.3181 45.1787 19.3306C45.1577 19.3414 45.1345 19.3474 45.1108 19.3481C45.0963 19.3522 45.081 19.3522 45.0665 19.3481C45.0567 19.34 45.0504 19.3285 45.0488 19.316C45.0455 19.2643 45.0536 19.2125 45.0724 19.1642C45.1042 19.0744 45.1437 18.9875 45.1905 18.9045C45.2436 18.7994 45.3026 18.6914 45.3646 18.5776L45.5653 18.2332L45.1875 18.2069L45.1669 18.2566C45.1444 18.2275 45.1187 18.201 45.0901 18.1778C45.0495 18.1504 45.0046 18.1297 44.9573 18.1165C44.9064 18.1024 44.8538 18.0945 44.8009 18.0931C44.7387 18.095 44.677 18.1058 44.6179 18.1252C44.5569 18.1469 44.4985 18.1753 44.4438 18.2099C44.3845 18.2448 44.329 18.2859 44.2785 18.3324L44.2018 18.4083V18.4287L44.1487 18.49C44.1056 18.5442 44.0671 18.6018 44.0336 18.6622C44.0027 18.7141 43.977 18.7688 43.9568 18.8257L43.8152 19.0008C43.7709 19.0533 43.7267 19.0971 43.6824 19.1409C43.6374 19.1814 43.5901 19.2194 43.5407 19.2547L43.4758 19.2985C43.4553 19.3106 43.4336 19.3204 43.4109 19.3276C43.3925 19.3384 43.3726 19.3463 43.3518 19.351C43.3333 19.3538 43.3143 19.3538 43.2958 19.351C43.2851 19.3536 43.274 19.3536 43.2633 19.351C43.2556 19.3418 43.2505 19.3307 43.2485 19.3189C43.243 19.2968 43.243 19.2738 43.2485 19.2518C43.2572 19.2173 43.2723 19.1846 43.2928 19.1554C43.3725 19.0212 43.4522 18.8928 43.5348 18.7615L43.6145 18.6243C43.6345 18.5821 43.6503 18.5381 43.6617 18.493C43.6689 18.4524 43.6689 18.4109 43.6617 18.3704C43.6499 18.2907 43.6089 18.218 43.5466 18.1661C43.4815 18.1171 43.4011 18.0923 43.3194 18.096C43.2704 18.0957 43.2217 18.1026 43.1748 18.1165C43.1252 18.1297 43.0776 18.1494 43.0331 18.1748C42.9902 18.2007 42.9488 18.2289 42.9092 18.2595L42.856 18.3033L43.6175 16.844L43.2131 16.8615L42.4311 18.4112H42.4163L42.3927 18.4579C42.3284 18.5834 42.2555 18.7043 42.1743 18.8198C42.101 18.9237 42.019 19.0213 41.9293 19.1117C41.8932 19.1509 41.8548 19.1879 41.8142 19.2226C41.7795 19.2528 41.743 19.281 41.705 19.3072C41.6772 19.3288 41.6464 19.3465 41.6136 19.3597C41.5914 19.3704 41.5673 19.3763 41.5427 19.3773C41.5283 19.3814 41.5129 19.3814 41.4985 19.3773C41.4886 19.3692 41.4823 19.3577 41.4807 19.3452C41.4775 19.2935 41.4855 19.2417 41.5044 19.1934C41.5361 19.1036 41.5756 19.0167 41.6224 18.9336C41.6726 18.8315 41.7316 18.7235 41.7965 18.6068L42.0061 18.2449L42.0621 18.1486H41.6549L41.5988 18.2857C41.5763 18.2567 41.5506 18.2302 41.5221 18.2069L41.5103 18.1953ZM40.6544 19.0708C40.6485 19.1222 40.6485 19.1741 40.6544 19.2255C40.6593 19.2612 40.6747 19.2947 40.6987 19.3218C40.7073 19.3309 40.7179 19.3379 40.7296 19.3424C40.7414 19.347 40.754 19.3489 40.7665 19.3481C40.7972 19.3479 40.8275 19.341 40.8551 19.3276C40.8929 19.3103 40.9285 19.2888 40.9613 19.2634C40.9997 19.2313 41.041 19.1963 41.0794 19.1584L41.1945 19.027C41.2303 18.9797 41.2629 18.9299 41.2919 18.8782C41.3207 18.8257 41.3453 18.771 41.3656 18.7148C41.3815 18.6634 41.3924 18.6106 41.3981 18.5572C41.404 18.5077 41.404 18.4578 41.3981 18.4083C41.3919 18.3743 41.3742 18.3435 41.3479 18.3208C41.3199 18.2997 41.2857 18.2884 41.2506 18.2887C41.2183 18.2916 41.1866 18.2984 41.1561 18.3091C41.1165 18.3234 41.0796 18.3441 41.0469 18.3704C41.0054 18.3986 40.9677 18.4319 40.9348 18.4696C40.8971 18.5108 40.8626 18.5547 40.8315 18.6009C40.799 18.6472 40.7704 18.696 40.7459 18.7469C40.7196 18.7981 40.6989 18.8519 40.6839 18.9074C40.6658 18.9602 40.6548 19.0151 40.6514 19.0708H40.6544ZM44.2195 19.0708C44.2229 19.0151 44.2338 18.9602 44.252 18.9074C44.2669 18.8519 44.2877 18.7981 44.314 18.7469C44.3385 18.696 44.3671 18.6472 44.3995 18.6009C44.4299 18.5542 44.4645 18.5102 44.5028 18.4696C44.5359 18.432 44.5736 18.3987 44.615 18.3704C44.6477 18.3441 44.6846 18.3234 44.7242 18.3091C44.7547 18.2984 44.7864 18.2916 44.8186 18.2887C44.8538 18.2884 44.888 18.2997 44.916 18.3208C44.9423 18.3435 44.96 18.3743 44.9662 18.4083C44.9721 18.4578 44.9721 18.5077 44.9662 18.5572C44.9605 18.6106 44.9496 18.6634 44.9337 18.7148C44.9134 18.771 44.8887 18.8257 44.8599 18.8782C44.8309 18.9299 44.7984 18.9797 44.7625 19.027C44.7252 19.0737 44.6868 19.1175 44.6474 19.1584C44.6091 19.1963 44.5678 19.2313 44.5294 19.2634C44.4966 19.2888 44.4609 19.3103 44.4231 19.3276C44.3955 19.3407 44.3653 19.3477 44.3346 19.3481C44.322 19.3489 44.3094 19.347 44.2977 19.3424C44.286 19.3379 44.2754 19.3309 44.2667 19.3218C44.2428 19.2947 44.2274 19.2612 44.2225 19.2255C44.2166 19.1741 44.2166 19.1222 44.2225 19.0708H44.2195ZM47.7846 19.0708C47.788 19.0151 47.7989 18.9602 47.8171 18.9074C47.832 18.8519 47.8528 18.7981 47.8791 18.7469C47.9036 18.696 47.9322 18.6472 47.9646 18.6009C47.995 18.5549 48.0285 18.511 48.065 18.4696C48.0998 18.4327 48.1384 18.3994 48.1801 18.3704C48.2124 18.3435 48.2494 18.3227 48.2893 18.3091C48.3198 18.2984 48.3515 18.2916 48.3837 18.2887C48.4189 18.2884 48.4531 18.2997 48.4811 18.3208C48.5074 18.3435 48.5251 18.3743 48.5313 18.4083C48.5372 18.4578 48.5372 18.5077 48.5313 18.5572C48.5256 18.6106 48.5147 18.6634 48.4988 18.7148C48.4785 18.771 48.4538 18.8257 48.425 18.8782C48.396 18.9299 48.3635 18.9797 48.3277 19.027L48.2126 19.1584C48.1742 19.1963 48.1329 19.2313 48.0945 19.2634C48.0617 19.2888 48.026 19.3103 47.9883 19.3276C47.9606 19.3407 47.9304 19.3477 47.8997 19.3481C47.8871 19.3489 47.8745 19.347 47.8628 19.3424C47.8511 19.3379 47.8405 19.3309 47.8318 19.3218C47.8079 19.2947 47.7925 19.2612 47.7876 19.2255C47.782 19.1711 47.783 19.1162 47.7905 19.0621L47.7846 19.0708Z" fill="#9FA0A0"/>
<path id="Vector_2" fill-rule="evenodd" clip-rule="evenodd" d="M24.7238 24.464C24.7936 24.5751 24.8736 24.6796 24.9628 24.7762C25.037 24.861 25.1224 24.9356 25.2166 24.998C25.3071 25.0575 25.4068 25.1019 25.5118 25.1294C25.6293 25.1595 25.7504 25.1742 25.8718 25.1732C25.9604 25.1733 26.0486 25.1625 26.1345 25.141C26.2163 25.1183 26.2947 25.085 26.3676 25.0418C26.4397 24.9985 26.5061 24.9465 26.5654 24.8871C26.6233 24.8278 26.673 24.7611 26.7129 24.6887C26.7542 24.6151 26.7859 24.5366 26.8074 24.4552C26.8277 24.3731 26.8376 24.2888 26.8369 24.2042C26.8401 24.0836 26.819 23.9636 26.7749 23.8511C26.734 23.7588 26.6688 23.6792 26.586 23.6205C26.4761 23.5435 26.3595 23.4761 26.2378 23.4191C26.0961 23.352 25.9426 23.2791 25.7361 23.2061C25.5562 23.1381 25.3807 23.0591 25.2107 22.9697C25.0737 22.896 24.945 22.808 24.8271 22.707C24.7163 22.6095 24.6321 22.4861 24.5821 22.3481C24.5261 22.1886 24.4991 22.0207 24.5024 21.8519C24.5018 21.7079 24.5217 21.5644 24.5615 21.4258C24.598 21.2948 24.658 21.1712 24.7385 21.061C24.8138 20.95 24.9065 20.8515 25.013 20.7692C25.1197 20.6857 25.238 20.6179 25.3642 20.5678C25.4973 20.513 25.6357 20.4719 25.7774 20.4452C25.9264 20.4191 26.0775 20.4064 26.2289 20.4073C26.3277 20.4071 26.4263 20.4139 26.524 20.4277C26.6239 20.4444 26.7225 20.4678 26.8192 20.4977C26.916 20.5258 27.0098 20.563 27.0995 20.6086C27.1822 20.6537 27.2602 20.7065 27.3327 20.7662L27.371 20.8013L27.3504 20.8509C27.3186 20.9192 27.291 20.9894 27.2678 21.061C27.2353 21.1573 27.194 21.2799 27.1497 21.4258V21.4754H26.9667L26.9461 21.4317C26.9115 21.3446 26.8659 21.2622 26.8103 21.1865C26.7543 21.1175 26.6887 21.0566 26.6155 21.0056C26.5412 20.9557 26.4596 20.9173 26.3735 20.8917C26.2774 20.8654 26.1781 20.8527 26.0784 20.8538C25.9619 20.852 25.8459 20.8708 25.7361 20.9093C25.6277 20.9425 25.5273 20.9971 25.4409 21.0698C25.3616 21.1359 25.2981 21.2187 25.255 21.312C25.2144 21.4041 25.1933 21.5034 25.193 21.6038C25.1906 21.7228 25.2127 21.8409 25.2579 21.9511C25.2993 22.0439 25.3644 22.1243 25.4468 22.1846C25.5593 22.2617 25.6777 22.3301 25.801 22.3889C25.9426 22.459 26.1109 22.529 26.3086 22.6049C26.4883 22.6721 26.6638 22.7501 26.8339 22.8384C26.9702 22.9099 27.0987 22.995 27.2176 23.0923C27.3274 23.1853 27.4125 23.3036 27.4655 23.4367C27.5213 23.587 27.5483 23.7464 27.5452 23.9065C27.5468 24.0693 27.5249 24.2314 27.4802 24.3881C27.4395 24.5374 27.3747 24.6793 27.2884 24.8083C27.2068 24.9345 27.1074 25.0484 26.9933 25.1469C26.873 25.2472 26.7401 25.3315 26.5978 25.3979C26.4514 25.4649 26.298 25.5158 26.1404 25.5496C25.9744 25.584 25.8052 25.6007 25.6357 25.5993C25.5268 25.599 25.4182 25.5893 25.3111 25.5701C25.1882 25.5503 25.0669 25.522 24.9481 25.4854C24.8325 25.4496 24.7209 25.4027 24.6146 25.3453C24.5233 25.2988 24.4397 25.2388 24.3667 25.1673L24.3372 25.1352V25.0944C24.3695 25.0049 24.3951 24.9132 24.4139 24.82C24.4375 24.715 24.4582 24.6011 24.4759 24.4727V24.4114H24.6529L24.6736 24.4435L24.7238 24.464ZM30.9952 24.8667C30.9952 24.9309 30.9952 24.9835 30.9952 25.0272C30.9983 25.0581 31.0053 25.0885 31.0158 25.1177C31.0158 25.1177 31.0158 25.1323 31.0395 25.1381C31.0647 25.1437 31.0909 25.1437 31.1162 25.1381H31.2106L31.3169 25.1177L31.4054 25.0973V25.3891L31.3611 25.4066C31.3168 25.4256 31.2715 25.4422 31.2254 25.4562C31.1921 25.4691 31.1575 25.4779 31.1221 25.4825L30.9952 25.5H30.8712C30.7236 25.5024 30.5793 25.4562 30.461 25.3687C30.3856 25.3063 30.3311 25.2229 30.3046 25.1294C30.1568 25.2699 29.9836 25.3818 29.794 25.4592C29.5975 25.5394 29.3868 25.5801 29.1743 25.5788C29.0366 25.5796 28.8998 25.5569 28.7699 25.5117C28.6443 25.4686 28.5281 25.4022 28.4276 25.3162C28.3275 25.2371 28.2459 25.1375 28.1885 25.0243C28.1341 24.9062 28.1069 24.7776 28.1089 24.6478C28.1077 24.5273 28.1246 24.4074 28.159 24.2918C28.1909 24.191 28.2431 24.0977 28.3125 24.0174C28.378 23.9451 28.4535 23.8822 28.5368 23.8307C28.623 23.7783 28.7151 23.7362 28.8113 23.7052C28.9057 23.6789 29.0149 23.6526 29.1418 23.6264C29.2687 23.6001 29.4015 23.5767 29.552 23.5534L29.8471 23.5038L30.0419 23.46C30.0825 23.4477 30.122 23.4321 30.16 23.4133C30.1876 23.3979 30.2125 23.3782 30.2338 23.3549C30.2522 23.3313 30.2661 23.3046 30.2751 23.2761C30.2801 23.2325 30.2801 23.1884 30.2751 23.1448C30.282 23.0419 30.2672 22.9387 30.2316 22.8417C30.1961 22.7447 30.1405 22.6561 30.0685 22.5815C29.9973 22.5153 29.9128 22.4646 29.8206 22.4327C29.7088 22.3984 29.5923 22.3817 29.4753 22.3831C29.3697 22.3815 29.2645 22.3943 29.1625 22.421C29.0749 22.4435 28.992 22.4811 28.9175 22.5319C28.8529 22.5769 28.7935 22.6287 28.7404 22.6866C28.7021 22.7256 28.6729 22.7724 28.6548 22.8238V22.8734H28.4483V22.3685L28.4807 22.3481C28.6714 22.2244 28.8778 22.1262 29.0946 22.0562C29.296 21.9883 29.5074 21.9538 29.7202 21.9541C29.8938 21.9316 30.0703 21.9488 30.2361 22.0045C30.4018 22.0602 30.5524 22.1529 30.6762 22.2753C30.8 22.3977 30.8937 22.5466 30.95 22.7106C31.0064 22.8745 31.0238 23.049 31.0011 23.2207V24.8755L30.9952 24.8667ZM30.2544 23.7752L30.0803 23.8102L29.7852 23.8657L29.5609 23.9065C29.5138 23.9173 29.4675 23.931 29.4222 23.9474C29.372 23.9649 29.3159 23.9853 29.2569 24.0116C29.2028 24.0366 29.1514 24.0669 29.1034 24.1021C29.0581 24.1356 29.0175 24.1749 28.9824 24.2188C28.9477 24.2622 28.9217 24.3117 28.9057 24.3647C28.8872 24.4253 28.8782 24.4883 28.8791 24.5515C28.877 24.642 28.892 24.7321 28.9234 24.8171C28.9495 24.8872 28.9919 24.9502 29.0474 25.001C29.1075 25.0519 29.1779 25.0897 29.2539 25.1119C29.3495 25.1411 29.4491 25.1549 29.5491 25.1527C29.5941 25.1526 29.6389 25.1457 29.6819 25.1323C29.7335 25.118 29.7839 25.0995 29.8324 25.0768C29.8833 25.0517 29.9326 25.0234 29.9799 24.9922C30.0207 24.9651 30.0592 24.9349 30.095 24.9017C30.1629 24.8404 30.2101 24.7937 30.2426 24.7587C30.2751 24.7237 30.2751 24.7383 30.2751 24.7325V23.7781L30.2544 23.7752ZM32.1019 21.9891C32.1471 21.9864 32.1924 21.9864 32.2377 21.9891H32.3232H32.459H32.5357H32.6184H32.6922H32.7659V22.4502C32.868 22.3202 32.993 22.2095 33.1348 22.1233C33.3373 22.0073 33.5678 21.9478 33.8018 21.9511C34.0528 21.9489 34.2993 22.0166 34.5131 22.1467C34.616 22.2114 34.7077 22.2923 34.7846 22.386C34.831 22.4452 34.8715 22.5088 34.9056 22.5757C35.0249 22.3983 35.182 22.2489 35.366 22.1379C35.5747 22.0122 35.8152 21.9475 36.0595 21.9511C36.2602 21.9457 36.4602 21.9764 36.6498 22.0416C36.808 22.0994 36.9462 22.2006 37.0482 22.3335C37.1528 22.4704 37.2272 22.6275 37.2666 22.7946C37.317 22.9999 37.3408 23.2108 37.3374 23.4221V25.5555H37.2607H37.1899H37.1043H37.0216H36.9036H36.818H36.6734H36.5967V23.5651C36.599 23.4008 36.5861 23.2367 36.5583 23.0748C36.5365 22.952 36.4967 22.8331 36.4402 22.7216C36.3923 22.6339 36.3166 22.5642 36.2248 22.5232C36.1035 22.4726 35.9726 22.4487 35.8411 22.4531C35.7204 22.4375 35.5976 22.4567 35.4877 22.5085C35.3777 22.5603 35.2852 22.6424 35.2214 22.745C35.1628 22.8553 35.1201 22.9732 35.0945 23.0952C35.0662 23.2404 35.0523 23.388 35.0532 23.5359V25.535H34.9794H34.9026H34.8171H34.7403H34.6193H34.5367H34.4452H34.3921H34.3124V23.3695C34.3146 23.2272 34.2998 23.0852 34.2681 22.9464C34.2456 22.8413 34.2014 22.7419 34.1383 22.6545C34.0821 22.5831 34.0077 22.5277 33.9228 22.494C33.8184 22.4543 33.7071 22.4354 33.5952 22.4385C33.4537 22.4337 33.3125 22.4555 33.1791 22.5027C33.084 22.5356 33.0015 22.5967 32.943 22.6779C32.884 22.7675 32.8401 22.8661 32.8132 22.9697C32.782 23.0997 32.7672 23.233 32.7689 23.3666V25.5146H32.6922H32.6184H32.5298H32.456H32.3321H32.2495H32.1049H32.0281V21.9833H32.1049L32.1019 21.9891ZM39.967 25.1527C40.165 25.1605 40.3584 25.0926 40.5071 24.963C40.5791 24.8969 40.6417 24.8212 40.693 24.7383C40.7477 24.6467 40.7903 24.5487 40.8199 24.4464C40.8533 24.3287 40.8779 24.2087 40.8937 24.0875C40.9109 23.9529 40.9188 23.8174 40.9173 23.6818C40.9193 23.5003 40.9005 23.3192 40.8612 23.1419C40.8267 22.9883 40.769 22.8407 40.69 22.7041C40.6237 22.5796 40.5208 22.4779 40.3949 22.4123C40.2568 22.3474 40.1051 22.3154 39.9522 22.3189C39.7892 22.3136 39.6278 22.353 39.4859 22.4327C39.3572 22.5145 39.2548 22.6309 39.1908 22.7683C39.1072 22.9277 39.0456 23.0976 39.0078 23.2732C38.9648 23.4648 38.944 23.6607 38.9459 23.8569C38.943 24.0361 38.9649 24.2148 39.0108 24.3881C39.0506 24.537 39.1176 24.6774 39.2085 24.8025C39.2896 24.9151 39.3983 25.0054 39.5243 25.0652C39.6638 25.1288 39.8163 25.1597 39.9699 25.1556L39.967 25.1527ZM38.8662 27.3591H38.7983H38.7098H38.6301H38.5091H38.4294H38.2877H38.2021V21.9833H38.3379H38.4205H38.5032H38.636H38.7157H38.7983H38.8662H38.9429V22.5348C38.9783 22.4804 39.0137 22.4278 39.0491 22.3772C39.0968 22.3176 39.1524 22.2646 39.2144 22.2196C39.2893 22.1684 39.3671 22.1217 39.4476 22.0796C39.5472 22.0329 39.6523 21.9986 39.7604 21.9774C39.8871 21.9556 40.0155 21.9449 40.1441 21.9453C40.2975 21.9447 40.4503 21.9643 40.5986 22.0037C40.7368 22.0432 40.8681 22.1032 40.9881 22.1817C41.1059 22.2581 41.2122 22.3504 41.3039 22.456C41.3967 22.5627 41.4742 22.6815 41.5341 22.8092C41.5948 22.9391 41.6413 23.0751 41.6728 23.2149C41.7026 23.3569 41.7174 23.5017 41.7171 23.6468C41.7181 23.8319 41.7003 24.0167 41.664 24.1984C41.6333 24.364 41.5807 24.525 41.5075 24.677C41.4412 24.8181 41.3558 24.9496 41.2537 25.0681C41.1548 25.1815 41.0394 25.2799 40.9114 25.3599C40.7844 25.4386 40.6461 25.4976 40.5012 25.535C40.3493 25.5766 40.1924 25.5972 40.0349 25.5963C39.786 25.6016 39.5407 25.5379 39.3266 25.4125C39.175 25.3227 39.0443 25.2024 38.9429 25.0593V27.3591H38.8662ZM44.0869 21.9453C44.2539 21.9439 44.4203 21.9625 44.5827 22.0008C44.7359 22.0373 44.8837 22.0932 45.0225 22.1671C45.1554 22.2409 45.2775 22.3322 45.3855 22.4385C45.4957 22.5452 45.5883 22.6683 45.66 22.8033C45.7369 22.9429 45.7945 23.0921 45.8311 23.247C45.87 23.4134 45.8888 23.5839 45.8872 23.7548C45.8883 23.8713 45.8774 23.9877 45.8547 24.1021C45.8337 24.2166 45.8021 24.3289 45.7603 24.4377C45.719 24.5477 45.6666 24.6533 45.6039 24.7529C45.5423 24.8572 45.4701 24.955 45.3884 25.0447C45.3034 25.1319 45.2094 25.2102 45.1081 25.2782C45.0035 25.349 44.8917 25.4086 44.7746 25.4562C44.6486 25.5055 44.5182 25.5426 44.385 25.5671C44.2407 25.5919 44.0946 25.6046 43.9482 25.6051C43.8265 25.6048 43.7051 25.5941 43.5852 25.573C43.4664 25.5516 43.3498 25.5193 43.237 25.4767C43.1277 25.4358 43.0228 25.3839 42.9241 25.322C42.8263 25.2594 42.7344 25.1881 42.6497 25.1089C42.5664 25.0268 42.4912 24.9369 42.4254 24.8404C42.3594 24.7388 42.3031 24.6313 42.2572 24.5194C42.2094 24.4007 42.1738 24.2775 42.1509 24.1517C42.1269 24.0168 42.1151 23.8801 42.1155 23.7431C42.1143 23.5765 42.1362 23.4106 42.1804 23.2499C42.2219 23.0948 42.2876 22.9471 42.3752 22.8121C42.4558 22.6783 42.5552 22.5565 42.6703 22.4502C42.7914 22.342 42.9276 22.2516 43.0747 22.1817C43.2259 22.1081 43.3854 22.0523 43.5498 22.0154C43.7212 21.9774 43.8965 21.9588 44.0722 21.9599L44.0869 21.9453ZM42.9064 23.8394C42.9055 24.0215 42.9283 24.203 42.9743 24.3793C43.0194 24.5397 43.0891 24.6922 43.1809 24.8317C43.2652 24.9565 43.3812 25.0571 43.5173 25.1235C43.6676 25.1933 43.8324 25.2273 43.9984 25.2228C44.1143 25.2255 44.2296 25.2056 44.3378 25.1644C44.4395 25.1225 44.5318 25.0609 44.6093 24.9835C44.6909 24.9007 44.7622 24.8086 44.8218 24.7091C44.8818 24.6056 44.9303 24.496 44.9664 24.3822C45.0013 24.2683 45.0289 24.1523 45.049 24.0349C45.0663 23.9288 45.0752 23.8214 45.0756 23.7139C45.0753 23.5978 45.0674 23.4818 45.052 23.3666C45.0341 23.2541 45.0085 23.143 44.9753 23.0339C44.9418 22.9322 44.8973 22.8343 44.8425 22.7421C44.7873 22.655 44.7209 22.5755 44.6447 22.5057C44.5716 22.4383 44.4852 22.3866 44.3909 22.3539C44.2867 22.3173 44.1768 22.2995 44.0663 22.3014C43.9374 22.2996 43.809 22.3173 43.6856 22.3539C43.5781 22.3891 43.478 22.4435 43.3904 22.5144C43.3043 22.5874 43.2288 22.6719 43.1661 22.7654C43.1035 22.8617 43.0539 22.9657 43.0186 23.0748C42.9807 23.194 42.9521 23.316 42.933 23.4396C42.915 23.5702 42.9062 23.7018 42.9064 23.8336V23.8394ZM49.3992 25.1586C49.2003 25.2962 48.9827 25.4053 48.7529 25.4825C48.5351 25.5554 48.3069 25.5929 48.077 25.5934C47.9082 25.5934 47.7399 25.5748 47.5753 25.538C47.4203 25.5024 47.2706 25.4475 47.1297 25.3745C46.9921 25.3037 46.8658 25.2132 46.7549 25.106C46.6447 24.9979 46.5503 24.8751 46.4745 24.7412C46.3956 24.6002 46.337 24.4489 46.3004 24.2918C46.2615 24.1203 46.2427 23.945 46.2443 23.7694C46.2427 23.6056 46.2595 23.4421 46.2945 23.282C46.3279 23.1292 46.3804 22.9812 46.4509 22.8413C46.5844 22.5675 46.797 22.339 47.0618 22.1846C47.2011 22.1047 47.3511 22.0448 47.5074 22.0066C47.6766 21.967 47.85 21.9474 48.0239 21.9482C48.162 21.9474 48.2998 21.9631 48.4341 21.9949C48.5653 22.0249 48.6922 22.071 48.8119 22.1321C48.9334 22.1941 49.0448 22.2738 49.1424 22.3685C49.2419 22.4653 49.3273 22.5753 49.3962 22.6954C49.4712 22.8256 49.5259 22.9663 49.5586 23.1127C49.5977 23.2752 49.6165 23.4418 49.6146 23.6088C49.6157 23.6195 49.6157 23.6303 49.6146 23.641V23.7314V23.8365H49.5408H48.7824H48.0269H47.0411V23.9153C47.0406 24.03 47.0525 24.1445 47.0766 24.2567C47.0999 24.3579 47.1356 24.4559 47.1828 24.5486C47.2266 24.6404 47.2843 24.725 47.354 24.7996C47.4262 24.8763 47.5086 24.9431 47.5989 24.998C47.6908 25.0527 47.7902 25.094 47.894 25.1206C48.0116 25.1508 48.1327 25.1655 48.2541 25.1644C48.4384 25.1627 48.6204 25.123 48.7883 25.0477C48.9821 24.9572 49.1595 24.8359 49.3136 24.6887L49.4376 24.5749L49.4228 25.1586L49.3933 25.179L49.3992 25.1586ZM48.8827 23.4075C48.8874 23.1184 48.8063 22.8343 48.6496 22.5903C48.5781 22.494 48.4834 22.4169 48.3741 22.3659C48.2649 22.315 48.1445 22.2918 48.0239 22.2984C47.924 22.2966 47.8244 22.3104 47.7288 22.3393C47.6444 22.365 47.5654 22.4055 47.4956 22.459C47.4231 22.5142 47.3585 22.579 47.3038 22.6516C47.2476 22.7258 47.2019 22.8073 47.168 22.8938C47.1285 22.9881 47.0979 23.0858 47.0766 23.1857C47.0592 23.2588 47.0464 23.3328 47.0382 23.4075H48.8827ZM50.3997 21.9891H50.5354H50.621H50.7568H50.8364H50.9161H50.9899H51.0637V22.5203C51.17 22.3716 51.2995 22.2406 51.4474 22.1321C51.5967 22.0168 51.7803 21.9532 51.9697 21.9511C52.0169 21.9479 52.0642 21.9479 52.1114 21.9511C52.1516 21.9571 52.1911 21.9668 52.2294 21.9803L52.2826 22.0037L52.1527 22.7275H52.0819L52.0169 22.7041L51.9166 22.6633C51.8845 22.6473 51.8509 22.6346 51.8163 22.6253C51.7927 22.623 51.769 22.623 51.7454 22.6253C51.668 22.62 51.5903 22.631 51.5175 22.6577C51.4448 22.6843 51.3786 22.726 51.3234 22.78C51.2707 22.8352 51.2242 22.8959 51.1847 22.9609C51.152 23.0146 51.1271 23.0726 51.1109 23.1331C51.0941 23.2032 51.0822 23.2744 51.0755 23.3462C51.0755 23.4279 51.0755 23.5242 51.0755 23.638V25.5613H51.0017H50.9309H50.8423H50.7627H50.6446H50.559H50.4144H50.3377V21.9833H50.4115L50.3997 21.9891ZM52.8699 21.9891H52.9318H53.0115H53.0942H53.227H53.3066H53.3893H53.4572H53.5339V22.4823C53.645 22.3424 53.781 22.2237 53.9353 22.1321C54.1577 22.0089 54.4093 21.9465 54.6642 21.9511C54.8647 21.9454 55.0646 21.975 55.2545 22.0387C55.41 22.0927 55.5477 22.1876 55.6529 22.313C55.7619 22.4473 55.8395 22.6038 55.8801 22.7712C55.9306 22.9815 55.9544 23.1972 55.951 23.4133V25.5467H55.8772H55.8064H55.7178H55.6411H55.5171H55.4374H55.3873H55.2869H55.2102V23.5651C55.213 23.3997 55.1992 23.2345 55.1689 23.0718C55.1494 22.949 55.1085 22.8305 55.0479 22.7216C55 22.6339 54.9243 22.5642 54.8324 22.5232C54.7132 22.4728 54.5843 22.4488 54.4547 22.4531C54.3191 22.4381 54.182 22.4601 54.0581 22.5166C53.9343 22.5732 53.8285 22.6623 53.7523 22.7742C53.6778 22.9056 53.6269 23.0488 53.6018 23.1973C53.5639 23.3985 53.5461 23.6028 53.5486 23.8073V25.538H53.4719H53.404H53.3155H53.2358H53.1148H53.0351H52.985H52.8846H52.8079V21.9833H52.8846L52.8699 21.9891ZM59.5899 24.8667C59.5863 24.9202 59.5863 24.9738 59.5899 25.0272C59.593 25.0581 59.5999 25.0885 59.6105 25.1177C59.615 25.1265 59.6223 25.1337 59.6312 25.1381C59.6575 25.1434 59.6846 25.1434 59.7109 25.1381H59.8053L59.9115 25.1177L60.0001 25.0973V25.3891L59.9558 25.4066L59.8201 25.4562C59.7868 25.4691 59.7521 25.4779 59.7168 25.4825L59.5899 25.5H59.4659C59.3182 25.5028 59.1737 25.4566 59.0557 25.3687C58.9804 25.3057 58.9251 25.2226 58.8963 25.1294C58.6016 25.4281 58.1998 25.6 57.7778 25.608C57.6401 25.6088 57.5033 25.5861 57.3735 25.5409C57.2469 25.4978 57.1298 25.4314 57.0282 25.3453C56.928 25.2621 56.8477 25.158 56.7931 25.0404C56.7385 24.9228 56.7109 24.7947 56.7124 24.6653C56.7112 24.5449 56.7281 24.4249 56.7626 24.3093C56.7945 24.2085 56.8467 24.1152 56.916 24.0349C56.9815 23.9626 57.057 23.8997 57.1403 23.8482C57.226 23.7949 57.3182 23.7527 57.4148 23.7227C57.5092 23.6974 57.6184 23.6711 57.7424 23.6439C57.8663 23.6176 58.005 23.5943 58.1555 23.5709L58.4507 23.5213C58.5304 23.5213 58.5953 23.4892 58.6455 23.4775C58.687 23.4652 58.7275 23.4496 58.7665 23.4308C58.7941 23.4154 58.819 23.3957 58.8402 23.3724C58.8588 23.3493 58.8719 23.3224 58.8786 23.2937C58.8911 23.251 58.897 23.2067 58.8963 23.1623C58.9025 23.0595 58.8874 22.9564 58.8519 22.8596C58.8163 22.7627 58.7612 22.6741 58.6897 22.5991C58.6185 22.5329 58.5341 22.4822 58.4418 22.4502C58.3227 22.4125 58.198 22.3948 58.0729 22.3977C57.9683 22.3962 57.8641 22.409 57.763 22.4356C57.6752 22.4575 57.5922 22.4951 57.5181 22.5465C57.4535 22.5915 57.3941 22.6433 57.341 22.7012C57.3027 22.7402 57.2735 22.787 57.2554 22.8384L57.2407 22.888H57.0341V22.3685L57.0665 22.3481C57.2569 22.2238 57.4634 22.1256 57.6804 22.0562C57.8818 21.9881 58.0932 21.9536 58.3061 21.9541C58.4795 21.9315 58.656 21.9487 58.8216 22.0044C58.9873 22.0601 59.1377 22.1528 59.2613 22.2753C59.3849 22.3978 59.4783 22.5468 59.5343 22.7107C59.5902 22.8747 59.6072 23.0492 59.584 23.2207V24.8755L59.5899 24.8667ZM58.852 23.7752L58.675 23.8102L58.3798 23.8657L58.1555 23.9065C58.1085 23.9173 58.0622 23.931 58.0168 23.9474C57.9667 23.9649 57.9106 23.9853 57.8516 24.0116C57.7975 24.0366 57.746 24.0669 57.6981 24.1021C57.6528 24.1356 57.6121 24.1749 57.5771 24.2188C57.5424 24.2622 57.5163 24.3117 57.5004 24.3647C57.4819 24.4253 57.4729 24.4883 57.4738 24.5515C57.4716 24.642 57.4867 24.7321 57.5181 24.8171C57.543 24.8877 57.5857 24.951 57.642 25.001C57.7018 25.0526 57.7723 25.0904 57.8486 25.1119C57.9441 25.1411 58.0438 25.1549 58.1437 25.1527C58.1879 25.1529 58.2317 25.146 58.2736 25.1323C58.3256 25.119 58.376 25.1004 58.4241 25.0768C58.475 25.0517 58.5243 25.0234 58.5717 24.9922C58.6115 24.9651 58.649 24.9349 58.6838 24.9017C58.7488 24.8404 58.7989 24.7937 58.8314 24.7587C58.8639 24.7237 58.8638 24.7383 58.8638 24.7325L58.852 23.7752Z" fill="black"/>
<path id="Vector_3" fill-rule="evenodd" clip-rule="evenodd" d="M24.4463 15.224H25.6534C25.7963 15.223 25.9392 15.2298 26.0813 15.2445C26.201 15.2561 26.3194 15.2776 26.4355 15.3087C26.5393 15.3323 26.6389 15.3717 26.7306 15.4254C26.8107 15.4719 26.8816 15.5322 26.9401 15.6034C26.9985 15.676 27.0416 15.7593 27.0671 15.8486C27.0957 15.9432 27.1097 16.0416 27.1084 16.1404C27.1073 16.2844 27.0792 16.4268 27.0257 16.5607C26.9748 16.6875 26.8996 16.8034 26.8044 16.9022C26.7101 17.0041 26.5994 17.0899 26.4768 17.1561L26.3499 17.2203C26.3989 17.2308 26.4472 17.2444 26.4945 17.2611C26.6315 17.3055 26.7615 17.3684 26.8811 17.4479C27.0014 17.528 27.0973 17.639 27.1585 17.7689C27.2228 17.9111 27.2541 18.0657 27.25 18.2213C27.254 18.439 27.2044 18.6543 27.1054 18.8488C26.9993 19.0406 26.8486 19.2046 26.6657 19.3274C26.58 19.3853 26.4879 19.4333 26.3912 19.4704C26.2958 19.506 26.1969 19.5315 26.0961 19.5463C25.9928 19.5463 25.8777 19.5726 25.7508 19.5784C25.6239 19.5842 25.4822 19.5784 25.3347 19.5784H24.3726V15.2007L24.4463 15.224ZM25.0572 17.0889H25.2402C25.3834 17.0906 25.5265 17.0809 25.6682 17.0598C25.7773 17.0434 25.8836 17.0119 25.9839 16.9664C26.0512 16.9376 26.1139 16.8993 26.1699 16.8525C26.223 16.8064 26.2697 16.7534 26.3086 16.6949C26.3444 16.6345 26.3722 16.5698 26.3912 16.5023C26.4093 16.4317 26.4182 16.3592 26.4178 16.2864C26.4208 16.1736 26.4008 16.0614 26.3588 15.9566C26.3228 15.8743 26.2633 15.8043 26.1876 15.7552C26.0964 15.7004 25.9967 15.6609 25.8925 15.6385C25.7476 15.611 25.6002 15.5983 25.4527 15.6005H25.0572V17.0948V17.0889ZM25.0572 19.2194H25.5708C25.6611 19.219 25.7511 19.2092 25.8393 19.1902C25.9202 19.1713 25.9984 19.1429 26.0725 19.1056C26.1436 19.0691 26.2091 19.0229 26.2673 18.9684C26.3249 18.9161 26.3737 18.855 26.4119 18.7875C26.4535 18.7203 26.4853 18.6476 26.5063 18.5715C26.5254 18.4921 26.5353 18.4109 26.5358 18.3293C26.5499 18.2021 26.5301 18.0735 26.4783 17.9562C26.4266 17.839 26.3446 17.7372 26.2407 17.661C26.125 17.5891 25.997 17.5386 25.8629 17.5121C25.6904 17.4749 25.5142 17.4573 25.3376 17.4596H25.0632V19.2107L25.0572 19.2194ZM30.2396 19.0151C30.2396 19.0706 30.2396 19.1173 30.2396 19.1552C30.2415 19.182 30.2464 19.2084 30.2544 19.234C30.2739 19.238 30.294 19.238 30.3134 19.234H30.3872L30.4757 19.2165L30.5613 19.1961V19.4792L30.52 19.4967L30.4079 19.5405C30.3783 19.5513 30.3476 19.5591 30.3164 19.5638H30.2131H30.1098C29.9831 19.5656 29.8598 19.5232 29.7615 19.4442C29.7038 19.3913 29.6602 19.3251 29.6346 19.2515C29.5178 19.3679 29.3796 19.461 29.2274 19.5259C29.0636 19.5964 28.8866 19.6322 28.7079 19.6309C28.5922 19.6313 28.4774 19.6115 28.3686 19.5726C28.2598 19.5347 28.1595 19.4762 28.0734 19.4004C27.9883 19.3264 27.9207 19.2347 27.8757 19.1319C27.831 19.0276 27.8089 18.9153 27.8108 18.8021C27.8084 18.6965 27.8223 18.5912 27.8521 18.4898C27.8769 18.4021 27.9201 18.3206 27.979 18.2505C28.0324 18.1853 28.0962 18.1291 28.1679 18.0841C28.239 18.0368 28.3165 17.9995 28.3981 17.9732L28.6696 17.9032L29.009 17.8419L29.2451 17.7981C29.2989 17.7874 29.3521 17.7738 29.4044 17.7573C29.4374 17.7487 29.4692 17.736 29.4989 17.7193C29.5209 17.7069 29.5408 17.6911 29.5579 17.6726C29.5718 17.6522 29.5818 17.6295 29.5874 17.6055C29.5975 17.5694 29.6024 17.5321 29.6022 17.4946C29.6051 17.3955 29.5901 17.2967 29.5579 17.2028C29.5325 17.1271 29.49 17.0582 29.4338 17.0011C29.3776 16.944 29.309 16.9002 29.2333 16.873C29.0601 16.8207 28.8752 16.8207 28.702 16.873C28.6303 16.8927 28.5625 16.9243 28.5014 16.9664C28.4493 17.0058 28.4009 17.0497 28.3567 17.0977C28.3264 17.1328 28.3034 17.1735 28.2889 17.2174V17.267H28.097V16.8525L28.1266 16.8321C28.2875 16.7187 28.4632 16.6274 28.6489 16.5607C28.817 16.5033 28.9935 16.4737 29.1713 16.4731C29.3178 16.4636 29.4648 16.4847 29.6026 16.535C29.7403 16.5853 29.8659 16.6636 29.9711 16.765C30.1653 16.9967 30.2615 17.2937 30.2396 17.5938V19.0327V19.0151ZM29.6051 18.0783L29.4753 18.1046L29.2303 18.1513L29.0385 18.1892L28.9263 18.2242C28.8798 18.2395 28.8344 18.258 28.7906 18.2797C28.7458 18.2991 28.7041 18.3246 28.6666 18.3556C28.6288 18.3852 28.5951 18.4195 28.5663 18.4577C28.5387 18.4948 28.5177 18.5362 28.5043 18.5803C28.4909 18.6338 28.484 18.6886 28.4837 18.7437C28.482 18.8211 28.494 18.8981 28.5191 18.9714C28.54 19.0299 28.5744 19.0828 28.6194 19.126C28.6668 19.1696 28.7232 19.2025 28.7847 19.2224C28.86 19.2458 28.9388 19.2567 29.0178 19.2545C29.052 19.2599 29.0869 19.2599 29.1211 19.2545C29.1632 19.2424 29.2038 19.2258 29.2421 19.2048C29.2842 19.1845 29.3246 19.1611 29.3631 19.1348C29.3964 19.1107 29.428 19.0844 29.4576 19.056C29.5136 19.0035 29.552 18.9626 29.5786 18.9334C29.6051 18.9042 29.6051 18.9334 29.6051 18.913V18.0783ZM31.184 16.5023H31.2342H31.3021H31.367H31.4762H31.5412H31.609H31.6681H31.7418V16.908C31.8223 16.7945 31.9222 16.6957 32.037 16.6161C32.2212 16.5067 32.433 16.4511 32.6479 16.4556C32.8115 16.4525 32.9744 16.4782 33.1289 16.5315C33.2609 16.5811 33.3771 16.6647 33.4654 16.7737C33.555 16.8937 33.6184 17.0309 33.6513 17.1765C33.6927 17.3604 33.7125 17.5484 33.7103 17.7368V19.6047H33.6365H33.5775H33.5037H33.4418H33.3414H33.2765H33.2352H33.1525H33.0758V17.8857C33.0775 17.7419 33.0656 17.5983 33.0404 17.4567C33.0229 17.3551 32.99 17.2567 32.943 17.1648C32.9038 17.0929 32.843 17.0347 32.7689 16.9985C32.6763 16.9569 32.5753 16.937 32.4737 16.9401C32.3509 16.9364 32.2288 16.9604 32.1166 17.0101C32.0259 17.0532 31.9515 17.1237 31.9042 17.2115C31.8427 17.3265 31.8008 17.4508 31.7802 17.5792C31.7486 17.7545 31.7337 17.9324 31.7359 18.1104V19.6251H31.6592H31.6031H31.5293H31.4674H31.367H31.3021H31.2608H31.1781H31.1014V16.4965H31.1781L31.184 16.5023ZM35.1771 17.6697C35.1771 17.7223 35.1771 17.7631 35.1771 17.7952C35.226 17.7782 35.2718 17.7536 35.3129 17.7223C35.4193 17.644 35.5181 17.5561 35.608 17.4596L35.9887 17.0714L36.4934 16.5082H36.5317H36.6409H36.7088H36.8239H36.8859H36.9537H37.0128H37.0866V16.657L37.0659 16.6774L36.9626 16.7679L36.7117 16.9839L36.4166 17.2407L36.1658 17.4625C36.0949 17.5248 36.0212 17.5919 35.9444 17.6639L35.7644 17.8302L36.0802 18.198L36.2307 18.3731L36.5258 18.7233L36.756 18.9947L36.9597 19.2311L37.1692 19.4733L37.1869 19.4938V19.6222H37.119H37.0452H36.9537H36.877H36.7501H36.6675H36.6144H36.514H36.4786L36.455 19.5901C36.3694 19.4792 36.2307 19.2982 36.0359 19.0764C35.8411 18.8546 35.5903 18.5569 35.2804 18.2009C35.2617 18.1757 35.2387 18.154 35.2125 18.1367C35.2067 18.1356 35.2007 18.1356 35.1948 18.1367C35.1806 18.185 35.1746 18.2353 35.1771 18.2855V19.628H35.1033H35.0443H34.9735H34.9056H34.8082H34.7403H34.6193H34.5426V15.5947H34.6193H34.7226H34.9617H35.1004H35.1771V17.6697Z" fill="black"/>
<path id="Vector_4" fill-rule="evenodd" clip-rule="evenodd" d="M12.3285 12.1041C13.8284 12.0972 15.2966 12.5306 16.5471 13.3496C17.7976 14.1686 18.7741 15.3362 19.3529 16.7045C19.9318 18.0728 20.0869 19.5803 19.7985 21.0358C19.5102 22.4914 18.7915 23.8295 17.7334 24.8808C16.6754 25.932 15.3255 26.649 13.855 26.9409C12.3845 27.2329 10.8594 27.0866 9.47304 26.5206C8.08667 25.9546 6.90139 24.9944 6.06736 23.7616C5.23334 22.5289 4.78812 21.079 4.7881 19.5958C4.78418 17.6138 5.57623 15.7113 6.99017 14.3065C8.40411 12.9017 10.3242 12.1095 12.3285 12.1041Z" fill="#FDD000"/>
<path id="Vector_5" fill-rule="evenodd" clip-rule="evenodd" d="M20.6451 22.9432C19.922 23.9414 18.9038 24.5397 18.3992 24.5951C18.6606 24.2699 18.8788 23.9129 19.0484 23.5328C19.3634 23.3646 19.6485 23.1468 19.8925 22.8878C20.1447 22.8748 20.3976 22.8934 20.6451 22.9432V22.9432ZM19.1694 23.2351L19.2137 23.095C19.1999 23.1398 19.1842 23.1865 19.1665 23.2351H19.1694Z" stroke="#231916" stroke-width="0.2" stroke-linejoin="round"/>
<path id="Vector_6" fill-rule="evenodd" clip-rule="evenodd" d="M18.3076 25.8471C18.7467 25.5283 19.1313 25.1421 19.4468 24.703C19.0949 24.6437 18.7384 24.6154 18.3814 24.6184C18.1943 24.8438 17.9858 25.051 17.7587 25.2371C17.7302 25.2005 17.7036 25.1626 17.679 25.1233C17.8597 25.3876 18.0706 25.6305 18.3076 25.8471V25.8471ZM17.6023 25.024L17.62 25.0503L17.6023 25.024Z" stroke="#231916" stroke-width="0.2" stroke-linejoin="round"/>
<path id="Vector_7" fill-rule="evenodd" clip-rule="evenodd" d="M17.7586 25.2374C18.4424 24.6777 18.9469 23.9334 19.2106 23.0952C18.7986 23.1251 18.397 23.2373 18.0301 23.425C17.7955 23.7296 17.5337 24.0129 17.248 24.2714C17.3695 24.6163 17.5415 24.9418 17.7586 25.2374V25.2374Z" stroke="#231916" stroke-width="0.2" stroke-linejoin="round"/>
<path id="Vector_8" fill-rule="evenodd" clip-rule="evenodd" d="M20.9666 20.8594C20.8555 21.4139 20.6269 21.9389 20.2957 22.3996C19.9646 22.8604 19.5384 23.2466 19.0454 23.5327C19.1082 23.3897 19.1634 23.2436 19.2106 23.0949C18.8082 23.1207 18.414 23.2197 18.0479 23.3868C18.2504 23.1177 18.4319 22.8338 18.5909 22.5375C18.6311 22.6313 18.6607 22.7292 18.6794 22.8293C18.9706 22.421 19.216 21.9826 19.4113 21.5219C19.8753 21.1926 20.4059 20.9666 20.9666 20.8594V20.8594Z" stroke="#231916" stroke-width="0.2" stroke-linejoin="round"/>
<path id="Vector_9" fill-rule="evenodd" clip-rule="evenodd" d="M21.1113 18.3115C21.0169 20.1443 20.2938 21.0082 19.4114 21.5219C19.6029 20.8162 19.6894 20.0867 19.6681 19.3563C20.0479 18.8887 20.5457 18.5283 21.1113 18.3115V18.3115Z" stroke="#231916" stroke-width="0.2" stroke-linejoin="round"/>
<path id="Vector_10" fill-rule="evenodd" clip-rule="evenodd" d="M19.5828 17.9904C19.8212 17.6158 20.1204 17.2825 20.4681 17.0039C20.6124 17.5013 20.6664 18.0201 20.6275 18.5361C20.2646 18.757 19.9422 19.0372 19.6743 19.365C19.6926 18.9049 19.662 18.4441 19.5828 17.9904V17.9904Z" stroke="#231916" stroke-width="0.2" stroke-linejoin="round"/>
<path id="Vector_11" fill-rule="evenodd" clip-rule="evenodd" d="M19.8778 14.9585C20.1406 15.7708 20.1743 16.6386 19.9752 17.4684L19.5827 17.9908C19.4344 17.4298 19.1887 16.8986 18.8567 16.4207C19.0606 15.8527 19.4129 15.3482 19.8778 14.9585V14.9585Z" stroke="#231916" stroke-width="0.2" stroke-linejoin="round"/>
<path id="Vector_12" fill-rule="evenodd" clip-rule="evenodd" d="M18.1985 15.6674C18.3113 15.1507 18.5425 14.6664 18.8743 14.252C19.0874 14.6407 19.2529 15.0532 19.3672 15.4806C19.1543 15.7693 18.9825 16.0855 18.8566 16.4204C18.6618 16.1494 18.4415 15.8972 18.1985 15.6674Z" stroke="#231916" stroke-width="0.2" stroke-linejoin="round"/>
<path id="Vector_13" fill-rule="evenodd" clip-rule="evenodd" d="M17.5964 13.333C17.9879 13.7631 18.3014 14.2567 18.5231 14.7922C18.3844 15.0722 18.2756 15.3656 18.1984 15.6678C17.9115 15.3942 17.5936 15.1543 17.2511 14.9528C17.2472 14.3946 17.365 13.8422 17.5964 13.333V13.333Z" stroke="#231916" stroke-width="0.2" stroke-linejoin="round"/>
<path id="Vector_14" fill-rule="evenodd" clip-rule="evenodd" d="M17.2687 14.6374C16.8718 14.0774 16.44 13.5423 15.9761 13.0351L16.221 12.7783C16.674 13.0924 17.0667 13.4837 17.3809 13.934C17.3244 14.1651 17.2869 14.4003 17.2687 14.6374Z" stroke="#231916" stroke-width="0.2" stroke-linejoin="round"/>
<path id="Vector_15" d="M17.4841 24.7938C18.1044 24.2739 18.6817 23.7059 19.2106 23.0952" stroke="#231916" stroke-width="0.2" stroke-linejoin="round"/>
<path id="Vector_16" d="M18.948 23.1212C19.6863 22.4269 20.3617 21.6701 20.9667 20.8594" stroke="#231916" stroke-width="0.2" stroke-linejoin="round"/>
<path id="Vector_17" d="M19.5647 20.9206C20.1622 20.1027 20.6772 19.2288 21.1023 18.3115" stroke="#231916" stroke-width="0.2" stroke-linejoin="round"/>
<path id="Vector_18" d="M20.0813 18.9359C20.2461 18.2998 20.3732 17.6547 20.462 17.0039" stroke="#231916" stroke-width="0.2" stroke-linejoin="round"/>
<path id="Vector_19" d="M19.8659 14.9668C19.802 15.8032 19.6496 16.6308 19.4114 17.4358" stroke="#231916" stroke-width="0.2" stroke-linejoin="round"/>
<path id="Vector_20" d="M18.8684 14.2578C18.9418 14.8913 18.9733 15.5289 18.9628 16.1665" stroke="#231916" stroke-width="0.2" stroke-linejoin="round"/>
<path id="Vector_21" d="M17.5876 13.3501C17.8694 14.1003 18.0741 14.8766 18.1986 15.6674" stroke="#231916" stroke-width="0.2" stroke-linejoin="round"/>
<path id="Vector_22" fill-rule="evenodd" clip-rule="evenodd" d="M19.2286 19.0299C19.2605 18.9459 19.3097 18.8693 19.3732 18.8052C19.5318 19.2843 19.6183 19.7838 19.63 20.2878C19.5948 21.2215 19.2622 22.1204 18.6797 22.856C18.8053 22.4672 18.9039 22.0703 18.9748 21.6682C19.2558 20.8182 19.3425 19.9171 19.2286 19.0299Z" stroke="#231916" stroke-width="0.2" stroke-linejoin="round"/>
<path id="Vector_23" fill-rule="evenodd" clip-rule="evenodd" d="M18.8802 23.8744C19.4858 23.5936 20.0768 23.2828 20.6509 22.9434C19.9958 23.8189 19.0779 24.4785 18.405 24.5952L18.8802 23.8744Z" stroke="#231916" stroke-width="0.2" stroke-linejoin="round"/>
<path id="Vector_24" fill-rule="evenodd" clip-rule="evenodd" d="M15.7341 13.3501C16.3909 13.7201 16.9196 14.2775 17.251 14.9494C17.1271 14.8911 16.9972 14.8152 16.8703 14.7656C16.8672 14.8473 16.8771 14.9291 16.8998 15.0078L16.4394 14.6751C16.1767 14.3014 15.8878 13.9464 15.5747 13.6128L15.7341 13.3501Z" stroke="#231916" stroke-width="0.2" stroke-linejoin="round"/>
<path id="Vector_25" fill-rule="evenodd" clip-rule="evenodd" d="M18.4138 15.9097C18.8388 17.0012 19.1192 17.9205 19.373 18.8048C19.5367 19.2826 19.6234 19.7829 19.6297 20.2874C19.8599 17.8067 19.3051 16.8815 18.4138 15.9097Z" stroke="#231916" stroke-width="0.2" stroke-linejoin="round"/>
<path id="Vector_26" fill-rule="evenodd" clip-rule="evenodd" d="M17.9712 25.5028C18.4796 25.2693 18.9724 25.0042 19.4468 24.709C19.1323 25.1453 18.7498 25.5294 18.3135 25.8472C18.1927 25.7392 18.0783 25.6242 17.9712 25.5028V25.5028Z" stroke="#231916" stroke-width="0.2" stroke-miterlimit="22.93"/>
<path id="Vector_27" fill-rule="evenodd" clip-rule="evenodd" d="M16.8675 14.7686C17.4506 15.0277 17.9739 15.4021 18.4051 15.8688L18.29 16.5167C17.914 15.9423 17.4442 15.4334 16.9 15.0108C16.8772 14.932 16.8663 14.8504 16.8675 14.7686V14.7686Z" stroke="#231916" stroke-width="0.2" stroke-linejoin="round"/>
<path id="Vector_28" fill-rule="evenodd" clip-rule="evenodd" d="M19.3672 18.8081C19.3734 19.1536 19.3437 19.4988 19.2787 19.8383C19.2787 19.5681 19.2619 19.2981 19.2285 19.0299C19.2591 18.9475 19.3063 18.872 19.3672 18.8081Z" stroke="#231916" stroke-width="0.2" stroke-linejoin="round"/>
<path id="Vector_29" fill-rule="evenodd" clip-rule="evenodd" d="M17.7028 15.755C17.4504 15.4768 17.1739 15.221 16.8765 14.9904C16.8765 14.9174 16.8765 14.8415 16.8765 14.7686C17.1716 15.0807 17.4476 15.4101 17.7028 15.755V15.755Z" stroke="#231916" stroke-width="0.2" stroke-linejoin="round"/>
<path id="Vector_30" fill-rule="evenodd" clip-rule="evenodd" d="M4.46631 22.9432C5.18937 23.9413 6.2105 24.5396 6.71221 24.5951C6.45168 24.2698 6.23446 23.9127 6.06589 23.5327C5.7505 23.3652 5.46529 23.1473 5.22183 22.8878C4.96863 22.8749 4.7148 22.8935 4.46631 22.9432ZM5.94193 23.235C5.92423 23.1884 5.90947 23.1417 5.89471 23.095L5.94193 23.235Z" stroke="#231916" stroke-width="0.2" stroke-linejoin="round"/>
<path id="Vector_31" fill-rule="evenodd" clip-rule="evenodd" d="M6.80666 25.8471C6.36759 25.5283 5.98299 25.1421 5.66748 24.703C6.01936 24.6435 6.37591 24.6152 6.73288 24.6184C6.92002 24.8438 7.12854 25.051 7.3556 25.2371L7.43528 25.1233C7.25372 25.387 7.04287 25.6298 6.80666 25.8471V25.8471ZM7.50906 25.0241L7.49135 25.0503L7.50906 25.0241Z" stroke="#231916" stroke-width="0.2" stroke-linejoin="round"/>
<path id="Vector_32" fill-rule="evenodd" clip-rule="evenodd" d="M7.3556 25.2374C6.67185 24.677 6.16656 23.9331 5.90063 23.0952C6.31277 23.1243 6.71451 23.2366 7.08114 23.425C7.31684 23.7296 7.57956 24.0129 7.86617 24.2714C7.74469 24.6163 7.57267 24.9418 7.3556 25.2374V25.2374Z" stroke="#231916" stroke-width="0.2" stroke-linejoin="round"/>
<path id="Vector_33" fill-rule="evenodd" clip-rule="evenodd" d="M4.14478 20.8594C4.25639 21.4141 4.48558 21.9391 4.81724 22.3999C5.14891 22.8607 5.57552 23.2468 6.06899 23.5327C6.01292 23.3955 5.94209 23.2409 5.90077 23.0949C6.30917 23.1189 6.70949 23.2179 7.08127 23.3868C6.87871 23.1177 6.69718 22.8338 6.53824 22.5375C6.49573 22.6307 6.465 22.7287 6.44675 22.8293C6.15045 22.4212 5.89915 21.9829 5.69713 21.5219C5.23384 21.1933 4.70436 20.9673 4.14478 20.8594V20.8594Z" stroke="#231916" stroke-width="0.2" stroke-linejoin="round"/>
<path id="Vector_34" fill-rule="evenodd" clip-rule="evenodd" d="M4 18.3115C4.09739 20.1443 4.82045 21.0082 5.69992 21.5219C5.50954 20.816 5.42404 20.0865 5.44611 19.3563C5.06519 18.8886 4.56644 18.5282 4 18.3115V18.3115Z" stroke="#231916" stroke-width="0.2" stroke-linejoin="round"/>
<path id="Vector_35" fill-rule="evenodd" clip-rule="evenodd" d="M5.54065 17.9904C5.30296 17.6152 5.00374 17.2818 4.65528 17.0039C4.51308 17.5017 4.46015 18.0203 4.49886 18.5361C4.86121 18.7578 5.18342 19.0379 5.45211 19.365C5.43275 18.905 5.46243 18.4442 5.54065 17.9904V17.9904Z" stroke="#231916" stroke-width="0.2" stroke-linejoin="round"/>
<path id="Vector_36" fill-rule="evenodd" clip-rule="evenodd" d="M5.24564 14.9585C4.98219 15.7706 4.9475 16.6383 5.1453 17.4684L5.54077 17.9908C5.68811 17.4295 5.93384 16.8981 6.26677 16.4207C6.06172 15.8533 5.7096 15.3491 5.24564 14.9585V14.9585Z" stroke="#231916" stroke-width="0.2" stroke-linejoin="round"/>
<path id="Vector_37" fill-rule="evenodd" clip-rule="evenodd" d="M6.91306 15.6674C6.80131 15.1509 6.5711 14.6666 6.24017 14.252C6.02583 14.6401 5.86032 15.0527 5.74731 15.4806C5.9591 15.77 6.13081 16.086 6.25788 16.4204C6.45173 16.1495 6.67111 15.8974 6.91306 15.6674V15.6674Z" stroke="#231916" stroke-width="0.2" stroke-linejoin="round"/>
<path id="Vector_38" fill-rule="evenodd" clip-rule="evenodd" d="M7.518 13.333C7.1254 13.7622 6.81177 14.2561 6.59131 14.7922C6.72899 15.0723 6.8368 15.3657 6.91299 15.6678C7.20037 15.3935 7.51932 15.1535 7.8633 14.9528C7.86424 14.3949 7.7466 13.843 7.518 13.333Z" stroke="#231916" stroke-width="0.2" stroke-linejoin="round"/>
<path id="Vector_39" fill-rule="evenodd" clip-rule="evenodd" d="M7.84555 14.6374C8.24244 14.0781 8.67312 13.5431 9.13524 13.0351C9.05556 12.9505 8.97292 12.8659 8.89324 12.7783C8.43962 13.0916 8.04674 13.4831 7.7334 13.934C7.78847 14.1654 7.82596 14.4005 7.84555 14.6374V14.6374Z" stroke="#231916" stroke-width="0.2" stroke-linejoin="round"/>
<path id="Vector_40" d="M7.62712 24.7938C7.0076 24.2731 6.43033 23.7052 5.90063 23.0952" stroke="#231916" stroke-width="0.2" stroke-linejoin="round"/>
<path id="Vector_41" d="M6.16638 23.1212C5.42793 22.4262 4.75155 21.6695 4.14478 20.8594" stroke="#231916" stroke-width="0.2" stroke-linejoin="round"/>
<path id="Vector_42" d="M5.54049 20.9206C4.94608 20.1018 4.43312 19.228 4.00879 18.3115" stroke="#231916" stroke-width="0.2" stroke-linejoin="round"/>
<path id="Vector_43" d="M5.03303 18.9359C4.86923 18.2997 4.7431 17.6546 4.65527 17.0039" stroke="#231916" stroke-width="0.2" stroke-linejoin="round"/>
<path id="Vector_44" d="M5.24536 14.9668C5.31503 15.8032 5.47027 16.6304 5.70871 17.4358" stroke="#231916" stroke-width="0.2" stroke-linejoin="round"/>
<path id="Vector_45" d="M6.24598 14.2578C6.1716 14.8913 6.13906 15.5289 6.14859 16.1665" stroke="#231916" stroke-width="0.2" stroke-linejoin="round"/>
<path id="Vector_46" d="M7.5267 13.3501C7.24399 14.1002 7.03833 14.8765 6.91284 15.6674" stroke="#231916" stroke-width="0.2" stroke-linejoin="round"/>
<path id="Vector_47" fill-rule="evenodd" clip-rule="evenodd" d="M5.88282 19.0299C5.85081 18.9466 5.80269 18.8703 5.74116 18.8052C5.58023 19.2838 5.49269 19.7835 5.48145 20.2878C5.51938 21.221 5.85168 22.119 6.43175 22.856C6.30895 22.4664 6.21039 22.0697 6.13662 21.6682C5.85704 20.8179 5.77038 19.9171 5.88282 19.0299V19.0299Z" stroke="#231916" stroke-width="0.2" stroke-linejoin="round"/>
<path id="Vector_48" fill-rule="evenodd" clip-rule="evenodd" d="M6.23413 23.8744C5.62852 23.5935 5.03753 23.2828 4.46338 22.9434C5.12151 23.8189 6.03935 24.4785 6.70928 24.5952L6.23413 23.8744Z" stroke="#231916" stroke-width="0.2" stroke-linejoin="round"/>
<path id="Vector_49" fill-rule="evenodd" clip-rule="evenodd" d="M9.37727 13.3501C8.72048 13.7193 8.19253 14.277 7.86328 14.9494C7.98428 14.8911 8.11414 14.8152 8.24399 14.7656C8.24421 14.8472 8.2343 14.9285 8.21448 15.0078L8.67192 14.6751C8.9345 14.3004 9.22346 13.9444 9.53664 13.6098L9.37727 13.3501Z" stroke="#231916" stroke-width="0.2" stroke-linejoin="round"/>
<path id="Vector_50" fill-rule="evenodd" clip-rule="evenodd" d="M6.69725 15.9097C6.27522 17.0012 5.9919 17.9205 5.74105 18.8048C5.57776 19.2828 5.49016 19.7829 5.48134 20.2874C5.24524 17.8067 5.80598 16.8815 6.69725 15.9097Z" stroke="#231916" stroke-width="0.2" stroke-linejoin="round"/>
<path id="Vector_51" fill-rule="evenodd" clip-rule="evenodd" d="M7.14311 25.5028C6.63474 25.2693 6.14188 25.0042 5.66748 24.709C5.982 25.1453 6.36452 25.5294 6.80076 25.8472C6.92164 25.7392 7.03596 25.6242 7.14311 25.5028V25.5028Z" stroke="#231916" stroke-width="0.2" stroke-miterlimit="22.93"/>
<path id="Vector_52" fill-rule="evenodd" clip-rule="evenodd" d="M8.24379 14.7686C7.66586 15.0292 7.1477 15.4036 6.72095 15.8688L6.83605 16.5167C7.21212 15.9423 7.68182 15.4334 8.22608 15.0108C8.2439 14.9313 8.24986 14.8497 8.24379 14.7686V14.7686Z" stroke="#231916" stroke-width="0.2" stroke-linejoin="round"/>
<path id="Vector_53" fill-rule="evenodd" clip-rule="evenodd" d="M5.74713 18.8081C5.74098 19.1536 5.77064 19.4988 5.83567 19.8383C5.83455 19.5682 5.85032 19.2982 5.88289 19.0299C5.85218 18.9482 5.80612 18.8729 5.74713 18.8081V18.8081Z" stroke="#231916" stroke-width="0.2" stroke-linejoin="round"/>
<path id="Vector_54" fill-rule="evenodd" clip-rule="evenodd" d="M7.41187 15.755C7.66429 15.4768 7.94078 15.221 8.23822 14.9904C8.23822 14.9174 8.23822 14.8415 8.23822 14.7686C7.9422 15.08 7.66621 15.4094 7.41187 15.755V15.755Z" stroke="#231916" stroke-width="0.2" stroke-linejoin="round"/>
<path id="Vector_55" fill-rule="evenodd" clip-rule="evenodd" d="M12.5969 11.5C13.9541 11.5029 15.2833 11.882 16.4335 12.5944C15.9405 12.9882 15.5659 13.508 15.3504 14.0974C14.4369 13.7141 13.4519 13.5255 12.4598 13.5441C11.4676 13.5627 10.4906 13.7881 9.59249 14.2054C9.39995 13.6245 9.05587 13.104 8.59497 12.6966C9.78098 11.9174 11.173 11.5012 12.5969 11.5Z" fill="#917428"/>
<path id="Vector_56" fill-rule="evenodd" clip-rule="evenodd" d="M12.5969 13.543C16.286 13.543 19.2786 16.3389 19.2786 19.7856C19.2786 23.2323 16.286 26.0311 12.5969 26.0311C8.90785 26.0311 5.91528 23.2352 5.91528 19.7856C5.91528 16.336 8.90785 13.543 12.5969 13.543Z" fill="url(#paint0_linear_964_20528)"/>
<path id="Vector_57" fill-rule="evenodd" clip-rule="evenodd" d="M18.8212 26.2619C17.0933 27.6903 14.9177 28.4813 12.6657 28.4999C10.4137 28.5185 8.22494 27.7636 6.47314 26.364C7.21969 25.9164 7.80585 25.249 8.14946 24.4554C9.43521 25.5049 11.059 26.0636 12.7259 26.0299C14.3928 25.9961 15.9922 25.3722 17.2334 24.2715C17.5346 25.0854 18.0909 25.7827 18.8212 26.2619Z" fill="#775825"/>
<path id="Vector_58" fill-rule="evenodd" clip-rule="evenodd" d="M11.936 13.1813V13.0325C11.9724 13.0266 12.0063 13.0104 12.0334 12.9858C12.0589 12.9674 12.0768 12.9404 12.0836 12.9099C12.0898 12.8742 12.0898 12.8376 12.0836 12.8019V12.7669C12.0392 12.7841 11.9939 12.7987 11.9478 12.8107V12.6677C11.9943 12.6559 12.0398 12.6403 12.0836 12.621V12.5918C12.084 12.5753 12.0808 12.5589 12.0741 12.5438C12.0675 12.5287 12.0577 12.5152 12.0452 12.5042C12.0166 12.4879 11.9837 12.4808 11.9508 12.4838V12.3145C12.0194 12.3059 12.089 12.3129 12.1544 12.335C12.1995 12.3484 12.2389 12.3761 12.2666 12.4138C12.2968 12.4745 12.312 12.5416 12.3108 12.6093L12.3286 12.8661C12.33 12.9202 12.3369 12.974 12.3492 13.0266C12.3616 13.0645 12.3784 13.1007 12.3994 13.1346L12.1721 13.1521L12.1456 13.0908C12.1446 13.0821 12.1446 13.0733 12.1456 13.0646C12.1117 13.1023 12.0706 13.1331 12.0246 13.155C12.0043 13.1668 11.9824 13.1756 11.9596 13.1813H11.936ZM13.3349 13.1813H13.1077L13.1254 12.7552C13.1313 12.697 13.1313 12.6383 13.1254 12.5801C13.116 12.5548 13.0996 12.5326 13.0782 12.5159C13.0547 12.5001 13.0269 12.4919 12.9985 12.4925C12.9602 12.4893 12.9218 12.4986 12.8893 12.5188C12.8583 12.5368 12.8344 12.5645 12.8214 12.5976C12.8024 12.66 12.7934 12.725 12.7948 12.7902L12.7801 13.1667H12.5499L12.5853 12.332H12.7978V12.4546C12.833 12.4115 12.8782 12.3773 12.9296 12.3549C12.9809 12.3326 13.0369 12.3227 13.0929 12.3262C13.1399 12.3275 13.1862 12.3384 13.2287 12.3583C13.265 12.3745 13.2972 12.3984 13.3231 12.4283C13.3426 12.4577 13.3566 12.4903 13.3644 12.5247C13.3696 12.5741 13.3696 12.624 13.3644 12.6735L13.3408 13.1901L13.3349 13.1813ZM13.5592 13.2105L13.7658 12.0781L13.9931 12.119L13.8809 12.7202L14.1996 12.475L14.4771 12.5247L14.1318 12.7669L14.3472 13.3506L14.0993 13.301L13.9517 12.8924L13.8278 12.9799L13.7776 13.2426L13.5592 13.2105ZM10.6995 12.2124C10.7499 12.1993 10.8012 12.1896 10.8529 12.1832C10.8979 12.18 10.9431 12.186 10.9857 12.2007C11.0275 12.2177 11.0656 12.2424 11.0979 12.2737C11.1302 12.3085 11.1535 12.3505 11.1658 12.3962C11.182 12.4465 11.182 12.5006 11.1658 12.5509C11.1477 12.6012 11.1148 12.6449 11.0713 12.6764C11.1384 12.6788 11.2032 12.7012 11.2572 12.7406C11.3075 12.7801 11.342 12.8359 11.3546 12.8982C11.3664 12.9492 11.3658 13.0022 11.353 13.0529C11.3402 13.1036 11.3155 13.1506 11.2809 13.1901C11.2405 13.2304 11.1909 13.2604 11.1362 13.2776C11.0979 13.2776 11.0034 13.3156 10.8411 13.3535L10.7024 13.3856V13.1842L10.8529 13.1492C10.9069 13.1378 10.9601 13.1232 11.0123 13.1054C11.0444 13.0932 11.0715 13.0705 11.089 13.0412C11.1028 13.0075 11.1028 12.9699 11.089 12.9362C11.0827 12.9061 11.0672 12.8786 11.0448 12.8574C11.0208 12.8369 10.9908 12.8246 10.9592 12.8223C10.8873 12.8249 10.816 12.8356 10.7467 12.8544H10.6936V12.6589C10.7415 12.649 10.7888 12.6364 10.8352 12.621C10.8705 12.6119 10.9011 12.59 10.9208 12.5597C10.9275 12.545 10.9309 12.5291 10.9309 12.513C10.9309 12.4969 10.9275 12.481 10.9208 12.4663C10.9186 12.4507 10.9132 12.4358 10.9051 12.4222C10.897 12.4087 10.8863 12.3969 10.8736 12.3875C10.8436 12.3693 10.8077 12.363 10.7732 12.37L10.6818 12.3875V12.1919L10.6995 12.2124ZM11.936 12.3233V12.475H11.9036C11.8704 12.4757 11.8383 12.4869 11.8121 12.5071C11.7861 12.5301 11.7685 12.5609 11.7619 12.5947L11.5524 12.5743C11.5642 12.5007 11.6018 12.4335 11.6586 12.3846C11.7324 12.3341 11.8198 12.3066 11.9095 12.3058L11.936 12.3233ZM11.936 12.6706V12.8136C11.8965 12.822 11.8586 12.8368 11.8239 12.8574C11.8109 12.8667 11.8003 12.879 11.7932 12.8932C11.786 12.9075 11.7823 12.9232 11.7826 12.9391C11.7842 12.9541 11.7889 12.9686 11.7966 12.9817C11.8042 12.9947 11.8145 13.0061 11.8268 13.015C11.8527 13.0354 11.8853 13.0458 11.9183 13.0441H11.936V13.193H11.8623C11.7859 13.203 11.7086 13.1831 11.6468 13.1375C11.6202 13.117 11.5985 13.0909 11.5832 13.0612C11.5679 13.0314 11.5594 12.9987 11.5583 12.9653C11.5524 12.9221 11.5607 12.8781 11.5819 12.8398C11.6028 12.8008 11.6345 12.7684 11.6734 12.7465C11.7304 12.7177 11.7909 12.6961 11.8534 12.6823L11.936 12.6706ZM10.1653 12.332L10.6316 12.224H10.6906V12.4196L10.5814 12.4429L10.4457 12.475L10.5076 12.7348L10.6611 12.6968H10.6906V12.8924L10.5519 12.9274L10.6227 13.2193L10.6906 13.2017V13.4031L10.4338 13.4615L10.1653 12.332Z" fill="white"/>
<path id="Vector_59" fill-rule="evenodd" clip-rule="evenodd" d="M12.597 14.7544C15.5158 14.7544 17.8827 16.9433 17.8827 19.6487C17.8827 22.3541 15.5217 24.5401 12.597 24.5401C9.67228 24.5401 7.31128 22.3512 7.31128 19.6487C7.31128 16.9462 9.67228 14.7544 12.597 14.7544Z" fill="#231916"/>
<path id="Vector_60" fill-rule="evenodd" clip-rule="evenodd" d="M17.1007 26.6734V26.4574L17.1538 26.437C17.1948 26.4099 17.2266 26.3712 17.2453 26.3261C17.2568 26.292 17.2568 26.2551 17.2453 26.221C17.2301 26.1801 17.2103 26.1409 17.1863 26.1043L17.1597 26.0605L17.0918 26.1306V25.5848C17.1105 25.5902 17.1284 25.5981 17.145 25.6082C17.2105 25.6562 17.2631 25.7193 17.2984 25.792L17.4548 26.0576C17.4876 26.1141 17.5251 26.1678 17.567 26.2181C17.6003 26.2518 17.6368 26.2821 17.6762 26.3086L17.4519 26.4399L17.3929 26.3874L17.3663 26.367C17.3525 26.4233 17.3285 26.4767 17.2955 26.5246C17.2626 26.5687 17.2215 26.6064 17.1745 26.6355C17.1513 26.6506 17.1265 26.6633 17.1007 26.6734ZM17.1007 25.5848V26.1306L17.0505 26.1743C17.0131 26.2079 16.9804 26.2461 16.9531 26.2882C16.9443 26.3043 16.9398 26.3224 16.9398 26.3407C16.9398 26.359 16.9443 26.3771 16.9531 26.3932C16.9624 26.4087 16.9748 26.4221 16.9895 26.4326C17.0042 26.4432 17.021 26.4506 17.0387 26.4545C17.0581 26.4589 17.0783 26.4589 17.0977 26.4545V26.6705C17.0429 26.6866 16.9844 26.6866 16.9295 26.6705C16.8908 26.6612 16.8543 26.6443 16.8224 26.6207C16.7904 26.5971 16.7636 26.5674 16.7436 26.5333C16.7155 26.4886 16.7002 26.4371 16.6993 26.3845C16.6994 26.3326 16.7147 26.2819 16.7436 26.2385C16.7866 26.1807 16.8361 26.1278 16.8912 26.0809C16.9594 26.0251 17.0217 25.9625 17.0771 25.8942L17.0623 25.8737C17.0537 25.8557 17.0414 25.8396 17.0262 25.8265C17.0109 25.8135 16.9931 25.8037 16.9738 25.7979C16.9239 25.7968 16.8751 25.8122 16.8351 25.8416C16.8003 25.8582 16.7722 25.886 16.7554 25.9204C16.7431 25.9594 16.7431 26.0011 16.7554 26.0401L16.6108 26.0926V25.7628C16.6531 25.723 16.6996 25.6877 16.7495 25.6578C16.8244 25.6088 16.9089 25.576 16.9974 25.5615C17.0317 25.5569 17.0664 25.5569 17.1007 25.5615V25.5848ZM16.6108 26.8981L16.7141 26.8573L16.6108 26.6209V26.8981ZM16.6108 25.7803V26.1101L16.5282 26.1422C16.4996 26.059 16.4996 25.9687 16.5282 25.8854C16.547 25.846 16.573 25.8104 16.6049 25.7803H16.6108ZM16.6108 26.6209L16.4603 26.2882C16.4391 26.2326 16.4114 26.1797 16.3776 26.1306C16.3533 26.0973 16.3221 26.0694 16.2861 26.0488C16.2456 26.0266 16.1997 26.0155 16.1533 26.0167C16.0985 26.0161 16.0442 26.0271 15.994 26.0488C15.9332 26.0746 15.8796 26.1147 15.8379 26.1655C15.7963 26.2164 15.7678 26.2765 15.7549 26.3407L15.6989 26.2064L15.4746 26.2998L15.87 27.2075L16.112 27.1053L15.935 26.6909C15.9039 26.6251 15.882 26.5554 15.87 26.4837C15.8649 26.4416 15.8754 26.3991 15.8995 26.364C15.9223 26.3272 15.9564 26.2985 15.9969 26.2823C16.0286 26.2723 16.0626 26.2723 16.0943 26.2823C16.1254 26.2886 16.1535 26.3051 16.174 26.329C16.2134 26.3864 16.2461 26.4481 16.2714 26.5129L16.4721 26.9798L16.6108 26.9215V26.6296V26.6209ZM15.4834 26.3203V26.5567C15.4401 26.5438 15.3939 26.5438 15.3506 26.5567C15.3181 26.5667 15.2901 26.5872 15.2709 26.615C15.2503 26.6524 15.2421 26.6953 15.2473 26.7376C15.263 26.8479 15.2897 26.9564 15.327 27.0616L15.4214 27.3534L15.1706 27.4293L14.8755 26.5333V26.4837L15.0909 26.4166L15.1322 26.5508C15.1445 26.4945 15.1676 26.441 15.2001 26.3932C15.2266 26.3628 15.2615 26.3405 15.3004 26.329C15.3593 26.3128 15.4216 26.3128 15.4805 26.329L15.4834 26.3203ZM14.8932 27.2979C14.8948 27.2707 14.8948 27.2434 14.8932 27.2162V27.2979ZM14.8932 26.4808V26.5391L14.8755 26.4866H14.8932V26.4808ZM14.8932 27.2192V27.2979C14.8762 27.3603 14.8437 27.4175 14.7987 27.4643C14.7309 27.5328 14.6433 27.5787 14.5479 27.5956C14.4999 27.6027 14.4512 27.6027 14.4033 27.5956V27.3826C14.4379 27.393 14.4749 27.393 14.5095 27.3826C14.5468 27.3763 14.5805 27.3565 14.6039 27.3271C14.6284 27.2919 14.6418 27.2502 14.6423 27.2075H14.8932V27.2192ZM14.3944 27.1871V27.0207L14.5921 26.9798C14.5821 26.9173 14.5484 26.8609 14.4977 26.8222C14.4695 26.7957 14.4331 26.7793 14.3944 26.7755V26.5742C14.4917 26.5696 14.5877 26.5985 14.6659 26.6559C14.7853 26.7643 14.8616 26.9112 14.8814 27.0703L14.3944 27.1871ZM14.3944 26.5858V26.7755H14.3501C14.3236 26.7807 14.2987 26.7918 14.2772 26.808C14.2557 26.8242 14.2383 26.8451 14.2262 26.8689C14.2112 26.8959 14.2019 26.9256 14.1989 26.9562C14.1959 26.9868 14.1991 27.0176 14.2085 27.047L14.3944 27.0061V27.1725L14.238 27.2046C14.2513 27.2697 14.2867 27.3284 14.3383 27.3709C14.3558 27.382 14.3746 27.3908 14.3944 27.3972V27.6102C14.2964 27.6114 14.2015 27.5759 14.1288 27.511C14.0412 27.4252 13.9815 27.3154 13.9576 27.1958C13.9218 27.0588 13.9375 26.9136 14.0019 26.7872C14.0328 26.7337 14.0753 26.6877 14.1263 26.6524C14.1773 26.617 14.2356 26.5933 14.297 26.5829C14.3313 26.5788 14.366 26.5788 14.4003 26.5829L14.3944 26.5858ZM13.3851 27.7824V27.5665H13.4087C13.4416 27.5644 13.4737 27.555 13.5023 27.5388C13.531 27.5226 13.5555 27.5001 13.5739 27.4731C13.6191 27.4039 13.6379 27.3212 13.6271 27.2396C13.6269 27.1587 13.5964 27.0807 13.5415 27.0207C13.5213 26.9997 13.497 26.9829 13.4702 26.9714C13.4433 26.9599 13.4144 26.9538 13.3851 26.9536V26.7376C13.5099 26.7342 13.6313 26.7781 13.7245 26.8602C13.8248 26.9558 13.8857 27.0848 13.8955 27.2222C13.9053 27.3596 13.8633 27.4958 13.7776 27.6044C13.7349 27.6572 13.6811 27.7002 13.62 27.7304C13.5588 27.7607 13.4918 27.7774 13.4234 27.7795L13.3851 27.7824ZM13.3851 26.7376V26.9536H13.3644C13.3314 26.9558 13.2994 26.9651 13.2703 26.9807C13.2413 26.9963 13.216 27.0179 13.1962 27.044C13.1515 27.1134 13.1328 27.196 13.1431 27.2775C13.1428 27.3594 13.1733 27.4385 13.2287 27.4993C13.2702 27.5407 13.3262 27.5647 13.3851 27.5665V27.7824C13.3069 27.7827 13.2294 27.7668 13.1578 27.7357C13.0742 27.7021 13.0039 27.6428 12.9571 27.5665C12.9047 27.4776 12.8753 27.3774 12.8716 27.2746C12.8653 27.1864 12.8816 27.0981 12.9188 27.0178C12.9545 26.9363 13.0128 26.8665 13.087 26.8164C13.1653 26.7681 13.2546 26.74 13.3467 26.7347L13.3851 26.7376ZM12.2843 27.8116V27.6073C12.3135 27.6076 12.3424 27.6014 12.3689 27.5893C12.3955 27.5772 12.419 27.5594 12.4377 27.5373C12.4854 27.4657 12.5082 27.3806 12.5026 27.295C12.5118 27.2131 12.492 27.1306 12.4466 27.0616C12.429 27.0372 12.406 27.0172 12.3794 27.0031C12.3528 26.9889 12.3233 26.981 12.2931 26.9798V26.7755C12.3216 26.7725 12.3502 26.7725 12.3787 26.7755C12.4356 26.7759 12.4917 26.7889 12.5428 26.8136C12.5939 26.8384 12.6387 26.8743 12.6738 26.9185C12.7506 27.0331 12.7898 27.1682 12.7861 27.3056C12.7824 27.4429 12.736 27.5758 12.6532 27.6861C12.6172 27.7286 12.5719 27.7624 12.5208 27.7852C12.4697 27.8079 12.4141 27.819 12.358 27.8174L12.2843 27.8116ZM12.2843 26.7843V26.9798C12.2549 26.9805 12.226 26.9874 12.1996 27C12.1731 27.0125 12.1497 27.0306 12.1308 27.0528C12.0844 27.1164 12.0605 27.1933 12.0629 27.2717C12.0532 27.3599 12.0752 27.4488 12.1249 27.5227C12.1427 27.5483 12.1665 27.5694 12.1942 27.5841C12.2219 27.5988 12.2528 27.6068 12.2843 27.6073V27.8116C12.2537 27.8054 12.2239 27.7956 12.1957 27.7824C12.1424 27.7525 12.0954 27.7129 12.057 27.6657V28.1647H11.7943L11.8268 26.7901H12.0718V26.9361C12.1057 26.8862 12.1512 26.8451 12.2046 26.8164C12.2342 26.8009 12.266 26.7901 12.299 26.7843H12.2843ZM10.121 27.4818V27.3592L10.304 26.51L10.5401 26.5596L10.5135 26.6938C10.5583 26.6544 10.6117 26.6257 10.6695 26.61C10.7274 26.5943 10.7881 26.592 10.847 26.6034C10.9038 26.6137 10.9568 26.6389 11.0005 26.6763C11.0419 26.7145 11.0725 26.7628 11.089 26.8164C11.1371 26.7782 11.1922 26.7494 11.2513 26.7318C11.3066 26.7186 11.3642 26.7186 11.4195 26.7318C11.4828 26.7439 11.5418 26.772 11.5907 26.8135C11.6344 26.8537 11.6634 26.9071 11.6733 26.9652C11.6806 27.0348 11.6746 27.1051 11.6556 27.1725L11.5199 27.7941L11.2631 27.7386L11.3841 27.1841C11.3988 27.1207 11.3988 27.0549 11.3841 26.9915C11.3765 26.971 11.3634 26.9528 11.3463 26.939C11.3292 26.9251 11.3086 26.9161 11.2867 26.9127C11.251 26.9027 11.2132 26.9027 11.1775 26.9127C11.1395 26.9292 11.1083 26.958 11.089 26.9944C11.0571 27.0558 11.0352 27.1218 11.0241 27.19L10.9208 27.6569L10.664 27.6044L10.7821 27.0703C10.7965 27.009 10.8045 26.9464 10.8057 26.8835C10.8042 26.8581 10.795 26.8336 10.7791 26.8135C10.7589 26.7944 10.733 26.7822 10.7053 26.7785C10.6679 26.7666 10.6277 26.7666 10.5902 26.7785C10.5537 26.7945 10.5229 26.8209 10.5017 26.8543C10.4703 26.917 10.4484 26.9838 10.4368 27.0528L10.3335 27.5256L10.1062 27.476L10.121 27.4818ZM10.121 26.7434C10.1398 26.6911 10.1478 26.6355 10.1446 26.58C10.1408 26.5546 10.1328 26.5299 10.121 26.507V26.7434ZM10.121 26.507V26.7434C10.1134 26.7673 10.1046 26.7906 10.0944 26.8135L9.98523 27.1053C9.95991 27.1645 9.94111 27.2261 9.92915 27.2892C9.92168 27.3366 9.92168 27.3848 9.92915 27.4322L9.6842 27.3417C9.6842 27.3242 9.6842 27.298 9.6842 27.26C9.68517 27.2503 9.68517 27.2405 9.6842 27.2308C9.65447 27.2428 9.62389 27.2525 9.59271 27.26V27.1112C9.60536 27.1138 9.61843 27.1138 9.63108 27.1112C9.66702 27.1017 9.69902 27.0813 9.72257 27.0528C9.74391 27.0156 9.7617 26.9765 9.77569 26.9361L9.7934 26.8864L9.63108 26.8689H9.59271V26.7055C9.6792 26.7226 9.76717 26.7314 9.85537 26.7318V26.7055C9.86343 26.6876 9.86759 26.6682 9.86759 26.6486C9.86759 26.629 9.86343 26.6096 9.85537 26.5917C9.82562 26.5522 9.78279 26.5243 9.73437 26.5129C9.69801 26.5006 9.65858 26.5006 9.62222 26.5129C9.60732 26.5156 9.59321 26.5216 9.58091 26.5304V26.2969C9.66385 26.2937 9.74648 26.3087 9.82291 26.3407C9.90805 26.3667 9.98655 26.4105 10.0531 26.4691C10.0735 26.4893 10.0913 26.5118 10.1062 26.5362L10.121 26.507ZM10.121 27.3505L10.0915 27.476H10.121V27.3505ZM9.23561 25.7015C9.27744 25.7445 9.31051 25.795 9.333 25.8504C9.35196 25.9047 9.35939 25.9622 9.35482 26.0195C9.35024 26.0767 9.33378 26.1324 9.30644 26.1831L9.23561 26.1481V25.7015ZM9.58386 26.2677V26.5012C9.56329 26.5156 9.54533 26.5334 9.53073 26.5537L9.3212 26.4312C9.37002 26.3576 9.44298 26.303 9.52778 26.2765C9.54644 26.2749 9.5652 26.2749 9.58386 26.2765V26.2677ZM9.58386 26.688V26.8514C9.54673 26.8453 9.50883 26.8453 9.47171 26.8514C9.45326 26.8557 9.43613 26.8643 9.42174 26.8765C9.40736 26.8887 9.39616 26.9041 9.38907 26.9215C9.37578 26.9542 9.37578 26.9908 9.38907 27.0236C9.39704 27.0413 9.40884 27.0569 9.42363 27.0695C9.43842 27.0822 9.45585 27.0914 9.47466 27.0966C9.50833 27.1067 9.54429 27.1067 9.57795 27.0966V27.2454C9.55147 27.2482 9.52476 27.2482 9.49827 27.2454C9.44193 27.2482 9.38563 27.2392 9.333 27.2192C9.29656 27.2058 9.26188 27.1882 9.22971 27.1666V26.6938C9.26826 26.6676 9.31296 26.6515 9.35956 26.6471C9.43208 26.6382 9.50544 26.6382 9.57795 26.6471L9.58386 26.688ZM8.10823 26.1481L8.35909 26.2531C8.33295 26.3248 8.33295 26.4033 8.35909 26.4749C8.38938 26.5399 8.44153 26.5925 8.50665 26.6238C8.56689 26.6624 8.63928 26.6779 8.71029 26.6676C8.73584 26.663 8.76011 26.653 8.78148 26.6384C8.80285 26.6238 8.82084 26.6049 8.83424 26.5829C8.84277 26.5543 8.84277 26.5239 8.83424 26.4954C8.82281 26.459 8.80254 26.4259 8.77521 26.3991C8.7516 26.3728 8.69553 26.3203 8.60994 26.2415C8.51946 26.1709 8.44757 26.0798 8.4004 25.9759C8.36885 25.8935 8.3685 25.8026 8.39942 25.72C8.43034 25.6374 8.49044 25.5686 8.56863 25.5264C8.63544 25.4908 8.71145 25.4756 8.78702 25.4827C8.87824 25.4943 8.96639 25.523 9.04673 25.5673C9.11582 25.6029 9.17942 25.6481 9.23561 25.7015V26.1481L9.05558 26.0605C9.07591 26.0059 9.07591 25.9459 9.05558 25.8912C9.02667 25.8367 8.97983 25.7934 8.92278 25.7687C8.8666 25.7334 8.80005 25.718 8.7339 25.7249C8.7171 25.7272 8.70111 25.7334 8.68725 25.7431C8.67339 25.7527 8.66206 25.7655 8.65421 25.7803C8.64753 25.795 8.64408 25.8109 8.64408 25.827C8.64408 25.8431 8.64753 25.8591 8.65421 25.8737C8.70165 25.9501 8.76264 26.0173 8.83424 26.0722C8.91516 26.1391 8.98751 26.2156 9.04968 26.2998C9.08821 26.3583 9.11059 26.4257 9.11461 26.4954C9.11607 26.5711 9.09669 26.6457 9.05853 26.7113C9.02016 26.7809 8.96293 26.8385 8.89326 26.8777C8.82125 26.9168 8.73884 26.9331 8.65716 26.9244C8.55328 26.9121 8.45294 26.8793 8.36204 26.8281C8.23101 26.7696 8.12606 26.6658 8.06691 26.5362C8.02396 26.4089 8.03134 26.2702 8.08757 26.1481H8.10823ZM9.24151 26.7318C9.2008 26.7659 9.17021 26.8102 9.15297 26.8602C9.13755 26.8962 9.12961 26.9349 9.12961 26.974C9.12961 27.0131 9.13755 27.0518 9.15297 27.0878C9.1741 27.1307 9.20551 27.1677 9.24446 27.1958L9.24151 26.7318Z" fill="white"/>
<path id="Vector_61" fill-rule="evenodd" clip-rule="evenodd" d="M14.5093 25.4154V25.3483C14.5211 25.3681 14.535 25.3867 14.5506 25.4038H14.5093V25.4154ZM14.5093 24.9047V24.7646H14.5418L14.5093 24.6596V24.6391L14.6362 24.502L14.7041 24.715L14.8133 24.68L14.8546 24.8055L14.7425 24.8405L14.8221 25.0827C14.8302 25.1115 14.84 25.1398 14.8517 25.1674C14.8561 25.1755 14.8635 25.1817 14.8723 25.1849C14.8819 25.1878 14.8922 25.1878 14.9018 25.1849C14.9245 25.1757 14.9454 25.1629 14.9638 25.1469L15.0169 25.2666C14.9818 25.2964 14.9405 25.3183 14.8959 25.3308C14.8687 25.3366 14.8405 25.3366 14.8133 25.3308C14.7909 25.3313 14.769 25.324 14.7513 25.3104C14.7332 25.2955 14.719 25.2765 14.71 25.2549C14.6919 25.2197 14.678 25.1825 14.6687 25.144L14.5831 24.8814L14.5093 24.9047ZM14.5093 24.6304V24.6508V24.6304ZM14.5093 24.7646V24.9047L14.468 24.7792H14.5093V24.7646ZM14.5093 25.3483V25.3308C14.4922 25.2931 14.4784 25.2541 14.468 25.2141L14.4208 25.0244C14.4126 24.9741 14.3912 24.9268 14.3588 24.8872C14.3344 24.862 14.3022 24.8456 14.2673 24.8405C14.2458 24.8376 14.2239 24.8376 14.2024 24.8405V24.9777C14.2131 24.9843 14.2221 24.9933 14.2288 25.0039C14.2354 25.0145 14.2395 25.0265 14.2407 25.039V25.0535C14.2239 25.0678 14.205 25.0796 14.1847 25.0886V25.2053L14.2673 25.1586V25.1907C14.2726 25.2167 14.2726 25.2435 14.2673 25.2695C14.2667 25.2929 14.2584 25.3154 14.2437 25.3337C14.2251 25.3589 14.1978 25.3766 14.167 25.3833V25.5059C14.1973 25.4972 14.2255 25.4823 14.2496 25.4621C14.2795 25.4389 14.3045 25.4101 14.3234 25.3775V25.395L14.3499 25.4388L14.4709 25.4067L14.5093 25.3483ZM14.1935 24.8405V24.9777C14.1664 24.9711 14.138 24.9711 14.1109 24.9777C14.0987 24.9791 14.087 24.9829 14.0763 24.989C14.0657 24.995 14.0563 25.003 14.0489 25.0127C14.0405 25.0223 14.0341 25.0334 14.0301 25.0454C14.026 25.0574 14.0244 25.0701 14.0253 25.0827H13.8689C13.8683 25.0272 13.8859 24.9729 13.9191 24.9281C13.967 24.8834 14.0261 24.8522 14.0902 24.8376L14.1935 24.8201V24.8405ZM14.1935 25.0944L14.102 25.1411C14.0601 25.16 14.0205 25.1835 13.984 25.2111C13.9589 25.2334 13.9405 25.2621 13.9306 25.2939C13.9207 25.3258 13.9198 25.3597 13.9279 25.3921C13.9342 25.4164 13.9456 25.439 13.9614 25.4587C13.9771 25.4783 13.9969 25.4944 14.0194 25.5059C14.0714 25.5268 14.1297 25.5268 14.1817 25.5059V25.3833C14.1594 25.3887 14.1359 25.3853 14.1161 25.3739C14.0963 25.3625 14.0817 25.3439 14.0755 25.322C14.0725 25.3107 14.0726 25.2989 14.0757 25.2876C14.0788 25.2764 14.0848 25.2661 14.0932 25.2578C14.1177 25.2375 14.1445 25.2199 14.1729 25.2053V25.0886L14.1935 25.0944ZM13.4734 25.6227V25.503C13.483 25.5059 13.4933 25.5059 13.5029 25.503C13.5215 25.5015 13.5394 25.4954 13.5549 25.4852C13.5704 25.475 13.583 25.461 13.5915 25.4446C13.6162 25.398 13.6245 25.3446 13.6151 25.2929C13.6128 25.2372 13.592 25.1839 13.5561 25.1411C13.5454 25.1301 13.5325 25.1213 13.5183 25.1153C13.5041 25.1093 13.4889 25.1061 13.4734 25.1061V24.9747C13.5091 24.97 13.5455 24.9727 13.58 24.9828C13.6146 24.9929 13.6467 25.01 13.6741 25.0331C13.7369 25.0945 13.7747 25.1765 13.7804 25.2637C13.7964 25.3521 13.7796 25.4433 13.7331 25.5205C13.7134 25.5502 13.6874 25.5753 13.6568 25.594C13.6262 25.6127 13.5918 25.6244 13.5561 25.6285C13.5284 25.6304 13.5006 25.6284 13.4734 25.6227ZM13.4734 24.9747V25.1061H13.4498C13.4306 25.1081 13.4121 25.1144 13.3958 25.1245C13.3794 25.1346 13.3656 25.1483 13.3554 25.1644C13.3294 25.2085 13.3209 25.2605 13.3318 25.3104C13.3351 25.3603 13.3514 25.4085 13.379 25.4505C13.4022 25.4797 13.4361 25.4985 13.4734 25.503V25.6227H13.4498C13.4118 25.6065 13.3776 25.5827 13.3495 25.5526V25.646L13.1931 25.6635L13.0898 24.788L13.258 24.7675L13.2963 25.0798C13.3142 25.0509 13.3382 25.0263 13.3668 25.0076C13.3954 24.9889 13.4277 24.9767 13.4616 24.9718L13.4734 24.9747ZM12.709 25.6898V25.5789C12.7339 25.5737 12.7572 25.5627 12.7769 25.5468C12.7964 25.5338 12.8102 25.514 12.8153 25.4913C12.8192 25.4642 12.8192 25.4367 12.8153 25.4096V25.3775C12.7917 25.3775 12.7592 25.395 12.712 25.4038V25.3162C12.7491 25.3078 12.7855 25.2971 12.8212 25.2841V25.2666C12.8208 25.2409 12.8114 25.2162 12.7946 25.1966C12.7695 25.1825 12.7407 25.1764 12.712 25.179V25.0244C12.7691 25.0204 12.8264 25.0283 12.8802 25.0477C12.913 25.0602 12.9409 25.0827 12.9599 25.1119C12.9789 25.1592 12.988 25.2099 12.9865 25.2608V25.4563C12.9824 25.4971 12.9824 25.5381 12.9865 25.5789C12.9939 25.6073 13.0048 25.6348 13.0189 25.6606H12.8537C12.8459 25.6448 12.8399 25.6281 12.836 25.611V25.5935C12.8089 25.6193 12.7781 25.641 12.7445 25.6577L12.709 25.6898ZM12.709 25.036V25.1644C12.6839 25.1642 12.6593 25.1713 12.6382 25.1849C12.6195 25.201 12.6061 25.2224 12.5999 25.2462L12.4464 25.2257C12.4574 25.1705 12.4877 25.1209 12.532 25.0856C12.5879 25.0519 12.6524 25.0346 12.7179 25.036H12.709ZM12.709 25.3016V25.4067C12.6805 25.4134 12.6528 25.4232 12.6264 25.4359C12.6167 25.4421 12.6088 25.4508 12.6036 25.4611C12.5984 25.4713 12.5961 25.4828 12.5969 25.4942C12.5969 25.5057 12.5993 25.517 12.6038 25.5276C12.6084 25.5381 12.6151 25.5476 12.6235 25.5555C12.6326 25.5637 12.6433 25.5701 12.655 25.5741C12.6667 25.5781 12.679 25.5797 12.6913 25.5789H12.709V25.6898C12.6875 25.6926 12.6657 25.6926 12.6441 25.6898C12.5875 25.6937 12.5315 25.6759 12.4877 25.6402C12.4689 25.6238 12.4539 25.6035 12.4437 25.5809C12.4335 25.5582 12.4284 25.5336 12.4287 25.5088C12.4259 25.4751 12.4342 25.4413 12.4523 25.4125C12.4682 25.3833 12.493 25.3598 12.5231 25.3454C12.5654 25.3262 12.6101 25.3125 12.6559 25.3045H12.709V25.3016ZM11.2334 25.5351V25.4359H11.2747C11.2969 25.4261 11.3154 25.4098 11.3279 25.3892C11.3386 25.3638 11.3465 25.3374 11.3515 25.3104V25.2783H11.2275V25.1761C11.2766 25.1814 11.326 25.1814 11.3751 25.1761V25.1586C11.3845 25.1352 11.3845 25.1091 11.3751 25.0856C11.3521 25.065 11.3232 25.0518 11.2924 25.0477C11.273 25.0435 11.2529 25.0435 11.2334 25.0477V24.9164C11.2658 24.9139 11.2984 24.9139 11.3308 24.9164C11.3877 24.9256 11.442 24.9465 11.4902 24.9777C11.5187 24.9981 11.5403 25.0266 11.5522 25.0594C11.5627 25.1094 11.5627 25.1611 11.5522 25.2111L11.5079 25.3979C11.4981 25.4382 11.4922 25.4792 11.4902 25.5205C11.4864 25.5505 11.4864 25.5809 11.4902 25.611L11.3279 25.576C11.3257 25.5585 11.3257 25.5409 11.3279 25.5234C11.3283 25.5166 11.3283 25.5098 11.3279 25.503C11.302 25.5209 11.273 25.5338 11.2423 25.5409L11.2334 25.5351ZM11.8916 24.7792L11.8709 25.1002C11.8956 25.0721 11.9266 25.0501 11.9615 25.0359C11.9963 25.0217 12.034 25.0158 12.0716 25.0185C12.1076 25.0193 12.143 25.0283 12.1749 25.0448C12.2026 25.0588 12.2261 25.08 12.2428 25.1061C12.2576 25.1289 12.2667 25.1549 12.2693 25.182C12.2754 25.2236 12.2754 25.2658 12.2693 25.3075L12.2428 25.6752H12.0745L12.0981 25.3425C12.1045 25.3009 12.1045 25.2586 12.0981 25.217C12.0929 25.1998 12.0826 25.1846 12.0686 25.1732C12.0507 25.1599 12.029 25.1528 12.0067 25.1528C11.9816 25.1456 11.955 25.1456 11.9299 25.1528C11.906 25.1642 11.8871 25.184 11.8768 25.2082C11.8621 25.2465 11.8541 25.287 11.8532 25.3279L11.8296 25.6431H11.6614L11.7263 24.7675L11.8916 24.7792ZM10.23 25.0915L10.4012 25.1178C10.3975 25.1462 10.4037 25.175 10.4189 25.1995C10.44 25.2253 10.469 25.2437 10.5015 25.252C10.5342 25.2619 10.5692 25.2619 10.6019 25.252C10.6102 25.2495 10.6178 25.245 10.624 25.2389C10.6302 25.2328 10.6347 25.2252 10.6373 25.217C10.6416 25.2057 10.6416 25.1932 10.6373 25.182C10.6246 25.166 10.6084 25.1531 10.5901 25.144C10.5081 25.105 10.4333 25.0527 10.3687 24.9893C10.3503 24.9679 10.3378 24.9421 10.3326 24.9144C10.3275 24.8868 10.3297 24.8583 10.3392 24.8317C10.3471 24.8064 10.3608 24.7832 10.3792 24.764C10.3976 24.7448 10.4203 24.73 10.4454 24.7208C10.5129 24.6955 10.5875 24.6955 10.655 24.7208C10.7206 24.7366 10.7801 24.7711 10.8262 24.8201C10.8592 24.8615 10.8759 24.9133 10.8734 24.966L10.7111 24.9456C10.7133 24.9227 10.707 24.8999 10.6933 24.8814C10.675 24.8583 10.6488 24.8427 10.6196 24.8376C10.5878 24.8284 10.554 24.8284 10.5222 24.8376C10.5157 24.8391 10.5098 24.8423 10.5051 24.8469C10.5004 24.8516 10.4971 24.8574 10.4956 24.8638C10.4922 24.8691 10.4904 24.8751 10.4904 24.8814C10.4904 24.8876 10.4922 24.8937 10.4956 24.8989C10.5372 24.934 10.5828 24.9644 10.6314 24.9893C10.6924 25.0202 10.7458 25.0641 10.7878 25.1178C10.7982 25.1386 10.8036 25.1616 10.8036 25.1849C10.8036 25.2082 10.7982 25.2311 10.7878 25.252C10.7788 25.2791 10.7638 25.304 10.7439 25.3246C10.724 25.3453 10.6996 25.3614 10.6727 25.3717C10.5992 25.3977 10.5189 25.3977 10.4454 25.3717C10.3758 25.3528 10.3133 25.3142 10.2654 25.2608C10.2279 25.2147 10.209 25.1564 10.2123 25.0973L10.23 25.0915ZM11.2334 24.8989V25.0244H11.2187C11.1968 25.0372 11.1785 25.0552 11.1655 25.0769L11.0209 25.0185C11.0467 24.9689 11.0882 24.929 11.139 24.9047C11.1688 24.8922 11.201 24.8862 11.2334 24.8872V24.8989ZM11.2334 25.1674V25.2695C11.208 25.2659 11.1821 25.2659 11.1567 25.2695C11.1451 25.2724 11.1347 25.2787 11.1268 25.2875C11.1189 25.2964 11.1139 25.3074 11.1124 25.3191C11.1075 25.3291 11.1049 25.3401 11.1049 25.3512C11.1049 25.3624 11.1075 25.3733 11.1124 25.3833C11.1192 25.3932 11.128 25.4016 11.1381 25.4081C11.1482 25.4147 11.1596 25.4191 11.1714 25.4213C11.1879 25.4256 11.2052 25.4256 11.2216 25.4213V25.5205H11.2039C11.1689 25.5278 11.1327 25.5278 11.0977 25.5205C11.07 25.5163 11.0435 25.5066 11.0196 25.4921C10.9958 25.4775 10.9752 25.4584 10.959 25.4359C10.9445 25.4158 10.9346 25.3929 10.93 25.3687C10.9255 25.3445 10.9263 25.3196 10.9324 25.2958C10.9374 25.2627 10.9529 25.232 10.9767 25.2082C10.9999 25.1841 11.0296 25.1669 11.0623 25.1586C11.1084 25.1548 11.1548 25.1548 11.201 25.1586L11.2334 25.1674Z" fill="white"/>
<path id="Vector_62" fill-rule="evenodd" clip-rule="evenodd" d="M12.597 15.0112C15.3623 15.0112 17.6141 17.0863 17.6141 19.6487C17.6141 22.2111 15.3741 24.2832 12.597 24.2832C9.81983 24.2832 7.57983 22.2082 7.57983 19.6487C7.57983 17.0892 9.83164 15.0112 12.597 15.0112Z" fill="white"/>
<path id="Vector_63" fill-rule="evenodd" clip-rule="evenodd" d="M12.5968 15.3174C15.1526 15.3174 17.2244 17.2553 17.2244 19.6484C17.2244 22.0416 15.1585 23.9765 12.5968 23.9765C10.0351 23.9765 7.96924 22.0386 7.96924 19.6484C7.96924 17.2582 10.041 15.3174 12.5968 15.3174Z" fill="#CF000F"/>
<path id="Vector_64" fill-rule="evenodd" clip-rule="evenodd" d="M14.1345 17.3137C14.5129 17.2542 14.8983 17.2542 15.2767 17.3137C15.4095 17.3371 15.5423 17.3662 15.6721 17.4013L16.0263 17.4946L15.9554 17.8478C15.9334 17.9641 15.9048 18.079 15.8699 18.1922C15.7625 18.5981 15.5706 18.9773 15.3063 19.3055C15.042 19.6337 14.7112 19.9036 14.3352 20.0979C14.2673 20.133 14.1994 20.1651 14.1286 20.1942V19.3187C14.5881 19.0267 14.9279 18.5831 15.0878 18.0667C14.7695 18.0159 14.4444 18.0228 14.1286 18.0871L14.1345 17.3137ZM12.6382 17.982C12.7002 17.9324 12.7622 17.8857 12.8271 17.8419C13.2157 17.5681 13.6632 17.3873 14.1345 17.3137V18.1017C13.8266 18.1643 13.5351 18.2895 13.2787 18.4694L13.1754 18.5453C13.2464 18.6391 13.3124 18.7365 13.3731 18.8372C13.5347 19.0397 13.6687 19.2625 13.7715 19.4996C13.8439 19.4711 13.9149 19.4389 13.984 19.4033L14.1345 19.3216V20.1972L13.987 20.2555C14.0134 20.4382 14.0223 20.6228 14.0135 20.8071C13.9639 21.5639 13.6606 22.2827 13.1518 22.8501C13.0809 22.9318 13.0071 23.0077 12.9334 23.0777L12.6825 23.317L12.6382 23.2849V22.2518C12.989 21.8297 13.1957 21.3087 13.2285 20.7633C13.2388 20.6507 13.2388 20.5374 13.2285 20.4248C13.0327 20.448 12.8352 20.4549 12.6382 20.4452V19.6689C12.7224 19.6661 12.8062 19.6573 12.8891 19.6427C12.8451 19.5146 12.7898 19.3905 12.7238 19.272C12.6973 19.237 12.6678 19.2049 12.6382 19.1699V17.982ZM11.1479 17.3137C11.6191 17.3873 12.0667 17.5681 12.4553 17.8419C12.5197 17.8854 12.5818 17.9321 12.6412 17.982V19.1874V19.1699C12.5453 19.3247 12.4662 19.489 12.4051 19.6602C12.488 19.6745 12.5718 19.6833 12.6559 19.6864V20.4627C12.459 20.4724 12.2615 20.4656 12.0657 20.4423C12.0495 20.5995 12.0495 20.7579 12.0657 20.9151C12.1184 21.4128 12.3245 21.8824 12.6559 22.2605V23.3053L12.4316 23.1186C12.3608 23.0631 12.29 22.996 12.2162 22.9259C11.693 22.4036 11.3669 21.7196 11.2925 20.9881C11.2704 20.7469 11.2764 20.5041 11.3102 20.2643C11.26 20.2474 11.2107 20.2279 11.1626 20.2059V19.3304L11.3102 19.4121C11.3783 19.4468 11.4483 19.478 11.5197 19.5055C11.6535 19.1894 11.8335 18.8944 12.0539 18.6299C12.0748 18.5957 12.0974 18.5626 12.1218 18.5307L12.0185 18.4548C11.7564 18.2783 11.4598 18.158 11.1479 18.1017V17.3137ZM9.40957 18.1892C9.37612 18.0808 9.34854 17.9708 9.32693 17.8595L9.2561 17.5063L9.6073 17.4129C9.73912 17.3779 9.87193 17.3487 10.0057 17.3254C10.3841 17.2658 10.7695 17.2658 11.1479 17.3254V18.1134C10.832 18.049 10.507 18.0421 10.1887 18.0929C10.3499 18.6056 10.6897 19.0452 11.1479 19.3333V20.2088C11.077 20.1797 11.0091 20.1475 10.9383 20.1125C10.5631 19.9176 10.233 19.6475 9.9693 19.3193C9.70557 18.9912 9.51393 18.6123 9.40662 18.2068L9.40957 18.1892Z" fill="white"/>
</g>
</g>
<defs>
<linearGradient id="paint0_linear_964_20528" x1="12.5969" y1="26.0224" x2="12.5969" y2="14.1734" gradientUnits="userSpaceOnUse">
<stop stop-color="#7A6328"/>
<stop offset="1" stop-color="#F3EC67"/>
</linearGradient>
</defs>
</svg>
