<svg width="64" height="40" viewBox="0 0 64 40" fill="none" xmlns="http://www.w3.org/2000/svg">

<g id="size=Coloured">
<g id="Logo_2">
<path id="Path 760" d="M31.0941 22.8102C30.5654 23.2294 29.9293 23.4912 29.2586 23.5653C28.588 23.6395 27.91 23.5231 27.3025 23.2296C26.695 22.936 26.1826 22.4771 25.824 21.9055C25.4654 21.334 25.2752 20.6729 25.2752 19.9982C25.2752 19.3235 25.4654 18.6624 25.824 18.0908C26.1826 17.5193 26.695 17.0604 27.3025 16.7668C27.91 16.4732 28.588 16.3569 29.2586 16.431C29.9293 16.5052 30.5654 16.7669 31.0941 17.1862L31.1224 17.2126L32.6518 15.6864L32.6157 15.6549C31.5755 14.7501 30.2434 14.2515 28.8647 14.251C27.9369 14.2499 27.0226 14.4735 26.1999 14.9026C25.3773 15.3317 24.6707 15.9535 24.1406 16.715C23.6105 17.4765 23.2727 18.355 23.1558 19.2754C23.039 20.1959 23.1468 21.1309 23.4698 22.0007C23.7929 22.8705 24.3217 23.6491 25.0111 24.2701C25.7005 24.8911 26.53 25.3359 27.4286 25.5667C28.3273 25.7974 29.2685 25.8072 30.1718 25.5952C31.075 25.3832 31.9136 24.9557 32.6157 24.3492L32.6518 24.3125L31.1224 22.7851L31.0941 22.8095V22.8102ZM34.7229 25.425H36.922V14.5688H34.7229V25.425ZM45.5816 21.5066C45.5005 21.3625 41.7476 14.5495 41.7476 14.5495H39.605V25.4063H41.7926V18.9221L45.5784 25.4938L49.3461 18.9221V25.4063H51.5337V14.5508H49.388C49.388 14.5508 45.6562 21.3638 45.5758 21.5079L45.5816 21.5066ZM60.571 19.8627C60.9593 19.6367 61.2815 19.3126 61.5052 18.923C61.7288 18.5333 61.8462 18.0917 61.8455 17.6424C61.8455 15.7475 60.551 14.572 58.4709 14.572H54.1015V25.4256H58.6511C60.7099 25.4256 61.9968 24.2237 61.9968 22.2813C62.0219 21.7829 61.9003 21.2881 61.647 20.8582C61.3937 20.4283 61.0197 20.0822 60.5716 19.8627H60.571ZM56.2962 16.5364H58.31C59.1465 16.5364 59.6522 16.9829 59.6522 17.7318C59.6522 18.4807 59.1478 18.924 58.31 18.924H56.2988L56.2962 16.5364ZM58.4419 23.4619H56.2988V20.9063H58.4445C58.6191 20.8953 58.7942 20.9201 58.9589 20.9793C59.1235 21.0385 59.2743 21.1308 59.4019 21.2505C59.5294 21.3703 59.6311 21.5149 59.7006 21.6755C59.7702 21.836 59.806 22.0092 59.806 22.1841C59.806 22.3591 59.7702 22.5322 59.7006 22.6928C59.6311 22.8534 59.5294 22.998 59.4019 23.1177C59.2743 23.2375 59.1235 23.3298 58.9589 23.389C58.7942 23.4482 58.6191 23.473 58.4445 23.4619" fill="#700019"/>
<path id="Rectangle 120" d="M18.5655 11.7153H1.99976V28.2843H18.5655V11.7153Z" fill="#700019"/>
<path id="Path 765" d="M12.7334 14.8467H3.92847L7.82492 19.9984H16.6337L12.7334 14.8467Z" fill="white"/>
<path id="Path 766" d="M16.6328 19.9985H7.82462L3.92944 25.1548H12.7331L16.6328 19.9985Z" fill="#E50019"/>
</g>
</g>
</svg>
