<svg width="64" height="40" viewBox="0 0 64 40" fill="none" xmlns="http://www.w3.org/2000/svg">

<g id="size=Coloured">
<g id="Logo_2" clip-path="url(#clip0_964_20528)">
<g id="#790008ff">
<path id="Vector" d="M4 15.7124H12.5369C12.5369 18.5579 12.5369 21.4033 12.5364 24.2488C9.69092 24.2493 6.84546 24.2488 4 24.2493V15.7124ZM5.13705 17.3149C5.8014 18.2045 6.47557 19.0863 7.14303 19.9734C6.48125 20.864 5.80295 21.7422 5.14015 22.6323C6.65535 22.6385 8.17004 22.6323 9.68524 22.6354C10.3672 21.7531 11.0243 20.8516 11.7108 19.9723L11.6979 19.9728C11.0289 19.0858 10.3568 18.2009 9.68886 17.3139C8.17159 17.3149 6.65432 17.3123 5.13705 17.3149Z" fill="#790008"/>
<path id="Vector_2" d="M15.43 18.2073C15.9383 17.5735 16.72 17.1664 17.5321 17.1204C18.3013 17.061 19.0839 17.3312 19.662 17.84C19.4011 18.103 19.1397 18.3644 18.8768 18.6253C18.432 18.2647 17.8141 18.1226 17.2603 18.2807C16.6425 18.4429 16.1465 18.9709 16.0086 19.5929C15.8402 20.2681 16.0835 21.0352 16.6388 21.463C17.2732 21.9822 18.2574 21.9558 18.8809 21.4315C19.1423 21.6934 19.4094 21.9507 19.6641 22.2198C19.148 22.6682 18.4769 22.9379 17.7919 22.9462C16.9287 22.9699 16.0639 22.5902 15.5002 21.9357C15.1061 21.4867 14.855 20.9133 14.7987 20.3182C14.7197 19.5681 14.9506 18.7906 15.43 18.2073Z" fill="#790008"/>
<path id="Vector_3" d="M20.6992 17.2754C21.0738 17.2754 21.4478 17.2759 21.8223 17.2749C21.8233 19.1135 21.8223 20.9516 21.8228 22.7902C21.4483 22.7902 21.0738 22.7907 20.6992 22.7897C20.6997 20.9516 20.6992 19.1135 20.6992 17.2754Z" fill="#790008"/>
<path id="Vector_4" d="M23.1662 17.2623C23.5304 17.2613 23.8946 17.2644 24.2593 17.2607C24.9087 18.4288 25.5415 19.6072 26.1992 20.7711C26.8367 19.5994 27.4835 18.4334 28.121 17.2618C28.4883 17.2628 28.8556 17.2618 29.2234 17.2623C29.2213 19.1014 29.227 20.94 29.2203 22.7791C28.8463 22.7734 28.4728 22.7802 28.0987 22.7755C28.1013 21.687 28.0987 20.599 28.1003 19.5111C27.4561 20.6109 26.8424 21.7294 26.1868 22.822C25.5607 21.7149 24.9175 20.6176 24.2888 19.5121C24.2909 20.6006 24.2893 21.6886 24.2898 22.7771C23.9153 22.7771 23.5413 22.7765 23.1667 22.7776C23.1652 20.939 23.1667 19.1009 23.1662 17.2623Z" fill="#790008"/>
<path id="Vector_5" d="M30.5022 17.2749C31.2605 17.2759 32.0184 17.2749 32.7768 17.2754C33.1276 17.2821 33.4876 17.356 33.7873 17.5466C34.511 17.9889 34.6774 19.1373 34.0729 19.7458C33.9954 19.8285 33.9035 19.8967 33.8121 19.9628C34.1566 20.1441 34.4211 20.4804 34.4852 20.8679C34.5787 21.3907 34.4594 21.991 34.0538 22.3598C33.7304 22.6693 33.2707 22.7809 32.8346 22.7866C32.0571 22.7948 31.2791 22.7881 30.5017 22.7902C30.5022 20.9516 30.5006 19.1135 30.5022 17.2749ZM31.6253 18.2828C31.6248 18.6832 31.6253 19.0835 31.6253 19.4839C31.9559 19.4829 32.287 19.4855 32.6182 19.4834C32.8109 19.4798 33.0191 19.4395 33.1601 19.2974C33.3605 19.0846 33.3657 18.7255 33.1875 18.4972C33.0506 18.3324 32.8243 18.2812 32.6192 18.2823C32.2876 18.2828 31.9564 18.2828 31.6253 18.2828ZM31.6253 20.4918C31.6253 20.9175 31.6248 21.3437 31.6253 21.7699C31.9905 21.7704 32.3557 21.7694 32.721 21.7709C32.892 21.7761 33.0718 21.728 33.1999 21.6097C33.4551 21.3638 33.4597 20.9056 33.1994 20.6618C33.0588 20.5285 32.8574 20.4939 32.6709 20.4913C32.3222 20.4908 31.9735 20.4913 31.6253 20.4918Z" fill="#790008"/>
<path id="Vector_6" d="M36.8168 17.263C37.0043 17.2651 37.1919 17.2563 37.3794 17.2656C37.4652 17.3322 37.5132 17.4366 37.5819 17.5203C38.611 18.926 39.6318 20.3378 40.6666 21.7394C40.6655 20.2469 40.6666 18.755 40.666 17.2625C40.8598 17.2625 41.0535 17.2625 41.2472 17.2625C41.2472 19.0964 41.2472 20.9304 41.2472 22.7643C41.0514 22.7643 40.8556 22.7638 40.6604 22.7654C39.5734 21.2703 38.487 19.7747 37.3985 18.2807C37.3985 19.7753 37.3985 21.2698 37.3985 22.7638C37.2032 22.7633 37.008 22.768 36.8137 22.7597C36.8225 20.9278 36.8153 19.0954 36.8168 17.263Z" fill="#790008"/>
<path id="Vector_7" d="M42.6938 17.2622C42.8875 17.2622 43.0807 17.2622 43.275 17.2622C43.275 19.0962 43.2745 20.9296 43.275 22.763C43.0813 22.7646 42.8875 22.7635 42.6943 22.7641C42.6928 20.9301 42.6943 19.0962 42.6938 17.2622Z" fill="#790008"/>
<path id="Vector_8" d="M44.1697 22.8011C44.8397 20.9667 45.5103 19.1322 46.185 17.2998C46.4536 17.3024 46.7217 17.3003 46.9903 17.3008C47.6294 19.1219 48.2674 20.9439 48.9085 22.7639C48.6802 22.7634 48.4518 22.7645 48.224 22.7634C48.054 22.2763 47.8815 21.7896 47.7064 21.304C46.9475 21.3045 46.1891 21.3045 45.4307 21.3045C45.2613 21.8031 45.0985 22.3047 44.9286 22.8032C44.6754 22.8011 44.4223 22.8042 44.1697 22.8011ZM45.6632 20.6448C46.2671 20.6474 46.8715 20.6453 47.4754 20.6459C47.1727 19.7635 46.8741 18.8796 46.5765 17.9957C46.2733 18.8791 45.9638 19.7604 45.6632 20.6448Z" fill="#790008"/>
<path id="Vector_9" d="M50.1985 18.2014C50.6572 17.7292 51.271 17.3898 51.9327 17.3289C52.7484 17.2467 53.5605 17.5495 54.2202 18.0139C54.0916 18.1807 53.9563 18.3419 53.8287 18.5093C53.6091 18.1968 53.2201 18.08 52.8693 17.9855C52.2592 17.8176 51.567 17.9085 51.0519 18.2872C50.5865 18.6385 50.2755 19.1721 50.152 19.7378C50.0822 20.3226 50.1401 20.9611 50.4873 21.456C50.6066 21.643 50.7967 21.7634 50.9594 21.9086C51.3045 22.1901 51.7571 22.3177 52.1983 22.3136C52.7412 22.3188 53.2785 22.1798 53.7749 21.9664C53.7744 21.4013 53.776 20.8361 53.7744 20.2709C53.3441 20.2714 52.9138 20.2714 52.4834 20.2709C52.4834 20.0994 52.4834 19.9279 52.4829 19.7564C53.0941 19.7528 53.7052 19.7564 54.3169 19.7543C54.3179 20.6284 54.3169 21.502 54.3174 22.3761C53.7341 22.7016 53.0656 22.8379 52.4075 22.9035C51.7106 22.918 50.9827 22.7393 50.4403 22.2841C49.9102 21.8486 49.6008 21.1858 49.5098 20.5142C49.4401 19.697 49.6478 18.8265 50.1985 18.2014Z" fill="#790008"/>
<path id="Vector_10" d="M55.2495 22.7955C55.9226 20.9652 56.5927 19.1338 57.2607 17.3014C57.5293 17.2999 57.7979 17.303 58.0671 17.2988C58.6844 19.0372 59.2878 20.7807 59.9031 22.5202C59.932 22.5982 59.948 22.6798 59.9548 22.7635C59.7383 22.7645 59.5229 22.7635 59.3074 22.7645C59.1323 22.2789 58.9618 21.7912 58.7893 21.3051C58.0278 21.3041 57.2663 21.3035 56.5054 21.3056C56.3421 21.8052 56.1727 22.3027 56.0084 22.8017C55.7553 22.8002 55.5021 22.81 55.2495 22.7955ZM57.6538 17.9993C57.3542 18.8833 57.0416 19.7625 56.7446 20.6475C57.3464 20.6444 57.9488 20.6464 58.5506 20.6464C58.2577 19.762 57.9539 18.8812 57.6538 17.9993Z" fill="#790008"/>
</g>
<g id="#ffffffff">
<path id="Vector_11" d="M5.13696 17.3152C6.65423 17.3126 8.1715 17.3152 9.68877 17.3141C10.3567 18.2011 11.0288 19.0861 11.6978 19.9731C10.1795 19.9762 8.66124 19.9746 7.14294 19.9736C6.47549 19.0866 5.80132 18.2047 5.13696 17.3152Z" fill="white"/>
</g>
<g id="#ed3024ff">
<path id="Vector_12" d="M7.14301 19.9732C8.66132 19.9742 10.1796 19.9758 11.6979 19.9727L11.7108 19.9722C11.0243 20.8514 10.3671 21.7529 9.68523 22.6353C8.17003 22.6322 6.65534 22.6384 5.14014 22.6322C5.80294 21.7421 6.48124 20.8638 7.14301 19.9732Z" fill="#ED3024"/>
</g>
</g>
</g>
<defs>
<clipPath id="clip0_964_20528">
<rect width="56" height="8.57565" fill="white" transform="translate(4 15.7124)"/>
</clipPath>
</defs>
</svg>
