<svg width="24" height="24" viewBox="0 0 24 24" fill="none" xmlns="http://www.w3.org/2000/svg">

<g id="Size=24x24px" clip-path="url(#clip0_964_20528)">
<g id="H5&#230;&#179;&#168;&#229;&#134;&#140;&#228;&#184;&#139;&#232;&#189;&#189;&#233;&#161;&#181;&#228;&#188;&#152;&#229;&#140;&#150;">
<g id="1.1_&#230;&#137;&#139;&#230;&#156;&#186;&#230;&#179;&#168;&#229;&#134;&#140;">
<g id="&#231;&#188;&#150;&#231;&#187;&#132;-6">
<g id="logo">
<g id="&#231;&#188;&#150;&#231;&#187;&#132;-18">
<path id="&#229;&#189;&#162;&#231;&#138;&#182;&#231;&#187;&#147;&#229;&#144;&#136;" d="M11.9905 3.375L17.2216 6.39516L17.1437 9.04448L11.9891 6.06833L9.13975 7.713V11.057L14.1288 13.9375L11.888 15.3381L6.79175 12.3957L6.80641 12.3703V6.40033L6.79175 6.375L11.9879 3.375L11.9891 3.377L11.9905 3.375Z" fill="#01185C"/>
<path id="&#229;&#189;&#162;&#231;&#138;&#182;&#231;&#187;&#147;&#229;&#144;&#136;_2" d="M12.0229 20.5879L6.79184 17.5677L6.86975 14.9184L12.0243 17.8946L14.8737 16.2499V12.9059L9.88458 10.0254L12.1254 8.62482L17.2217 11.5672L17.207 11.5926V17.5626L17.2217 17.5879L12.0255 20.5879L12.0243 20.5859L12.0229 20.5879Z" fill="#01185C"/>
</g>
</g>
</g>
</g>
</g>
</g>
<defs>
<clipPath id="clip0_964_20528">
<rect width="24" height="24" fill="white"/>
</clipPath>
</defs>
</svg>
