<svg width="64" height="40" viewBox="0 0 64 40" fill="none" xmlns="http://www.w3.org/2000/svg">

<g id="size=Coloured">
<g id="Group">
<path id="Vector" d="M5.31945 21.9561H5.91781C6.27068 21.9561 6.54685 21.9868 6.8537 22.3396C7.06849 22.5851 7.31397 23.1221 7.31397 24.012C7.31397 24.3342 7.31397 24.641 7.2526 24.9632C7.16055 25.4695 6.93041 26.2827 5.58027 26.2827C5.2274 26.2827 5.30411 26.2673 5.30411 26.2673L5.31945 21.9561ZM5.99452 27.0191C7.78959 27.0191 8.60274 26.2213 8.60274 24.0273C8.60274 23.4443 8.43397 22.4777 7.89699 21.8794C7.34466 21.2657 6.62356 21.189 6.00986 21.189H4V27.0191H5.99452Z" fill="#046148"/>
<path id="Vector_2" d="M11.6712 25.5155C11.6712 25.715 11.6712 25.9605 11.4564 26.1599C11.2876 26.3134 11.0421 26.3287 10.9501 26.3287C10.7199 26.3287 10.5205 26.252 10.4284 25.9605C10.4131 25.8684 10.3978 25.7764 10.3978 25.6997C10.3978 25.2701 10.6739 25.1013 10.9961 25.0246C11.1649 24.9939 11.2723 24.9786 11.6712 24.9479V25.5155ZM11.6712 24.4109L11.0115 24.4723C10.3057 24.549 10.0295 24.6103 9.73803 24.8251C9.24707 25.1627 9.24707 25.6383 9.24707 25.8071C9.24707 26.206 9.36981 26.4975 9.53858 26.6816C9.75337 26.9271 10.1062 27.0191 10.4284 27.0191C11.2416 27.0191 11.6252 26.6509 11.6252 26.6509V26.9117H12.7145V24.1501C12.7145 23.8432 12.7145 23.3983 12.3616 23.0914C12.1775 22.938 12.0087 22.8613 11.7632 22.8153C11.5178 22.7692 11.4257 22.7539 11.1802 22.7539C10.4438 22.7539 9.87611 22.8766 9.56926 23.4443C9.43118 23.6898 9.44652 23.9353 9.44652 24.1194H10.4591C10.4745 23.9506 10.4745 23.7358 10.5972 23.5671C10.6586 23.475 10.812 23.3523 11.0882 23.3523C11.1802 23.3523 11.441 23.3523 11.5791 23.5671C11.6558 23.7051 11.6558 23.8739 11.6558 24.058L11.6712 24.4109Z" fill="#046148"/>
<path id="Vector_3" d="M20.4011 25.5155C20.4011 25.715 20.4011 25.9605 20.1863 26.1599C20.0176 26.3134 19.7721 26.3287 19.68 26.3287C19.4499 26.3287 19.2504 26.252 19.1584 25.9605C19.143 25.8684 19.1277 25.7764 19.1277 25.6997C19.1277 25.2701 19.4039 25.1013 19.7261 25.0246C19.8948 24.9939 20.0022 24.9786 20.4011 24.9479V25.5155ZM20.4011 24.4109L19.7414 24.4723C19.0356 24.549 18.7595 24.6103 18.4526 24.8251C17.9617 25.1627 17.9617 25.6383 17.9617 25.8071C17.9617 26.206 18.0844 26.4975 18.2378 26.6816C18.4526 26.9271 18.8055 27.0191 19.1277 27.0191C19.9408 27.0191 20.3244 26.6509 20.3244 26.6509V26.9117H21.4137V24.1501C21.4137 23.8432 21.4291 23.3983 21.0762 23.0914C20.8921 22.938 20.7233 22.8613 20.4778 22.8153C20.2324 22.7692 20.1403 22.7539 19.8948 22.7539C19.1584 22.7539 18.6061 22.8766 18.2839 23.4443C18.1458 23.6898 18.1611 23.9353 18.1611 24.1194H19.1891C19.2044 23.9506 19.2044 23.7358 19.3271 23.5671C19.3885 23.475 19.5419 23.3523 19.8181 23.3523C19.9102 23.3523 20.171 23.3523 20.3091 23.5671C20.3858 23.7051 20.3858 23.8739 20.3858 24.058L20.4011 24.4109Z" fill="#046148"/>
<path id="Vector_4" d="M36.925 26.8964H35.7743V24.4417C35.7743 24.2882 35.7743 24.1501 35.7589 24.0121C35.7436 23.8893 35.7129 23.4597 35.2066 23.4597C35.0685 23.4597 34.9611 23.4904 34.8844 23.5211C34.5469 23.6745 34.5315 23.9507 34.5315 24.1655V26.8964H33.3809V22.8614H34.5315V23.3217C34.8231 23.0608 35.0839 22.7847 35.7283 22.7847C36.2652 22.7847 36.5414 22.9995 36.6488 23.1222C36.9096 23.4137 36.9096 23.7819 36.9096 24.0734L36.925 26.8964Z" fill="#046148"/>
<path id="Vector_5" d="M17.133 26.8964H15.9823V24.4417C15.9823 24.2882 15.9823 24.1501 15.967 24.0121C15.967 23.8893 15.921 23.4597 15.4147 23.4597C15.2919 23.4597 15.1692 23.4904 15.1078 23.5211C14.7703 23.6745 14.7549 23.9507 14.7549 24.1655V26.8964H13.6042V22.8614H14.7549V23.3217C15.0464 23.0608 15.3073 22.7847 15.9516 22.7847C16.4886 22.7847 16.7648 22.9995 16.8722 23.1222C17.133 23.4137 17.133 23.7819 17.133 24.0734V26.8964Z" fill="#046148"/>
<path id="Vector_6" d="M22.3037 22.8614H23.4544V23.337C23.6692 23.1375 24.0681 22.7847 24.7432 22.7847C25.5256 22.7847 25.7558 23.2603 25.8018 23.4137C26.2774 22.9534 26.5843 22.7847 27.0292 22.7847C27.244 22.7847 27.3974 22.8154 27.5508 22.8767C28.1645 23.1069 28.1799 23.6592 28.1952 24.0121V26.8964H27.0138V24.2729C27.0138 23.9814 26.9985 23.828 26.9218 23.7052C26.9064 23.6745 26.7991 23.4751 26.5075 23.4751C26.4155 23.4751 26.216 23.5058 26.1393 23.5518C25.8171 23.7052 25.8018 23.966 25.8018 24.1808V26.9118H24.6664V24.3036C24.6664 23.9967 24.6664 23.4751 24.1601 23.4751C24.0374 23.4751 23.838 23.5058 23.7459 23.5671C23.4544 23.7359 23.4544 23.9967 23.4544 24.3649V26.9271H22.3037V22.8614Z" fill="#046148"/>
<path id="Vector_7" d="M31.5705 24.7945C31.5705 25.0246 31.5551 25.2394 31.5398 25.4695C31.5091 25.6997 31.4784 26.1446 31.1409 26.3287C31.0488 26.3747 30.9414 26.4054 30.834 26.4054C30.1896 26.4054 30.1283 25.7303 30.1129 25.4695C30.0976 25.2854 30.0822 25.1013 30.0822 24.9172C30.0822 24.7484 30.0976 24.5336 30.1129 24.2728C30.1436 24.058 30.1896 23.6438 30.5118 23.4597C30.6192 23.3983 30.7266 23.3829 30.8647 23.3829C31.4784 23.3829 31.5398 24.0273 31.5551 24.2728C31.5551 24.4416 31.5705 24.6257 31.5705 24.7945ZM32.7365 24.8098C32.7365 24.4569 32.7365 23.7819 32.3376 23.3216C31.862 22.7539 31.1716 22.7539 30.9261 22.7539C30.6499 22.7539 29.9902 22.7692 29.4839 23.2295C28.9009 23.7512 28.9009 24.5643 28.9009 24.9786C28.9009 25.761 29.085 26.6049 30.0822 26.8964C30.3738 26.9884 30.5272 27.0038 30.8187 27.0038C31.0949 27.0038 31.7699 27.0038 32.2916 26.4361C32.7365 25.9298 32.7365 25.1934 32.7365 24.8098Z" fill="#046148"/>
<path id="Vector_8" d="M12.868 17.0929H23.4543L14.0647 14.2085L12.868 14.8529L8.78687 15.9115L12.868 17.0929Z" fill="#EF9826"/>
<path id="Vector_9" d="M4 12.981V17.0927H12.8679V14.8527L4 12.981Z" fill="#EB712D"/>
<path id="Vector_10" d="M23.4698 17.0927L12.8682 12.981V14.8527L23.4698 17.0927Z" fill="#FEC02B"/>
<path id="Vector_11" d="M60.0001 24.8254V17.0928H45.7316L42.7551 19.2254L45.7316 21.8029L60.0001 24.8254Z" fill="#EF9826"/>
<path id="Vector_12" d="M45.7316 21.8029L41.85 18.4583L23.4697 17.0928L45.7316 24.8254V21.8029Z" fill="#FEC02B"/>
<path id="Vector_13" d="M23.4543 17.0928L45.7316 21.8029V17.0928H23.4543Z" fill="#EB712D"/>
</g>
</g>
</svg>
