<svg width="64" height="40" viewBox="0 0 64 40" fill="none" xmlns="http://www.w3.org/2000/svg">

<g id="size=Coloured">
<g id="Logo_2">
<path id="Vector" fill-rule="evenodd" clip-rule="evenodd" d="M13.8716 18.0552C13.8716 18.0552 18.6981 13.9491 18.6265 13.2287C18.6265 13.2287 19.2032 11.7161 17.4017 11.4994C17.4017 11.4994 17.0418 11.3556 15.6731 12.076C15.6731 12.076 12.6474 13.6608 9.98221 12.2921L8.54128 11.6439C8.54128 11.6439 8.03688 11.4278 7.74857 11.4994C5.94772 11.7155 6.66754 13.3002 6.66754 13.3002C6.59595 14.093 11.4225 18.1268 11.4225 18.1268C11.4225 18.1268 11.9269 18.4874 12.4313 18.5589C12.4313 18.5596 13.2949 18.7034 13.8716 18.0552ZM13.8716 21.9459C13.8716 21.9459 18.6981 26.0513 18.6265 26.7718C18.6265 26.7718 19.2032 28.2849 17.4017 28.5004C17.4017 28.5004 17.0418 28.6455 15.6731 27.9244C15.6731 27.9244 12.6474 26.3396 9.98221 27.7077L8.54128 28.3565C8.54128 28.3565 8.03688 28.5732 7.74857 28.5004C5.94772 28.2849 6.66754 26.7002 6.66754 26.7002C6.59595 25.9075 11.4225 21.8743 11.4225 21.8743C11.4225 21.8743 11.9269 21.5137 12.4313 21.4408C12.4313 21.4402 13.2949 21.3686 13.8716 21.9459ZM10.5576 21.297C10.5576 21.297 6.52371 26.0513 5.80324 26.0513C5.80324 26.0513 4.21783 26.5563 4.0024 24.8271C4.0024 24.8271 3.93016 24.4665 4.57903 23.0985C4.57903 23.0985 6.23604 20.0005 4.7951 17.3347L4.21847 15.8944C4.21847 15.8944 4.0024 15.4623 4.07464 15.1017C4.29071 13.3725 5.87548 14.0207 5.87548 14.0207C6.59595 14.0207 10.6304 18.7757 10.6304 18.7757C10.6304 18.7757 11.0626 19.2801 11.0626 19.856C11.0626 19.8554 11.2064 20.6481 10.5576 21.297ZM14.5198 21.297C14.5198 21.297 18.5536 26.0513 19.2748 26.0513C19.2748 26.0513 20.8595 26.5563 21.0756 24.8271C21.0756 24.8271 21.1478 24.4665 20.499 23.0985C20.499 23.0985 18.9142 20.0005 20.2829 17.3347L20.8595 15.8944C20.8595 15.8944 21.0756 15.4623 21.004 15.1017C20.8595 13.3725 19.2032 14.0207 19.2032 14.0207C18.4827 14.0207 14.4482 18.7757 14.4482 18.7757C14.4482 18.7757 14.0161 19.2801 14.0161 19.856C14.0161 19.8554 13.8716 20.6481 14.5198 21.297Z" fill="#CC2131"/>
<path id="Vector_2" fill-rule="evenodd" clip-rule="evenodd" d="M25.9109 25.4019V13.5158C25.9109 13.5158 25.9109 13.1559 25.335 12.7231H31.0981C33.331 12.7954 37.6539 14.1641 37.6539 19.5666C37.6539 25.042 33.4033 26.3385 30.9536 26.3385H25.335C25.9832 25.8354 25.9109 25.4019 25.9109 25.4019ZM28.3607 24.2506C28.3607 25.3304 28.3607 25.7625 29.5133 25.7625C32.7551 25.7625 34.9158 23.7456 34.9158 19.4957C34.9158 15.6779 32.8267 13.3727 29.8732 13.3727C29.0089 13.3727 28.649 13.3727 28.5045 13.7326C28.36 14.0209 28.36 14.5969 28.36 15.7495V24.2506H28.3607ZM46.6587 18.9906C46.6587 18.9906 48.3157 18.0541 48.3157 16.181C48.388 13.6597 46.4426 12.7954 44.6418 12.7954H38.4466C38.4466 12.7954 38.8787 12.9392 38.8065 13.8758V25.4013C38.8065 26.1947 38.4466 26.2669 38.4466 26.2669H44.9301C47.0193 26.2669 49.3968 25.2581 49.3968 22.5923C49.3961 20.4322 48.099 19.6395 46.6587 18.9906ZM43.3447 25.7619H42.4798C41.0395 25.7619 41.3994 25.0427 41.3994 24.5376V13.7319C41.471 13.2998 41.8315 13.2998 41.8315 13.2998H42.552C44.209 13.2998 45.7222 13.6597 45.7938 15.8933C45.866 17.5497 44.4251 18.6307 44.209 18.7023C43.8833 18.8316 43.5456 18.9282 43.2009 18.9906V19.1345C44.3535 19.2789 46.5149 20.4316 46.5149 22.5207C46.5142 24.7544 45.0017 25.907 43.3447 25.7619ZM53.5744 20.2884C49.9005 19.2067 50.1888 16.6138 50.1888 16.6138C50.1888 13.2275 54.0788 12.8676 54.0788 12.8676C55.6636 12.58 57.5367 13.0837 57.5367 13.0837C58.6893 13.5159 59.193 13.372 59.193 13.372V15.1729H59.0492C59.0492 15.1729 58.0404 13.6597 56.744 13.5158C56.744 13.5158 53.7905 12.7231 52.7817 14.8852C52.7817 14.8852 51.9174 17.1182 54.5826 17.7664L56.6717 18.4146C56.6717 18.4146 59.9851 19.3512 59.9851 22.0886C59.9851 22.0886 60.2018 23.9617 58.9776 25.1143C58.9776 25.1143 57.4644 26.6274 54.2949 26.6274C54.2949 26.6274 52.9978 26.6274 52.1335 26.3391C52.1335 26.3391 50.8364 25.907 50.7648 25.907C50.7648 25.907 50.4043 25.907 50.1882 25.9786V23.8165H50.4042C50.4042 23.8165 51.5569 25.6896 53.9343 25.6896C53.9343 25.6896 56.0957 25.9779 56.9601 24.3216C56.9601 24.3216 57.7528 23.0238 56.744 21.5842C56.744 21.5842 56.2396 20.9353 54.8709 20.5032L53.5744 20.2884Z" fill="black"/>
</g>
</g>
</svg>
