<svg width="24" height="24" viewBox="0 0 24 24" fill="none" xmlns="http://www.w3.org/2000/svg">

<g id="Size=24x24px">
<g id="Logo_2">
<path id="Vector" fill-rule="evenodd" clip-rule="evenodd" d="M17.7776 22.4H19.3053C20.1277 22.4 20.9162 22.0699 21.4969 21.4826C22.0774 20.8952 22.4023 20.0989 22.3998 19.2695V17.7778H17.7776V22.4Z" fill="black"/>
<path id="Vector_2" fill-rule="evenodd" clip-rule="evenodd" d="M9.6875 17.7783H14.3097V22.4005H9.6875V17.7783Z" fill="black"/>
<path id="Vector_3" fill-rule="evenodd" clip-rule="evenodd" d="M1.6001 17.7778V19.3056C1.6001 21.0146 2.98551 22.4 4.69452 22.4H6.22226V17.7778H1.6001Z" fill="black"/>
<path id="Vector_4" fill-rule="evenodd" clip-rule="evenodd" d="M1.6001 9.68896H6.22226V14.3111H1.6001V9.68896Z" fill="black"/>
<path id="Vector_5" fill-rule="evenodd" clip-rule="evenodd" d="M19.1018 1.60011H9.6875V14.311H22.3984V4.88902C22.3984 4.01495 22.0508 3.17684 21.4322 2.55975C20.8138 1.94266 19.9752 1.59737 19.1018 1.60011Z" fill="black"/>
<path id="Vector_6" fill-rule="evenodd" clip-rule="evenodd" d="M6.22226 1.6001H4.69452C2.98551 1.6001 1.6001 2.98551 1.6001 4.69452V6.22226H6.22226V1.6001Z" fill="black"/>
</g>
</g>
</svg>
