<svg width="24" height="24" viewBox="0 0 24 24" fill="none" xmlns="http://www.w3.org/2000/svg">

<g id="Size=24x24px">
<g id="Logo_2">
<path id="Vector" d="M15.1222 16.8904H8.73116C7.81092 16.8904 7.42289 16.5056 7.42289 15.5973C7.42289 13.2923 7.42289 10.987 7.42289 8.68142C7.42289 7.86321 7.01109 7.44987 6.19591 7.44987C5.00344 7.44987 3.87155 7.44141 2.67984 7.44141C1.8823 7.44141 1.6001 7.88168 1.6001 8.59598V21.2963C1.6001 22.1699 2.30945 22.4 2.85392 22.4C6.55864 22.4 10.0364 22.3962 13.7434 22.3962C14.3638 22.3962 14.9834 22.4016 15.6038 22.3962C16.3139 22.3877 16.511 22.1868 16.5118 21.4925C16.5118 20.4119 16.5118 19.3309 16.5118 18.2497C16.5095 17.2276 16.1636 16.8904 15.1222 16.8904Z" fill="#0290FF"/>
<path id="Vector_2" d="M22.3997 2.4183C22.3997 1.78175 22.2141 1.60087 21.5761 1.6001H8.31397C7.68361 1.6001 7.47042 1.79176 7.45892 2.4083C7.44511 3.21881 7.44051 4.03009 7.45892 4.8406C7.47885 5.66804 7.89143 6.05905 8.71504 6.06675C9.38221 6.07291 10.0509 6.05751 10.7181 6.07137C11.5371 6.08599 11.9083 6.47547 11.9083 7.28752C11.9083 8.46441 11.9083 9.6413 11.9083 10.8174C11.9083 11.7141 12.317 12.1144 13.2265 12.1159C14.2441 12.1159 15.2618 12.1159 16.2794 12.1159C17.0462 12.1159 17.4481 12.5185 17.4573 13.2959C17.465 13.9479 17.4573 14.5998 17.4573 15.2518C17.465 16.0638 17.889 16.4987 18.6843 16.5048C19.6382 16.5115 20.5922 16.5115 21.5462 16.5048C22.1758 16.5048 22.3898 16.2739 22.3898 15.6312C22.3979 11.2274 22.4013 6.82312 22.3997 2.4183Z" fill="#0290FF"/>
</g>
</g>
</svg>
