<svg width="64" height="40" viewBox="0 0 64 40" fill="none" xmlns="http://www.w3.org/2000/svg">

<g id="size=Coloured">
<g id="Logo_2">
<path id="Vector" d="M2.06206 23.2759C2.06206 22.4066 2.04689 21.6788 2 21.0277H3.64173L3.71965 22.1449H3.76515C4.1368 21.5552 4.81804 20.8564 6.08812 20.8564C7.07964 20.8564 7.85328 21.4157 8.17873 22.2526H8.21044C8.47384 21.8341 8.78274 21.5234 9.13853 21.3073C9.55706 21.0118 10.0383 20.8564 10.6568 20.8564C11.9117 20.8564 13.1805 21.7092 13.1805 24.13V28.5795H11.3222V24.4076C11.3222 23.1523 10.8885 22.4066 9.97491 22.4066C9.3247 22.4066 8.84411 22.8733 8.64346 23.4161C8.58762 23.6232 8.55638 23.8362 8.55037 24.0506V28.5802H6.69214V24.2053C6.69214 23.153 6.27429 22.4072 5.39103 22.4072C4.68014 22.4072 4.20024 22.9665 4.02786 23.4927C3.95132 23.6791 3.9196 23.8973 3.9196 24.1128V28.5802H2.06206V23.2759ZM20.421 26.7663C20.421 27.4478 20.4521 28.1141 20.5286 28.5802H18.8096L18.6862 27.7433H18.6393C18.1746 28.333 17.3844 28.7501 16.4108 28.7501C14.8925 28.7501 14.041 27.6501 14.041 26.5018C14.041 24.5926 15.7275 23.6329 18.5166 23.6481V23.5245C18.5166 23.0273 18.3146 22.2056 16.9824 22.2056C16.2384 22.2056 15.4648 22.439 14.9539 22.7635L14.5822 21.5227C15.1401 21.1809 16.1157 20.8557 17.3072 20.8557C19.7239 20.8557 20.4217 22.3927 20.4217 24.0347L20.421 26.7663ZM18.5621 24.8902C17.2141 24.8585 15.9295 25.1533 15.9295 26.3009C15.9295 27.0453 16.4108 27.387 17.0141 27.387C17.7719 27.387 18.3304 26.8892 18.5007 26.3472C18.5424 26.2116 18.5634 26.0706 18.5628 25.9287V24.8902H18.5621ZM21.7366 23.2759C21.7366 22.4066 21.7208 21.6788 21.6759 21.0277H23.3466L23.439 22.1614H23.4859C23.8107 21.5711 24.6319 20.8564 25.8861 20.8564C27.2031 20.8564 28.5649 21.7092 28.5649 24.0989V28.5795H26.6604V24.3158C26.6604 23.2303 26.2571 22.4059 25.22 22.4059C24.4623 22.4059 23.9341 22.9493 23.7334 23.5238C23.6714 23.6936 23.6562 23.927 23.6562 24.1424V28.5788H21.7359L21.7366 23.2759ZM36.8239 17.9937V26.4556C36.8239 27.231 36.8556 28.0699 36.8859 28.5802H35.1835L35.1056 27.387H35.0739C34.6257 28.2239 33.7107 28.7508 32.6123 28.7508C30.8154 28.7508 29.3916 27.2158 29.3916 24.8909C29.375 22.3624 30.954 20.8571 32.7675 20.8571C33.8045 20.8571 34.5478 21.2914 34.8884 21.8521H34.9208V17.9943H36.8245V17.9937H36.8239ZM34.9201 24.1756C34.9201 24.0216 34.9049 23.8352 34.8732 23.6791C34.7029 22.9362 34.1003 22.3306 33.2322 22.3306C32.009 22.3306 31.3264 23.4167 31.3264 24.8274C31.3264 26.2063 32.0083 27.2151 33.217 27.2151C33.99 27.2151 34.6719 26.6869 34.8574 25.8652C34.9043 25.6954 34.9208 25.5082 34.9208 25.3073V24.1756H34.9201ZM38.1712 28.5802V21.0277H40.0928V28.5802H38.1712ZM41.4388 23.463C41.4388 22.4397 41.4243 21.7099 41.3781 21.0283H43.035L43.0957 22.4694H43.1584C43.5301 21.3998 44.4119 21.0283 45.2194 21.0283C45.4048 21.0283 45.5124 20.9966 45.6669 21.0283V22.7042C45.4841 22.6637 45.2976 22.6428 45.1104 22.642C44.1948 22.642 43.5756 23.2317 43.4059 24.0831C43.3684 24.2779 43.3479 24.4757 43.3446 24.6741V28.5809H41.4388V23.463ZM46.5508 28.5802V21.0277H48.4697V28.5802H46.5508Z" fill="#013066"/>
<path id="Vector_2" d="M60.4232 13.0401C59.4724 11.954 58.4615 12.4456 57.6583 12.8454C57.3204 13.0125 54.8816 14.3969 54.8816 14.3969C53.5453 14.9486 52.5048 14.3465 52.0966 13.8397C52.0576 13.7917 52.0223 13.7406 51.9911 13.6871L51.896 13.5221C51.7352 13.2435 51.5564 12.9758 51.3609 12.7204C51.2423 12.5657 51.1138 12.4188 50.9762 12.2806C50.0619 11.356 48.6008 10.709 46.1586 11.8843C45.0023 12.5554 41.2354 14.7104 41.2354 14.7104C39.8199 15.2939 38.7373 14.5834 38.3857 14.0621C38.3699 14.0425 38.356 14.0215 38.3443 13.9992L38.2981 13.9205L38.0596 13.5297C37.9519 13.3585 37.8364 13.1924 37.7134 13.0318C37.5936 12.8781 37.4649 12.7314 37.328 12.5927C36.4199 11.6737 34.9664 11.028 32.5455 12.1812C31.0817 13.018 27.6769 14.9673 27.6769 14.9673L27.6755 14.9687L25.1836 16.3945L26.473 17.9799C27.0156 18.4978 28.0354 19.3471 29.613 18.631C29.613 18.631 33.9673 16.1059 33.9845 16.0983C37.7072 14.0524 39.5441 16.0072 40.3563 17.3101C40.3846 17.3509 40.4073 17.395 40.4329 17.4344L40.4342 17.4365C40.4446 17.4524 40.4508 17.4669 40.4597 17.482L40.5514 17.6326C40.9472 18.2333 41.5712 18.6214 42.3152 18.6034C42.7255 18.5951 43.004 18.4612 43.4095 18.2354L47.6224 15.7883L47.6314 15.7841C51.4009 13.7134 53.2688 15.7959 54.0666 17.0988C54.1286 17.2114 54.199 17.3191 54.2714 17.4192C54.6665 17.9557 55.2112 18.3072 55.9034 18.2899C56.3606 18.2809 56.8729 18.0061 56.9494 17.9557L62.0001 15.0363C62.0015 15.0377 61.4857 14.2568 60.4232 13.0401Z" fill="url(#paint0_linear_964_20528)"/>
</g>
</g>
<defs>
<linearGradient id="paint0_linear_964_20528" x1="25.2521" y1="11.249" x2="61.9674" y2="11.249" gradientUnits="userSpaceOnUse">
<stop stop-color="#FAB10B"/>
<stop offset="0.255208" stop-color="#FBC607"/>
<stop offset="0.482138" stop-color="#F89F0E"/>
<stop offset="0.644898" stop-color="#FBC607"/>
<stop offset="0.807292" stop-color="#F89F0E"/>
<stop offset="1" stop-color="#FBC707"/>
</linearGradient>
</defs>
</svg>
