<svg width="24" height="24" viewBox="0 0 24 24" fill="none" xmlns="http://www.w3.org/2000/svg">

<g id="Size=24x24px">
<g id="Logo_2">
<path id="Vector" d="M17.0225 19.9272H7.19995V22.4H17.0225V19.9272Z" fill="#6289AA"/>
<path id="Vector_2" d="M7.19995 10.4754H10.2278V13.9421C10.2278 14.4043 10.5512 15.6061 12.2384 15.6061C13.8791 15.6061 13.9256 14.1267 13.9256 13.9421V10.4521H17.0015V13.549C17.0015 15.0742 16.5161 17.9633 11.894 17.9633C7.27197 17.9633 7.22546 14.5431 7.22546 13.5955C7.22321 13.0899 7.19995 10.4754 7.19995 10.4754Z" fill="#6289AA"/>
<path id="Vector_3" d="M7.21558 1.88625V9.11906H10.2464V6.06269C10.2464 5.17143 11.494 3.64325 13.0973 4.17815C13.8362 4.48349 13.9893 5.0439 13.9893 5.78286V9.09355H16.9684V5.22245C16.9684 3.79704 16.0006 1.93726 13.8107 1.63192C12.3358 1.45337 11.0604 2.03929 10.2464 3.05808V1.87349L7.21558 1.88625Z" fill="#0077FF"/>
</g>
</g>
</svg>
