<svg width="64" height="40" viewBox="0 0 64 40" fill="none" xmlns="http://www.w3.org/2000/svg">

<g id="size=Coloured">
<g id="Group 1509">
<g id="Group">
<path id="Vector" d="M36.3349 25.2954C36.3349 24.7604 36.1292 24.3762 35.745 24.1567C35.6216 24.1018 35.4707 24.047 35.2923 24.0195C35.114 23.9921 34.9082 23.9647 34.7024 23.9647H33.9204V26.6673H34.7024C35.2649 26.6673 35.6764 26.5575 35.9371 26.338C36.0606 26.2283 36.1703 26.0911 36.2252 25.9127C36.3075 25.7344 36.3349 25.5286 36.3349 25.2954ZM33.9342 21.4678V23.7863H34.7436C35.6902 23.7863 36.1703 23.3885 36.184 22.6065C36.184 21.8383 35.6764 21.4678 34.675 21.4816H33.9342V21.4678ZM33.2894 26.3106C33.2894 26.2283 33.3031 26.0911 33.3031 25.899V22.2498L33.2894 21.8931C33.2894 21.8245 33.2894 21.7697 33.2757 21.7422C33.2757 21.7148 33.2619 21.6873 33.2619 21.6736C33.2345 21.5776 33.1796 21.5227 33.0836 21.4816C33.0013 21.4404 32.8778 21.4267 32.7132 21.4267V21.3032H34.7984C35.1002 21.3032 35.3746 21.3169 35.6216 21.3581C35.8685 21.3993 36.0606 21.4541 36.2115 21.5227C36.6505 21.7285 36.8562 22.0715 36.8562 22.5653C36.8562 23.265 36.4035 23.7177 35.4295 23.8412L35.2649 23.8686C35.4844 23.8823 35.7725 23.9509 35.9097 23.9784C36.0468 24.0058 36.1703 24.0607 36.3075 24.1293C36.8151 24.3899 37.062 24.8015 37.062 25.364C37.062 26.0499 36.7328 26.5026 36.0468 26.7084C35.8959 26.7496 35.7176 26.7907 35.4844 26.8044C35.2512 26.8319 35.0179 26.8456 34.7436 26.8456H32.6995V26.7221C32.9464 26.7221 33.111 26.681 33.1796 26.5987C33.2071 26.5712 33.2345 26.5438 33.2482 26.5026C33.2757 26.4615 33.2894 26.3929 33.2894 26.3106Z" fill="black"/>
<path id="Vector_2" d="M38.0774 25.8306C38.0774 26.0776 38.146 26.2834 38.2695 26.448C38.3929 26.5989 38.5576 26.6812 38.7633 26.6812C38.9691 26.6812 39.1612 26.6263 39.3532 26.5166C39.5316 26.4068 39.6825 26.2696 39.7785 26.0913C39.8471 25.9816 39.8883 25.8444 39.9157 25.666C39.9431 25.5014 39.9569 25.2819 39.9569 25.0212V24.6234C39.5865 24.6508 39.3258 24.692 39.1337 24.7331C38.9417 24.7743 38.7633 24.8292 38.6124 24.9115C38.2557 25.1036 38.0911 25.4054 38.0774 25.8306ZM40.0392 26.6949C39.998 26.6126 39.9706 26.5166 39.9569 26.2559V26.1873L39.902 26.2422C39.8471 26.3108 39.7785 26.3657 39.7237 26.4206C39.6688 26.4754 39.6002 26.5166 39.5179 26.5715C39.3532 26.6949 39.2023 26.7772 39.0377 26.8321C38.8868 26.887 38.7085 26.9007 38.5301 26.9007C38.2009 26.9007 37.9402 26.8184 37.7619 26.6675C37.6658 26.5715 37.5835 26.4617 37.5149 26.3245C37.4601 26.1873 37.4326 26.0364 37.4326 25.8718C37.4326 25.2819 37.803 24.8978 38.5438 24.7331C38.7359 24.692 38.9554 24.6508 39.1749 24.6234C39.3944 24.596 39.6413 24.5685 39.9157 24.5548L39.9432 24.0335C39.9432 23.8551 39.9294 23.718 39.9157 23.6082C39.902 23.4985 39.8746 23.4024 39.8334 23.3201C39.7237 23.1006 39.5041 23.0046 39.1749 23.0046C38.6536 23.0046 38.3655 23.2515 38.3381 23.7454C38.3381 23.8277 38.3243 23.8826 38.3106 23.91C38.2969 23.9375 38.2832 23.9649 38.2557 23.9786C38.2009 24.0198 38.1186 24.0335 38.0088 24.0335C37.7481 24.0335 37.6521 23.9649 37.6658 23.8277C37.6658 23.6905 37.707 23.5671 37.803 23.4436C37.8991 23.3201 38.0225 23.2104 38.1734 23.1143C38.4615 22.9497 38.8319 22.8674 39.2847 22.8674C39.7785 22.8674 40.1215 22.9771 40.2998 23.1966C40.3684 23.2927 40.4233 23.4024 40.4645 23.5396C40.5056 23.6768 40.5193 23.8414 40.5193 24.0609V24.1021V24.3079L40.5056 24.8429L40.4919 25.5837L40.4782 25.9404C40.4782 26.105 40.4919 26.2422 40.4919 26.3794C40.5056 26.5166 40.5468 26.6675 40.6702 26.7087C40.78 26.7498 40.9035 26.7635 41.1092 26.7635C41.2602 26.7635 41.3836 26.7361 41.4659 26.7087C41.562 26.6675 41.6168 26.5852 41.6443 26.4617C41.6717 26.352 41.6717 26.1736 41.6717 25.9267V23.8414C41.6717 23.5533 41.6443 23.3613 41.562 23.2515C41.4797 23.1555 41.3425 23.1006 41.1367 23.1143V23.0046L42.2479 22.9223V23.8003L42.3028 23.6905C42.4674 23.4024 42.6457 23.1966 42.8652 23.0732C43.071 22.9497 43.3317 22.8811 43.6472 22.8948C44.1137 22.8948 44.4429 23.0457 44.635 23.3613C44.7036 23.471 44.7584 23.5945 44.7859 23.7454C44.8133 23.8963 44.827 24.0884 44.827 24.3216V25.913C44.827 26.1462 44.8407 26.3245 44.8545 26.448C44.8819 26.5715 44.9368 26.6538 45.0328 26.6949C45.1151 26.7224 45.2935 26.7498 45.4444 26.7498C45.5816 26.7498 45.705 26.7224 45.7736 26.6949C45.8697 26.6538 45.9245 26.5715 45.9383 26.448C45.9657 26.3382 45.9657 26.1599 45.9657 25.913V22.1403C45.9657 21.9208 45.9657 21.7699 45.9383 21.6601C45.9108 21.5504 45.8559 21.4818 45.7736 21.4406C45.6913 21.4132 45.5816 21.3995 45.4169 21.3995V21.2897L46.5693 21.2349C46.5556 21.4955 46.5419 21.7562 46.5419 22.0168C46.5282 22.2912 46.5282 22.5381 46.5282 22.7439V25.2682L47.7903 23.8826C47.9686 23.6905 48.0647 23.5122 48.0647 23.3887C48.0784 23.1966 47.8863 23.1143 47.5708 23.1006V22.9909H49.217V23.1006C49.121 23.1143 49.0387 23.1281 48.9564 23.1555C48.8741 23.1829 48.7918 23.2241 48.7094 23.279C48.6271 23.3338 48.5585 23.375 48.4899 23.4161C48.4351 23.4573 48.3665 23.5259 48.2842 23.6082C48.2018 23.6905 48.0921 23.814 47.9412 23.9786L47.5296 24.4313L48.6271 26.1599C48.7506 26.3657 48.8741 26.5029 48.9701 26.5852C49.0661 26.6675 49.2033 26.7086 49.3542 26.7361V26.8458H48.3528C48.3253 26.791 48.2842 26.7224 48.243 26.6263L48.0784 26.3382L47.9549 26.1187L47.1455 24.8017L46.5144 25.5151V25.913C46.5144 26.1462 46.5144 26.3245 46.5419 26.448C46.5693 26.5715 46.6242 26.6538 46.7065 26.6949C46.7888 26.7361 46.9123 26.7498 47.0632 26.7498V26.8596H43.6747V26.7361C43.9079 26.7361 44.0588 26.6949 44.1274 26.6126C44.1548 26.5852 44.1685 26.544 44.1822 26.5029C44.196 26.4617 44.2097 26.4068 44.2097 26.3382C44.2097 26.2834 44.2234 26.2148 44.2234 26.1187C44.2234 26.0227 44.2371 25.9541 44.2371 25.913V24.3627C44.2371 23.9786 44.196 23.6905 44.1137 23.5122C43.9765 23.2241 43.7433 23.0869 43.4003 23.0869C43.0299 23.0869 42.7281 23.2652 42.4948 23.6219C42.4125 23.7591 42.3439 23.91 42.3028 24.0746C42.2616 24.2393 42.2342 24.4176 42.2342 24.5822V25.913C42.2342 26.1462 42.2479 26.3245 42.2616 26.448C42.2891 26.5715 42.3439 26.6538 42.44 26.6949C42.5223 26.7224 42.6457 26.7498 42.7967 26.7498V26.8596H41.1367C40.9858 26.8596 40.7114 26.8733 40.5742 26.8733C40.4233 26.8733 40.3547 26.8596 40.2175 26.8458C40.1352 26.791 40.0803 26.7635 40.0392 26.6949Z" fill="black"/>
<path id="Vector_3" d="M5.50906 24.2939H5.86575C6.29103 24.2939 6.60657 24.1979 6.81235 23.9921C6.9221 23.8824 7.00441 23.7177 7.05928 23.5394C7.11416 23.3473 7.1416 23.1415 7.1416 22.8946C7.1416 21.9754 6.74375 21.5227 5.94806 21.5227H5.50906V24.2939ZM5.50906 24.5134V25.899C5.50906 26.1185 5.52278 26.2831 5.55022 26.3929C5.57766 26.5026 5.64625 26.5712 5.72856 26.6124C5.8246 26.6535 5.96178 26.6673 6.16756 26.6673V26.8593H4V26.6673C4.17834 26.6673 4.31553 26.6398 4.41156 26.6124C4.49388 26.5712 4.56247 26.5026 4.58991 26.3929C4.61734 26.2831 4.63106 26.1185 4.63106 25.899V22.2635C4.63106 22.044 4.61734 21.8794 4.60363 21.7697C4.56247 21.6599 4.50759 21.5913 4.41156 21.5639C4.32925 21.5227 4.19206 21.509 4.02744 21.4953V21.3032H6.08525C6.78491 21.3032 7.2925 21.4267 7.60803 21.6736C7.93729 21.9206 8.08819 22.3184 8.08819 22.8534C8.08819 23.608 7.8001 24.1019 7.21019 24.3351C7.05928 24.3899 6.86722 24.4448 6.62028 24.4723C6.38707 24.4997 6.11269 24.5271 5.8246 24.5271H5.50906V24.5134Z" fill="black"/>
<path id="Vector_4" d="M9.07574 24.5272H10.6534C10.6534 24.294 10.6397 24.1156 10.6122 23.9785C10.5985 23.8413 10.5711 23.7178 10.5299 23.608C10.3927 23.2239 10.187 23.0319 9.91258 23.0319C9.59705 23.0319 9.37755 23.2514 9.22664 23.6766C9.18549 23.7864 9.15805 23.9099 9.13061 24.047C9.10317 24.1842 9.08945 24.3489 9.07574 24.5272ZM11.5863 24.7467H9.06202C9.06202 25.0211 9.07574 25.2406 9.10317 25.4189C9.13061 25.5973 9.17177 25.7619 9.24036 25.9128C9.44614 26.4067 9.77539 26.6399 10.2144 26.6399C10.4613 26.6399 10.6808 26.5713 10.8866 26.4204C11.0924 26.2695 11.257 26.0637 11.3942 25.803L11.5726 25.9265C11.3942 26.2695 11.1884 26.5301 10.9278 26.6948C10.6808 26.8594 10.3653 26.9417 9.99489 26.9417C9.4187 26.928 8.89739 26.7496 8.56814 26.393C8.23889 26.0363 8.07427 25.5424 8.06055 24.9113C8.06055 24.2803 8.22517 23.7864 8.55442 23.416C8.86995 23.0456 9.37755 22.8672 9.9263 22.8535C10.2967 22.8535 10.6397 22.9358 10.9003 23.1005C11.1473 23.2651 11.3393 23.512 11.4491 23.8275C11.4902 23.9373 11.5177 24.047 11.5314 24.1842C11.5726 24.3351 11.5863 24.5135 11.5863 24.7467Z" fill="black"/>
<path id="Vector_5" d="M11.7511 22.9633L13.1504 22.8672C13.1641 23.0044 13.1641 23.1279 13.1641 23.2239C13.1641 23.32 13.1641 23.4023 13.1641 23.4709V23.6904C13.4659 23.1416 13.8363 22.8535 14.2616 22.8535C14.4537 22.8535 14.6046 22.9084 14.7143 23.0181C14.8241 23.1279 14.8927 23.2514 14.8927 23.416C14.8927 23.5532 14.8378 23.6629 14.7418 23.7452C14.6457 23.8275 14.5223 23.8687 14.3576 23.8687C14.1656 23.8687 14.0558 23.8001 14.0147 23.6355C13.9872 23.5395 13.9598 23.4709 13.9324 23.4297C13.9049 23.3885 13.8638 23.3748 13.8089 23.3748H13.7952C13.6443 23.3885 13.5071 23.4983 13.3836 23.7315C13.3287 23.8413 13.2739 23.9647 13.2464 24.1019C13.219 24.2391 13.2053 24.39 13.2053 24.5684V25.9402C13.2053 26.1597 13.219 26.3244 13.2327 26.4204C13.2601 26.5301 13.315 26.5987 13.3973 26.6262C13.4796 26.6536 13.6168 26.6811 13.7952 26.6811V26.8594H11.7236V26.6811C11.8883 26.6811 12.0117 26.6673 12.094 26.6262C12.1764 26.5987 12.2312 26.5164 12.2587 26.4204C12.2861 26.3106 12.2998 26.146 12.2861 25.9402V23.8824C12.2861 23.5806 12.2587 23.3748 12.1901 23.2788C12.1215 23.1828 11.9706 23.1416 11.7511 23.1553V22.9633Z" fill="black"/>
<path id="Vector_6" d="M16.5663 22.8672L16.58 23.608C16.8818 23.1142 17.3071 22.8672 17.8696 22.8535C18.4458 22.8535 18.7887 23.1142 18.9259 23.6355C19.0905 23.3611 19.2689 23.169 19.4747 23.0456C19.6805 22.9221 19.9274 22.8535 20.2018 22.8535C20.6408 22.8535 20.9563 23.0044 21.1621 23.2788C21.2444 23.3885 21.2993 23.512 21.3404 23.6766C21.3816 23.8275 21.3953 24.0333 21.3953 24.2803V25.9128C21.3953 26.1323 21.409 26.2969 21.4227 26.393C21.4502 26.5027 21.5051 26.5713 21.5874 26.5987C21.6697 26.6262 21.7931 26.6536 21.9578 26.6536V26.832H19.9411V26.6536C20.1057 26.6536 20.2155 26.6399 20.2978 26.5987C20.3801 26.5713 20.4213 26.489 20.4487 26.393C20.4761 26.2832 20.4761 26.1186 20.4761 25.9128V24.294C20.4761 23.9099 20.435 23.6218 20.3252 23.4434C20.2292 23.2651 20.0646 23.1828 19.8451 23.1828C19.5844 23.1828 19.3649 23.32 19.1866 23.5943C19.0357 23.8275 18.9534 24.0745 18.9534 24.3489V25.9128C18.9534 26.1323 18.9671 26.2969 18.9808 26.393C19.0082 26.5027 19.0494 26.5713 19.1317 26.5987C19.214 26.6262 19.3375 26.6536 19.5021 26.6536V26.832H17.5266V26.6536C17.6912 26.6536 17.801 26.6399 17.8833 26.5987C17.9656 26.5713 18.0068 26.489 18.0342 26.393C18.0616 26.2832 18.0754 26.1186 18.0616 25.9128V24.294C18.0616 23.5532 17.8696 23.1965 17.458 23.1965C17.2111 23.2102 16.9916 23.32 16.827 23.5532C16.6623 23.7864 16.5663 24.0745 16.5663 24.4175V25.9265C16.5663 26.146 16.58 26.3106 16.5937 26.4204C16.6212 26.5301 16.6623 26.5987 16.7446 26.6262C16.827 26.6536 16.9367 26.6811 17.1013 26.6673V26.8457H15.0984V26.6673C15.263 26.6673 15.3865 26.6536 15.4688 26.6262C15.5511 26.5987 15.606 26.5301 15.6334 26.4204C15.6609 26.3106 15.6746 26.146 15.6609 25.9265V23.855C15.6746 23.5532 15.6334 23.3611 15.5648 23.2651C15.4962 23.169 15.3453 23.1279 15.1121 23.1416V22.9633L16.5663 22.8672Z" fill="black"/>
<path id="Vector_7" d="M27.2394 23.2105V25.6936C27.2394 25.8582 27.2394 25.9954 27.2531 26.0914C27.2668 26.2012 27.2805 26.2835 27.308 26.3658C27.3354 26.4481 27.3903 26.5167 27.4589 26.5716C27.5275 26.6265 27.5961 26.6402 27.6784 26.6539C27.843 26.6539 28.0076 26.5716 28.1997 26.4207L28.3094 26.6127C28.0076 26.8597 27.6646 26.9832 27.2942 26.9832C26.8827 26.9832 26.6083 26.846 26.4574 26.5716C26.43 26.5167 26.4025 26.4481 26.3888 26.3658C26.3751 26.2972 26.3614 26.1875 26.3614 26.064C26.3614 25.9405 26.3476 25.7622 26.3476 25.5427V23.2105H25.9224V22.991C26.087 22.991 26.2242 22.9498 26.3339 22.895C26.4437 22.8264 26.5397 22.7303 26.622 22.6069C26.6906 22.5108 26.7455 22.3874 26.7866 22.2639C26.8278 22.1404 26.869 21.9895 26.8964 21.8112L27.2668 21.77C27.2668 21.8661 27.2531 21.9621 27.2531 22.0718C27.2531 22.1679 27.2531 22.2913 27.2394 22.4422C27.2394 22.5794 27.2394 22.7715 27.2394 22.991H28.1448V23.2242H27.2394V23.2105Z" fill="black"/>
<path id="Vector_8" d="M24.5233 25.268V24.6918C23.9883 24.733 23.6179 24.829 23.3847 24.9936C23.1652 25.1583 23.0554 25.4052 23.0554 25.7482C23.0554 26.0226 23.1103 26.2283 23.2201 26.3792C23.3298 26.5301 23.467 26.6125 23.6591 26.6262C23.81 26.6262 23.9472 26.585 24.0843 26.489C24.2078 26.4067 24.3176 26.2832 24.3862 26.1323C24.4273 26.0363 24.4685 25.9265 24.4959 25.7893C24.5096 25.6521 24.5233 25.4875 24.5233 25.268ZM25.9089 26.6948V26.8457C25.6894 26.8594 25.6071 26.8594 25.3739 26.8594C25.1956 26.8594 25.0035 26.8594 24.8526 26.8045C24.7566 26.7634 24.7017 26.7359 24.6331 26.6673C24.5782 26.585 24.5508 26.585 24.5371 26.3655C24.345 26.5713 24.1392 26.7222 23.9334 26.8182C23.7277 26.9143 23.5082 26.9691 23.2612 26.9691C22.9045 26.9691 22.6302 26.8731 22.4244 26.6673C22.2186 26.4753 22.1226 26.2146 22.1226 25.8716C22.1226 25.2269 22.5204 24.8427 23.3161 24.6781C23.6728 24.6095 24.0843 24.5546 24.5371 24.5409V24.0608C24.5371 23.6766 24.4959 23.4023 24.4136 23.2514C24.3313 23.1005 24.1804 23.0319 23.9609 23.0319C23.7277 23.0319 23.563 23.1142 23.467 23.2788C23.4258 23.3337 23.3984 23.4023 23.3847 23.4846C23.371 23.5669 23.3572 23.6629 23.3435 23.8001C23.3435 23.9373 23.3024 24.0333 23.2338 24.0882C23.1652 24.1431 23.0554 24.1705 22.8908 24.1705C22.5478 24.1705 22.3695 24.047 22.3695 23.8275C22.3695 23.6904 22.4107 23.5669 22.493 23.4571C22.5753 23.3337 22.685 23.2376 22.8359 23.1416C23.1515 22.9495 23.5493 22.8535 24.0569 22.8535C24.5645 22.8535 24.9349 22.9495 25.1544 23.1553C25.2504 23.2514 25.3327 23.3748 25.3739 23.512C25.4151 23.6629 25.4425 23.8413 25.4425 24.0745L25.4288 24.7193L25.4151 25.364C25.4151 25.5698 25.4013 25.707 25.4013 25.7619C25.4013 26.0363 25.4013 26.2283 25.4288 26.3518C25.4425 26.4753 25.4699 26.5301 25.5522 26.5987C25.6894 26.6948 25.7992 26.6948 25.9089 26.6948Z" fill="black"/>
<path id="Vector_9" d="M30.9162 25.2817V24.7055C30.3811 24.7467 30.0107 24.8427 29.7775 25.0074C29.558 25.172 29.4483 25.4189 29.4483 25.7619C29.4483 26.0363 29.5031 26.2421 29.6129 26.393C29.7226 26.5439 29.8598 26.6262 30.0519 26.6399C30.2028 26.6399 30.34 26.5987 30.4772 26.5027C30.6006 26.4204 30.7104 26.2969 30.779 26.146C30.8201 26.05 30.8613 25.9402 30.8887 25.8031C30.9162 25.6521 30.9162 25.4875 30.9162 25.2817ZM32.3018 26.6948V26.8457C32.0823 26.8594 31.9999 26.8594 31.7667 26.8594C31.5884 26.8594 31.3963 26.8594 31.2454 26.8045C31.1494 26.7634 31.0945 26.7359 31.0259 26.6673C30.971 26.585 30.9436 26.585 30.9299 26.3655C30.7378 26.5713 30.532 26.7222 30.3263 26.8182C30.1205 26.9143 29.901 26.9691 29.654 26.9691C29.2974 26.9691 29.023 26.8731 28.8172 26.6673C28.6114 26.4753 28.5154 26.2146 28.5154 25.8716C28.5154 25.2269 28.9132 24.8427 29.7089 24.6781C30.0656 24.6095 30.4772 24.5546 30.9299 24.5409V24.0608C30.9299 23.6766 30.8887 23.4023 30.8064 23.2514C30.7241 23.1005 30.5732 23.0319 30.3537 23.0319C30.1205 23.0319 29.9559 23.1142 29.8598 23.2788C29.8187 23.3337 29.7912 23.4023 29.7775 23.4846C29.7638 23.5669 29.7501 23.6629 29.7364 23.8001C29.7364 23.9373 29.6952 24.0333 29.6266 24.0882C29.558 24.1431 29.4483 24.1705 29.2836 24.1705C28.9407 24.1705 28.7623 24.047 28.7623 23.8275C28.7623 23.6904 28.8035 23.5669 28.8858 23.4571C28.9681 23.3337 29.0778 23.2376 29.2288 23.1416C29.5443 22.9495 29.9421 22.8535 30.4497 22.8535C30.9573 22.8535 31.3277 22.9495 31.5472 23.1553C31.6433 23.2514 31.7256 23.3748 31.7667 23.512C31.8079 23.6629 31.8353 23.8413 31.8353 24.0745L31.8216 24.7193L31.8079 25.364C31.8079 25.5698 31.7942 25.707 31.7942 25.7619C31.7942 26.0363 31.7942 26.2283 31.8216 26.3518C31.8353 26.4753 31.8628 26.5301 31.9451 26.5987C32.0823 26.6948 32.2057 26.6948 32.3018 26.6948Z" fill="black"/>
</g>
<path id="Vector_10" d="M47.6258 17.5438L47.5984 17.8319L53.0996 24.2797L53.2917 24.3072L53.3191 24.2935L53.4151 24.1151L51.0692 16.2817L50.6714 16.0073L47.6258 17.5438Z" fill="#0096B8"/>
<path id="Vector_11" d="M47.5984 17.8325L53.0996 24.2803L53.2917 24.3078L49.2446 18.1481L47.5984 17.8325Z" fill="#005675"/>
<path id="Vector_12" d="M50.671 16.0073L49.2717 17.6536L49.8479 17.9005L51.0689 16.2817L50.671 16.0073Z" fill="#0BBBEF"/>
<path id="Vector_13" d="M47.5984 17.8325L49.2446 18.1481L49.2721 17.6542L47.6258 17.5444L47.5984 17.8325Z" fill="#007290"/>
<path id="Vector_14" d="M49.8484 17.9006L53.3192 24.2935L53.4153 24.1152L51.0694 16.2817L49.8484 17.9006Z" fill="#007290"/>
<path id="Vector_15" d="M56.4329 15.8569L59.9861 17.4895L59.9998 17.9422L54.1693 26.7771L53.895 26.8457L53.8675 26.8319L53.7715 26.6262L56.1311 16.0216L56.4329 15.8569Z" fill="#81B73E"/>
<path id="Vector_16" d="M57.6268 18.1487L53.8953 26.8463L54.1696 26.7778L60.0001 17.9429L57.6268 18.1487Z" fill="#69931D"/>
<path id="Vector_17" d="M56.1311 16.021L53.7715 26.6256L53.8675 26.8314L56.9542 17.777L56.1311 16.021Z" fill="#277933"/>
<path id="Vector_18" d="M57.4893 17.5172L57.6264 18.1482L59.9998 17.9425L59.9861 17.4897L57.4893 17.5172Z" fill="#AECC53"/>
<path id="Vector_19" d="M56.1313 16.0216L56.9545 17.7776L57.4895 17.5169L56.4332 15.8569L56.1313 16.0216Z" fill="#69931D"/>
<path id="Vector_20" d="M51.0144 13.3326L51.1516 13.072L55.7062 13.0171L55.9943 13.3189L53.813 20.6036L53.6758 20.6859L53.5249 20.5761L51.0144 13.3326Z" fill="#E4032E"/>
<path id="Vector_21" d="M51.0144 13.3324L52.7704 14.2104L53.0997 13.8263L51.1516 13.0718L51.0144 13.3324Z" fill="#B51227"/>
<path id="Vector_22" d="M51.0144 13.3325L53.5249 20.576L53.6758 20.6858L52.7704 14.2105L51.0144 13.3325Z" fill="#791B15"/>
<path id="Vector_23" d="M53.6343 14.2106L53.6754 20.6858L53.8126 20.6035L55.9939 13.3188L53.6343 14.2106Z" fill="#B51227"/>
<path id="Vector_24" d="M55.7059 13.0171L53.0994 13.8265L53.6344 14.2106L55.994 13.3189L55.7059 13.0171Z" fill="#EA5160"/>
</g>
</g>
</svg>
