<svg width="24" height="24" viewBox="0 0 24 24" fill="none" xmlns="http://www.w3.org/2000/svg">

<g id="Size=24x24px">
<g id="Polygon_2">
<path id="Vector" fill-rule="evenodd" clip-rule="evenodd" d="M12 0C18.6282 0 24 5.37181 24 12C24 18.6282 18.6282 24 12 24C5.37181 24 0 18.6282 0 12C0 5.37181 5.37181 0 12 0Z" fill="#794FDD"/>
<path id="Vector_2" d="M15.9265 9.31247C15.6432 9.13789 15.2711 9.13789 14.9592 9.31247L12.7412 10.6547L11.233 11.5305L9.015 12.8727C8.73167 13.0473 8.35962 13.0473 8.04768 12.8727L6.28474 11.8224C6.00141 11.6478 5.80107 11.3273 5.80107 10.9752V8.90322C5.80107 8.55406 5.97279 8.23067 6.28474 8.05609L8.01906 7.03439C8.30239 6.85981 8.67444 6.85981 8.98638 7.03439L10.7207 8.05609C11.004 8.23067 11.2044 8.5512 11.2044 8.90322V10.2455L12.7126 9.34109V7.99885C12.7126 7.6497 12.5409 7.3263 12.2289 7.15173L9.015 5.22566C8.73167 5.05108 8.35962 5.05108 8.04768 5.22566L4.77651 7.15173C4.46456 7.3263 4.29285 7.64684 4.29285 7.99885V11.8825C4.29285 12.2316 4.46456 12.555 4.77651 12.7296L8.04768 14.6557C8.33101 14.8302 8.70305 14.8302 9.015 14.6557L11.233 13.342L12.7412 12.4377L14.9592 11.1241C15.2425 10.9495 15.6146 10.9495 15.9265 11.1241L17.6608 12.1458C17.9442 12.3203 18.1445 12.6409 18.1445 12.9929V15.0649C18.1445 15.4141 17.9728 15.7375 17.6608 15.912L15.9265 16.9624C15.6432 17.1369 15.2711 17.1369 14.9592 16.9624L13.2249 15.9407C12.9415 15.7661 12.7412 15.4455 12.7412 15.0935V13.7513L11.233 14.6557V15.9979C11.233 16.3471 11.4047 16.6704 11.7166 16.845L14.9878 18.7711C15.2711 18.9457 15.6432 18.9457 15.9551 18.7711L19.2263 16.845C19.5096 16.6704 19.71 16.3499 19.71 15.9979V12.1143C19.71 11.7651 19.5383 11.4417 19.2263 11.2672L15.9265 9.30961V9.31247Z" fill="white"/>
</g>
</g>
</svg>
