<svg width="64" height="40" viewBox="0 0 64 40" fill="none" xmlns="http://www.w3.org/2000/svg">

<g id="size=Coloured">
<g id="Logo_2">
<path id="Vector" d="M61.9999 19.9986L53.2135 28.888L44.4263 19.9986L53.2135 11.1128L61.9999 19.9986Z" fill="#EF3E42"/>
<path id="Vector_2" d="M2 29.7385L3.939 15.9779C4.37199 12.942 7.54024 10.2926 10.9383 10.2926C14.3868 10.2926 16.0228 12.7165 15.6909 15.042L15.4094 17.0453C15.1792 18.7248 13.9525 20.3403 11.7815 21.5348L14.0041 25.3461C14.2598 25.7653 14.3622 26.4109 14.2598 27.0917C14.03 28.544 12.9565 29.7385 11.7815 29.7385C11.1436 29.7385 10.6319 29.3846 10.3263 28.8352L7.05517 23.1159L6.49348 27.1222C6.28861 28.5762 5.21516 29.7385 4.06554 29.7385H2ZM9.76331 13.1361C9.02171 13.1361 8.3322 13.8796 8.20522 14.816L7.64569 18.9634C7.51829 19.9006 8.00379 20.6446 8.74453 20.6446C9.48483 20.6446 10.1744 19.9002 10.3026 18.9634L10.8621 14.816C10.99 13.8796 10.5032 13.1361 9.76331 13.1361ZM17.8572 13.3294C18.0866 11.649 19.3894 10.2612 20.7181 10.2612C22.0464 10.2612 22.9408 11.6495 22.7105 13.3294L21.7662 20.2741H24.3981L25.3683 13.3294C25.5977 11.649 26.9014 10.2612 28.2305 10.2612C29.5587 10.2612 30.4527 11.6495 30.2224 13.3294L28.3833 26.6699C28.153 28.349 26.8502 29.739 25.5211 29.739C24.1932 29.739 23.2989 28.349 23.5283 26.6699L24.1166 22.3415H21.4601L20.8718 26.6699C20.6411 28.349 19.3386 29.739 18.0108 29.739H15.6079L17.8572 13.3294ZM43.7059 15.8491C43.501 17.1415 42.8106 18.4009 41.584 19.5637C42.4276 20.4687 42.7848 21.6628 42.6062 22.8264L42.4276 24.0214C41.9679 27.0904 38.8246 29.7381 35.4528 29.7381H30.1122L32.0792 15.947C32.5152 12.9102 35.683 10.2617 39.0798 10.2617C42.5287 10.2617 44.1901 12.6838 43.8316 15.0102L43.7059 15.8491ZM37.1387 20.2106C36.2951 20.2106 35.504 21.0821 35.3499 22.1486L34.9668 24.9269C34.814 25.9921 35.3757 26.8641 36.2189 26.8641C37.0621 26.8641 37.8803 25.9921 38.0331 24.9269L38.4166 22.1486C38.5707 21.0821 37.981 20.2106 37.1387 20.2106ZM38.1609 13.1365C37.3182 13.1365 36.5512 14.0089 36.3721 15.0746L36.0661 16.9805C35.8858 18.0466 36.475 18.9181 37.3182 18.9181C38.1613 18.9181 38.9529 18.0466 39.1328 16.9805L39.4384 15.0746C39.6174 14.0089 39.0037 13.1365 38.1609 13.1365Z" fill="#0067B1"/>
</g>
</g>
</svg>
