<svg width="24" height="24" viewBox="0 0 24 24" fill="none" xmlns="http://www.w3.org/2000/svg">

<g id="size=24x24px">
<g id="Group 1808">
<circle id="Ellipse 198" cx="12" cy="12" r="12" fill="#F7F7F7"/>
<path id="Vector" d="M13.5456 3.50604C12.305 4.23208 11.5704 5.54318 11.5704 6.92576C11.5704 7.6518 11.8631 8.38348 12.2295 9.03625C12.5221 9.61934 12.6656 10.637 11.6441 11.1468C10.9152 11.5812 9.96155 11.2916 9.52538 10.5637C9.08911 9.98057 8.57741 9.39749 7.91834 8.9629C6.67771 8.23686 5.21417 8.23686 3.97344 8.9629C2.73271 9.68894 2 11.0033 2 12.3863C2 13.7692 2.72894 15.0799 3.97316 15.8079C5.21379 16.5339 6.67733 16.5339 7.91806 15.8079C8.57713 15.443 9.08874 14.8637 9.45146 14.2071C9.74413 13.6974 10.5486 13.0409 11.5702 13.624C12.2991 14.0585 12.5182 15.0085 12.1555 15.7345C11.7892 16.391 11.5702 17.119 11.5702 17.845C11.5702 19.2295 12.2991 20.5386 13.5454 21.2647C14.7861 21.9908 16.2496 21.9908 17.4903 21.2647C18.7311 20.5387 19.4657 19.2276 19.4657 17.845C19.4657 16.4624 18.7349 15.1514 17.4905 14.4234C16.8314 14.0585 16.1006 13.9137 15.298 13.9137C14.639 13.9137 13.7646 13.4792 13.7646 12.3863C13.7646 11.5117 14.4237 10.8589 15.298 10.8589C16.027 10.8589 16.8314 10.714 17.4905 10.3491C18.7312 9.6231 19.4657 8.312 19.4657 6.92952C19.4657 5.54704 18.7349 4.23593 17.4905 3.5098C16.9052 3.1449 16.1761 3.00007 15.5174 3.00007C14.8621 2.99631 14.1275 3.1449 13.5459 3.50604" fill="url(#paint0_linear_964_20528)"/>
</g>
</g>
<defs>
<linearGradient id="paint0_linear_964_20528" x1="2" y1="2.99998" x2="19.4657" y2="2.99998" gradientUnits="userSpaceOnUse">
<stop stop-color="#11AAE2"/>
<stop offset="0.59" stop-color="#0880B7"/>
<stop offset="1" stop-color="#016197"/>
</linearGradient>
</defs>
</svg>
