<svg width="64" height="40" viewBox="0 0 64 40" fill="none" xmlns="http://www.w3.org/2000/svg">

<g id="size=Coloured">
<g id="Logo_2">
<path id="Vector" d="M27.337 17.8372C25.7271 17.8372 24.6593 18.7823 24.6593 20.1918C24.6593 21.0476 24.9383 21.8508 26.324 22.9858L26.8796 23.4457C27.9886 24.3587 28.2951 24.8392 28.2951 25.647C28.2951 26.4273 27.7142 27.2167 26.5915 27.2167C26.1365 27.2167 25.0526 27.1023 24.8308 26.0108C24.8011 25.8667 24.7896 25.7179 24.7919 25.5715C24.7919 25.5028 24.7805 25.3427 24.5998 25.3427C24.4329 25.3427 24.4169 25.5372 24.4078 25.631V25.7843C24.3872 26.0383 24.3506 26.4616 24.3506 26.9719C24.3506 27.3128 24.3483 27.4135 24.5793 27.5279C25.0617 27.7636 25.6403 27.8712 26.3194 27.8712C27.0808 27.8712 27.7577 27.6927 28.2699 27.3357C29.084 26.7545 29.3789 25.8369 29.3789 25.1733C29.3789 24.1894 29.0657 23.3816 27.5039 22.1483L27.1403 21.8623C25.9329 20.876 25.6471 20.4847 25.6471 19.8326C25.6471 19.0157 26.2302 18.4551 27.1014 18.4551C28.1396 18.4551 28.4894 18.9013 28.5946 19.0866C28.6609 19.2102 28.7364 19.5168 28.7478 19.661C28.7592 19.7594 28.7775 19.9287 28.9399 19.9287C29.1205 19.9287 29.1114 19.6816 29.1114 19.5466C29.1114 18.8784 29.1571 18.4734 29.1686 18.3018V18.2057C29.1686 18.0867 29.1022 18.034 28.9582 18.034C28.8713 18.034 28.7638 18.0112 28.5191 17.9585C28.1624 17.8647 27.7828 17.8372 27.337 17.8372ZM32.9781 17.8372C32.8112 17.8372 32.7632 18.0546 32.7494 18.1439C32.7494 18.1507 31.908 26.3747 31.908 26.3747C31.8691 26.814 31.8325 27.2488 31.5261 27.3128C31.3569 27.3449 31.3111 27.3311 31.2014 27.3311C31.0825 27.3311 30.991 27.3975 30.991 27.4844C30.991 27.5577 31.0276 27.695 31.2768 27.695C31.4781 27.695 31.8554 27.6629 32.004 27.6561C32.1481 27.6492 32.1961 27.6561 32.1961 27.6561H32.4819C32.6237 27.6561 33.049 27.6881 33.344 27.695C33.4423 27.7018 33.6298 27.6835 33.6298 27.4844C33.6298 27.3975 33.5612 27.3311 33.4583 27.3311C33.3165 27.3311 33.1748 27.3128 33.0376 27.2739C32.9004 27.2442 32.8089 27.1137 32.8089 26.9673C32.8089 26.7522 32.7975 26.5325 32.8089 26.3358C32.8089 26.3358 33.2388 20.7845 33.2479 20.7845C33.2182 20.7845 36.0788 27.0817 36.0788 27.0817C36.3166 27.56 36.3624 27.6744 36.4996 27.6744C36.6505 27.6744 36.6916 27.5714 36.8814 27.1389C36.8837 27.1343 39.6917 20.6701 39.6917 20.6701C39.6871 20.6701 40.2268 26.8712 40.2268 26.8712C40.2291 26.9444 40.2405 27.0062 40.2451 27.0634C40.2519 27.1641 40.2542 27.2831 40.2268 27.2922C40.133 27.3288 40.0919 27.4066 40.0919 27.4639C40.0919 27.6263 40.2885 27.6629 40.5126 27.6744C40.9677 27.7041 42.2116 27.6927 42.4631 27.6927C42.7764 27.6927 42.8061 27.5279 42.8061 27.4822C42.8061 27.4364 42.781 27.3288 42.6141 27.3288C42.5043 27.3288 42.2116 27.3403 41.8869 27.2327C41.4319 27.0749 41.3564 26.3792 41.313 25.9696L40.5286 18.256C40.5149 18.0798 40.4875 17.835 40.3 17.835C40.1445 17.835 40.0896 17.9883 40.0507 18.0844C40.0599 18.0935 36.7236 25.7591 36.7031 25.798C36.6825 25.7751 33.2228 18.0661 33.2228 18.0661C33.1793 17.9517 33.1222 17.8372 32.9781 17.8372Z" fill="#005E44"/>
<path id="Vector_2" d="M18.8426 8.86084L14.2899 10.7944V21.9335L18.8426 20V8.86084ZM13.6977 11.0438L9.14496 17.817V28.9561L13.6977 22.1806V11.0438ZM8.55272 18.0664L4 20V31.1391L8.55272 29.2055V18.0664Z" fill="#B6CF48"/>
<path id="Vector_3" d="M48.2951 22.196C48.6825 22.4184 49.0145 22.5853 49.3466 22.8078C50.1767 23.4752 50.5114 24.5341 50.29 25.5909C50.0687 26.6477 49.4572 27.2575 48.4058 27.5356C47.9077 27.7024 47.299 27.7024 46.7456 27.7581C45.9708 27.7581 45.1407 27.7581 44.366 27.7024C44.2553 27.7024 44.1446 27.7024 44.0893 27.7024C44.0339 27.7024 43.9233 27.6714 43.9233 27.5356C43.9233 27.4547 43.9742 27.4073 44.0893 27.3687C44.2553 27.3131 44.532 27.3131 44.5873 27.2019C44.698 27.035 44.7534 26.7569 44.7534 26.4788C44.8087 25.0883 44.8087 23.6977 44.8087 22.3072C44.8087 21.306 44.8087 20.2492 44.8087 19.248C44.8087 19.1368 44.8087 19.0256 44.8087 18.9699C44.698 18.525 44.5873 18.4137 44.0893 18.3025C43.9431 18.2698 43.7019 18.3025 43.7019 18.1356C43.7019 17.9687 43.8319 17.9688 44.0893 17.9688C45.0301 17.9688 45.9155 17.9688 46.8009 17.9688C47.133 17.9688 47.5203 18.0244 47.797 18.1356C49.0145 18.4693 49.5679 19.6096 49.3466 20.6498C49.1252 21.6901 48.5997 21.9501 48.2951 22.196ZM46.5242 22.6409C46.3582 22.6409 46.1922 22.6409 46.1369 22.6409C46.0815 22.6409 45.9708 22.7522 45.9708 22.8078C45.9708 24.0314 45.9708 25.2551 46.0262 26.4788C46.0262 26.7569 46.1922 26.9237 46.4136 27.035C46.9116 27.2019 47.465 27.2575 47.9631 27.1462C48.6271 26.9794 49.0145 26.5344 49.1252 25.8669C49.2912 24.4764 48.4611 22.5853 46.5242 22.6409ZM45.9155 20.3605C45.9155 20.861 45.9155 21.3616 45.9155 21.8622C45.9155 22.0291 45.9708 22.1403 46.1369 22.1403C46.5242 22.1403 46.9116 22.196 47.299 22.1403C47.465 22.1403 47.6864 22.0291 47.797 21.8622C48.2398 21.4173 48.2951 20.861 48.2398 20.3048C48.1291 19.0256 47.4097 18.4137 46.3029 18.525C46.0262 18.525 45.9155 18.6362 45.9155 18.9143C45.9708 19.3593 45.9155 19.8599 45.9155 20.3605Z" fill="#005E44"/>
<path id="Vector_4" d="M54.1971 27.1046C52.9439 26.3368 52.2355 25.1301 52.0176 23.7041C51.7996 22.2781 52.0176 20.9617 52.8349 19.7551C53.7067 18.4936 55.0144 17.9999 56.4856 17.8902C57.4118 17.8354 58.3381 17.9451 59.2099 18.1096C59.8093 18.2193 59.8093 18.2193 59.8093 18.8227C59.8093 19.2614 59.8093 19.7002 59.8093 20.1938C59.8093 20.3035 59.8093 20.4132 59.8093 20.4681C59.8093 20.6326 59.5369 20.6875 59.4824 20.4681C59.4824 20.4132 59.4824 20.3035 59.4279 20.2487C59.3734 19.4808 58.9375 18.9872 58.1747 18.713C57.0849 18.4387 55.9952 18.4387 54.9599 18.8775C54.0881 19.2614 53.5432 19.9745 53.3253 20.9069C52.9439 22.6071 53.1073 24.1977 54.1426 25.5689C55.2323 26.995 56.8125 27.3789 58.4471 26.9401C58.992 26.7756 59.3734 26.4465 59.4824 25.898C59.5369 25.7883 59.5369 25.6786 59.5914 25.5689C59.6458 25.4044 59.6458 25.2398 59.8638 25.2398C60.0817 25.2398 59.9728 25.5141 59.9728 25.6238C59.9183 26.1174 59.8638 26.611 59.7548 27.0498C59.7003 27.324 59.5369 27.4886 59.2644 27.5434C58.774 27.6531 58.3381 27.7628 57.8477 27.8177C56.54 27.9274 55.1234 27.708 54.1971 27.1046Z" fill="#005E44"/>
</g>
</g>
</svg>
