<svg width="24" height="24" viewBox="0 0 24 24" fill="none" xmlns="http://www.w3.org/2000/svg">

<g id="variant=default, size=24">
<rect width="24" height="24" rx="12" fill="#121212" fill-opacity="0.94902"/>
<g id="solanaLogoMark 1" clip-path="url(#clip0_964_20528)">
<path id="Vector" d="M19.1258 15.6186L16.7487 18.1022C16.697 18.1562 16.6345 18.1992 16.565 18.2286C16.4955 18.258 16.4206 18.2731 16.3448 18.2731H5.07596C5.02219 18.2731 4.96959 18.2578 4.92463 18.2291C4.87966 18.2003 4.84429 18.1595 4.82286 18.1114C4.80143 18.0634 4.79487 18.0103 4.80399 17.9586C4.8131 17.907 4.8375 17.8591 4.87419 17.8208L7.25313 15.3372C7.30468 15.2834 7.36699 15.2405 7.43624 15.2111C7.50551 15.1817 7.58021 15.1665 7.65576 15.1663H18.924C18.9778 15.1663 19.0304 15.1816 19.0754 15.2104C19.1203 15.2391 19.1556 15.28 19.1772 15.328C19.1986 15.3761 19.2051 15.4292 19.196 15.4808C19.1869 15.5324 19.1625 15.5803 19.1258 15.6186ZM16.7487 10.6173C16.697 10.5634 16.6345 10.5204 16.565 10.491C16.4955 10.4616 16.4206 10.4464 16.3448 10.4465H5.07596C5.02219 10.4465 4.96959 10.4618 4.92463 10.4905C4.87966 10.5192 4.84429 10.5601 4.82286 10.6081C4.80143 10.6562 4.79487 10.7093 4.80399 10.7609C4.8131 10.8125 4.8375 10.8604 4.87419 10.8987L7.25313 13.3823C7.30468 13.4362 7.36699 13.4791 7.43624 13.5085C7.50551 13.5378 7.58021 13.5531 7.65576 13.5532H18.924C18.9778 13.5532 19.0304 13.5379 19.0754 13.5092C19.1203 13.4804 19.1556 13.4396 19.1772 13.3915C19.1986 13.3435 19.2051 13.2904 19.196 13.2388C19.1869 13.1871 19.1625 13.1392 19.1258 13.1009L16.7487 10.6173ZM5.07596 8.83333H16.3448C16.4206 8.83336 16.4955 8.81821 16.565 8.78882C16.6345 8.75942 16.697 8.7164 16.7487 8.66245L19.1258 6.17884C19.1625 6.14054 19.1869 6.09263 19.196 6.04101C19.2051 5.98939 19.1986 5.93629 19.1772 5.88825C19.1556 5.84021 19.1203 5.79932 19.0754 5.77059C19.0304 5.74187 18.9778 5.72656 18.924 5.72656H7.65576C7.58021 5.72669 7.50551 5.74192 7.43624 5.77131C7.36699 5.8007 7.30468 5.84363 7.25313 5.89743L4.8748 8.38105C4.83815 8.41931 4.81376 8.46717 4.80462 8.51872C4.79548 8.57029 4.80199 8.62334 4.82335 8.67136C4.84471 8.71938 4.87998 8.76027 4.92485 8.78904C4.96973 8.81781 5.02224 8.8332 5.07596 8.83333Z" fill="url(#paint0_linear_964_20528)"/>
</g>
</g>
<defs>
<linearGradient id="paint0_linear_964_20528" x1="6.01552" y1="18.5721" x2="17.4881" y2="5.29653" gradientUnits="userSpaceOnUse">
<stop offset="0.08" stop-color="#9945FF"/>
<stop offset="0.3" stop-color="#8752F3"/>
<stop offset="0.5" stop-color="#5497D5"/>
<stop offset="0.6" stop-color="#43B4CA"/>
<stop offset="0.72" stop-color="#28E0B9"/>
<stop offset="0.97" stop-color="#19FB9B"/>
</linearGradient>
<clipPath id="clip0_964_20528">
<rect width="14.4" height="12.5465" fill="white" transform="translate(4.79999 5.72656)"/>
</clipPath>
</defs>
</svg>
