<svg width="64" height="40" viewBox="0 0 64 40" fill="none" xmlns="http://www.w3.org/2000/svg">

<g id="size=Coloured">
<g id="Logo_2">
<path id="Path 1" d="M15.7098 27.4811C15.7098 27.853 16.2211 27.8993 16.4999 27.8993H16.7324C17.4294 27.8536 17.4294 27.5742 17.4294 27.4811V12.5188C17.4753 12.1464 16.9644 12.1006 16.6393 12.1006H16.5017C16.221 12.1006 15.7097 12.1465 15.7097 12.5188L15.7098 27.4811Z" fill="#E1091D"/>
<path id="Path 2" d="M6.37017 27.4811C6.37017 27.853 6.88148 27.8993 7.16028 27.8993H7.3928C8.08982 27.8536 8.08982 27.5742 8.08982 27.4811V12.5188C8.08937 12.1464 7.62482 12.1006 7.29971 12.1006H7.16208C6.83466 12.1006 6.37012 12.1465 6.37012 12.5188L6.37017 27.4811Z" fill="#E1091D"/>
<path id="Path 3" d="M9.4834 27.4811C9.4834 27.853 9.99469 27.8993 10.2735 27.8993H10.5523C11.2493 27.8536 11.2493 27.5742 11.2493 27.4811V12.5188C11.2489 12.1464 10.738 12.1006 10.4592 12.1006H10.2735C9.99469 12.1006 9.4834 12.1465 9.4834 12.5188V27.4811Z" fill="#E1091D"/>
<path id="Path 4" d="M12.5965 27.4811C12.5965 27.853 13.1078 27.8993 13.3866 27.8993H13.6191C14.3161 27.8536 14.3161 27.5742 14.3161 27.4811V12.5188C14.3157 12.1464 13.8048 12.1006 13.526 12.1006H13.3884C13.1077 12.1006 12.5964 12.1465 12.5964 12.5188L12.5965 27.4811Z" fill="#E1091D"/>
<path id="Path 5" d="M4.41822 19.1172C4.04586 19.1172 4 19.6285 4 19.9073V20.1861C4.04593 20.8831 4.32513 20.8831 4.41822 20.8831H19.3805C19.7524 20.8831 19.7987 20.3718 19.7987 20.093V19.9073C19.7987 19.6285 19.753 19.1172 19.3805 19.1172H4.41822Z" fill="#E1091D"/>
<path id="Path 6" d="M41.5906 24.7389C39.128 24.7389 38.1971 23.3911 38.1971 19.9064C38.1971 16.4672 39.0799 15.2134 41.5447 15.2134H41.6364C44.0526 15.2134 44.984 16.4681 44.984 19.9064C44.938 23.3916 44.0081 24.7389 41.5905 24.7389H41.5906ZM41.5905 13.2617C37.4083 13.2617 35.5034 15.3528 35.5034 19.9528C35.5034 24.5064 37.4551 26.6906 41.4511 26.7369H41.6368C45.6796 26.7369 47.6308 24.5064 47.6308 19.9528C47.6313 15.306 45.7727 13.2617 41.5905 13.2617Z" fill="#002469"/>
<path id="Path 7" d="M24.7241 25.7154C25.5606 26.3661 26.7221 26.6449 28.5807 26.6449H28.6724C30.531 26.6449 31.6926 26.3661 32.5758 25.7154C33.7836 24.7863 34.0175 23.6734 34.0175 21.58V14.0062C34.0231 13.9379 34.0138 13.8692 33.99 13.805C33.9662 13.7407 33.9287 13.6825 33.8799 13.6343C33.6919 13.4472 33.2737 13.3555 32.5767 13.3555C32.1387 13.2996 31.695 13.3982 31.322 13.6343C31.2733 13.6825 31.2357 13.7407 31.2119 13.805C31.1881 13.8692 31.1787 13.9379 31.1844 14.0062V21.9056C31.1844 23.2065 31.1844 23.4854 30.5804 23.9967C29.9836 24.3703 29.2853 24.549 28.5824 24.508C27.8771 24.5712 27.1714 24.3899 26.584 23.9944C25.98 23.5299 25.98 23.251 25.98 21.9501V14.0062C25.9857 13.9379 25.9763 13.8692 25.9525 13.805C25.9287 13.7407 25.8911 13.6825 25.8424 13.6343C25.4685 13.3974 25.0235 13.2988 24.5845 13.3555C24.1466 13.2996 23.7029 13.3982 23.3298 13.6343C23.2811 13.6825 23.2435 13.7407 23.2198 13.805C23.196 13.8692 23.1866 13.9379 23.1923 14.0062V21.58C23.284 23.6711 23.4711 24.7863 24.7257 25.7154" fill="#002469"/>
<path id="Path 8" d="M54.8353 24.6939H51.8615V20.7442H55.021C56.787 20.7442 57.1122 21.4875 57.1122 22.7422C57.1581 24.415 56.5545 24.6939 54.8353 24.6939ZM51.8615 15.261H54.8817C56.4615 15.261 56.5545 16.0511 56.5545 17.0733C56.5545 18.3279 55.9969 18.8388 54.6496 18.8388H51.8615V15.261ZM58.1347 14.1458C57.4377 13.6345 56.6013 13.4487 54.9752 13.4487H49.5847C49.4615 13.449 49.3435 13.498 49.2565 13.5851C49.1694 13.6721 49.1204 13.7901 49.1201 13.9133V26.1805C49.1204 26.3037 49.1694 26.4217 49.2565 26.5088C49.3435 26.5958 49.4615 26.6449 49.5847 26.6451H55.2536C56.787 26.6451 57.8555 26.5992 58.7846 25.9017C59.8067 25.1116 59.9929 23.8574 59.9929 22.9279C60.027 22.4119 59.9396 21.8952 59.7379 21.4192C59.5362 20.9431 59.2257 20.5209 58.8313 20.1865C58.499 19.9699 58.1396 19.7981 57.7624 19.6752L57.5299 19.5835L57.7624 19.4919C58.8777 18.9805 59.2495 18.2372 59.2495 16.7968C59.2036 16.0535 59.0638 14.7988 58.1343 14.1481" fill="#002469"/>
</g>
</g>
</svg>
