<svg width="24" height="24" viewBox="0 0 24 24" fill="none" xmlns="http://www.w3.org/2000/svg">
<rect width="24" height="24" fill="#F5F5F5"/>
<g id="Logo">
<path d="M-352 -765C-352 -766.105 -351.105 -767 -350 -767H3691C3692.1 -767 3693 -766.105 3693 -765V1193C3693 1194.1 3692.1 1195 3691 1195H-350C-351.105 1195 -352 1194.1 -352 1193V-765Z" fill="white"/>
<path d="M-350 -767V-766H3691V-767V-768H-350V-767ZM3693 -765H3692V1193H3693H3694V-765H3693ZM3691 1195V1194H-350V1195V1196H3691V1195ZM-352 1193H-351V-765H-352H-353V1193H-352ZM-350 1195V1194C-350.552 1194 -351 1193.55 -351 1193H-352H-353C-353 1194.66 -351.657 1196 -350 1196V1195ZM3693 1193H3692C3692 1193.55 3691.55 1194 3691 1194V1195V1196C3692.66 1196 3694 1194.66 3694 1193H3693ZM3691 -767V-766C3691.55 -766 3692 -765.552 3692 -765H3693H3694C3694 -766.657 3692.66 -768 3691 -768V-767ZM-350 -767V-768C-351.657 -768 -353 -766.657 -353 -765H-352H-351C-351 -765.552 -350.552 -766 -350 -766V-767Z" fill="black" fill-opacity="0.1"/>
<g id="USDC">
<rect x="-201.5" y="-22.5" width="427" height="68" rx="4.5" fill="white"/>
<rect x="-201.5" y="-22.5" width="427" height="68" rx="4.5" stroke="#9747FF" stroke-dasharray="10 5"/>
<g id="size=24x24px" clip-path="url(#clip0_964_20528)">
<g id="Group 1">
<path id="Vector" d="M12.0002 24.0005C18.6504 24.0005 24.0005 18.6504 24.0005 12.0002C24.0005 5.35006 18.6504 0 12.0002 0C5.35006 0 0 5.35006 0 12.0002C0 18.6504 5.35006 24.0005 12.0002 24.0005Z" fill="#2775CA"/>
<path id="Vector_2" d="M15.3002 13.9002C15.3002 12.1503 14.2502 11.5502 12.1502 11.3003C10.6502 11.1002 10.3502 10.7003 10.3502 10.0002C10.3502 9.30008 10.8502 8.85019 11.8502 8.85019C12.7502 8.85019 13.2502 9.1502 13.5002 9.90021C13.5503 10.0502 13.7003 10.1502 13.8503 10.1502H14.6502C14.8502 10.1502 15.0002 10.0002 15.0002 9.80025V9.75021C14.8002 8.65015 13.9002 7.80017 12.7502 7.70021V6.50019C12.7502 6.30014 12.6002 6.15014 12.3502 6.1001H11.6002C11.4002 6.1001 11.2502 6.2501 11.2001 6.50019V7.65017C9.7001 7.85021 8.75016 8.85019 8.75016 10.1003C8.75016 11.7503 9.75014 12.4002 11.8502 12.6503C13.2502 12.9003 13.7003 13.2003 13.7003 14.0003C13.7003 14.8004 13.0002 15.3504 12.0502 15.3504C10.7501 15.3504 10.3001 14.8003 10.1501 14.0503C10.1002 13.8503 9.95019 13.7502 9.80018 13.7502H8.95009C8.75016 13.7502 8.60016 13.9002 8.60016 14.1003V14.1503C8.80008 15.4003 9.60014 16.3003 11.2502 16.5504V17.7504C11.2502 17.9503 11.4002 18.1003 11.6501 18.1504H12.4002C12.6002 18.1504 12.7502 18.0004 12.8002 17.7504V16.5504C14.3003 16.3003 15.3002 15.2503 15.3002 13.9002Z" fill="white"/>
<path id="Vector_3" d="M9.45019 19.1502C5.55011 17.7503 3.55003 13.4002 5.00014 9.55004C5.75015 7.45 7.40019 5.85001 9.45019 5.09999C9.65023 5.00003 9.75019 4.85003 9.75019 4.59994V3.89997C9.75019 3.69992 9.65023 3.54992 9.45019 3.5C9.40015 3.5 9.30018 3.5 9.25014 3.54992C4.50009 5.04995 1.9 10.1001 3.40003 14.8502C4.30005 17.6502 6.45013 19.8003 9.25014 20.7003C9.45019 20.8003 9.65023 20.7003 9.70015 20.5003C9.75019 20.4503 9.75019 20.4003 9.75019 20.3003V19.6002C9.75019 19.4502 9.60019 19.2503 9.45019 19.1502ZM14.7503 3.54992C14.5503 3.44996 14.3502 3.54992 14.3003 3.74996C14.2503 3.80001 14.2503 3.84993 14.2503 3.95001V4.64998C14.2503 4.85003 14.4003 5.04995 14.5503 5.15003C18.4504 6.54998 20.4504 10.9001 19.0003 14.7502C18.2503 16.8503 16.6003 18.4503 14.5503 19.2003C14.3502 19.3002 14.2503 19.4502 14.2503 19.7003V20.4003C14.2503 20.6003 14.3502 20.7503 14.5503 20.8003C14.6003 20.8003 14.7003 20.8003 14.7503 20.7503C19.5004 19.2503 22.1005 14.2001 20.6004 9.45008C19.7004 6.60002 17.5003 4.44994 14.7503 3.54992Z" fill="white"/>
</g>
</g>
</g>
</g>
<defs>
<clipPath id="clip0_964_20528">
<rect width="24" height="24" fill="white"/>
</clipPath>
</defs>
</svg>
