<svg width="24" height="24" viewBox="0 0 24 24" fill="none" xmlns="http://www.w3.org/2000/svg">
<rect width="24" height="24" fill="#F5F5F5"/>
<g id="Logo">
<path d="M-352 -915C-352 -916.105 -351.105 -917 -350 -917H3691C3692.1 -917 3693 -916.105 3693 -915V1043C3693 1044.1 3692.1 1045 3691 1045H-350C-351.105 1045 -352 1044.1 -352 1043V-915Z" fill="white"/>
<path d="M-350 -917V-916H3691V-917V-918H-350V-917ZM3693 -915H3692V1043H3693H3694V-915H3693ZM3691 1045V1044H-350V1045V1046H3691V1045ZM-352 1043H-351V-915H-352H-353V1043H-352ZM-350 1045V1044C-350.552 1044 -351 1043.55 -351 1043H-352H-353C-353 1044.66 -351.657 1046 -350 1046V1045ZM3693 1043H3692C3692 1043.55 3691.55 1044 3691 1044V1045V1046C3692.66 1046 3694 1044.66 3694 1043H3693ZM3691 -917V-916C3691.55 -916 3692 -915.552 3692 -915H3693H3694C3694 -916.657 3692.66 -918 3691 -918V-917ZM-350 -917V-918C-351.657 -918 -353 -916.657 -353 -915H-352H-351C-351 -915.552 -350.552 -916 -350 -916V-917Z" fill="black" fill-opacity="0.1"/>
<g id="USDT">
<rect x="-201.5" y="-23.5" width="427" height="71" rx="4.5" fill="white"/>
<rect x="-201.5" y="-23.5" width="427" height="71" rx="4.5" stroke="#9747FF" stroke-dasharray="10 5"/>
<g id="size=24x24px">
<path id="Vector" d="M12 24C18.6274 24 24 18.6274 24 12C24 5.37258 18.6274 0 12 0C5.37258 0 0 5.37258 0 12C0 18.6274 5.37258 24 12 24Z" fill="#50AF95"/>
<path id="Vector_2" fill-rule="evenodd" clip-rule="evenodd" d="M13.4785 12.5307C13.3943 12.537 12.9593 12.563 11.9888 12.563C11.2169 12.563 10.6689 12.5398 10.4766 12.5307C7.49362 12.3995 5.26708 11.8802 5.26708 11.2585C5.26708 10.6368 7.49362 10.1182 10.4766 9.98487V12.0135C10.6717 12.0276 11.2302 12.0605 12.0021 12.0605C12.9284 12.0605 13.3922 12.0219 13.4757 12.0142V9.98628C16.4524 10.1189 18.674 10.6382 18.674 11.2585C18.674 11.8788 16.4531 12.3981 13.4757 12.53H13.4785V12.5307ZM13.4785 9.77646V7.96113H17.6327V5.19287H6.32246V7.96113H10.4759V9.77576C7.09996 9.93084 4.56116 10.5996 4.56116 11.4009C4.56116 12.2023 7.09996 12.8703 10.4759 13.0261V18.8433H13.4778V13.024C16.8461 12.8689 19.3806 12.2009 19.3806 11.4002C19.3806 10.5996 16.8482 9.93154 13.4778 9.77576H13.4785V9.77646Z" fill="white"/>
</g>
</g>
</g>
</svg>
