<svg width="24" height="24" viewBox="0 0 24 24" fill="none" xmlns="http://www.w3.org/2000/svg">

<g id="size=24" clip-path="url(#clip0_964_20528)">
<g id="Clip path group">
<mask id="mask0_964_20528" style="mask-type:luminance" maskUnits="userSpaceOnUse" x="0" y="0" width="24" height="24">
<g id="a">
<path id="Vector" d="M0 0H24V24H0V0Z" fill="white"/>
</g>
</mask>
<g mask="url(#mask0_964_20528)">
<g id="Group">
<path id="Vector_2" d="M12 23.9698C18.6109 23.9698 23.97 18.6106 23.97 11.9998C23.97 5.38894 18.6109 0.0297852 12 0.0297852C5.38918 0.0297852 0.0300293 5.38894 0.0300293 11.9998C0.0300293 18.6106 5.38918 23.9698 12 23.9698Z" fill="#3396FF" stroke="#66B1FF" stroke-width="0.06"/>
<path id="Vector_3" d="M7.35108 8.93786C9.91854 6.43412 14.0813 6.43412 16.6488 8.93786L16.9578 9.23918C17.0862 9.36434 17.0862 9.56732 16.9578 9.69248L15.9008 10.7233C15.8366 10.7859 15.7325 10.7859 15.6683 10.7233L15.2431 10.3086C13.4519 8.56196 10.5479 8.56196 8.75676 10.3086L8.30136 10.7527C8.23716 10.8153 8.13312 10.8153 8.06892 10.7527L7.0119 9.72188C6.8835 9.59672 6.8835 9.39374 7.0119 9.26858L7.35108 8.93786ZM18.8349 11.0696L19.7756 11.987C19.904 12.1122 19.904 12.3151 19.7756 12.4403L15.5336 16.5769C15.4053 16.7022 15.1972 16.7022 15.0688 16.5769L12.0581 13.6411C12.026 13.6098 11.974 13.6098 11.9419 13.6411L8.93118 16.5769C8.80284 16.7022 8.5947 16.7022 8.4663 16.5769L4.22421 12.4402C4.09584 12.3151 4.09584 12.1121 4.22421 11.9869L5.16498 11.0695C5.29336 10.9444 5.50149 10.9444 5.62987 11.0695L8.6406 14.0055C8.6727 14.0368 8.72472 14.0368 8.75682 14.0055L11.7674 11.0695C11.8958 10.9443 12.1039 10.9443 12.2323 11.0695L15.2431 14.0055C15.2752 14.0368 15.3272 14.0368 15.3593 14.0055L18.37 11.0696C18.4984 10.9444 18.7065 10.9444 18.8349 11.0696Z" fill="white"/>
</g>
</g>
</g>
</g>
<defs>
<clipPath id="clip0_964_20528">
<rect width="24" height="24" fill="white"/>
</clipPath>
</defs>
</svg>
