<svg width="24" height="24" viewBox="0 0 24 24" fill="none" xmlns="http://www.w3.org/2000/svg">
<rect width="24" height="24" fill="#F5F5F5"/>
<g id="Logo">
<path d="M-352 -317C-352 -318.105 -351.105 -319 -350 -319H3691C3692.1 -319 3693 -318.105 3693 -317V1641C3693 1642.1 3692.1 1643 3691 1643H-350C-351.105 1643 -352 1642.1 -352 1641V-317Z" fill="white"/>
<path d="M-350 -319V-318H3691V-319V-320H-350V-319ZM3693 -317H3692V1641H3693H3694V-317H3693ZM3691 1643V1642H-350V1643V1644H3691V1643ZM-352 1641H-351V-317H-352H-353V1641H-352ZM-350 1643V1642C-350.552 1642 -351 1641.55 -351 1641H-352H-353C-353 1642.66 -351.657 1644 -350 1644V1643ZM3693 1641H3692C3692 1641.55 3691.55 1642 3691 1642V1643V1644C3692.66 1644 3694 1642.66 3694 1641H3693ZM3691 -319V-318C3691.55 -318 3692 -317.552 3692 -317H3693H3694C3694 -318.657 3692.66 -320 3691 -320V-319ZM-350 -319V-320C-351.657 -320 -353 -318.657 -353 -317H-352H-351C-351 -317.552 -350.552 -318 -350 -318V-319Z" fill="black" fill-opacity="0.1"/>
<g id="XSGD">
<rect x="-201.5" y="-23.5" width="427" height="71" rx="4.5" fill="white"/>
<rect x="-201.5" y="-23.5" width="427" height="71" rx="4.5" stroke="#9747FF" stroke-dasharray="10 5"/>
<g id="size=24x24px" clip-path="url(#clip0_964_20528)">
<g id="Group 1533212262">
<path id="Vector" d="M12 24C18.6274 24 24 18.6274 24 12C24 5.37258 18.6274 0 12 0C5.37258 0 0 5.37258 0 12C0 18.6274 5.37258 24 12 24Z" fill="#0E3FC7"/>
<g id="Group">
<path id="Vector_2" d="M4.74572 6.26336C4.81729 6.26336 4.88466 6.23108 4.93097 6.17635C6.6207 4.1505 9.1623 2.85865 12.0007 2.85865C14.8392 2.85865 17.3808 4.1505 19.0705 6.17635C19.1161 6.23108 19.1842 6.26336 19.2557 6.26336H19.7806C19.8571 6.26336 19.9013 6.17565 19.855 6.1146C18.0537 3.7414 15.2034 2.20605 12.0007 2.20605C8.79811 2.20605 5.94845 3.7414 4.14645 6.1146C4.10014 6.17565 4.14435 6.26336 4.22084 6.26336H4.74572Z" fill="white"/>
<path id="Vector_3" d="M19.354 17.7422C19.281 17.7422 19.2122 17.7759 19.1666 17.8327C17.4783 19.9259 14.8925 21.2669 12 21.2669C9.10756 21.2669 6.52245 19.9259 4.83342 17.8327C4.78781 17.7759 4.71904 17.7422 4.64606 17.7422H4.1303C4.05452 17.7422 4.00961 17.8285 4.05452 17.8895C5.8502 20.3315 8.74267 21.9188 11.9993 21.9188C15.256 21.9188 18.1484 20.3308 19.9441 17.8895C19.989 17.8285 19.9441 17.7422 19.8683 17.7422H19.3526H19.354Z" fill="white"/>
</g>
<g id="Group_2">
<path id="Vector_4" d="M11.5039 14.1094C11.1719 14.1094 10.8442 14.049 10.5201 13.9276C10.1959 13.8069 9.90676 13.6385 9.65344 13.4238L10.2155 12.6919C10.4653 12.8947 10.6955 13.0407 10.9067 13.1284C11.1179 13.2161 11.3418 13.2603 11.5803 13.2603C11.7361 13.2603 11.8695 13.2449 11.9782 13.2133C12.0877 13.1824 12.1712 13.1361 12.2301 13.0758C12.2884 13.0154 12.3178 12.9438 12.3178 12.8617C12.3178 12.7488 12.275 12.6611 12.1887 12.5979C12.1031 12.5354 11.9565 12.4863 11.7495 12.4512L10.8478 12.2934C10.5158 12.2351 10.2597 12.1081 10.0808 11.913C9.90115 11.7179 9.81133 11.4702 9.81133 11.1692C9.81133 10.904 9.87869 10.6752 10.0134 10.4836C10.1481 10.2921 10.3411 10.1461 10.593 10.0444C10.845 9.94261 11.1446 9.89209 11.4919 9.89209C11.7965 9.89209 12.1031 9.94402 12.4112 10.0472C12.7192 10.1503 12.9873 10.2942 13.2132 10.4773L12.6799 11.2211C12.2582 10.8969 11.8386 10.7348 11.4211 10.7348C11.2842 10.7348 11.1663 10.7496 11.0667 10.7791C10.967 10.8085 10.8913 10.8492 10.8379 10.9019C10.7853 10.9545 10.7586 11.0183 10.7586 11.092C10.7586 11.1938 10.7965 11.2717 10.873 11.3264C10.9495 11.3811 11.073 11.4239 11.2449 11.4555L12.094 11.5958C12.4884 11.6583 12.788 11.7888 12.9929 11.9881C13.1978 12.1874 13.3002 12.4449 13.3002 12.7614C13.3002 13.0386 13.228 13.2779 13.0834 13.4785C12.9389 13.6799 12.7319 13.835 12.4624 13.9445C12.1929 14.054 11.873 14.1087 11.5018 14.1087L11.5039 14.1094Z" fill="white"/>
<path id="Vector_5" d="M10.1145 7.90402H9.11594C8.43317 7.90402 7.79602 8.24716 7.4199 8.81695L6.30909 10.5011L4.64532 8.13559C4.54287 7.98963 4.37586 7.90332 4.19763 7.90332H2.8749C2.66579 7.90332 2.54299 8.1391 2.66368 8.31031L5.14073 11.8266L3.30926 14.4854C2.9563 14.9913 2.74789 15.3204 2.47983 15.5695C2.35704 15.6839 2.23564 15.7779 2.12617 15.853C2.0153 15.9295 2.06863 16.1028 2.20336 16.1028H3.2019C3.88467 16.1028 4.52182 15.7597 4.89794 15.1899L6.15681 13.2805L7.98618 15.872C8.08863 16.0172 8.25564 16.1035 8.43317 16.1035H9.75731C9.96642 16.1035 10.0892 15.8678 9.96852 15.6965L7.33218 11.955L9.00858 9.52217C9.36154 9.01624 9.56995 8.68713 9.838 8.43803C9.9608 8.32365 10.0822 8.22962 10.1917 8.15453C10.3025 8.07805 10.2492 7.90472 10.1145 7.90472V7.90402Z" fill="white"/>
<path id="Vector_6" d="M15.9313 14.1155C15.6225 14.1155 15.3355 14.0614 15.0703 13.9548C14.805 13.8474 14.5714 13.6972 14.3707 13.5036C14.1693 13.3106 14.0135 13.086 13.9019 12.8299C13.7904 12.5745 13.7349 12.298 13.7349 12.0012C13.7349 11.7044 13.7904 11.4279 13.9019 11.1725C14.0135 10.917 14.1672 10.6925 14.3644 10.4988C14.5615 10.3059 14.7931 10.1557 15.0584 10.0476C15.3236 9.94026 15.6092 9.88623 15.9137 9.88623C16.2611 9.88623 16.5895 9.95781 16.8975 10.1003C17.2056 10.2427 17.4575 10.4392 17.6533 10.689L16.9446 11.3275C16.8119 11.1556 16.6583 11.0272 16.4849 10.9409C16.3109 10.8553 16.1207 10.8118 15.9137 10.8118C15.7495 10.8118 15.5987 10.842 15.4597 10.9023C15.3208 10.9627 15.2001 11.0455 15.0969 11.1514C14.9938 11.2567 14.9131 11.3816 14.857 11.5261C14.8001 11.6707 14.7721 11.8286 14.7721 12.0005C14.7721 12.1724 14.8015 12.3317 14.8598 12.4777C14.918 12.6243 15.0015 12.7513 15.1089 12.8587C15.2162 12.9661 15.3411 13.0503 15.4836 13.1106C15.626 13.171 15.7811 13.2011 15.9495 13.2011C16.1179 13.2011 16.2548 13.1738 16.386 13.119C16.5165 13.0643 16.6288 12.9885 16.7228 12.8903C16.8168 12.7927 16.8828 12.6812 16.9221 12.5562H15.8155V11.6833H18.0119V11.9759C18.0119 12.2847 17.9599 12.5682 17.8568 12.8278C17.7536 13.0874 17.6091 13.3141 17.4231 13.5071C17.2379 13.7 17.0182 13.8495 16.7642 13.9555C16.5102 14.0607 16.233 14.1134 15.9327 14.1134L15.9313 14.1155Z" fill="white"/>
<path id="Vector_7" d="M18.6601 14.0511V9.95166H20.3232C20.6277 9.95166 20.9105 10.0043 21.1722 10.1095C21.434 10.2148 21.6634 10.3615 21.8606 10.5488C22.0578 10.7362 22.2122 10.9551 22.323 11.2049C22.4346 11.4547 22.49 11.7242 22.49 12.0133C22.49 12.3024 22.4346 12.5641 22.323 12.8097C22.2115 13.056 22.0578 13.2715 21.8606 13.4567C21.6634 13.642 21.434 13.7879 21.1722 13.8932C20.9105 13.9984 20.6277 14.0511 20.3232 14.0511H18.6601ZM19.6671 13.1606H20.2993C20.4593 13.1606 20.6088 13.1311 20.747 13.0729C20.8852 13.0146 21.0073 12.9325 21.1133 12.8266C21.2185 12.7213 21.3006 12.5992 21.3596 12.4603C21.4178 12.322 21.4473 12.1726 21.4473 12.0126C21.4473 11.8526 21.4178 11.6954 21.3596 11.553C21.3013 11.4105 21.2192 11.2863 21.1133 11.1811C21.008 11.0758 20.8859 10.993 20.747 10.932C20.6081 10.8716 20.4593 10.8414 20.2993 10.8414H19.6671V13.1606Z" fill="white"/>
</g>
</g>
</g>
</g>
</g>
<defs>
<clipPath id="clip0_964_20528">
<rect width="24" height="24" fill="white"/>
</clipPath>
</defs>
</svg>
