<svg width="24" height="24" viewBox="0 0 24 24" fill="none" xmlns="http://www.w3.org/2000/svg">
<rect width="24" height="24" fill="#F5F5F5"/>
<g id="Logo">
<path d="M-352 -466C-352 -467.105 -351.105 -468 -350 -468H3691C3692.1 -468 3693 -467.105 3693 -466V1492C3693 1493.1 3692.1 1494 3691 1494H-350C-351.105 1494 -352 1493.1 -352 1492V-466Z" fill="white"/>
<path d="M-350 -468V-467H3691V-468V-469H-350V-468ZM3693 -466H3692V1492H3693H3694V-466H3693ZM3691 1494V1493H-350V1494V1495H3691V1494ZM-352 1492H-351V-466H-352H-353V1492H-352ZM-350 1494V1493C-350.552 1493 -351 1492.55 -351 1492H-352H-353C-353 1493.66 -351.657 1495 -350 1495V1494ZM3693 1492H3692C3692 1492.55 3691.55 1493 3691 1493V1494V1495C3692.66 1495 3694 1493.66 3694 1492H3693ZM3691 -468V-467C3691.55 -467 3692 -466.552 3692 -466H3693H3694C3694 -467.657 3692.66 -469 3691 -469V-468ZM-350 -468V-469C-351.657 -469 -353 -467.657 -353 -466H-352H-351C-351 -466.552 -350.552 -467 -350 -467V-468Z" fill="black" fill-opacity="0.1"/>
<g id="XUSD">
<rect x="-201.5" y="-20.5" width="427" height="64" rx="4.5" fill="white"/>
<rect x="-201.5" y="-20.5" width="427" height="64" rx="4.5" stroke="#9747FF" stroke-dasharray="10 5"/>
<g id="size=24x24px" clip-path="url(#clip0_964_20528)">
<path id="Vector" d="M11.9996 23.9993C18.6269 23.9993 23.9993 18.6269 23.9993 11.9996C23.9993 5.37243 18.6269 0 11.9996 0C5.37243 0 0 5.37243 0 11.9996C0 18.6269 5.37243 23.9993 11.9996 23.9993Z" fill="#257C58"/>
<g id="Group">
<path id="Vector_2" d="M4.74558 6.26324C4.81715 6.26324 4.88451 6.23096 4.93082 6.17623C6.6205 4.15044 9.16203 2.85863 12.0004 2.85863C14.8387 2.85863 17.3803 4.15044 19.0699 6.17623C19.1155 6.23096 19.1836 6.26324 19.2552 6.26324H19.78C19.8565 6.26324 19.9007 6.17553 19.8544 6.11448C18.0532 3.74136 15.2029 2.20605 12.0004 2.20605C8.79785 2.20605 5.94828 3.74136 4.14633 6.11448C4.10002 6.17553 4.14423 6.26324 4.22071 6.26324H4.74558Z" fill="white"/>
<path id="Vector_3" d="M19.3534 17.7422C19.2804 17.7422 19.2117 17.7759 19.1661 17.8327C17.4778 19.9259 14.892 21.2668 11.9997 21.2668C9.10729 21.2668 6.52225 19.9259 4.83328 17.8327C4.78767 17.7759 4.7189 17.7422 4.64592 17.7422H4.13018C4.0544 17.7422 4.00949 17.8285 4.0544 17.8895C5.85003 20.3314 8.74241 21.9187 11.999 21.9187C15.2555 21.9187 18.1479 20.3307 19.9435 17.8895C19.9884 17.8285 19.9435 17.7422 19.8677 17.7422H19.352H19.3534Z" fill="white"/>
</g>
<g id="Group_2">
<path id="Vector_4" d="M11.7877 14.1089C11.4088 14.1089 11.0797 14.0338 10.8012 13.8837C10.5219 13.7335 10.3065 13.5195 10.1542 13.2423C10.0019 12.9652 9.92615 12.6389 9.92615 12.2642V9.95068H10.9338V12.2642C10.9338 12.448 10.9689 12.6087 11.039 12.7476C11.1092 12.8866 11.2095 12.9925 11.3408 13.0669C11.4713 13.1413 11.6228 13.1785 11.7948 13.1785C11.9667 13.1785 12.1217 13.1413 12.2488 13.0669C12.3758 12.9925 12.474 12.8866 12.5442 12.7476C12.6143 12.6094 12.6494 12.448 12.6494 12.2642V9.95068H13.657V12.2642C13.657 12.6354 13.5799 12.9588 13.4255 13.236C13.2711 13.5132 13.0543 13.7279 12.7757 13.8802C12.4964 14.0324 12.1674 14.1082 11.7891 14.1082L11.7877 14.1089Z" fill="white"/>
<path id="Vector_5" d="M10.1142 7.90402H9.11567C8.43292 7.90402 7.79579 8.24715 7.41968 8.81692L6.3089 10.501L4.64519 8.13558C4.54274 7.98963 4.37574 7.90332 4.19751 7.90332H2.87481C2.66571 7.90332 2.54291 8.13909 2.66361 8.3103L5.14058 11.8265L3.30916 14.4852C2.95621 14.9911 2.74781 15.3202 2.47976 15.5693C2.35697 15.6837 2.23557 15.7777 2.12611 15.8528C2.01524 15.9293 2.06857 16.1026 2.20329 16.1026H3.2018C3.88455 16.1026 4.52169 15.7595 4.8978 15.1897L6.15663 13.2804L7.98595 15.8717C8.08839 16.017 8.2554 16.1033 8.43292 16.1033H9.75702C9.96612 16.1033 10.0889 15.8675 9.96823 15.6963L7.33197 11.9549L9.00831 9.52213C9.36126 9.01621 9.56967 8.68711 9.83771 8.43801C9.96051 8.32363 10.0819 8.22961 10.1914 8.15453C10.3022 8.07804 10.2489 7.90472 10.1142 7.90472V7.90402Z" fill="white"/>
<path id="Vector_6" d="M16.0975 14.1093C15.7656 14.1093 15.4379 14.0489 15.1137 13.9275C14.7895 13.8068 14.5004 13.6384 14.2471 13.4237L14.8092 12.6918C15.059 12.8946 15.2891 13.0406 15.5004 13.1283C15.7109 13.216 15.9354 13.2602 16.174 13.2602C16.3298 13.2602 16.4631 13.2448 16.5718 13.2132C16.6813 13.1823 16.7648 13.136 16.8237 13.0757C16.882 13.0153 16.9115 12.9438 16.9115 12.8617C16.9115 12.7487 16.8687 12.661 16.7823 12.5978C16.6967 12.5354 16.5501 12.4862 16.3431 12.4512L15.4414 12.2933C15.1095 12.235 14.8534 12.108 14.6745 11.913C14.4948 11.7179 14.405 11.4702 14.405 11.1692C14.405 10.9039 14.4724 10.6752 14.6071 10.4836C14.7418 10.2921 14.9348 10.1461 15.1867 10.0444C15.4386 9.94261 15.7382 9.89209 16.0856 9.89209C16.3901 9.89209 16.6967 9.94401 17.0048 10.0472C17.3128 10.1503 17.5809 10.2942 17.8068 10.4773L17.2735 11.2211C16.8518 10.8969 16.4322 10.7348 16.0147 10.7348C15.8779 10.7348 15.76 10.7496 15.6603 10.779C15.5607 10.8085 15.4849 10.8492 15.4316 10.9018C15.3783 10.9545 15.3523 11.0183 15.3523 11.092C15.3523 11.1937 15.3902 11.2716 15.4667 11.3264C15.5432 11.3811 15.6667 11.4239 15.8386 11.4555L16.6876 11.5958C17.082 11.6583 17.3816 11.7888 17.5865 11.988C17.7914 12.1873 17.8938 12.4448 17.8938 12.7613C17.8938 13.0385 17.8216 13.2778 17.677 13.4784C17.5325 13.6798 17.3255 13.8349 17.056 13.9444C16.7866 14.0538 16.4666 14.1086 16.0954 14.1086L16.0975 14.1093Z" fill="white"/>
<path id="Vector_7" d="M18.6685 14.0509V9.95166H20.3315C20.6361 9.95166 20.9188 10.0043 21.1806 10.1095C21.4423 10.2148 21.6718 10.3614 21.8689 10.5488C22.0661 10.7362 22.2205 10.9551 22.3314 11.2049C22.4429 11.4547 22.4984 11.7241 22.4984 12.0132C22.4984 12.3023 22.4429 12.5641 22.3314 12.8097C22.2198 13.0559 22.0661 13.2714 21.8689 13.4566C21.6718 13.6419 21.4423 13.7878 21.1806 13.8931C20.9188 13.9983 20.6361 14.0509 20.3315 14.0509H18.6685ZM19.6761 13.1605H20.3084C20.4684 13.1605 20.6178 13.131 20.7561 13.0728C20.8943 13.0145 21.0164 12.9325 21.1223 12.8265C21.2283 12.7205 21.3097 12.5991 21.3686 12.4602C21.4269 12.322 21.4563 12.1725 21.4563 12.0125C21.4563 11.8525 21.4269 11.6954 21.3686 11.5529C21.3104 11.4105 21.2283 11.2863 21.1223 11.181C21.0164 11.0758 20.895 10.993 20.7561 10.9319C20.6171 10.8716 20.4684 10.8414 20.3084 10.8414H19.6761V13.1605Z" fill="white"/>
</g>
</g>
</g>
</g>
<defs>
<clipPath id="clip0_964_20528">
<rect width="24" height="24" fill="white"/>
</clipPath>
</defs>
</svg>
