<svg width="24" height="24" viewBox="0 0 24 24" fill="none" xmlns="http://www.w3.org/2000/svg">

<g id="Size=24x24px" clip-path="url(#clip0_964_20528)">
<g id="Logo_2">
<path id="Vector" d="M12 24C18.6274 24 24 18.6274 24 12C24 5.37258 18.6274 0 12 0C5.37258 0 0 5.37258 0 12C0 18.6274 5.37258 24 12 24Z" fill="url(#paint0_linear_964_20528)"/>
<path id="Vector_2" d="M7.6096 7.86358C7.63664 7.76193 7.64757 7.65673 7.67505 7.55508C7.7634 7.22871 7.99374 7.06796 8.304 6.99276C8.46653 6.95405 8.63156 6.95346 8.79526 6.95317C10.7829 6.95041 12.7706 6.94957 14.7583 6.95065C15.1229 6.95065 15.4461 7.06338 15.7167 7.30524C15.9447 7.50958 16.0713 7.77212 16.1093 8.07633C16.1292 8.22745 16.128 8.3806 16.1057 8.53139C16.0762 8.72509 15.9813 8.8848 15.8693 9.03993C15.2709 9.86416 14.674 10.6892 14.0788 11.5151C14.0696 11.5294 14.0612 11.5442 14.0537 11.5594C13.8912 11.7811 13.7273 12.0027 13.5661 12.2259C12.8569 13.2062 12.1482 14.1868 11.4399 15.1677C11.4251 15.1885 11.3923 15.2092 11.4067 15.2355C11.421 15.2618 11.4562 15.2467 11.4817 15.2467C12.6061 15.2467 13.7304 15.247 14.8548 15.2475C15.0881 15.2475 15.3219 15.246 15.5529 15.2883C15.997 15.3695 16.2092 15.5699 16.2892 16.0141C16.3631 16.4197 16.3517 16.8241 16.2301 17.2237C16.1362 17.534 15.9287 17.6992 15.6165 17.7543C15.4177 17.787 15.2164 17.8022 15.0149 17.7997C12.9828 17.7997 10.9507 17.7993 8.91848 17.7985C8.42722 17.7985 8.03865 17.5916 7.77463 17.1754C7.61048 16.9173 7.57887 16.6245 7.59837 16.3238C7.61314 16.0846 7.72898 15.8923 7.8652 15.7042C9.24761 13.7933 10.6288 11.8816 12.0087 9.96896C12.1038 9.83737 12.1989 9.70582 12.294 9.57433C12.305 9.55956 12.3218 9.54626 12.3206 9.51671H12.2429C11.057 9.51671 9.87115 9.51607 8.68534 9.51479C8.52813 9.51263 8.37181 9.49069 8.22008 9.44948C7.89416 9.36556 7.72115 9.14631 7.64949 8.83146C7.58729 8.55828 7.57887 8.28185 7.60324 8.00408C7.60738 7.9571 7.60797 7.91012 7.6096 7.86358Z" fill="white"/>
</g>
</g>
<defs>
<linearGradient id="paint0_linear_964_20528" x1="5.39779" y1="21.1848" x2="19.2938" y2="1.85325" gradientUnits="userSpaceOnUse">
<stop stop-color="#5DB2AA"/>
<stop offset="1" stop-color="#78BBB6"/>
</linearGradient>
<clipPath id="clip0_964_20528">
<rect width="24" height="24" fill="white"/>
</clipPath>
</defs>
</svg>
