<svg width="24" height="24" viewBox="0 0 24 24" fill="none" xmlns="http://www.w3.org/2000/svg">

<g id="Size=24x24px">
<g id="Logo_2">
<path id="Vector" d="M11.8969 11.5952C12.4072 12.1331 13.8821 13.6554 14.1268 13.905L14.4169 13.7081C14.4169 13.7081 12.3862 11.5881 12.3862 11.5952V11.5881L14.3435 9.56661L14.0429 9.38379L11.9003 11.5881V11.5952H11.8969Z" fill="white"/>
<path id="Vector_2" d="M11.2538 11.8799C11.3167 11.9431 11.3761 12.0064 11.4355 12.0697C11.0545 12.467 9.93957 13.6307 9.82772 13.7502L10.1248 13.9506C10.1493 13.9225 11.3866 12.6357 11.6802 12.3263C11.9982 12.6603 13.1831 13.919 13.2041 13.9436L13.5641 13.708C13.5641 13.708 12.0437 12.133 11.5334 11.5951V11.588C11.6522 11.4615 13.3474 9.71065 13.4907 9.56651L13.1517 9.35908C13.1517 9.35908 11.848 10.7372 11.7081 10.8814C11.7081 10.8814 10.2716 9.3626 10.2646 9.35205L9.95705 9.53838C10.1807 9.77745 11.2223 10.8814 11.46 11.1345C11.3936 11.2013 11.3342 11.2646 11.2712 11.3244C10.9846 11.0185 9.67044 9.62628 9.41179 9.35205L9.04829 9.57003C9.38383 9.90753 10.6945 11.2751 10.9951 11.5986V11.6056C10.5303 12.0943 8.98538 13.6834 8.93994 13.7221L9.27199 13.9471C9.26849 13.9506 10.8064 12.3474 11.2538 11.8799Z" fill="white"/>
<path id="Vector_3" d="M7.97036 17.0689L12.3184 17.0654C12.4093 17.0724 13.318 17.0513 13.4439 17.0056C15.7682 16.654 17.4144 14.4567 17.4389 11.6652C17.4668 8.87374 15.8241 6.67642 13.4753 6.32836C13.318 6.27563 12.4058 6.25453 12.3324 6.26157H7.97036C7.2783 6.26157 6.71907 6.8276 6.71907 7.52019L6.71558 15.8067C6.71558 16.5029 7.2783 17.0689 7.97036 17.0689ZM7.65928 7.87528C7.66278 7.62918 7.68724 7.44285 7.82356 7.30925C7.94239 7.19323 8.16958 7.13346 8.36881 7.13346C8.42473 7.13346 8.52609 7.13346 11.9584 7.15104C12.0667 7.14401 13.0419 7.17214 13.1712 7.19675L13.1922 7.20026C15.181 7.53426 16.4777 9.27102 16.4917 11.623C16.4777 13.9751 15.181 15.7118 13.1747 16.0493C13.0524 16.0739 12.0667 16.1021 11.9444 16.095L8.5191 16.0985C7.87249 16.0985 7.68025 15.9298 7.65928 15.3427C7.65928 15.2899 7.65928 14.3583 7.66278 13.1735C7.66627 8.73312 7.65928 7.9245 7.65928 7.87528Z" fill="white"/>
<path id="Vector_4" d="M2.11727 21.2494V2.05011H21.1801H22.3965L22.4 1.6001H1.61396L1.59998 21.6995V21.7135H22.3825L22.386 21.2494H21.1801H2.11727Z" fill="white"/>
<path id="Vector_5" d="M21.1813 2.05029V21.2356V21.2496H22.3871H22.4011V2.05029H22.3976H21.1813Z" fill="#00FF00"/>
<path id="Vector_6" d="M2.11877 21.2496H21.1817V21.2391V2.05029H2.11877V21.2496ZM6.72197 7.52427C6.72197 6.82815 7.2847 6.26564 7.97325 6.26564H12.3353C12.4087 6.25861 13.3174 6.2797 13.4782 6.33244C15.827 6.68049 17.4697 8.87782 17.4418 11.6693C17.4138 14.4608 15.7711 16.6581 13.4468 17.0097C13.3209 17.0554 12.4122 17.073 12.3213 17.0694H7.97325C7.2812 17.0694 6.72197 16.5034 6.72197 15.8108V7.52427Z" fill="#010101"/>
<path id="Vector_7" d="M7.66061 15.343C7.68158 15.9266 7.87382 16.0954 8.52043 16.0989L11.9457 16.0954C12.0681 16.1059 13.0572 16.0778 13.1761 16.0497C15.1823 15.7121 16.479 13.9754 16.493 11.6234C16.479 9.27486 15.1823 7.5381 13.1935 7.20059L13.1726 7.19707C13.0432 7.17246 12.0681 7.14434 11.9597 7.15137C8.52742 7.13379 8.42956 7.13379 8.37014 7.13379C8.17091 7.13379 7.94372 7.19356 7.82489 7.30957C7.68508 7.44317 7.66411 7.62951 7.66061 7.87561C7.66061 7.92483 7.6676 8.73344 7.66061 13.1738C7.66061 14.3586 7.65712 15.2903 7.66061 15.343ZM14.34 9.56667L12.3826 11.5882V11.5952C12.3826 11.5882 14.4134 13.7082 14.4134 13.7082L14.1233 13.9051C13.8786 13.6554 12.4036 12.1331 11.8933 11.5952V11.5882L14.0359 9.38385L14.34 9.56667ZM10.9915 11.6093V11.6023C10.691 11.2788 9.38025 9.91121 9.04471 9.5737L9.40822 9.35572C9.66686 9.62995 10.9811 11.0222 11.2677 11.328C11.3271 11.2648 11.39 11.205 11.4564 11.1382C11.2187 10.8851 10.1772 9.77761 9.95347 9.54206L10.261 9.35572C10.268 9.36627 11.7046 10.8851 11.7046 10.8851C11.8444 10.7409 13.1481 9.36275 13.1481 9.36275L13.4871 9.57018C13.3473 9.71433 11.6486 11.4652 11.5298 11.5917V11.5988C12.0401 12.1367 13.5605 13.7117 13.5605 13.7117L13.2005 13.9473C13.183 13.9226 11.9947 12.664 11.6766 12.33C11.383 12.6394 10.1457 13.9262 10.1212 13.9543L9.82415 13.7539C9.93599 13.6379 11.0545 12.4742 11.4319 12.0734C11.3725 12.0101 11.3096 11.9468 11.2502 11.8835C10.8028 12.3511 9.26491 13.9543 9.26491 13.9543L8.93287 13.7293C8.9818 13.6871 10.5267 12.098 10.9915 11.6093Z" fill="#010101"/>
</g>
</g>
</svg>
