<svg width="64" height="40" viewBox="0 0 64 40" fill="none" xmlns="http://www.w3.org/2000/svg">

<g id="size=Coloured">
<g id="Hana_Bank_Logo_(eng) 2" clip-path="url(#clip0_964_20528)">
<g id="g15">
<g id="g21">
<g id="g23">
<g id="g607">
<path id="path609" d="M23.2549 17.1711V23.7031H21.9771V20.5593H19.3249V23.7031H18.0471V17.1711H19.3249V19.7099H21.9771V17.1711H23.2549Z" fill="#231F20"/>
</g>
<g id="g611">
<path id="path613" d="M27.0829 23.7034C27.0455 23.679 27.0039 23.6244 26.9574 23.5363C26.9093 23.4487 26.886 23.3632 26.886 23.2746C26.6935 23.48 26.4729 23.6201 26.2236 23.6947C25.9744 23.7704 25.7294 23.8066 25.4877 23.8066C25.0449 23.8066 24.6772 23.6715 24.3852 23.4C24.0916 23.1302 23.9456 22.762 23.9456 22.2953C23.9456 21.8665 24.0997 21.4907 24.4084 21.1695C24.7166 20.8505 25.1622 20.658 25.7473 20.5963L26.793 20.4752C26.793 20.0762 26.7038 19.8042 26.5264 19.6587C26.3496 19.5116 26.1485 19.4392 25.9246 19.4392C25.6516 19.4392 25.3909 19.5003 25.1465 19.6203C24.9005 19.7425 24.6745 19.8961 24.4695 20.0832L24.2543 19.1402C24.503 18.9655 24.7664 18.8347 25.0438 18.7487C25.3195 18.6616 25.638 18.6178 25.9998 18.6178C26.2236 18.6178 26.4551 18.6486 26.6952 18.7108C26.9347 18.7735 27.151 18.8763 27.3429 19.0185C27.5425 19.1629 27.7042 19.351 27.8291 19.5841C27.9529 19.8172 28.0161 20.1043 28.0161 20.4476V22.4819C28.0161 22.6749 28.0307 22.8809 28.0627 23.0972C28.094 23.3162 28.1551 23.5179 28.2497 23.7034H27.0829ZM26.8033 21.2598L26.1766 21.342C25.8846 21.3799 25.6483 21.4804 25.4677 21.6416C25.2871 21.8032 25.1973 22.0049 25.1973 22.2493C25.1973 22.4662 25.2584 22.6398 25.3801 22.7711C25.5001 22.902 25.6445 22.9669 25.8132 22.9669C25.9435 22.9669 26.0706 22.948 26.1923 22.9107C26.3134 22.8733 26.4172 22.8058 26.5032 22.7063C26.5978 22.6057 26.6708 22.4743 26.7238 22.3088C26.7763 22.1444 26.8033 21.9314 26.8033 21.6691V21.2598Z" fill="#231F20"/>
</g>
<g id="g615">
<path id="path617" d="M30.144 18.7105V19.1398C30.3111 18.9722 30.5085 18.8435 30.7356 18.7527C30.9627 18.6618 31.1979 18.6169 31.4412 18.6169C32.0387 18.6169 32.5081 18.7911 32.8558 19.1398C33.1991 19.488 33.3721 19.965 33.3721 20.5684V23.7041H32.1506V20.7458C32.1506 20.3662 32.0652 20.058 31.8927 19.8217C31.7218 19.5854 31.4812 19.4664 31.1698 19.4664C30.8832 19.4664 30.6426 19.5838 30.4474 19.8168C30.25 20.0493 30.1532 20.3727 30.1532 20.7826V23.7041H28.9387V18.7105H30.144Z" fill="#231F20"/>
</g>
<g id="g619">
<path id="path621" d="M37.1628 23.7034C37.125 23.679 37.0828 23.6244 37.0363 23.5363C36.9903 23.4487 36.966 23.3632 36.966 23.2746C36.773 23.48 36.5524 23.6201 36.3036 23.6947C36.0549 23.7704 35.8078 23.8066 35.5661 23.8066C35.1237 23.8066 34.7577 23.6715 34.4635 23.4C34.1726 23.1302 34.0266 22.762 34.0266 22.2953C34.0266 21.8665 34.1802 21.4907 34.4895 21.1695C34.7955 20.8505 35.2427 20.658 35.8278 20.5963L36.8719 20.4752C36.8719 20.0762 36.7843 19.8042 36.607 19.6587C36.4296 19.5116 36.229 19.4392 36.0051 19.4392C35.7304 19.4392 35.472 19.5003 35.2243 19.6203C34.9788 19.7425 34.7539 19.8961 34.549 20.0832L34.3348 19.1402C34.583 18.9655 34.8453 18.8347 35.1216 18.7487C35.4001 18.6616 35.7185 18.6178 36.0803 18.6178C36.3036 18.6178 36.5356 18.6486 36.7746 18.7108C37.0152 18.7735 37.2304 18.8763 37.4235 19.0185C37.6225 19.1629 37.7825 19.351 37.9096 19.5841C38.0339 19.8172 38.095 20.1043 38.095 20.4476V22.4819C38.095 22.6749 38.1118 22.8809 38.1421 23.0972C38.1724 23.3162 38.2356 23.5179 38.3286 23.7034H37.1628ZM36.8817 21.2598L36.2577 21.342C35.964 21.3799 35.7288 21.4804 35.5482 21.6416C35.3676 21.8032 35.2768 22.0049 35.2768 22.2493C35.2768 22.4662 35.3379 22.6398 35.4585 22.7711C35.579 22.902 35.7256 22.9669 35.8927 22.9669C36.0235 22.9669 36.149 22.948 36.2706 22.9107C36.3907 22.8733 36.4961 22.8058 36.5837 22.7063C36.6767 22.6057 36.7486 22.4743 36.8027 22.3088C36.8552 22.1444 36.8817 21.9314 36.8817 21.6691V21.2598Z" fill="#231F20"/>
</g>
<g id="g623">
<path id="path625" d="M42.4456 23.7036H40.3638V17.1716H42.5845C43.1318 17.1716 43.586 17.3106 43.9439 17.5901C44.3003 17.8713 44.4792 18.2315 44.4792 18.6738C44.4792 19.115 44.3722 19.4638 44.1527 19.719C43.9358 19.9748 43.6957 20.1489 43.4346 20.2424C43.8142 20.3349 44.1343 20.5074 44.3954 20.755C44.6566 21.0043 44.7869 21.3498 44.7869 21.7927C44.7869 22.3707 44.5863 22.8347 44.1851 23.1824C43.785 23.5306 43.2048 23.7036 42.4456 23.7036ZM41.6518 17.9833V19.8964H42.1276C42.4813 19.8964 42.7495 19.8012 42.9295 19.6119C43.1101 19.4216 43.2015 19.1685 43.2015 18.8506C43.2015 18.59 43.1253 18.3796 42.9722 18.2206C42.8203 18.0627 42.6029 17.9833 42.3228 17.9833H41.6518ZM41.6518 20.7096V22.892H42.3228C42.6478 22.892 42.916 22.7974 43.1318 22.6081C43.3453 22.4183 43.454 22.1463 43.454 21.7927C43.454 21.399 43.3253 21.1211 43.0707 20.9573C42.8154 20.7907 42.5283 20.7096 42.212 20.7096H41.6518Z" fill="#231F20"/>
</g>
<g id="g627">
<path id="path629" d="M48.5107 23.7034C48.4745 23.679 48.4317 23.6244 48.3852 23.5363C48.3376 23.4487 48.3149 23.3632 48.3149 23.2746C48.1208 23.48 47.9007 23.6201 47.6525 23.6947C47.4027 23.7704 47.1567 23.8066 46.915 23.8066C46.4716 23.8066 46.1066 23.6715 45.813 23.4C45.521 23.1302 45.375 22.762 45.375 22.2953C45.375 21.8665 45.5302 21.4907 45.8384 21.1695C46.1445 20.8505 46.5916 20.658 47.1767 20.5963L48.2203 20.4752C48.2203 20.0762 48.1327 19.8042 47.9559 19.6587C47.7785 19.5116 47.5779 19.4392 47.3535 19.4392C47.0788 19.4392 46.8204 19.5003 46.5733 19.6203C46.3278 19.7425 46.1028 19.8961 45.8968 20.0832L45.6832 19.1402C45.9319 18.9655 46.1947 18.8347 46.4705 18.7487C46.749 18.6616 47.0675 18.6178 47.4292 18.6178C47.6525 18.6178 47.8845 18.6486 48.123 18.7108C48.3636 18.7735 48.5788 18.8763 48.7724 19.0185C48.9714 19.1629 49.1314 19.351 49.2585 19.5841C49.3818 19.8172 49.444 20.1043 49.444 20.4476V22.4819C49.444 22.6749 49.4602 22.8809 49.4905 23.0972C49.5213 23.3162 49.5835 23.5179 49.677 23.7034H48.5107ZM48.2306 21.2598L47.6055 21.342C47.313 21.3799 47.0767 21.4804 46.8966 21.6416C46.7165 21.8032 46.6252 22.0049 46.6252 22.2493C46.6252 22.4662 46.6857 22.6398 46.8074 22.7711C46.928 22.902 47.074 22.9669 47.2411 22.9669C47.3724 22.9669 47.4979 22.948 47.6196 22.9107C47.7396 22.8733 47.8445 22.8058 47.9321 22.7063C48.0251 22.6057 48.0976 22.4743 48.1511 22.3088C48.2046 22.1444 48.2306 21.9314 48.2306 21.6691V21.2598Z" fill="#231F20"/>
</g>
<g id="g631">
<path id="path633" d="M51.5737 18.7105V19.1398C51.7408 18.9722 51.9381 18.8435 52.1647 18.7527C52.3924 18.6618 52.627 18.6169 52.8709 18.6169C53.4673 18.6169 53.9383 18.7911 54.2849 19.1398C54.6299 19.488 54.8013 19.965 54.8013 20.5684V23.7041H53.5803V20.7458C53.5803 20.3662 53.4949 20.058 53.3235 19.8217C53.1505 19.5854 52.9109 19.4664 52.5989 19.4664C52.3118 19.4664 52.0728 19.5838 51.877 19.8168C51.6797 20.0493 51.5818 20.3727 51.5818 20.7826V23.7041H50.3684V18.7105H51.5737Z" fill="#231F20"/>
</g>
<g id="g635">
<path id="path637" d="M55.6606 23.7036V16.8915H56.873V20.4663L58.4611 18.7111H59.7583L57.8257 20.8497L60 23.7036H58.6103L56.873 21.4374V23.7036H55.6606Z" fill="#231F20"/>
</g>
<g id="g639">
<path id="path641" d="M12.8272 21.1349C12.7958 20.9478 12.7455 20.7667 12.6698 20.5991C12.433 20.0875 12.1026 19.6587 11.6095 19.3695C10.84 18.9217 9.91104 18.9239 9.15024 19.3862C8.8058 19.5939 8.52246 19.8929 8.34023 20.253C8.27859 20.3747 8.22776 20.5023 8.18721 20.6331C7.9866 21.2701 7.99362 22.1266 8.35483 22.7084C8.47271 22.8977 8.64358 23.061 8.85068 23.1405C9.05994 23.2211 9.30705 23.2119 9.49523 23.0913C9.73693 22.935 9.78019 22.6365 9.73477 22.3716C9.67799 22.0331 9.63419 21.6995 9.7591 21.368C9.79857 21.2625 9.85535 21.1603 9.93646 21.0825C9.98621 21.0349 10.0451 20.9965 10.1068 20.9662C10.2382 20.9019 10.3874 20.8738 10.5318 20.897C10.7838 20.937 10.9898 21.1328 11.1017 21.362C11.2126 21.5913 11.2434 21.8503 11.2558 22.1061C11.3083 23.2157 11.0433 24.3652 10.7605 25.431C10.7313 25.5413 10.701 25.6505 10.6702 25.7603C10.6464 25.8447 10.6032 25.9523 10.6567 26.0339C10.68 26.0685 10.7162 26.0939 10.7551 26.1096C10.92 26.1761 11.0547 26.075 11.165 25.9636C11.816 25.3088 12.2324 24.4642 12.5179 23.5958C12.6244 23.2708 12.7158 22.942 12.7774 22.6052C12.8618 22.1456 12.9094 21.6194 12.8272 21.1349Z" fill="#009591"/>
</g>
<g id="g643">
<path id="path645" d="M17.4866 16.0046C17.4866 15.838 17.339 15.7283 17.1811 15.7337C17.0199 15.7391 16.8707 15.8218 16.7231 15.878C13.8599 16.966 10.6312 17.1725 7.61399 16.7383C7.09813 16.6637 6.57471 16.5594 6.05561 16.4788C5.73172 16.4285 5.41106 16.3539 5.08338 16.3306C4.80383 16.3085 4.45614 16.2982 4.23012 16.4928C3.93272 16.7497 3.9538 17.2363 4.12251 17.5586C4.32528 17.9452 4.68 18.2345 5.04986 18.4551C5.4089 18.6687 5.83662 18.8969 6.26379 18.8699C7.41716 18.7958 8.56729 18.6839 9.71309 18.5357C11.6673 18.2821 13.7166 18.0426 15.5519 17.2839C16.1521 17.0363 16.7453 16.7275 17.2589 16.3279C17.3525 16.2565 17.4866 16.1403 17.4866 16.0046Z" fill="#009591"/>
</g>
<g id="g647">
<path id="path649" d="M9.27588 15.0225C9.27588 15.6449 9.78038 16.1494 10.4022 16.1494C11.0241 16.1494 11.5286 15.6449 11.5286 15.0225C11.5286 14.9306 11.5069 14.8371 11.468 14.7533C11.3707 14.5483 11.262 14.4494 11.2733 14.2033C11.2874 13.8735 10.864 13.8686 10.6353 13.8686C10.3865 13.8686 10.1216 13.9038 9.89663 14.0162C9.71765 14.1065 9.56355 14.2455 9.45486 14.4131C9.34293 14.5867 9.28075 14.7906 9.27588 14.9971V15.0225Z" fill="#ED1651"/>
</g>
</g>
</g>
</g>
</g>
</g>
<defs>
<clipPath id="clip0_964_20528">
<rect width="56" height="12.2621" fill="white" transform="translate(4 13.8691)"/>
</clipPath>
</defs>
</svg>
