<svg xmlns="http://www.w3.org/2000/svg" width="20" height="8.210" viewBox="0 0 20 8.210" fill="none">
  <path d="M 19.722 2.262 L 18.095 0.915 C 17.326 0.277 15.06 -1.162 11.528 1.808 L 7.28 5.381 C 6.166 6.318 4.37 7.324 2.898 6.101 L 2.177 5.504 C 2.078 5.422 2.077 5.27 2.176 5.187 L 6.088 1.896 C 6.165 1.832 6.276 1.832 6.353 1.895 C 6.652 2.144 7.356 2.726 7.359 2.729 C 7.931 3.2 8.761 3.191 9.328 2.714 L 9.914 2.221 C 9.989 2.158 9.943 2.035 9.844 2.039 C 8.996 2.072 8.535 1.69 8.338 1.526 L 6.71 0.178 C 6.421 -0.061 6.002 -0.059 5.716 0.182 L 0.288 4.748 C 0.158 4.856 0.062 5.002 0.022 5.166 C -0.049 5.46 0.056 5.762 0.28 5.948 L 1.906 7.295 C 2.676 7.933 4.942 9.372 8.473 6.402 L 12.722 2.829 C 13.836 1.892 15.633 0.886 17.104 2.109 L 17.824 2.706 C 17.924 2.788 17.925 2.94 17.825 3.023 L 13.914 6.314 C 13.837 6.378 13.726 6.378 13.649 6.315 C 13.35 6.066 12.646 5.484 12.643 5.481 C 12.07 5.01 11.241 5.019 10.673 5.496 L 10.088 5.989 C 10.013 6.052 10.059 6.175 10.158 6.171 C 11.006 6.138 11.466 6.52 11.663 6.684 L 13.29 8.032 C 13.579 8.271 13.998 8.269 14.284 8.028 L 19.712 3.463 C 19.842 3.354 19.938 3.209 19.978 3.045 C 20.049 2.75 19.944 2.449 19.72 2.263 L 19.722 2.262 Z" fill="currentColor" fill-rule="nonzero"></path>
</svg>