<svg width="24" height="24" viewBox="0 0 24 24" fill="none" xmlns="http://www.w3.org/2000/svg">

<g id="size=24x24px">
<g id="metamask 1" clip-path="url(#clip0_964_20528)">
<g id="Group">
<path id="Vector" fill-rule="evenodd" clip-rule="evenodd" d="M7.27832 20.2171L10.1545 20.9802V19.9823L10.3892 19.7476H12.0327V20.9215V21.7432H10.2719L8.10006 20.8041L7.27832 20.2171Z" fill="#CDBDB2"/>
<path id="Vector_2" fill-rule="evenodd" clip-rule="evenodd" d="M16.6697 20.2171L13.8523 20.9802V19.9823L13.6175 19.7476H11.974V20.9215V21.7432H13.7349L15.9066 20.8041L16.6697 20.2171Z" fill="#CDBDB2"/>
<path id="Vector_3" fill-rule="evenodd" clip-rule="evenodd" d="M10.3893 18.0455L10.1545 19.9824L10.448 19.7476H13.5001L13.8523 19.9824L13.6175 18.0455L13.148 17.752L10.8001 17.8107L10.3893 18.0455Z" fill="#393939"/>
<path id="Vector_4" fill-rule="evenodd" clip-rule="evenodd" d="M8.80444 4.95654L10.2131 8.2435L10.8588 17.8109H13.1479L13.8523 8.2435L15.1436 4.95654H8.80444Z" fill="#F89C35"/>
<path id="Vector_5" fill-rule="evenodd" clip-rule="evenodd" d="M2.64153 12.1759L0.998047 16.9302L5.10674 16.6954H7.74799V14.6411L7.6306 10.415L7.04365 10.8846L2.64153 12.1759Z" fill="#F89D35"/>
<path id="Vector_6" fill-rule="evenodd" clip-rule="evenodd" d="M5.75244 12.7041L10.5655 12.8215L10.0373 15.2867L7.74809 14.6998L5.75244 12.7041Z" fill="#D87C30"/>
<path id="Vector_7" fill-rule="evenodd" clip-rule="evenodd" d="M5.75244 12.7632L7.74809 14.6414V16.5197L5.75244 12.7632Z" fill="#EA8D3A"/>
<path id="Vector_8" fill-rule="evenodd" clip-rule="evenodd" d="M7.74805 14.6997L10.0959 15.2867L10.859 17.8106L10.3307 18.1041L7.74805 16.578V14.6997Z" fill="#F89D35"/>
<path id="Vector_9" fill-rule="evenodd" clip-rule="evenodd" d="M7.74789 16.5781L7.27832 20.2173L10.3892 18.0456L7.74789 16.5781Z" fill="#EB8F35"/>
<path id="Vector_10" fill-rule="evenodd" clip-rule="evenodd" d="M10.5655 12.8218L10.859 17.811L9.97852 15.2577L10.5655 12.8218Z" fill="#EA8E3A"/>
<path id="Vector_11" fill-rule="evenodd" clip-rule="evenodd" d="M5.0481 16.6369L7.7481 16.5781L7.27853 20.2173L5.0481 16.6369Z" fill="#D87C30"/>
<path id="Vector_12" fill-rule="evenodd" clip-rule="evenodd" d="M2.28935 21.8019L7.27843 20.2171L5.04799 16.6367L0.998047 16.9301L2.28935 21.8019Z" fill="#EB8F35"/>
<path id="Vector_13" fill-rule="evenodd" clip-rule="evenodd" d="M10.2133 8.24316L7.68945 10.3562L5.75244 12.704L10.5655 12.8802L10.2133 8.24316Z" fill="#E8821E"/>
<path id="Vector_14" fill-rule="evenodd" clip-rule="evenodd" d="M7.27832 20.2171L10.3892 18.0454L10.1545 19.9237V20.9802L8.04142 20.5693L7.27832 20.2171Z" fill="#DFCEC3"/>
<path id="Vector_15" fill-rule="evenodd" clip-rule="evenodd" d="M16.6697 20.2171L13.6175 18.0454L13.8523 19.9237V20.9802L15.9653 20.5693L16.6697 20.2171Z" fill="#DFCEC3"/>
<path id="Vector_16" fill-rule="evenodd" clip-rule="evenodd" d="M9.27397 13.8784L9.91968 15.2285L7.6305 14.6415L9.27397 13.8784Z" fill="#393939"/>
<path id="Vector_17" fill-rule="evenodd" clip-rule="evenodd" d="M2.23071 2.19775L10.2133 8.24335L8.86337 4.9564L2.23071 2.19775Z" fill="#E88F35"/>
<path id="Vector_18" fill-rule="evenodd" clip-rule="evenodd" d="M2.23059 2.19775L1.17407 5.42601L1.76103 8.94775L1.35016 9.18254L1.93712 9.7108L1.46755 10.1217L2.1132 10.7086L1.70233 11.0608L2.64146 12.2347L7.04364 10.8847C9.19581 9.16297 10.2523 8.28254 10.2132 8.24341C10.1741 8.20428 7.5132 6.18906 2.23059 2.19775Z" fill="#8E5A30"/>
<g id="Group_2">
<path id="Vector_19" fill-rule="evenodd" clip-rule="evenodd" d="M21.3067 12.1759L22.9502 16.9302L18.8415 16.6954H16.2002V14.6411L16.3176 10.415L16.9046 10.8846L21.3067 12.1759Z" fill="#F89D35"/>
<path id="Vector_20" fill-rule="evenodd" clip-rule="evenodd" d="M18.1958 12.7041L13.3828 12.8215L13.911 15.2867L16.2001 14.6998L18.1958 12.7041Z" fill="#D87C30"/>
<path id="Vector_21" fill-rule="evenodd" clip-rule="evenodd" d="M18.1958 12.7632L16.2001 14.6414V16.5197L18.1958 12.7632Z" fill="#EA8D3A"/>
<path id="Vector_22" fill-rule="evenodd" clip-rule="evenodd" d="M16.2002 14.6997L13.8524 15.2867L13.0893 17.8106L13.6176 18.1041L16.2002 16.578V14.6997Z" fill="#F89D35"/>
<path id="Vector_23" fill-rule="evenodd" clip-rule="evenodd" d="M16.2004 16.5781L16.6699 20.2173L13.6177 18.1042L16.2004 16.5781Z" fill="#EB8F35"/>
<path id="Vector_24" fill-rule="evenodd" clip-rule="evenodd" d="M13.3828 12.8218L13.0892 17.811L13.9697 15.2577L13.3828 12.8218Z" fill="#EA8E3A"/>
<path id="Vector_25" fill-rule="evenodd" clip-rule="evenodd" d="M18.9001 16.6369L16.2001 16.5781L16.6697 20.2173L18.9001 16.6369Z" fill="#D87C30"/>
<path id="Vector_26" fill-rule="evenodd" clip-rule="evenodd" d="M21.6589 21.8019L16.6698 20.2171L18.9002 16.6367L22.9502 16.9301L21.6589 21.8019Z" fill="#EB8F35"/>
<path id="Vector_27" fill-rule="evenodd" clip-rule="evenodd" d="M13.7349 8.24316L16.2588 10.3562L18.1958 12.704L13.3828 12.8802L13.7349 8.24316Z" fill="#E8821E"/>
<path id="Vector_28" fill-rule="evenodd" clip-rule="evenodd" d="M14.6743 13.8784L14.0286 15.2285L16.3177 14.6415L14.6743 13.8784Z" fill="#393939"/>
<path id="Vector_29" fill-rule="evenodd" clip-rule="evenodd" d="M21.7175 2.19775L13.7349 8.24335L15.0849 4.9564L21.7175 2.19775Z" fill="#E88F35"/>
<path id="Vector_30" fill-rule="evenodd" clip-rule="evenodd" d="M21.7176 2.19775L22.7742 5.42601L22.1872 8.94775L22.5981 9.18254L22.0111 9.7108L22.4807 10.1217L21.835 10.7086L22.2459 11.0608L21.3068 12.2347L16.9046 10.8847C14.7524 9.16297 13.6959 8.28254 13.735 8.24341C13.7742 8.20428 16.435 6.18906 21.7176 2.19775Z" fill="#8E5A30"/>
</g>
</g>
</g>
</g>
<defs>
<clipPath id="clip0_964_20528">
<rect width="22.1217" height="19.7217" fill="white" transform="translate(0.939209 2.13916)"/>
</clipPath>
</defs>
</svg>
