<svg width="24" height="24" viewBox="0 0 24 24" fill="none" xmlns="http://www.w3.org/2000/svg">

<g id="Size=24x24px" clip-path="url(#clip0_964_20528)">
<g id="Logo_2">
<path id="Vector" d="M11.9822 24.0001C18.5999 24.0001 23.9645 18.6355 23.9645 12.0179C23.9645 5.40028 18.5999 0.0356445 11.9822 0.0356445C5.36464 0.0356445 0 5.40028 0 12.0179C0 18.6355 5.36464 24.0001 11.9822 24.0001Z" fill="#255D7E"/>
<path id="Vector_2" d="M14.1343 23.7593C13.821 23.8482 13.4992 23.9041 13.1743 23.926C9.62499 24.2122 6.51118 23.1947 3.86601 20.7912C3.75518 20.6917 3.64958 20.5862 3.54224 20.4832C3.59198 20.3523 3.67314 20.4326 3.73336 20.4631C4.31718 20.7681 4.93145 21.0109 5.56604 21.1874C6.54693 21.4548 7.56258 21.5725 8.57862 21.5365C8.88203 21.5221 9.18487 21.5751 9.46529 21.6919C10.0613 21.9371 10.6871 22.0776 11.3163 22.2155C11.3838 22.2252 11.4504 22.2407 11.5153 22.2617C11.2055 22.1849 10.9375 21.979 10.6426 21.8254C10.6072 21.8128 10.5754 21.7918 10.55 21.7641C10.5246 21.7364 10.5063 21.7029 10.4968 21.6666C10.5605 21.5793 10.6478 21.6151 10.7229 21.6325C11.2846 21.7603 11.8548 21.8478 12.429 21.8943C12.8169 21.9267 13.2066 21.93 13.5949 21.9039C14.5895 21.8429 15.5704 21.6419 16.5089 21.307C17.8539 20.8337 19.0866 20.0877 20.1298 19.1156C20.7139 18.5674 21.2369 17.9573 21.6893 17.2961C21.04 17.6242 20.3802 17.7979 19.7152 17.9314C19.6228 17.9633 19.5241 17.9729 19.4272 17.9593C19.3286 17.824 19.4778 17.7909 19.5337 17.749C19.9343 17.4497 20.2729 17.084 20.6281 16.7367C20.8141 16.5553 20.9865 16.3605 21.1438 16.1537C21.2482 16.0224 21.3594 15.8969 21.4772 15.7775C21.5938 15.6872 21.6964 15.5801 21.7818 15.4599C21.8341 15.3927 21.8865 15.3141 21.9895 15.3115C22.0107 15.3213 22.0277 15.3383 22.0375 15.3595C22.1312 15.7324 22.198 16.1116 22.2373 16.494C22.2414 16.5678 22.2267 16.6413 22.1946 16.7079C22.1474 16.7951 22.0942 16.8597 22.2242 16.9417C22.3045 16.9924 22.2242 17.1224 22.2504 17.2149C22.2478 17.2688 22.2319 17.3213 22.2042 17.3676C22.02 17.6294 21.8551 17.9087 21.6928 18.1836C21.6563 18.2651 21.5953 18.3331 21.5182 18.3782C21.4065 18.4253 21.3603 18.5362 21.2896 18.6199C19.8932 20.2676 18.1793 21.4283 16.1136 22.0619C15.4473 22.2633 14.7611 22.3915 14.0671 22.4441C13.4574 22.498 12.8441 22.498 12.2344 22.4441C13.3637 22.8255 14.0356 22.9494 15.062 22.9425C15.4808 22.9321 15.8972 22.876 16.3038 22.7749C16.3911 22.7548 16.4784 22.7156 16.5656 22.7644C16.6023 22.8787 16.5019 22.8997 16.44 22.932C15.7171 23.3216 14.9399 23.6005 14.1343 23.7593Z" fill="#84A2AC"/>
<path id="Vector_3" d="M1.92254 5.7518C1.98624 5.59995 2.10755 5.48999 2.19482 5.35123C2.81357 4.57277 3.59726 4.00202 4.47345 3.54996C4.52981 3.51279 4.59536 3.49195 4.66283 3.48975C4.79286 3.60233 4.65498 3.65643 4.60436 3.71316C4.22822 4.13729 3.8582 4.56754 3.5257 5.03356C3.46461 5.12083 3.40875 5.2081 3.35115 5.29537C2.97851 5.89405 2.59714 6.48924 2.37111 7.19002C2.41693 7.19073 2.46241 7.18204 2.50474 7.16447C2.54707 7.14691 2.58535 7.12085 2.61721 7.08791C3.35115 6.57476 4.09034 6.07034 4.91591 5.71165C5.02151 5.6654 5.14195 5.55195 5.24231 5.72562C5.27372 5.8923 5.19343 6.03979 5.16638 6.19601C4.95611 6.56645 4.69886 6.90818 4.40102 7.21271C4.35806 7.20027 4.31275 7.19829 4.26887 7.20694C4.22499 7.2156 4.18382 7.23463 4.14881 7.26245C3.4607 7.66803 2.81945 8.14831 2.23671 8.69456C2.18697 8.73994 2.1442 8.79231 2.09097 8.83332C2.02028 8.88743 1.94523 8.96074 1.85185 8.91012C1.75847 8.8595 1.76458 8.7574 1.77156 8.66838C1.79043 8.4908 1.82638 8.31544 1.8789 8.14476C1.93114 7.98057 1.95706 7.80914 1.9557 7.63684C1.59963 8.0732 1.24183 8.46417 0.98525 8.93194C0.929397 9.03317 0.889253 9.16059 0.732166 9.14662C0.625696 9.04626 0.630059 8.91623 0.631805 8.7862C0.835145 8.1753 1.00707 7.56441 1.26888 6.97621C1.4523 6.55059 1.67095 6.14103 1.92254 5.7518Z" fill="#939A9E"/>
<path id="Vector_4" d="M5.52318 21.2382C4.86488 21.0573 4.2308 20.7977 3.63464 20.465C3.62772 20.4589 3.61951 20.4546 3.61064 20.4522C3.60177 20.4498 3.59247 20.4495 3.58346 20.4513C3.57445 20.453 3.56596 20.4568 3.55865 20.4624C3.55133 20.4679 3.54539 20.4751 3.54126 20.4833C3.25448 20.2007 2.98491 19.9011 2.73401 19.5862C2.85357 19.4884 2.99146 19.5242 3.12498 19.5347C3.29952 19.5958 3.40076 19.7371 3.50635 19.8689C3.69201 20.0843 3.89016 20.2886 4.09979 20.4807C4.15477 20.5357 4.22023 20.643 4.31361 20.5173C4.33398 20.4824 4.35093 20.4456 4.36422 20.4074C4.41659 20.2931 4.45673 20.17 4.57629 20.1019C4.59339 20.0939 4.61229 20.0905 4.63112 20.092C4.64996 20.0935 4.66806 20.1 4.68363 20.1107C4.86865 20.2852 4.95941 20.1412 5.07286 20.0112C5.35649 19.6856 5.62703 19.3488 5.91938 19.0311C5.94024 19.0254 5.96224 19.0254 5.98309 19.0311C6.37232 19.2929 6.68126 19.6603 7.06961 19.9256C7.23542 20.0391 7.40124 20.1552 7.56007 20.2791C7.62291 20.328 7.70756 20.362 7.69883 20.465C7.6613 20.5697 7.56531 20.5976 7.47716 20.6395C6.96154 20.8502 6.42788 21.0138 5.88273 21.1282C5.75665 21.1401 5.6343 21.1775 5.52318 21.2382Z" fill="#A6CEDB"/>
<path id="Vector_5" d="M14.1344 23.7589C14.6842 23.5774 15.241 23.4151 15.7707 23.1777C16.0464 23.0643 16.3131 22.9301 16.5684 22.7763C16.6408 22.6681 16.7612 22.6393 16.8712 22.5939C18.1934 22.1514 19.2668 21.3834 20.0243 20.1992C20.5274 19.6397 20.9911 19.046 21.4119 18.4223C21.4353 18.3841 21.4697 18.3537 21.5105 18.3351C21.6772 18.0733 21.8413 17.8053 22.0123 17.5444C22.0603 17.4711 22.0909 17.3812 22.1746 17.335C22.2619 17.4222 22.2305 17.5296 22.2209 17.6326C22.1925 17.9143 22.1298 18.1916 22.0341 18.4581C21.7182 19.0472 21.2862 19.5473 20.8464 20.0438C19.1377 21.9445 16.8622 23.2442 14.3569 23.7502C14.2832 23.7597 14.2087 23.7626 14.1344 23.7589Z" fill="#9FE2F8"/>
<path id="Vector_6" d="M18.5506 1.9793C19.7961 2.78396 20.875 3.82101 21.7282 5.03377C22.243 5.75987 22.7056 6.51737 22.9892 7.37001C23.0215 7.51837 23.1018 7.65276 23.1219 7.80636C23.131 7.85148 23.1232 7.89838 23.1 7.93814C22.9691 7.99486 22.9569 7.87094 22.9255 7.80723C22.8051 7.57026 22.6723 7.33984 22.5275 7.11692C22.4914 7.04544 22.4365 6.98511 22.3687 6.94238C22.3162 6.89948 22.2778 6.84167 22.2588 6.77657C21.7718 5.6342 21.0204 4.67247 20.2096 3.74653C19.7174 3.18364 19.1415 2.72721 18.5349 2.30221C18.5 2.27864 18.4651 2.25595 18.4311 2.23064C18.3482 2.14861 18.2949 2.04214 18.2103 1.96098C18.1953 1.94982 18.1847 1.93373 18.1804 1.91553C18.1761 1.89733 18.1783 1.87819 18.1867 1.86149C18.2173 1.81349 18.2618 1.83095 18.3019 1.85014C18.3796 1.9026 18.463 1.94593 18.5506 1.9793Z" fill="#1D445B"/>
<path id="Vector_7" d="M4.66456 3.50954C3.81105 3.92059 2.27858 5.13888 1.43555 6.74379C1.55336 6.0849 1.94433 5.58833 1.85183 5.62847C2.36934 4.82907 2.65035 4.48086 2.87551 4.23214C3.01689 4.05062 3.18707 3.95113 3.34677 3.78706C4.12798 3.06638 5.02445 2.48171 5.99892 2.05736C6.12198 2.00325 6.2459 1.95089 6.36633 1.89155C6.56967 1.83744 6.74945 1.68733 6.97723 1.7362C7.04879 1.86885 6.91527 1.88282 6.85679 1.91773C6.36 2.21711 5.88991 2.55873 5.45174 2.93879C5.2772 3.08715 5.08695 3.21893 4.95081 3.40831C4.8775 3.50169 4.7623 3.48074 4.66456 3.50954Z" fill="#BCBEBF"/>
<path id="Vector_8" d="M22.0339 18.4572C21.9545 18.3856 22.0286 18.3184 22.0444 18.253C22.1225 17.9541 22.1662 17.6472 22.1744 17.3384L22.2215 17.2092C22.2215 17.0347 22.3271 16.9011 22.4048 16.7624C22.9284 15.8364 23.2443 14.8424 23.4643 13.8039C23.4808 13.7245 23.5044 13.6451 23.5166 13.5639C23.5541 13.4662 23.5332 13.3431 23.6432 13.2768C23.6789 13.2651 23.7176 13.2659 23.7529 13.2788C23.7882 13.2918 23.8181 13.3163 23.8378 13.3483C23.725 14.3924 23.4695 15.416 23.0785 16.3906C22.7937 17.1097 22.444 17.8014 22.0339 18.4572Z" fill="#58BDD6"/>
<path id="Vector_9" d="M18.551 1.97921C18.4166 2.01674 18.3468 1.87187 18.2124 1.86314C18.2997 1.98445 18.3747 2.09615 18.4533 2.20786C18.5344 2.27506 18.5013 2.32044 18.421 2.34138C18.3723 2.35683 18.3202 2.35866 18.2706 2.34666C18.2209 2.33466 18.1754 2.3093 18.1391 2.27331C18.208 2.10837 18.1208 2.03506 17.9846 1.95478C16.6202 1.16577 15.1088 0.664158 13.5434 0.480776C13.382 0.459831 13.2127 0.487757 13.0643 0.393505C12.9945 0.291398 12.8767 0.208491 12.929 0.0566406C13.8681 0.110331 14.7959 0.289067 15.6877 0.588118C16.6328 0.891331 17.5352 1.31425 18.373 1.84656C18.435 1.88583 18.4917 1.93383 18.551 1.97921Z" fill="#527089"/>
<path id="Vector_10" d="M6.99627 1.75424C6.77373 1.76733 6.58261 1.88689 6.37142 1.94012C6.25409 1.95043 6.13684 1.91958 6.03979 1.85285C5.96125 1.80485 5.89579 1.74202 5.96823 1.63904C6.58828 1.25907 7.2486 0.949109 7.93705 0.714844C8.02795 0.829875 8.14871 0.917723 8.28613 0.968801C8.3385 0.989746 8.39871 1.00982 8.40657 1.08138C8.31319 1.22538 8.14475 1.24196 8.00949 1.30741C7.77636 1.40348 7.55233 1.52031 7.34012 1.65649C7.22841 1.70624 7.13242 1.80398 6.99627 1.75424Z" fill="#6595AE"/>
<path id="Vector_11" d="M0.0965713 13.2556C-0.0315061 11.9793 0.0570106 10.6905 0.358383 9.44362C0.369485 9.40918 0.383197 9.37562 0.3994 9.34326C0.533797 9.52828 0.3994 9.7194 0.413363 9.90703C0.386321 10.0177 0.386321 10.1332 0.413363 10.2439C0.433436 10.8452 0.484053 11.4456 0.463108 12.0478C0.445654 12.547 0.51547 13.04 0.58005 13.5314C0.589654 13.5827 0.589654 13.6354 0.58005 13.6867C0.53467 13.801 0.452635 13.7897 0.392419 13.7181C0.274603 13.5785 0.136716 13.4467 0.0965713 13.2556Z" fill="#525252"/>
<path id="Vector_12" d="M8.39549 1.08241C8.29164 1.03179 8.18953 0.977685 8.08393 0.933177C8.03811 0.919539 7.99856 0.890193 7.97223 0.850294C7.9459 0.810394 7.93446 0.762492 7.93994 0.715C8.69182 0.423565 9.47877 0.232257 10.2805 0.145996C10.4481 0.233267 10.6471 0.274284 10.6863 0.50206C10.5991 0.589331 10.4795 0.57624 10.3722 0.594567C9.77683 0.692613 9.19233 0.847799 8.62676 1.05797C8.5552 1.0859 8.47927 1.12604 8.39549 1.08241Z" fill="#5F8AA4"/>
<path id="Vector_13" d="M0.0978256 13.2559C0.260149 13.4051 0.321238 13.6425 0.534178 13.7489C0.565214 13.7755 0.590392 13.8082 0.608119 13.845C0.625846 13.8818 0.635734 13.9219 0.637158 13.9628C0.763903 14.6275 0.941289 15.2816 1.16776 15.9194C1.20442 16.0232 1.26027 16.1253 1.23234 16.2423C1.14507 16.3374 1.07438 16.2554 1.0002 16.2213C0.901984 16.1715 0.810733 16.109 0.728792 16.0354C0.418371 15.1724 0.205845 14.2772 0.0952075 13.3667C0.0926096 13.3297 0.0934861 13.2926 0.0978256 13.2559Z" fill="#555758"/>
<path id="Vector_14" d="M5.96931 1.63623C5.9536 1.75928 6.03825 1.80204 6.12989 1.83957L6.3725 1.9408C5.64641 2.26807 4.92992 2.61453 4.28935 3.09539C3.97517 3.33102 3.67147 3.58236 3.36341 3.82672C3.26043 3.78047 3.35381 3.73945 3.36341 3.6932C4.12337 2.88009 5.00194 2.18659 5.96931 1.63623Z" fill="#6CA3B8"/>
<path id="Vector_15" d="M10.6827 0.458748C10.558 0.341805 10.3904 0.284207 10.2787 0.145446C10.6173 0.0389764 10.9707 0.0389764 11.3172 0.0241404C11.853 0.000577327 12.3889 -0.0282219 12.9273 0.0590486C12.9387 0.177737 13.0635 0.24668 13.0626 0.370605C13.036 0.393866 13.005 0.411502 12.9714 0.422451C12.9378 0.4334 12.9023 0.437434 12.8671 0.434312C12.2702 0.454384 11.6715 0.412494 11.0763 0.485802C11.0243 0.486489 10.9725 0.492928 10.9219 0.505001C10.8814 0.518357 10.8381 0.521118 10.7963 0.513021C10.7544 0.504924 10.7153 0.486239 10.6827 0.458748Z" fill="#587C95"/>
<path id="Vector_16" d="M23.8399 13.344L23.6584 13.2986C23.5624 13.1895 23.5868 13.0586 23.6008 12.9347C23.6604 12.4077 23.6878 11.8776 23.6828 11.3472C23.6738 10.9004 23.6377 10.4545 23.5746 10.012C23.4751 9.26497 23.277 8.54062 23.0789 7.81628C23.0789 7.66181 22.9593 7.53178 22.9916 7.37207C23.2534 7.89569 23.4123 8.4551 23.5571 9.01887C23.9099 10.389 24.0186 11.8105 23.8783 13.2183C23.8697 13.2614 23.8568 13.3035 23.8399 13.344Z" fill="#4190A1"/>
<path id="Vector_17" d="M0.728638 16.0356C0.917142 16.0505 1.03147 16.225 1.21037 16.2617C1.3055 16.2521 1.31422 16.335 1.33779 16.3908C1.53126 16.8657 1.75423 17.3279 2.00541 17.7749C2.0473 17.8483 2.11013 17.9268 2.05602 18.0237C1.86141 18.0795 1.7148 17.98 1.56905 17.8744C1.22634 17.2921 0.944707 16.6759 0.728638 16.0356Z" fill="#585D5E"/>
<path id="Vector_18" d="M1.56897 17.8779C1.7374 17.9076 1.88663 18.0062 2.0603 18.0132C2.14059 17.994 2.16241 18.0612 2.19034 18.1075C2.47498 18.5692 2.78923 19.012 3.13111 19.4331C3.16515 19.475 3.21838 19.5204 3.17649 19.5867H2.73403C2.28895 19.0579 1.8986 18.4854 1.56897 17.8779Z" fill="#5B6B71"/>
<path id="Vector_19" d="M2.13738 5.20801C2.02654 5.43317 1.708 6.20551 1.59193 6.4298C1.243 7.12765 0.964394 7.85851 0.760245 8.61156C0.748728 8.67068 0.718057 8.72435 0.672975 8.76428C0.607522 8.71978 0.601413 8.64385 0.573486 8.57927C0.701774 7.90467 1.04475 7.04069 1.37288 6.44376C1.55528 6.113 1.84589 5.57018 2.13738 5.20801Z" fill="#B7BABC"/>
<path id="Vector_20" d="M0.576087 8.57666C0.686048 8.59761 0.663357 8.68837 0.675575 8.76167C0.680344 8.88767 0.706613 9.01193 0.753246 9.12908C0.776836 9.14878 0.793169 9.1758 0.799651 9.20584C0.806134 9.23588 0.802394 9.26722 0.789027 9.2949C0.731014 9.40697 0.6932 9.52839 0.677321 9.65358C0.669392 9.73187 0.631968 9.80421 0.572646 9.85592C0.513324 9.90762 0.436551 9.93481 0.35791 9.93197L0.397182 9.34377C0.45769 9.08836 0.517325 8.83265 0.576087 8.57666Z" fill="#5A5B5B"/>
<path id="Vector_21" d="M3.36611 3.69287C3.38357 3.73738 3.31201 3.78014 3.36611 3.82639L2.8678 4.27584C3.00693 4.05999 3.17455 3.8639 3.36611 3.69287Z" fill="#88C1D8"/>
<path id="Vector_22" d="M19.3905 17.9197C19.8091 17.8545 20.2228 17.7615 20.6289 17.6413C21.0312 17.5337 21.4167 17.3713 21.7748 17.1587L21.8167 17.2006C21.6535 17.4318 21.4999 17.6692 21.3262 17.8918C20.597 18.8378 19.7094 19.6504 18.7029 20.2935C17.4681 21.0814 16.0844 21.6066 14.6378 21.8364C13.3049 22.057 11.9408 21.9997 10.6312 21.668C10.5876 21.6575 10.5439 21.6549 10.4985 21.6488C10.3519 21.702 10.2594 21.5877 10.1495 21.5353C9.97492 21.3957 9.78031 21.2805 9.60664 21.1374C9.56213 21.0998 9.49842 21.0597 9.51937 20.9942C9.54555 20.9139 9.62846 20.9201 9.69391 20.9314C9.95572 20.9803 10.2175 20.9454 10.4793 20.9934C10.7778 21.0483 11.0737 20.9558 11.373 20.9576C12.0825 20.9576 12.7911 20.9777 13.4972 20.845C14.8113 20.6032 16.0567 20.0768 17.1459 19.3029C17.3903 19.1284 17.6041 18.9189 17.8607 18.7636C18.1993 18.6763 18.4655 18.4564 18.7631 18.295C18.9655 18.185 19.1357 18.0244 19.3356 17.9101C19.3544 17.906 19.3742 17.9095 19.3905 17.9197Z" fill="#C1C0C0"/>
<path id="Vector_23" d="M16.8805 22.6386L16.5707 22.7765C16.1954 22.8254 15.8333 22.9388 15.4519 22.965C15.0516 22.9947 14.6496 22.9947 14.2493 22.965C13.5058 22.9074 12.8006 22.7075 12.1042 22.4623C12.0641 22.4475 12.0248 22.4283 11.9602 22.4003C12.1758 22.3305 12.3573 22.4073 12.5414 22.4152C14.5635 22.5025 16.4686 22.0827 18.2358 21.0843C19.3435 20.4604 20.3294 19.6418 21.1463 18.6678C21.3994 18.3658 21.3976 18.3641 21.5128 18.3379C21.1114 19.0256 20.6061 19.633 20.0685 20.2168C19.3817 21.0442 18.5317 21.6743 17.6249 22.2354C17.389 22.3913 17.1399 22.5262 16.8805 22.6386Z" fill="#6C8389"/>
<path id="Vector_24" d="M10.2087 21.5154L10.502 21.6489C10.8659 21.9107 11.2708 22.0984 11.6723 22.3008C11.3276 22.2956 10.9968 22.2074 10.6669 22.1263C10.1657 22.0105 9.67551 21.8516 9.20165 21.6515C9.05939 21.5935 8.90505 21.5713 8.7522 21.587C8.20089 21.6121 7.64846 21.5931 7.10017 21.5302C6.57049 21.467 6.04568 21.3682 5.5293 21.2344C5.53453 21.1218 5.61657 21.1174 5.70384 21.1C6.31329 20.9779 6.91014 20.7996 7.48678 20.5676C7.56183 20.5353 7.64474 20.5153 7.67877 20.428C7.75819 20.3809 7.82452 20.428 7.88648 20.4647C8.60908 20.9289 9.41197 21.2126 10.2087 21.5154Z" fill="#A0DDF1"/>
<path id="Vector_25" d="M21.4895 15.8143L21.1885 16.1633C20.9982 16.3004 20.8848 16.536 20.6378 16.5997C20.5967 16.6022 20.5559 16.5924 20.5205 16.5716C20.485 16.5507 20.4566 16.5198 20.4388 16.4828C20.3008 16.2923 20.1837 16.0875 20.0897 15.8719C20.0959 15.7827 20.1215 15.6961 20.1648 15.6179C20.5101 14.853 20.7423 14.0419 20.8542 13.2101C20.8682 13.115 20.8664 13.0155 20.9415 12.9422C21.0392 12.9038 21.0829 12.978 21.116 13.0408C21.4468 13.7102 21.7819 14.3769 21.9477 15.1117C21.9482 15.1344 21.9455 15.157 21.9399 15.1789C21.8404 15.4259 21.6562 15.6144 21.4895 15.8143Z" fill="#28C5F1"/>
<path id="Vector_26" d="M22.1795 16.5328C22.1167 16.1256 22.0541 15.7201 21.9919 15.3163C21.9639 15.1845 22.0643 15.1095 22.1297 15.0248C22.5037 14.5475 22.8125 14.0224 23.0478 13.4635C23.1351 13.255 23.1115 13.0385 23.1438 12.8265C23.1621 12.7043 23.0234 12.6659 22.9693 12.5795C22.9617 12.557 22.9594 12.5332 22.9623 12.5097C23.0637 12.0816 23.1401 11.648 23.1909 11.2111C23.2119 11.1238 23.1517 10.9903 23.3114 10.9702C23.3577 11.0388 23.3755 11.1226 23.3611 11.2041C23.3489 11.5829 23.3882 11.9616 23.3253 12.3386C23.3044 12.4178 23.3007 12.5005 23.3146 12.5812C23.3284 12.662 23.3595 12.7387 23.4056 12.8064C23.4929 12.9207 23.444 13.0682 23.3943 13.1913C23.2573 13.4583 23.2965 13.7594 23.2285 14.0404C23.1604 14.3214 23.1107 14.6094 23.0365 14.8913C22.8907 15.3948 22.6403 15.8513 22.4081 16.319C22.3619 16.4124 22.3244 16.5363 22.1795 16.5328Z" fill="#598B96"/>
<path id="Vector_27" d="M22.1781 16.5323C22.2777 16.4436 22.3551 16.3327 22.4041 16.2086C22.6225 15.7897 22.8149 15.3578 22.9801 14.9152C23.132 14.5435 23.1547 14.1394 23.2638 13.758C23.344 13.6638 23.4243 13.5695 23.5631 13.5669C23.3502 14.8535 22.8954 16.0881 22.2226 17.2052C22.2034 17.1936 22.1889 17.1756 22.1816 17.1544C22.1742 17.1332 22.1745 17.1101 22.1825 17.0891C22.2601 16.8858 22.1467 16.9146 22.0079 16.9739C22.0306 16.7942 22.1991 16.699 22.1781 16.5323Z" fill="#418A99"/>
<path id="Vector_28" d="M22.9942 12.583C23.2054 12.6266 23.222 12.7654 23.2019 12.9522C23.1094 13.8144 22.598 14.4646 22.1163 15.1339C22.0727 15.1941 22.029 15.257 21.9915 15.3189H21.9548C21.9051 15.2867 21.9103 15.236 21.9077 15.1872V15.1374C22.0142 14.7936 22.2385 14.5091 22.3781 14.1774C22.5799 13.7216 22.7528 13.2535 22.8956 12.7759C22.9166 12.7078 22.9227 12.6258 22.9942 12.583Z" fill="#5CC1D8"/>
<path id="Vector_29" d="M20.6452 16.5748L21.1898 16.1655C20.6639 16.821 20.0602 17.41 19.392 17.9197L19.3519 17.9275C19.1486 18.0192 18.9461 18.1239 18.7157 18.0148C18.7157 17.7739 18.9086 17.6657 19.0561 17.5287C19.5025 17.3176 19.9267 17.0624 20.3223 16.7668C20.4169 16.6831 20.5265 16.6179 20.6452 16.5748Z" fill="#3E8597"/>
<path id="Vector_30" d="M21.9068 15.1865C21.96 15.2171 21.9495 15.2738 21.9539 15.3183C21.8055 15.4928 21.6921 15.6944 21.4896 15.814L21.9068 15.1865Z" fill="#96DDF4"/>
<path id="Vector_31" d="M19.0744 17.5623L18.7253 17.969C18.5366 18.3092 18.2551 18.5888 17.9137 18.7754C17.2616 19.3447 16.5339 19.8211 15.7512 20.1909C14.8662 20.6051 13.9197 20.8727 12.9489 20.9833C12.5606 21.0279 12.1748 21.0148 11.7873 21.0226C11.4819 21.0287 11.1764 21.0296 10.871 21.0558C10.4783 21.0898 10.0856 21.0287 9.69197 20.9868C9.64833 20.9816 9.6047 20.9868 9.51743 20.9868L10.2156 21.5166C9.91014 21.5044 9.64659 21.3542 9.36907 21.2548C8.8308 21.0558 8.31483 20.801 7.82961 20.4946C7.7839 20.4703 7.73633 20.4496 7.68736 20.4327C7.07496 20.0261 6.50226 19.5627 5.97686 19.0486C6.06413 18.8164 5.92101 18.7038 5.76566 18.5598C5.2996 18.1182 4.88291 17.6272 4.52293 17.0954C4.43941 16.954 4.34238 16.8211 4.23319 16.6984C4.10142 16.4767 4.00542 16.2376 3.88411 16.0133C3.86229 15.974 3.83873 15.9365 3.81429 15.899C3.4783 15.2811 3.30202 14.6082 3.14231 13.931C3.09257 13.7198 3.05504 13.506 3.01228 13.2931C3.00753 13.1694 2.99352 13.0463 2.97039 12.9248C2.9197 12.3441 2.9197 11.7601 2.97039 11.1794C3.03251 10.6148 3.14139 10.0564 3.29591 9.50989C3.48164 8.89378 3.73143 8.29883 4.0412 7.7348C4.08832 7.64753 4.12149 7.56026 4.16949 7.47299C4.23058 7.3639 4.27421 7.23736 4.41297 7.19547L5.13644 6.20582C5.2596 6.00124 5.41089 5.81499 5.58589 5.65253C6.3161 4.93554 7.15198 4.33482 8.06437 3.87134C8.71107 3.56196 9.38735 3.3187 10.0829 3.14524C10.7975 2.99204 11.5282 2.92755 12.2586 2.95325C12.8604 2.9613 13.4592 3.0386 14.0433 3.18364C14.7476 3.33898 15.3986 3.67934 16.1186 3.77883C16.1483 3.78212 16.177 3.79158 16.2028 3.80661C16.2287 3.82164 16.2511 3.8419 16.2687 3.8661C16.2277 3.99439 16.2896 4.06071 16.3987 4.12093C16.6853 4.2797 16.9627 4.45452 17.2295 4.64455C17.6725 4.97378 18.0942 5.33054 18.4923 5.71274C18.7838 6.04874 19.0797 6.38124 19.3397 6.74341C19.3533 6.75978 19.3658 6.77698 19.3773 6.7949C19.8445 7.46719 20.2268 8.19474 20.5153 8.96095C20.5938 9.21753 20.6959 9.46712 20.7605 9.72806C20.9404 10.3891 21.0458 11.0682 21.0747 11.7527C21.0747 12.0809 21.1026 12.409 21.0415 12.7354C21.0411 12.8105 21.0156 12.8833 20.9691 12.9422C20.8495 13.7687 20.675 14.5812 20.3486 15.3544C20.2712 15.5382 20.1932 15.723 20.1147 15.9086C19.9585 16.3947 19.6783 16.8101 19.3842 17.222C19.305 17.3552 19.1997 17.471 19.0744 17.5623Z" fill="#FEFEFE"/>
<path id="Vector_32" d="M4.39641 7.19479C3.67294 8.38341 3.17462 9.64971 3.04022 11.0469C3.03352 11.0825 3.02328 11.1172 3.00968 11.1508C2.94195 11.1028 2.86716 11.0657 2.78801 11.0408C2.36039 10.9308 1.93712 10.8087 1.51037 10.6978C1.39345 10.672 1.28224 10.6249 1.18223 10.5591C0.931818 10.1858 0.784865 9.75273 0.756353 9.30412C0.756353 9.24564 0.75199 9.18805 0.750244 9.12957C0.854096 9.08245 0.891623 8.98209 0.942239 8.89045C1.21976 8.38778 1.60724 7.96975 1.98949 7.50547C2.06454 7.79434 1.95371 8.02211 1.9092 8.25774C1.87953 8.41047 1.84025 8.56144 1.82193 8.71591C1.81669 8.76391 1.80971 8.84856 1.87254 8.87562C1.93538 8.90267 1.98861 8.85205 2.0305 8.81191C2.2129 8.63737 2.39442 8.46283 2.58991 8.29789C3.08956 7.87368 3.62542 7.49406 4.19132 7.16337C4.25678 7.12846 4.35277 7.02723 4.39641 7.19479Z" fill="#8C9092"/>
<path id="Vector_33" d="M10.01 3.18589C9.8913 3.30632 9.72462 3.30021 9.57887 3.3421C8.21803 3.73951 6.96708 4.44517 5.92311 5.40431C5.64035 5.65914 5.42218 5.97157 5.12109 6.20458C5.15164 6.04226 5.18131 5.88081 5.20836 5.71848C5.27269 5.24855 5.40436 4.79033 5.59934 4.35793C5.79569 3.93991 5.94842 3.50094 6.19539 3.10647C6.24082 3.02045 6.29429 2.93892 6.3551 2.86299C6.37351 2.84572 6.39439 2.83131 6.41706 2.82023C6.92672 2.66139 7.45384 2.60467 7.98182 2.5462C8.98718 2.43274 9.98032 2.5462 10.9717 2.69281C11.0738 2.70765 11.182 2.71288 11.2623 2.79404C11.251 2.92233 11.1375 2.89877 11.0642 2.91186C10.7745 2.96684 10.4839 3.0192 10.1994 3.09862C10.1357 3.11782 10.0519 3.10647 10.01 3.18589Z" fill="#E4F2FB"/>
<path id="Vector_34" d="M5.65337 4.36253C5.46138 4.79888 5.38458 5.27538 5.21178 5.71872C5.12451 5.61312 5.04859 5.7065 4.97441 5.73879C4.07901 6.1254 3.28921 6.69178 2.49156 7.23722C2.45141 7.26428 2.42087 7.33584 2.36327 7.29918C2.30567 7.26253 2.32313 7.18573 2.33709 7.13337C2.37083 7.01219 2.41371 6.89374 2.46538 6.77905C2.69983 6.24772 2.9857 5.74059 3.31888 5.26491C3.34412 5.29248 3.37865 5.30977 3.41584 5.31348C3.45304 5.31718 3.4903 5.30703 3.52048 5.28498C4.01699 4.99786 4.53907 4.75742 5.08 4.56674C5.13361 4.54978 5.18333 4.52238 5.22631 4.48614C5.26929 4.4499 5.30469 4.40552 5.33047 4.35555C5.34868 4.31839 5.37513 4.28588 5.40779 4.26047C5.44045 4.23507 5.47848 4.21744 5.51897 4.20893C5.64639 4.18188 5.7101 4.22377 5.65337 4.36253Z" fill="#9DA7AC"/>
<path id="Vector_35" d="M5.65343 4.36243C5.65343 4.31268 5.66478 4.24287 5.59147 4.23937C5.51816 4.23588 5.40296 4.27952 5.38725 4.35021C5.33838 4.57188 5.14639 4.61202 4.99105 4.66264C4.44997 4.82234 3.96998 5.10597 3.48039 5.36953C3.30585 5.46553 3.31632 5.38175 3.31894 5.26219C3.59251 4.83017 3.90133 4.42151 4.24227 4.0404C4.38888 3.86586 4.57651 3.72535 4.66553 3.5063C4.72749 3.4042 4.86189 3.45132 4.93607 3.37452C5.20573 3.13017 5.55481 3.0586 5.88557 2.9565C6.04004 2.9085 6.19276 2.78196 6.37341 2.87883C6.10549 3.36318 5.87859 3.86149 5.65343 4.36243Z" fill="#A4B0B6"/>
<path id="Vector_36" d="M3.90257 15.9917L4.25864 16.6707C4.62759 17.3082 5.04943 17.9137 5.5197 18.4807C5.6218 18.6002 5.73613 18.7067 5.84085 18.8219C5.89932 18.8856 5.98049 18.9441 5.92812 19.0523C5.63838 19.4607 5.29192 19.822 4.96815 20.1999C4.89135 20.2872 4.832 20.2872 4.74997 20.2112C4.70459 20.1685 4.6627 20.1021 4.57543 20.1283C4.56854 20.1201 4.56362 20.1104 4.56105 20.0999C4.55848 20.0895 4.55833 20.0786 4.56059 20.0681C4.61314 19.9605 4.68105 19.8612 4.76219 19.7731C4.91229 19.6134 4.89222 19.4677 4.79535 19.2879C4.67055 19.0584 4.58066 18.8105 4.46983 18.5732C4.12948 17.8244 3.97501 17.0267 3.84672 16.2212C3.83545 16.1814 3.83466 16.1393 3.84445 16.0991C3.85424 16.0589 3.87426 16.0219 3.90257 15.9917Z" fill="#596568"/>
<path id="Vector_37" d="M4.57648 20.0783V20.128L4.3906 20.4361C4.28675 20.4727 4.22566 20.3994 4.16108 20.3427C4.10379 20.2853 4.0367 20.2386 3.96297 20.2048C3.60691 19.9491 3.35993 19.5887 3.09027 19.257C2.52521 18.5532 2.0402 17.7886 1.64419 16.9775C1.57612 16.8414 1.48187 16.707 1.5098 16.5412C1.65205 16.4906 1.68434 16.6206 1.74106 16.693C1.88244 16.8781 1.99415 17.0884 2.20098 17.2219C2.24636 17.1538 2.18527 17.0788 2.23676 17.0229C2.36679 17.009 2.39385 17.1215 2.43748 17.1975C2.80451 17.8578 3.23567 18.4805 3.72472 19.0563C3.94814 19.3181 4.17068 19.5799 4.41678 19.8199C4.48921 19.8915 4.57736 19.957 4.57648 20.0783Z" fill="#3C4647"/>
<path id="Vector_38" d="M1.52202 16.5313C1.85103 17.3918 2.33975 18.1616 2.88432 18.8972C3.21856 19.3493 3.56066 19.7987 3.99178 20.1688C4.12949 20.2668 4.24984 20.3871 4.34784 20.5248L4.28239 20.6994C3.85651 20.3704 3.5275 19.9654 3.17493 19.5849C2.77396 19.0831 2.40216 18.5586 2.06135 18.0141C1.74631 17.4451 1.47053 16.8577 1.20872 16.2625C1.01062 15.6255 0.779349 14.9971 0.651061 14.3426C0.612662 14.1454 0.571645 13.9499 0.532373 13.7535C0.45732 13.0623 0.363068 12.3799 0.399721 11.6878C0.425903 11.1895 0.326414 10.6956 0.36045 10.1981C0.572517 10.1772 0.557681 10.3412 0.552445 10.4599C0.538482 10.754 0.505319 11.0473 0.509682 11.3422C0.456447 12.9567 0.781094 14.5032 1.34748 16.0077C1.41206 16.1796 1.54733 16.3297 1.52202 16.5313Z" fill="#5C6A6D"/>
<path id="Vector_39" d="M5.93087 19.0518C5.79997 18.7848 5.55125 18.6155 5.37147 18.3894C4.95507 17.8822 4.58995 17.335 4.28146 16.7557C4.27079 16.7276 4.26347 16.6983 4.25964 16.6685C4.50226 16.9207 4.65847 17.2366 4.87926 17.5063C5.19169 17.8868 5.50325 18.2699 5.87938 18.5867C6.05393 18.7333 6.1412 18.8485 5.96666 19.044L5.93087 19.0518Z" fill="#959394"/>
<path id="Vector_40" d="M4.34886 20.525C4.21397 20.4237 4.09409 20.3038 3.9928 20.1689C4.16734 20.1977 4.22756 20.3976 4.39424 20.436C4.3961 20.4536 4.39281 20.4714 4.38475 20.4872C4.3767 20.503 4.36423 20.5162 4.34886 20.525Z" fill="#414E50"/>
<path id="Vector_41" d="M16.8789 22.6386C17.502 22.2215 18.1705 21.8706 18.7509 21.3872C19.1013 21.1097 19.4369 20.8141 19.7562 20.5014C19.8548 20.4001 19.963 20.3094 20.0669 20.2134C19.9918 20.4464 19.8234 20.6201 19.6707 20.7981C18.9531 21.6324 18.028 22.2625 16.9889 22.6247C16.9528 22.6333 16.916 22.638 16.8789 22.6386Z" fill="#84A3AD"/>
<path id="Vector_42" d="M18.541 2.25439C19.1393 2.63171 19.6831 3.08918 20.1572 3.61407C20.6646 4.16884 21.1332 4.75785 21.5597 5.37694C21.8627 5.82968 22.12 6.31146 22.3276 6.81516C22.3482 6.85426 22.3727 6.89111 22.4009 6.92512C22.5257 7.11275 22.6357 7.30562 22.6435 7.53601C22.5196 7.60321 22.4638 7.50983 22.421 7.42867C22.1156 6.85094 21.6888 6.36135 21.2865 5.8578C21.1826 5.72776 21.0866 5.57068 20.8728 5.62129C20.8475 5.62828 20.817 5.60297 20.7943 5.58289C20.3396 5.18669 19.7654 5.0296 19.2234 4.80531C19.144 4.71804 19.1571 4.6107 19.1423 4.50947C19.0411 3.83835 18.8463 3.18473 18.5637 2.5677C18.5165 2.46821 18.4581 2.36523 18.541 2.25439Z" fill="#255D7E"/>
<path id="Vector_43" d="M18.541 2.25385C18.5131 2.42839 18.6283 2.5689 18.6903 2.71551C18.9705 3.34821 19.149 4.02122 19.2191 4.70965C19.2279 4.74587 19.2414 4.78079 19.2593 4.8135C19.2974 4.86315 19.3191 4.92342 19.3214 4.98595C19.3238 5.04849 19.3066 5.11021 19.2724 5.16258C19.1676 5.22105 19.117 5.13291 19.0769 5.07531C18.5742 4.32129 17.9424 3.68596 17.2643 3.09252C17.2483 3.07664 17.2353 3.05802 17.2259 3.03754C17.2189 3.01707 17.2171 2.99518 17.2206 2.97384C17.4745 2.69494 17.7621 2.4487 18.0768 2.24076C18.0871 2.23881 18.0978 2.23929 18.108 2.24216C18.1181 2.24504 18.1274 2.25024 18.1352 2.25734C18.2247 2.28633 18.3179 2.30192 18.4119 2.3036C18.4887 2.29487 18.4599 2.25036 18.4529 2.21022C18.4702 2.20896 18.4874 2.21234 18.5029 2.22002C18.5184 2.22769 18.5316 2.23937 18.541 2.25385Z" fill="#326582"/>
<path id="Vector_44" d="M23.0765 7.81689C23.2414 8.11012 23.3086 8.43652 23.388 8.75767C23.4994 9.15738 23.5748 9.56628 23.6132 9.97946C23.6952 10.8199 23.7214 11.6577 23.5023 12.485C23.4945 12.5289 23.4798 12.5714 23.4587 12.6107C23.4511 12.6278 23.439 12.6425 23.4236 12.6531C23.4082 12.6637 23.3901 12.6699 23.3714 12.6709C23.313 12.6709 23.306 12.6176 23.3016 12.574C23.2912 12.4999 23.2912 12.4247 23.3016 12.3506C23.3688 11.943 23.3252 11.5337 23.3234 11.1288C23.3132 10.9815 23.2892 10.8354 23.2519 10.6925C23.196 10.5674 23.1846 10.427 23.2196 10.2945C23.3147 10.1435 23.285 9.97684 23.2693 9.81714C23.2126 9.25686 23.2109 8.69047 23.0625 8.14154C23.0487 8.08341 23.0533 8.02243 23.0756 7.967L23.0765 7.81689Z" fill="#37585E"/>
<path id="Vector_45" d="M23.0753 7.95623C23.2038 8.36367 23.2761 8.78678 23.2899 9.2138C23.3057 9.49481 23.3458 9.77408 23.3423 10.056C23.3423 10.1432 23.3615 10.2401 23.255 10.289C23.1276 10.1144 23.1442 9.9076 23.118 9.71299C23.0275 9.08729 22.8788 8.4714 22.6738 7.87332C22.6398 7.77035 22.5778 7.66824 22.6206 7.5513C22.5464 7.34272 22.4731 7.13327 22.3989 6.92469C22.4783 6.87495 22.4748 6.95786 22.501 6.99102C22.7349 7.28774 22.8702 7.64206 23.0753 7.95623Z" fill="#19404F"/>
<path id="Vector_46" d="M6.37509 2.88205C5.88149 3.00067 5.40022 3.16577 4.93774 3.37513C5.03112 3.1491 5.25105 3.04438 5.41861 2.89427C5.90383 2.45792 6.45276 2.10883 6.99908 1.7519L7.31325 1.61925C7.47046 1.5444 7.63364 1.48281 7.80109 1.43511C8.80122 1.17853 9.81879 1.11657 10.846 1.15409C11.0253 1.15659 11.2035 1.1833 11.3757 1.23351C11.4316 1.40805 11.2806 1.35743 11.2134 1.36529C10.8215 1.41067 10.4279 1.41852 10.0326 1.45256C8.9679 1.55467 7.95731 1.85662 6.97813 2.26679C6.86 2.31494 6.7599 2.39886 6.69188 2.50679C6.60461 2.64293 6.52432 2.79129 6.37596 2.87769L6.37509 2.88205Z" fill="#E3F4FB"/>
<path id="Vector_47" d="M23.2978 10.6501C23.3126 10.6832 23.3397 10.7155 23.3397 10.7478C23.3467 11.0829 23.3467 11.4172 23.3816 11.7523C23.4051 11.9862 23.317 12.2236 23.3432 12.4627C23.3493 12.5185 23.3205 12.5805 23.3798 12.6433C23.667 11.7637 23.6076 10.8665 23.6137 9.97461C23.701 10.1142 23.6783 10.2792 23.6914 10.4267C23.7638 11.2575 23.7883 12.0848 23.6635 12.9182C23.6528 13.0448 23.6505 13.1719 23.6565 13.2988C23.5762 13.3703 23.6355 13.4916 23.5622 13.5667C23.4847 13.6395 23.3964 13.6999 23.3004 13.7456C23.266 13.5682 23.2789 13.3849 23.3379 13.2141C23.3563 13.0457 23.4462 12.8833 23.2751 12.7167C23.2105 12.6538 23.2367 12.4714 23.2568 12.3492C23.3336 11.8885 23.283 11.4259 23.2961 10.9643C23.2571 10.9211 23.2357 10.865 23.236 10.8068C23.2363 10.7487 23.2584 10.6928 23.2978 10.6501Z" fill="#376A72"/>
<path id="Vector_48" d="M18.1327 2.25374C18.1184 2.25287 18.1041 2.25287 18.0899 2.25374C17.8935 2.34625 17.6797 2.31657 17.4738 2.3349C17.1997 2.36021 16.9309 2.42217 16.6543 2.42217C15.8383 1.7659 14.9089 1.29289 13.9934 0.797193C13.6853 0.630506 13.345 0.589489 13.0177 0.496982C12.9453 0.476037 12.8432 0.496982 12.8807 0.366076L13.0614 0.36084C14.0824 0.468183 15.0887 0.643597 16.0582 0.994425C16.773 1.2517 17.4625 1.57452 18.1178 1.95877C18.3273 2.08793 18.2915 2.14814 18.1327 2.25374Z" fill="#6C9EC8"/>
<path id="Vector_49" d="M7.76969 1.49622C7.62389 1.56014 7.46954 1.60247 7.31152 1.62188C7.59603 1.38887 7.94773 1.28938 8.2715 1.13404C8.31077 1.11484 8.35266 1.09913 8.39281 1.08255C9.10322 0.794528 9.8471 0.597196 10.6069 0.495223C10.6343 0.486217 10.6599 0.472645 10.6828 0.455078H10.9053C11.0997 0.523621 11.2856 0.614093 11.4595 0.724744C11.5284 0.764016 11.6576 0.812015 11.5468 0.937684C11.4091 0.974207 11.2657 0.983983 11.1244 0.966483C9.98986 0.934193 8.89985 1.16284 7.81508 1.45171C7.8042 1.45434 7.79423 1.45986 7.78624 1.4677C7.77825 1.47554 7.77253 1.48539 7.76969 1.49622Z" fill="#75B3DA"/>
<path id="Vector_50" d="M0.446836 11.3685C0.421527 11.0491 0.466035 10.7341 0.487853 10.4173C0.494835 10.3169 0.493089 10.2183 0.360438 10.1982C0.332147 10.1596 0.316895 10.113 0.316895 10.0651C0.316895 10.0173 0.332147 9.97067 0.360438 9.93206C0.534979 9.84479 0.651922 9.72959 0.649304 9.51141C0.649304 9.45033 0.63185 9.32117 0.761883 9.30371C0.894534 9.71563 0.987041 10.1415 1.20522 10.5255C1.2349 10.5516 1.25745 10.5849 1.27073 10.6221C1.28402 10.6594 1.2876 10.6994 1.28114 10.7384C1.11733 10.9641 0.916719 11.1606 0.687703 11.3197C0.617014 11.3633 0.543706 11.4331 0.446836 11.3685Z" fill="#393737"/>
<path id="Vector_51" d="M11.58 0.906617C11.4927 0.747784 11.3181 0.725966 11.1794 0.639569C11.0921 0.580225 10.9647 0.568879 10.9071 0.458919C11.1104 0.377757 11.3295 0.387357 11.5389 0.376884C11.9849 0.355067 12.4343 0.376884 12.882 0.376884C12.896 0.40132 12.9082 0.445828 12.9248 0.447573C14.0052 0.563643 14.836 1.22777 15.7401 1.72783C15.974 1.85787 16.1905 2.0167 16.4156 2.16419C16.5029 2.22091 16.5945 2.27502 16.6085 2.39283C16.5715 2.43733 16.5186 2.46553 16.461 2.47138C16.426 2.47597 16.3905 2.47115 16.358 2.45741C15.0943 1.66325 13.7085 1.22341 12.2345 1.04189C12.0905 1.00523 11.9413 1.04189 11.7981 1.00698C11.7157 1.00091 11.6382 0.965271 11.58 0.906617Z" fill="#6EA6CF"/>
<path id="Vector_52" d="M17.9077 18.7751C18.1922 18.5203 18.4601 18.2515 18.7193 17.9688C18.9358 18.056 19.1391 17.9356 19.3494 17.9277C18.9462 18.2882 18.4628 18.5238 18.002 18.7961C17.9948 18.802 17.9864 18.8063 17.9773 18.8084C17.9682 18.8106 17.9588 18.8107 17.9497 18.8087C17.9406 18.8067 17.9321 18.8026 17.9248 18.7968C17.9175 18.791 17.9117 18.7836 17.9077 18.7751Z" fill="#7F9DA8"/>
<path id="Vector_53" d="M20.9663 12.9372L21.0117 11.732C21.0352 11.7207 21.061 11.7148 21.0872 11.7148C21.1133 11.7148 21.1391 11.7207 21.1627 11.732C21.713 11.8932 22.2473 12.1047 22.7588 12.3639C22.8499 12.3986 22.9288 12.4593 22.9857 12.5384C22.9864 12.5528 22.9885 12.5671 22.9918 12.5812C22.8891 13.0624 22.7331 13.5307 22.5267 13.9775C22.368 14.3874 22.1596 14.7763 21.9062 15.1356C21.7186 14.4042 21.3939 13.7279 21.0641 13.0542C21.0453 13.0055 21.0109 12.9643 20.9663 12.9372Z" fill="#1C99BF"/>
<path id="Vector_54" d="M19.073 17.5619C19.4606 17.0359 19.8083 16.4817 20.1133 15.9038C20.2738 16.0504 20.3358 16.2625 20.4623 16.4318C20.5121 16.4972 20.5496 16.5688 20.6439 16.5749C20.1718 16.9796 19.6425 17.3122 19.073 17.5619Z" fill="#32BFE6"/>
<path id="Vector_55" d="M23.2978 10.6504C23.2978 10.7552 23.2978 10.8599 23.2978 10.9646C23.2201 11.0432 23.2707 11.1453 23.248 11.2334C23.1363 11.3137 23.0674 11.2334 23.0019 11.161C22.9237 11.0707 22.8545 10.9731 22.7951 10.8695C22.7727 10.8264 22.738 10.7909 22.6955 10.7674C22.6529 10.744 22.6044 10.7336 22.556 10.7377C22.5109 10.7386 22.4665 10.7263 22.4282 10.7025C22.39 10.6786 22.3595 10.6442 22.3404 10.6033C21.8517 9.80916 21.3097 9.04991 20.794 8.2732C20.7632 8.23122 20.7357 8.18686 20.7119 8.14055C20.6907 8.09993 20.6863 8.0526 20.6997 8.00877C20.8132 7.75918 20.6884 7.56631 20.5627 7.36733C20.3881 7.09592 20.197 6.84371 20.0391 6.59674C20.005 6.54874 19.9911 6.60546 20.0085 6.5819C20.0138 6.57492 20.0225 6.57666 20.0286 6.58888C20.1752 6.87949 20.3419 7.16312 20.3541 7.50173C20.2389 7.58115 20.1796 7.48078 20.1124 7.42057C19.9169 7.23905 19.7633 7.02 19.573 6.83149C19.5423 6.79347 19.4988 6.76791 19.4507 6.75956C19.4025 6.75122 19.353 6.76065 19.3112 6.78611C19.2074 6.57754 19.2484 6.34976 19.2432 6.13507C19.2432 5.98061 19.2432 5.82614 19.2318 5.67254C19.2763 5.50411 19.2048 5.33917 19.2196 5.17161C19.3069 5.06165 19.2449 4.93161 19.265 4.81293C19.306 4.79809 19.3435 4.76231 19.3906 4.78762C19.7851 4.99794 20.2293 5.10179 20.6002 5.36098C20.6665 5.40724 20.7276 5.46309 20.794 5.51022C20.8402 5.54338 20.8751 5.66294 20.9493 5.51982C20.9816 5.45785 21.0366 5.5364 21.0723 5.56607C21.3752 5.81217 21.5881 6.13769 21.8255 6.43878C22.0629 6.73986 22.316 7.0584 22.4792 7.42231C22.5115 7.48153 22.5647 7.52662 22.6284 7.54886C22.9641 8.42811 23.1775 9.34925 23.2628 10.2865C23.2492 10.4089 23.2611 10.5329 23.2978 10.6504Z" fill="#206380"/>
<path id="Vector_56" d="M19.3069 6.78596C19.3619 6.61142 19.4352 6.61142 19.5539 6.74494C19.7415 6.96137 19.9413 7.16821 20.1386 7.37678C20.1927 7.43351 20.2407 7.50682 20.3349 7.50769C20.4711 7.57401 20.4545 7.71801 20.4973 7.83233C20.54 7.94666 20.5601 8.07582 20.6063 8.19102C20.6666 8.20062 20.6753 8.10375 20.739 8.13604C20.8315 8.18316 20.8647 8.28003 20.9135 8.35858C21.411 9.10648 21.939 9.83345 22.3971 10.6058C22.4373 10.6721 22.4931 10.7158 22.5612 10.6878C22.7061 10.6285 22.7497 10.7254 22.823 10.8152C22.9487 10.9671 22.9845 11.2158 23.2436 11.2333C23.1677 11.6696 23.1625 12.1234 22.9818 12.5423C22.3487 12.2159 21.6881 11.9455 21.0078 11.7342C20.9668 11.051 20.8619 10.3731 20.6945 9.70952C20.7818 9.57338 20.6849 9.44248 20.6823 9.30983C20.6779 9.10998 20.6255 8.91623 20.6168 8.69893C20.5295 8.7862 20.5496 8.90664 20.458 8.96074C20.1544 8.19617 19.7684 7.46695 19.3069 6.78596Z" fill="#1A6C84"/>
<path id="Vector_57" d="M23.3384 13.2144C23.3768 13.395 23.2983 13.5634 23.3009 13.7458C23.2067 14.1368 23.1121 14.5278 23.0173 14.9187C23.0173 14.9187 23.0042 14.9257 22.9981 14.9257C22.9912 14.9233 22.9847 14.9197 22.9789 14.9153C23.0766 14.3916 23.2294 13.8741 23.2538 13.3357C23.254 13.3093 23.2622 13.2836 23.2773 13.2619C23.2925 13.2403 23.3138 13.2237 23.3384 13.2144Z" fill="#58B0C5"/>
<path id="Vector_58" d="M7.88516 8.13623C8.59205 8.15979 9.30855 8.53506 9.72657 9.35802C10.1629 10.2168 10.1149 11.0773 9.57472 11.8889C9.47872 12.032 9.48745 12.0966 9.62185 12.1795C9.68868 12.2276 9.75251 12.2798 9.81297 12.3357C10.0678 12.5451 10.0573 12.5373 9.847 12.7991C9.73617 12.9352 9.67246 12.9283 9.55552 12.8131C9.42025 12.6743 9.28324 12.4745 9.11917 12.4439C8.97779 12.4177 8.80412 12.601 8.63743 12.676C8.2094 12.8687 7.73396 12.9305 7.2709 12.8536C6.80784 12.7768 6.37786 12.5647 6.03503 12.2441C5.35345 11.5843 5.14051 10.4986 5.51141 9.58929C5.88231 8.67993 6.69305 8.13536 7.88516 8.13623Z" fill="#050708"/>
<path id="Vector_59" d="M3.05274 13.2971C3.16757 13.8873 3.31735 14.4702 3.50131 15.0426C3.59906 15.3393 3.74654 15.6133 3.85912 15.903C3.86436 16.0523 3.86698 16.2225 3.72036 16.2914C3.64318 16.3245 3.5579 16.3338 3.47538 16.3183C3.39286 16.3027 3.31683 16.263 3.25696 16.2041C3.01085 15.9554 2.73857 15.7303 2.51865 15.4571C2.15298 15.0024 1.97146 14.4657 1.82921 13.9107C1.75154 13.6078 1.74805 13.6087 1.47053 13.7361C1.40804 13.7617 1.34788 13.7926 1.29075 13.8286C1.25322 13.8531 1.21657 13.8792 1.17904 13.9046C1.13795 13.9372 1.10256 13.9764 1.07432 14.0206C1.01672 14.0992 0.959995 14.0739 0.910251 14.0145C0.849299 13.9375 0.805822 13.8482 0.782836 13.7527C0.674449 13.3333 0.600892 12.9057 0.562914 12.4742C0.539351 12.2804 0.62924 12.0911 0.701674 11.913C0.821575 11.6224 0.981359 11.3498 1.17643 11.1032C1.19905 11.0687 1.2295 11.0401 1.26529 11.0196C1.30108 10.9991 1.3412 10.9874 1.38238 10.9854C1.45154 11.0125 1.51024 11.061 1.54995 11.1237C1.58966 11.1865 1.60831 11.2603 1.60318 11.3344C1.55954 11.9794 1.6695 12.6103 1.78645 13.2396C1.81437 13.394 1.90077 13.4071 2.03081 13.3451C2.25976 13.2208 2.49481 13.1081 2.73508 13.0074C2.75789 13.0035 2.78121 13.0035 2.80402 13.0074C2.94715 13.0493 2.97769 13.1933 3.05274 13.2971Z" fill="#393737"/>
<path id="Vector_60" d="M16.7473 8.65154C17.0423 8.66027 17.3879 8.62449 17.7291 8.68209C18.4098 8.79554 18.8444 9.26767 18.8636 9.90387C18.8828 10.616 18.4883 11.1152 17.7727 11.2801C17.3364 11.3805 16.893 11.3255 16.4541 11.329C16.2917 11.329 16.2333 11.3613 16.2403 11.5367C16.2551 11.9024 16.2403 12.2698 16.2481 12.6354C16.256 12.9042 16.064 12.7759 15.9523 12.7986C15.8266 12.8231 15.7533 12.7986 15.7542 12.6311C15.762 11.3595 15.7603 10.088 15.7542 8.81648C15.7542 8.69169 15.7847 8.64718 15.9147 8.65242C16.1748 8.65852 16.4375 8.65154 16.7473 8.65154Z" fill="#050708"/>
<path id="Vector_61" d="M13.2668 12.8634C12.0066 12.9018 11.0492 11.9768 11.0405 10.8265C11.0326 9.74613 11.5859 8.92666 12.5337 8.66485C13.3121 8.45104 14.026 8.5994 14.6483 9.13437C14.7355 9.20767 14.7573 9.26353 14.6631 9.34207C14.6156 9.37877 14.5741 9.42264 14.54 9.4721C14.4597 9.60039 14.3917 9.5681 14.2974 9.4817C14.0363 9.2297 13.6984 9.0724 13.3374 9.03488C12.3984 8.94761 11.6627 9.53843 11.5397 10.4818C11.4271 11.3449 11.9149 12.14 12.7117 12.3634C13.3139 12.5292 13.8462 12.3634 14.3123 11.9584C14.3629 11.9139 14.4152 11.8118 14.4868 11.8607C14.5905 11.9337 14.6793 12.0259 14.7486 12.1321C14.7809 12.181 14.6893 12.2255 14.6491 12.263C14.2276 12.654 13.7363 12.8765 13.2668 12.8634Z" fill="#050708"/>
<path id="Vector_62" d="M1.25525 13.793C1.37481 13.6735 1.54586 13.6499 1.68462 13.5626C1.80418 13.4867 1.81465 13.6124 1.8356 13.6839C1.92723 13.9903 1.99356 14.3062 2.10876 14.6038C2.26584 15.0043 2.47006 15.3744 2.81216 15.6693C2.97118 15.7911 3.11093 15.9361 3.22669 16.0996C3.33142 16.2654 3.52254 16.2436 3.69097 16.2575C3.70041 16.2589 3.71004 16.2583 3.71919 16.2556C3.72834 16.2528 3.73678 16.2482 3.74393 16.2418C3.75108 16.2355 3.75676 16.2277 3.76058 16.219C3.7644 16.2102 3.76625 16.2008 3.76602 16.1912C3.75206 16.076 3.85329 16.0036 3.86377 15.8997L3.90827 15.9914C3.91787 16.4399 4.03133 16.8702 4.1282 17.3004C4.2308 17.7422 4.36705 18.1754 4.53575 18.5964C4.44848 18.6688 4.44848 18.6741 4.38303 18.62C4.29346 18.5453 4.21422 18.459 4.1474 18.3634C4.09632 18.2606 4.02578 18.1687 3.93969 18.0928C3.92564 18.0766 3.91281 18.0594 3.90129 18.0414C3.49669 17.5139 3.12787 16.96 2.79732 16.3832C2.74653 16.3007 2.69993 16.2156 2.65769 16.1284C2.34439 15.3997 1.88709 14.7486 1.53539 14.0417C1.46993 13.9178 1.33205 13.8934 1.25525 13.793Z" fill="#3B3E3F"/>
<path id="Vector_63" d="M14.0487 3.23626C13.8803 3.26157 13.7319 3.17691 13.5731 3.14899C13.1357 3.07488 12.6941 3.02766 12.2509 3.00761C12.0764 2.98841 11.9018 2.99277 11.7273 2.96223C11.6086 2.94041 11.4725 2.9439 11.3939 2.82172C11.4227 2.74405 11.4934 2.73882 11.5589 2.73445C12.1882 2.67087 12.8226 2.67585 13.4509 2.74929C13.5697 2.75145 13.6882 2.76312 13.8052 2.7842C14.3152 2.93604 14.8631 2.89695 15.3464 2.67423C15.395 2.66785 15.4444 2.67448 15.4895 2.69343C15.9033 2.92621 16.2847 3.21228 16.6241 3.54432C16.6314 3.56611 16.6314 3.58973 16.6241 3.61152C16.6104 3.64383 16.5868 3.67093 16.5566 3.68884C16.5265 3.70674 16.4914 3.71451 16.4565 3.71101C15.9765 3.49487 15.4822 3.31176 14.9773 3.16295C14.7599 3.08137 14.5193 3.08827 14.307 3.18215C14.2248 3.21543 14.1373 3.23375 14.0487 3.23626Z" fill="#5F9EB1"/>
<path id="Vector_64" d="M19.2553 5.62266C19.3496 5.8356 19.2885 6.05901 19.3007 6.27806C19.3103 6.44736 19.3007 6.61754 19.3007 6.78685L18.4498 5.75444C18.2386 5.50833 18.0623 5.23081 17.8634 4.97947C17.6644 4.72813 17.4541 4.48639 17.2429 4.24553C17.1922 4.18706 17.1067 4.14168 17.146 4.03957C17.2542 3.99506 17.3328 4.07011 17.4209 4.10764C18.0117 4.50036 18.5921 4.90704 19.0965 5.41146C19.1619 5.46993 19.2405 5.52579 19.2553 5.62266Z" fill="#41728D"/>
<path id="Vector_65" d="M10.0614 14.8079C10.0614 14.5242 10.0614 14.2406 10.0614 13.957C10.0614 13.8409 10.0763 13.7781 10.2159 13.7824C10.4611 13.7947 10.709 13.7824 10.9542 13.7947C11.3495 13.8191 11.5974 14.0652 11.6061 14.423C11.6148 14.7808 11.3836 15.0452 10.9952 15.0967C10.8402 15.1201 10.6829 15.1257 10.5266 15.1133C10.332 15.095 10.2779 15.1718 10.2988 15.3524C10.3128 15.4702 10.2988 15.5907 10.2988 15.7102C10.2988 15.7914 10.2988 15.8516 10.1836 15.8542C10.0684 15.8569 10.0553 15.7931 10.0562 15.7006C10.0632 15.4022 10.0614 15.1037 10.0614 14.8079Z" fill="#080A0B"/>
<path id="Vector_66" d="M9.55181 15.8297C9.35981 15.8943 9.27341 15.8201 9.22803 15.6665C9.20971 15.6019 9.17043 15.5443 9.15036 15.4815C9.13833 15.4194 9.10214 15.3647 9.04977 15.3294C8.9974 15.294 8.93313 15.2809 8.8711 15.293C8.62462 15.3074 8.37752 15.3074 8.13104 15.293C8.0732 15.2816 8.01323 15.2936 7.9642 15.3263C7.91516 15.359 7.88102 15.4098 7.86923 15.4675C7.84479 15.5452 7.79505 15.615 7.77149 15.6927C7.76766 15.7224 7.75684 15.7508 7.73992 15.7755C7.72299 15.8002 7.70044 15.8206 7.67412 15.8349C7.64779 15.8492 7.61845 15.8571 7.5885 15.8578C7.55855 15.8586 7.52884 15.8522 7.50182 15.8393C7.47477 15.793 7.50182 15.752 7.52364 15.7171C7.79359 15.1202 8.06355 14.5232 8.33351 13.9263C8.36929 13.846 8.39023 13.7622 8.51416 13.7657C8.62325 13.7657 8.64943 13.8347 8.68346 13.9115C8.97146 14.5459 9.26032 15.1856 9.55181 15.8297Z" fill="#07090A"/>
<path id="Vector_67" d="M14.8893 15.8317C15.1904 15.1685 15.4862 14.5105 15.789 13.8559C15.8003 13.829 15.819 13.8058 15.8429 13.789C15.8667 13.7722 15.8949 13.7625 15.924 13.761C15.9532 13.7594 15.9822 13.7661 16.0077 13.7803C16.0332 13.7945 16.0542 13.8155 16.0683 13.8411C16.3737 14.5026 16.6705 15.1676 16.9707 15.8317C16.7778 15.8963 16.6844 15.8169 16.6443 15.6572C16.5727 15.3666 16.3999 15.2374 16.0962 15.2994C16.0224 15.3129 15.9467 15.3129 15.8728 15.2994C15.5089 15.2366 15.2532 15.336 15.1747 15.7357C15.1415 15.8806 15.0237 15.8649 14.8893 15.8317Z" fill="#07090A"/>
<path id="Vector_68" d="M2.82315 13.0311H2.78213C2.64948 12.9788 2.58926 12.8513 2.50723 12.7501C2.35014 12.5546 2.20091 12.3522 2.05604 12.1471C2.00542 12.0764 1.94346 12.0066 1.96179 11.9071C2.23581 11.6741 2.4217 11.3634 2.67304 11.1112C2.7158 11.0684 2.73849 10.9864 2.82664 11.0108C2.84837 11.0056 2.87098 11.0053 2.89284 11.0099C2.9147 11.0146 2.93526 11.024 2.95304 11.0375C2.97082 11.051 2.98538 11.0683 2.99567 11.0882C3.00595 11.108 3.01171 11.1299 3.01252 11.1522C2.97194 11.7478 2.97194 12.3456 3.01252 12.9412C2.99145 12.9713 2.96292 12.9954 2.92972 13.0112C2.89652 13.027 2.85979 13.0338 2.82315 13.0311Z" fill="#5B5959"/>
<path id="Vector_69" d="M6.3544 13.7472C6.59513 13.7469 6.82899 13.8275 7.01853 13.9759C7.06653 14.0143 7.16515 14.0405 7.08311 14.1426C7.01329 14.2298 6.96442 14.2298 6.87279 14.16C6.48705 13.8825 6.02888 13.9104 5.7566 14.215C5.61774 14.378 5.5401 14.5844 5.53708 14.7985C5.53405 15.0126 5.60582 15.221 5.74002 15.3879C6.02015 15.723 6.4888 15.7632 6.86581 15.4848C6.91206 15.4507 6.94348 15.3766 7.0098 15.3975C7.0584 15.4169 7.09837 15.4531 7.12238 15.4996C7.15467 15.5651 7.07787 15.5869 7.04471 15.6139C6.8709 15.7709 6.64978 15.8655 6.41624 15.8828C6.1827 15.9002 5.95003 15.8393 5.75494 15.7097C5.55986 15.5802 5.41346 15.3893 5.33886 15.1674C5.26426 14.9454 5.26569 14.7049 5.34293 14.4838C5.40855 14.2678 5.54278 14.079 5.72529 13.9461C5.9078 13.8132 6.12866 13.7434 6.3544 13.7472Z" fill="#070809"/>
<path id="Vector_70" d="M14.0485 3.23511C14.3408 3.08326 14.6262 2.9733 14.9744 3.09809C15.4814 3.28311 16.0155 3.39656 16.4807 3.68891C16.5016 3.77618 16.4292 3.81458 16.3786 3.86345C16.3376 3.88876 16.307 3.94025 16.2459 3.91407C16.1019 3.78666 15.9143 3.80498 15.7441 3.77182C15.2598 3.67844 14.8217 3.44106 14.3434 3.32936C14.2439 3.3058 14.1471 3.26652 14.0485 3.23511Z" fill="#A8B3BA"/>
<path id="Vector_71" d="M17.4682 14.8079C17.4682 14.5243 17.4682 14.2398 17.4682 13.9553C17.4682 13.8628 17.4534 13.7808 17.5982 13.7808C17.7431 13.7808 17.7099 13.868 17.7099 13.9483C17.7099 14.4571 17.7152 14.9659 17.7099 15.4747C17.7099 15.603 17.7449 15.6396 17.8723 15.6353C18.1559 15.6265 18.4404 15.6353 18.7249 15.6353C18.8 15.6353 18.8715 15.6204 18.868 15.7417C18.8645 15.863 18.8052 15.8552 18.724 15.8552C18.3566 15.8552 17.9901 15.8482 17.6235 15.8552C17.483 15.8552 17.4665 15.7976 17.4691 15.6806C17.4726 15.3892 17.4682 15.0977 17.4682 14.8079Z" fill="#0E0F11"/>
<path id="Vector_72" d="M13.6021 14.9226C13.6021 14.6756 13.5951 14.4295 13.6021 14.1834C13.6073 14.0517 13.5811 13.9914 13.4336 14.0089C13.301 14.0237 13.1648 14.0089 13.0313 14.0133C12.9441 14.0133 12.9187 13.9775 12.9161 13.8946C12.9135 13.8117 12.9571 13.7855 13.0374 13.7864C13.4921 13.7864 13.9477 13.7864 14.4032 13.7864C14.4704 13.7864 14.5367 13.7768 14.5367 13.8841C14.5367 13.9914 14.5036 14.0167 14.4067 14.0124C14.2732 14.0071 14.1379 14.0194 14.0044 14.0124C13.8709 14.0054 13.8255 14.0438 13.8298 14.1869C13.8386 14.6791 13.8342 15.1722 13.8298 15.6653C13.8298 15.7526 13.8761 15.8677 13.7042 15.8599C13.5323 15.852 13.6038 15.7403 13.6012 15.6679C13.5986 15.4192 13.6021 15.1687 13.6021 14.9226Z" fill="#060809"/>
<path id="Vector_73" d="M16.2441 3.91491L16.3383 3.82764C16.5879 3.89833 16.8506 3.91491 17.095 4.00741C17.1146 4.01962 17.1303 4.03718 17.1403 4.05803C17.4022 4.35126 17.6779 4.62878 17.8987 4.95343C17.8272 4.99793 17.7678 4.95343 17.7146 4.91852C17.5507 4.81623 17.3733 4.7375 17.1875 4.68463C16.8724 4.49089 16.5617 4.2893 16.2397 4.1069C16.0948 4.01963 16.1402 3.976 16.2441 3.91491Z" fill="#9EA3A5"/>
<path id="Vector_74" d="M12.3812 14.8207C12.3812 15.1122 12.3812 15.4037 12.3812 15.6934C12.3812 15.7807 12.3917 15.854 12.2617 15.854C12.1316 15.854 12.1369 15.7842 12.1369 15.6961C12.1369 15.1061 12.1369 14.5162 12.1369 13.9262C12.1369 13.8258 12.1552 13.777 12.2704 13.7778C12.3856 13.7787 12.383 13.8424 12.383 13.9227C12.3803 14.2238 12.3812 14.5223 12.3812 14.8207Z" fill="#131516"/>
<path id="Vector_75" d="M11.4027 2.83539L12.2518 3.00994C11.5661 2.99137 10.8805 3.05258 10.2088 3.19233C10.1422 3.19866 10.075 3.19631 10.009 3.18535C9.9034 3.10768 9.98631 3.08761 10.0474 3.07277C10.4442 2.96454 10.8481 2.88435 11.2561 2.83278C11.2657 2.8229 11.2772 2.8151 11.2899 2.80985C11.3026 2.8046 11.3162 2.80202 11.33 2.80226C11.3437 2.80251 11.3573 2.80558 11.3698 2.81127C11.3823 2.81697 11.3935 2.82518 11.4027 2.83539Z" fill="#7ACAE4"/>
<path id="Vector_76" d="M17.1901 4.684C17.4842 4.62291 17.6622 4.86727 17.8996 4.95541C18.1181 5.19784 18.3041 5.46775 18.4529 5.7583L17.1901 4.684Z" fill="#C1C0C0"/>
<path id="Vector_77" d="M20.465 8.96095C20.4842 8.81784 20.5279 8.6791 20.5941 8.55078C20.7451 8.6878 20.6814 8.86495 20.7102 9.0168C20.7477 9.22102 20.7626 9.42872 20.787 9.63468C20.794 9.69838 20.7809 9.74202 20.6997 9.70798L20.465 8.96095Z" fill="#206380"/>
<path id="Vector_78" d="M2.82141 13.0311C2.87085 12.9791 2.93826 12.9479 3.00992 12.9438C3.05149 13.0582 3.06612 13.1807 3.05268 13.3017C2.94184 13.2371 2.89646 13.1219 2.82141 13.0311Z" fill="#858585"/>
<path id="Vector_79" d="M2.82341 11.0089C2.60436 11.2664 2.38706 11.5238 2.16452 11.7787C2.11303 11.838 2.06154 11.9078 1.96816 11.9087C1.73951 11.7769 1.64788 11.5526 1.57108 11.3188C1.53618 11.2021 1.47464 11.0951 1.3913 11.0063C1.34891 10.9759 1.31454 10.9356 1.29113 10.8889C1.26772 10.8422 1.25598 10.7906 1.2569 10.7384C1.23858 10.666 1.21938 10.5935 1.20105 10.522C1.69587 10.7157 2.22037 10.8117 2.72741 10.9636C2.76076 10.9757 2.7929 10.9908 2.82341 11.0089Z" fill="#656667"/>
<path id="Vector_80" d="M11.3997 2.83639H11.2566C10.8124 2.70549 10.3525 2.67145 9.89693 2.62781C9.54906 2.59077 9.19952 2.57154 8.84968 2.57022C8.0125 2.57976 7.17916 2.68517 6.36597 2.88439C6.58414 2.36077 7.02835 2.14608 7.53103 1.9759C8.56518 1.62682 9.61505 1.37985 10.7129 1.34494C10.9372 1.33796 11.1728 1.35454 11.3945 1.27861C11.5908 1.18 11.7741 1.29869 11.9644 1.3109C12.0883 1.35017 12.2218 1.34756 12.3466 1.38683C13.3382 1.60322 14.2899 1.97335 15.1672 2.48382C15.2545 2.53793 15.3854 2.55974 15.3906 2.70287C15.1742 2.78141 14.9586 2.86083 14.7422 2.9385C14.4629 3.03799 14.2037 2.89312 13.9341 2.86955C13.2717 2.81021 12.6119 2.68803 11.9425 2.78839C11.7654 2.81545 11.576 2.74999 11.3997 2.83639Z" fill="#A9B6BD"/>
<path id="Vector_81" d="M4.17131 18.3272C4.24374 18.4075 4.31443 18.4896 4.39123 18.5664C4.42788 18.6039 4.46628 18.6728 4.53086 18.596C4.667 18.8849 4.80227 19.1738 4.94103 19.4609C4.95613 19.4823 4.96423 19.5079 4.96423 19.5342C4.96423 19.5604 4.95613 19.586 4.94103 19.6075C4.81536 19.762 4.74031 19.9566 4.57362 20.0779C4.05743 19.5435 3.57395 18.9784 3.12581 18.3857C2.83956 17.9939 2.60218 17.5724 2.35259 17.1587C2.32204 17.1072 2.30284 17.0487 2.24088 17.0252C2.04103 16.8681 1.98605 16.6359 1.9206 16.409C1.9206 16.2135 1.79057 16.06 1.74606 15.8793C1.73035 15.8095 1.67537 15.7222 1.75653 15.6742C1.85253 15.6184 1.90489 15.7126 1.94853 15.7781C2.16776 16.1091 2.44757 16.3957 2.77323 16.6228C2.94428 16.7464 3.09128 16.9002 3.20697 17.0767C3.43455 17.4182 3.68165 17.7463 3.94702 18.0593C4.00986 18.1606 4.10934 18.226 4.17131 18.3272Z" fill="#414E50"/>
<path id="Vector_82" d="M1.97103 16.3969C2.01554 16.6255 2.14557 16.8184 2.2407 17.0252C2.24768 17.1178 2.32099 17.1998 2.25728 17.3211C2.07708 17.2236 1.92638 17.0796 1.82093 16.9039C1.73366 16.7695 1.65773 16.6255 1.51984 16.5313C1.07738 15.6324 0.811207 14.6759 0.625321 13.6959C0.473658 12.9299 0.413021 12.1486 0.444671 11.3684C0.689901 11.3108 0.840879 11.1223 1.01018 10.9599C1.0896 10.8832 1.17425 10.8116 1.25629 10.7383C1.32295 10.8149 1.36945 10.907 1.39156 11.0062C1.17774 11.076 1.10705 11.289 1.0032 11.4469C0.829447 11.7147 0.701723 12.0097 0.625321 12.3196C0.575576 12.5142 0.657611 12.6879 0.678556 12.8677C0.726555 13.2665 0.757972 13.6784 0.986621 14.0537C1.04596 13.9603 1.07389 13.8695 1.16116 13.8364C1.26327 14.1148 1.2973 14.4115 1.3837 14.6943C1.54573 15.2729 1.74185 15.8414 1.97103 16.3969Z" fill="#3B3E3F"/>
<path id="Vector_83" d="M19.2554 5.62267C18.6977 5.06065 18.0519 4.60684 17.4148 4.13907C17.5239 4.0518 17.6287 4.13209 17.7325 4.15042C17.8861 4.17747 18.0318 4.23769 18.2125 4.2787C17.9479 3.98766 17.6586 3.72018 17.3476 3.4793C17.2429 3.39814 17.1199 3.33531 17.0474 3.21749C17.0396 3.19693 17.0369 3.17476 17.0396 3.15291C17.0832 3.07524 17.1268 2.99757 17.2368 3.0159C17.925 3.55939 18.5293 4.20132 19.0302 4.92101C19.0887 5.00828 19.1515 5.08857 19.2126 5.17235C19.2833 5.31722 19.3653 5.46122 19.2554 5.62267Z" fill="#255D7E"/>
<path id="Vector_84" d="M16.4726 2.43317C16.5049 2.38081 16.5599 2.39128 16.607 2.38605C17.0992 2.31449 17.5897 2.22896 18.0906 2.25689L17.2388 2.97512C17.2205 2.98821 17.1952 3.0048 17.1778 2.9952C16.9267 2.85611 16.6924 2.68862 16.4796 2.49601C16.4586 2.48204 16.4639 2.45499 16.4726 2.43317Z" fill="#3D8AB9"/>
<path id="Vector_85" d="M16.4754 2.43322C16.7137 2.63652 16.9698 2.81791 17.2407 2.97517V3.01706L17.0662 3.15408C16.999 3.2047 16.937 3.17066 16.8812 3.13575C16.6194 2.96906 16.3575 2.7954 16.0957 2.6322C16.053 2.60602 16.0085 2.5746 16.0312 2.50915C16.0782 2.46383 16.1368 2.43242 16.2006 2.4184C16.2644 2.40438 16.3308 2.4083 16.3925 2.42973L16.4754 2.43322Z" fill="#1C7BAE"/>
<path id="Vector_86" d="M11.981 1.35666L11.3981 1.27811C10.2146 1.14493 9.01702 1.21578 7.85749 1.48756C7.82865 1.49259 7.79949 1.4955 7.77022 1.49629C7.63757 1.4256 7.78419 1.43869 7.79379 1.4352C8.30561 1.26053 8.83103 1.12859 9.36465 1.04074C10.0986 0.90285 10.8395 0.89936 11.5822 0.906341C11.8021 0.966558 12.0386 0.91245 12.2559 0.993612C12.2891 1.15681 12.4374 1.16379 12.5526 1.21964C12.6678 1.2755 12.7822 1.3296 12.5902 1.43782C12.5327 1.44651 12.474 1.43864 12.4209 1.41513C12.2769 1.368 12.1259 1.39767 11.981 1.35666Z" fill="#4CA2CE"/>
<path id="Vector_87" d="M12.612 1.40113C12.681 1.29292 12.5998 1.27895 12.5247 1.26761C12.4236 1.24668 12.3282 1.20378 12.2455 1.14194C12.1757 1.09481 12.1582 1.04071 12.2525 0.99707C12.7703 1.02698 13.2827 1.11869 13.7788 1.27023C14.6641 1.49971 15.5099 1.86098 16.2878 2.34191C16.3226 2.36818 16.355 2.39738 16.3847 2.42918L16.0243 2.52518C16.0101 2.53679 15.9934 2.54496 15.9756 2.54905C15.9577 2.55314 15.9391 2.55303 15.9213 2.54874C15.2533 2.20303 14.5515 1.92725 13.8268 1.72578C13.4777 1.63065 13.1156 1.5652 12.7586 1.49015C12.701 1.4788 12.6138 1.50673 12.612 1.40113Z" fill="#4B94C4"/>
<path id="Vector_88" d="M20.739 8.13605C20.6692 8.1858 20.6988 8.29838 20.5941 8.34463L20.3323 7.50771C20.245 7.15862 20.0766 6.83659 19.9736 6.48926C20.3 6.85002 20.5773 7.25233 20.7983 7.68574C20.8777 7.83759 20.7041 7.97722 20.739 8.13605Z" fill="#316F8B"/>
<path id="Vector_89" d="M5.87682 10.4906C5.91261 9.72781 6.20583 9.10819 6.93018 8.78354C7.58209 8.49032 8.21917 8.56886 8.78031 9.02354C9.51164 9.61611 9.67396 10.7445 9.16954 11.5439C9.08227 11.6844 9.02904 11.6678 8.92518 11.5649C8.74017 11.3807 8.53334 11.2158 8.3492 11.0334C8.24796 10.9321 8.1956 10.9461 8.10746 11.0473C7.86485 11.3196 7.85961 11.3153 8.138 11.5535C8.28025 11.6748 8.41378 11.8083 8.5665 11.9148C8.74104 12.0361 8.6625 12.0894 8.53159 12.167C7.49657 12.7579 6.17005 12.1339 5.9257 10.9374C5.88837 10.7915 5.87191 10.6411 5.87682 10.4906Z" fill="#FEFEFE"/>
<path id="Vector_90" d="M1.97236 16.3971C1.6896 15.9425 1.54473 15.431 1.39288 14.9249C1.28728 14.5706 1.1494 14.2189 1.16249 13.8375L1.24976 13.793C1.32223 13.7926 1.3931 13.8143 1.45285 13.8554C1.5126 13.8964 1.55836 13.9547 1.584 14.0225C1.68437 14.3157 1.87025 14.5636 2.02036 14.8245C2.53525 15.6972 2.91924 16.6415 3.52665 17.461C3.67064 17.6556 3.86788 17.817 3.9438 18.0596C3.59472 17.7978 3.40272 17.4103 3.14178 17.0787C3.03364 16.9263 2.90265 16.7915 2.75343 16.679C2.39559 16.4347 2.09294 16.1181 1.86502 15.7496C1.85261 15.7311 1.83621 15.7156 1.81702 15.7042C1.80654 15.6981 1.78996 15.7042 1.76902 15.7042C1.76465 15.9555 1.9837 16.144 1.97236 16.3971Z" fill="#3C4647"/>
<path id="Vector_91" d="M1.57266 11.3169L1.96974 11.9068C2.19926 12.31 2.52216 12.6451 2.78048 13.0274C2.52827 13.1539 2.27257 13.2752 2.02297 13.4088C1.86414 13.496 1.77687 13.5021 1.73323 13.284C1.61196 12.6974 1.54217 12.1015 1.52466 11.5028C1.52291 11.4391 1.50808 11.3684 1.57266 11.3169Z" fill="#2A2A2A"/>
<path id="Vector_92" d="M16.2419 9.97719C16.2419 9.73021 16.2419 9.48323 16.2419 9.23713C16.2419 9.14986 16.2419 9.0783 16.3685 9.08441C16.7629 9.10273 17.16 9.05648 17.5545 9.11408C18.0781 9.19088 18.3783 9.50331 18.3827 9.97719C18.3871 10.4135 18.0729 10.7836 17.5911 10.8656C17.1766 10.9354 16.756 10.8839 16.3379 10.897C16.2297 10.897 16.2437 10.8281 16.2437 10.7618C16.2425 10.4999 16.2419 10.2384 16.2419 9.97719Z" fill="#FEFEFE"/>
<path id="Vector_93" d="M4.17375 18.3273C4.07862 18.2548 3.97041 18.192 3.94946 18.0576C4.04459 18.1301 4.15281 18.1929 4.17375 18.3273Z" fill="#3C4647"/>
<path id="Vector_94" d="M12.6149 1.40136C12.909 1.46157 13.2066 1.51219 13.4981 1.58375C14.3507 1.7932 15.1824 2.06025 15.9373 2.52278C15.9286 2.64496 15.8204 2.63449 15.7444 2.66242C15.6685 2.69034 15.5699 2.71041 15.4914 2.74358L15.3971 2.70256C14.7626 2.26621 14.061 1.96338 13.3331 1.72077C13.0102 1.61342 12.6777 1.53314 12.3496 1.44063C12.3496 1.36383 12.3871 1.37256 12.4369 1.40048L12.6149 1.40136Z" fill="#3B7B9F"/>
<path id="Vector_95" d="M17.0595 3.20117C17.5393 3.53979 17.9785 3.93247 18.3686 4.37147L17.4165 4.14631L17.1433 4.05904C17.132 4.05463 17.1203 4.05113 17.1084 4.04857C16.9251 3.91941 16.7148 3.82079 16.6057 3.60611V3.55985C16.6485 3.4691 16.7118 3.38949 16.7905 3.32727C16.8693 3.26504 16.9613 3.22188 17.0595 3.20117Z" fill="#1B4B65"/>
<path id="Vector_96" d="M17.0595 3.20051L16.6091 3.56094C16.2518 3.26935 15.8786 2.99781 15.4912 2.74758C15.52 2.62278 15.6343 2.64634 15.7181 2.61754C15.7973 2.60723 15.8726 2.57722 15.9372 2.53027H16.0244C16.3735 2.72925 16.6833 2.99804 17.0577 3.15862C17.0595 3.16822 17.0595 3.18218 17.0595 3.20051Z" fill="#1D678D"/>
<path id="Vector_97" d="M16.6042 3.60303C16.7717 3.75051 16.9681 3.86484 17.1068 4.04549C16.8974 4.00273 16.6888 3.95822 16.4794 3.9172C16.4499 3.9162 16.4213 3.90713 16.3967 3.89097C16.3721 3.8748 16.3524 3.85218 16.3397 3.82557C16.3983 3.79416 16.447 3.74701 16.4802 3.68942L16.6042 3.60303Z" fill="#717D83"/>
<path id="Vector_98" d="M10.3014 14.4476C10.3014 14.0112 10.3014 14.0112 10.7439 14.0112C10.8334 14.0062 10.9233 14.0109 11.0118 14.0252C11.209 14.0715 11.3452 14.1814 11.3609 14.4031C11.3757 14.5005 11.3553 14.6 11.3033 14.6836C11.2513 14.7673 11.1711 14.8297 11.0772 14.8595C10.8547 14.9468 10.6182 14.8988 10.3878 14.9075C10.3005 14.9075 10.3005 14.8473 10.3005 14.7853L10.3014 14.4476Z" fill="#FEFEFE"/>
<path id="Vector_99" d="M8.508 14.0435L8.97228 15.0855H8.04285L8.508 14.0435Z" fill="#FDFDFD"/>
<path id="Vector_100" d="M15.9258 14.042C16.0925 14.4155 16.2382 14.7402 16.391 15.0892H15.4624C15.6169 14.7384 15.7617 14.4103 15.9258 14.042Z" fill="#FDFDFD"/>
<path id="Vector_101" d="M12.4347 1.40005L12.3475 1.44019C12.2279 1.40354 12.0944 1.42448 11.9818 1.35292C12.1337 1.37474 12.2916 1.31016 12.4347 1.40005Z" fill="#4B94C4"/>
</g>
</g>
<defs>
<clipPath id="clip0_964_20528">
<rect width="24" height="24" fill="white"/>
</clipPath>
</defs>
</svg>
