<svg width="64" height="40" viewBox="0 0 64 40" fill="none" xmlns="http://www.w3.org/2000/svg">

<g id="size=Coloured">
<g id="Logo_2">
<path id="Vector" d="M53.51 16.3296C53.5608 16.3328 54.1036 16.5787 54.202 16.6197L54.8877 16.9192C54.9607 16.9571 55.0305 16.9855 55.1162 17.0201L55.8114 17.326C55.9669 17.3954 56.1161 17.4647 56.278 17.5309C56.4367 17.5971 56.5764 17.6665 56.7351 17.7296L57.6589 18.1363C57.7446 18.1742 57.716 18.1805 57.8779 18.0827C58.281 17.8399 58.3858 17.8242 58.7984 17.5026L59.0587 17.2629C59.0778 17.244 59.0778 17.244 59.0937 17.2219C59.5666 16.6607 59.7253 16.235 59.7253 15.4247C59.7253 15.0053 59.5698 14.6207 59.4174 14.3464C59.3317 14.1919 59.2302 14.072 59.1191 13.9428C58.9476 13.741 58.7826 13.6054 58.5604 13.4572C58.4175 13.3626 58.4429 13.3248 58.1128 13.5455L53.9322 16.049C53.856 16.0931 53.7894 16.1341 53.7163 16.1783C53.6116 16.2382 53.5291 16.2634 53.51 16.3296ZM51.7419 22.9573C51.7261 22.9447 51.7419 22.9542 51.7165 22.9353C51.6118 22.8533 51.5832 22.8722 51.4372 22.7303C51.434 22.7272 51.4308 22.724 51.4308 22.724C51.4277 22.7209 51.4245 22.7177 51.4245 22.7146C51.4054 22.6925 51.3927 22.6799 51.3737 22.6546C51.3388 22.6074 51.3134 22.5601 51.2975 22.497C51.2055 22.1375 51.9578 21.797 52.2498 21.6268C52.3609 21.5605 52.7831 21.3367 52.8244 21.2799L51.5038 20.7092C51.4086 20.6651 51.3229 20.6367 51.234 20.5894C51.1451 20.5453 51.0626 20.52 50.9737 20.4759L49.6469 19.8957C49.3929 19.7728 48.9676 19.612 48.7231 19.4921C48.7009 19.4827 48.6819 19.4701 48.6565 19.4606C48.6057 19.4417 48.5993 19.448 48.5866 19.4606C48.5136 19.5867 48.3454 19.6971 48.2533 20.0534C48.1899 20.3056 48.1867 20.6209 48.2597 20.8669C48.3867 21.3146 48.7866 21.6236 49.1675 21.8159C49.685 22.0745 50.5166 22.4371 51.0848 22.6767C51.2785 22.7555 51.5483 22.9006 51.7419 22.9573Z" fill="#A4D09F"/>
<path id="Vector_2" d="M48.5343 12.754C48.4994 12.8486 48.4264 12.9495 48.3788 13.063C48.22 13.4351 48.2105 13.886 48.3629 14.2486C48.5343 14.6522 48.9565 14.9391 49.3755 15.1377C49.8009 15.3395 50.258 15.5382 50.696 15.7242C50.9182 15.8188 51.1309 15.9197 51.3595 16.0143C51.5118 16.0774 51.8959 16.2728 52.0292 16.2981C51.9594 16.2066 51.315 16.0017 51.4515 15.5697C51.5404 15.2859 51.9118 15.1062 52.1848 14.9423L54.3655 13.5959C55.4448 12.7414 55.74 11.3036 54.9274 10.1559C54.9052 10.1244 54.8798 10.0929 54.8544 10.0582L54.6639 9.84377C54.6607 9.84062 54.6576 9.83746 54.6544 9.83746L54.5242 9.71765C54.4925 9.68612 54.4639 9.67035 54.429 9.64197L54.1338 9.43702C54.0418 9.38027 54.0703 9.40234 53.9243 9.49063L53.6005 9.68296C53.3751 9.80278 52.8165 10.1622 52.5498 10.3199L48.5343 12.754ZM46.1409 27.9171C46.1409 28.2797 46.271 28.677 46.398 28.9229C46.9948 30.1021 48.3724 30.7296 49.5691 30.2503C49.6199 30.2314 49.658 30.2125 49.7152 30.1936C49.8707 30.14 50.1088 30.0044 50.258 29.9224L52.8673 28.286C52.9149 28.2576 52.9498 28.2261 52.9974 28.2135L52.7339 28.0716C52.6514 28.0369 52.5689 27.9959 52.4736 27.9549C51.8229 27.6869 51.042 27.2959 50.3976 27.0342C50.3119 26.9995 50.2262 26.9585 50.1405 26.9176L49.3628 26.5707C49.2866 26.5392 48.874 26.3469 48.8359 26.3469C48.7914 26.3469 47.3662 27.1982 47.1567 27.3243L46.3218 27.8193C46.271 27.8477 46.1917 27.9013 46.1409 27.9171ZM57.9493 24.9627C57.9874 24.9028 58.0223 24.887 58.0668 24.8397C58.3684 24.5023 58.4604 24.0546 58.3303 23.6132C58.0827 22.7713 56.9336 22.4371 56.1432 22.0839C55.9273 21.9893 55.7114 21.8947 55.4892 21.8001C55.4416 21.7781 54.902 21.5195 54.8544 21.5448C55.0353 21.6362 55.2416 21.8001 55.2099 22.0366C55.1845 22.2321 54.9464 22.4276 54.8068 22.5096L53.7624 23.1055C53.7148 23.1307 53.7275 23.1055 53.7116 23.1623L54.7655 23.6226C54.9464 23.7077 55.1178 23.7708 55.2988 23.8559L57.8827 24.9942C57.962 25.0005 57.9398 24.991 57.9493 24.9627Z" fill="#77ADD2"/>
<g id="Group">
<path id="Vector_3" d="M54.8559 21.5417C54.9035 21.5165 55.4431 21.7782 55.4907 21.7971C55.7098 21.8917 55.9288 21.9863 56.1446 22.0809C56.9351 22.434 58.081 22.7683 58.3318 23.6101C58.4619 24.0516 58.3699 24.4993 58.0683 24.8367C58.0238 24.8871 57.9858 24.8997 57.9508 24.9596C58.0207 24.9439 58.2524 24.7925 58.3222 24.7452C58.8873 24.3669 59.3031 24.0768 59.6459 23.4462C60.1253 22.5602 60.1221 21.2548 59.611 20.3972C59.5697 20.3278 59.5475 20.29 59.5031 20.2238C59.3221 19.9557 59.0841 19.7067 58.9063 19.5585C58.8936 19.549 58.8904 19.5458 58.8809 19.5364C58.8492 19.508 58.8301 19.4954 58.7952 19.467C58.2016 18.9909 57.7667 18.8333 57.1096 18.5274C57.0366 18.4927 56.9731 18.4738 56.9001 18.4391L56.0875 18.0828C55.7161 17.9094 55.2304 17.7202 54.8717 17.55C54.5257 17.386 54.0242 17.1811 53.656 17.0171L52.4402 16.4842C52.3609 16.4496 52.3101 16.4243 52.2339 16.3928C52.2021 16.3802 52.1704 16.3676 52.1386 16.3487C52.1006 16.3266 52.0879 16.3077 52.0275 16.3014C51.8942 16.2761 51.5101 16.0838 51.3578 16.0176C51.1324 15.9198 50.9165 15.8221 50.6943 15.7275C50.2563 15.5415 49.7992 15.3428 49.3738 15.141C48.9516 14.9392 48.5294 14.6523 48.3612 14.2519C48.2088 13.8893 48.2184 13.4415 48.3771 13.0663C48.4279 12.9497 48.4977 12.8488 48.5326 12.7573C48.358 12.8803 48.2088 12.9591 48.0152 13.1136C47.8946 13.2082 47.6375 13.4289 47.5486 13.5393C47.4597 13.6528 47.3994 13.6969 47.2756 13.8577C47.0883 14.1068 46.9772 14.3307 46.8629 14.6145C46.774 14.832 46.6534 15.2987 46.6534 15.5888C46.6534 15.6991 46.6375 15.7401 46.6375 15.8536C46.6375 16.4905 46.8185 17.1684 47.2121 17.6477L47.4089 17.8873C47.4819 17.9725 47.5708 18.0418 47.6438 18.1049C47.8819 18.313 48.0501 18.4391 48.3295 18.6062C48.5612 18.745 48.8405 18.8995 49.0945 19.0098L51.161 19.9116C51.2308 19.94 51.3006 19.9747 51.3641 20.003L52.3862 20.4476C52.5259 20.5107 52.6592 20.5674 52.8021 20.6273C52.8687 20.6526 52.9354 20.6873 53.0084 20.7188L53.6274 20.9899C53.8337 21.0719 54.7543 21.4692 54.8559 21.5417ZM7.3013 14.6965C7.3013 14.9487 7.35844 15.182 7.46319 15.3901C8.10758 16.6608 10.6661 16.2005 11.247 17.1968C11.4025 17.4617 11.3517 17.8527 11.2089 18.1112C10.9899 18.5116 10.3899 18.6756 9.8979 18.6756C9.43762 18.6756 9.10114 18.6472 8.70118 18.436C8.5996 18.3824 8.54246 18.3351 8.45993 18.272C8.17424 18.0545 8.01552 17.6824 7.99013 17.3229C7.97743 17.1148 8.12662 17.1684 7.15845 17.1684C7.13306 17.1684 7.11084 17.1779 7.11084 17.2C7.11084 17.7328 7.25368 18.209 7.55207 18.581C7.63778 18.6882 7.75523 18.8143 7.86315 18.8932C8.17424 19.1265 8.52659 19.2936 8.91386 19.3724C9.50428 19.4922 10.136 19.5049 10.7232 19.3377C11.1295 19.2211 11.3359 19.1044 11.6406 18.8806C11.739 18.808 11.8438 18.6914 11.9168 18.5968C11.9549 18.5463 11.9961 18.4896 12.031 18.4297C12.2913 17.9599 12.3453 17.3387 12.1168 16.8405C12.0215 16.6293 11.9041 16.4968 11.739 16.3423C11.1994 15.8473 10.1391 15.7117 9.48523 15.5478C8.97734 15.4185 8.22185 15.264 8.22185 14.6271C8.22185 13.4005 10.1169 13.3974 10.6915 13.946C10.8121 14.0627 10.901 14.1447 10.9835 14.3275C11.0407 14.46 11.12 14.6965 11.12 14.8762H11.9993C11.9993 14.7122 11.9771 14.542 11.9453 14.4001C11.8755 14.0879 11.7993 13.9082 11.6247 13.6591C11.539 13.5361 11.4724 13.4731 11.3676 13.369C11.2851 13.287 11.1581 13.2082 11.0565 13.1483C10.4439 12.7825 9.56459 12.7542 8.87259 12.9055C8.72975 12.937 8.42501 13.0443 8.29804 13.1136C8.19328 13.1704 8.07266 13.2366 7.9806 13.3091C7.54572 13.6623 7.3013 14.1415 7.3013 14.6965ZM4 24.947C4 25.4326 4.05714 25.9182 4.18729 26.3028C4.25395 26.4983 4.30791 26.6434 4.39362 26.8136C4.55868 27.1416 4.76184 27.3938 5.02213 27.6334C5.13323 27.7343 5.22212 27.7879 5.33639 27.8636C6.24742 28.4595 7.85363 28.4564 8.7234 27.7564L8.91386 27.5861C8.93925 27.5641 8.93925 27.5672 8.96465 27.542C9.40588 27.0785 9.64395 26.4637 9.71379 25.8299C9.72013 25.7637 9.74553 25.7069 9.68204 25.7069H8.80593C8.79958 26.0159 8.67896 26.4384 8.51389 26.7096L8.24725 27.0501C8.24407 27.0533 8.2409 27.0564 8.23772 27.0564C8.14567 27.1447 8.08853 27.1952 7.97426 27.2614C7.29495 27.6681 6.26329 27.5735 5.68239 27.047L5.61256 26.9776C5.2856 26.6213 5.21577 26.4573 5.06022 26.0033C4.85707 25.4137 4.87929 24.4709 5.0761 23.8845C5.36813 23.0174 5.96173 22.4404 7.03466 22.4404C7.27273 22.4404 7.51715 22.4813 7.69809 22.5444C7.90759 22.6169 8.10758 22.7241 8.2536 22.8629L8.30121 22.9102C8.50437 23.093 8.65356 23.38 8.71705 23.648C8.72975 23.7047 8.73292 23.7772 8.79006 23.7772C9.80584 23.7772 9.68522 23.8403 9.63125 23.5786C9.61538 23.5029 9.59634 23.4115 9.57412 23.339C9.49158 23.0741 9.3043 22.6958 9.11384 22.5066L9.05988 22.4498C9.0567 22.4467 9.05353 22.4435 9.05353 22.4404L9.01226 22.3899C8.99321 22.3678 8.99639 22.371 8.97099 22.3521C8.83132 22.2449 8.76149 22.1503 8.54881 22.0399C7.93934 21.7215 7.58064 21.6615 6.87911 21.6615C6.26329 21.6615 5.62843 21.898 5.17133 22.2512C4.90468 22.4593 4.71422 22.6768 4.53964 22.9606C4.3587 23.257 4.35235 23.3011 4.2222 23.6259C4.08571 23.9727 4 24.5624 4 24.947ZM26.1028 17.0612C26.1028 16.5694 26.2425 16.027 26.4901 15.7496C26.7409 15.469 27.0329 15.3491 27.4487 15.3491C27.9058 15.3491 28.2582 15.532 28.4614 15.7906C28.6867 16.0775 28.8264 16.5284 28.8264 16.8878C28.8264 17.2883 28.8137 17.6288 28.6296 17.9977C28.5153 18.2247 28.3534 18.4171 28.128 18.5432C27.7598 18.7481 27.1853 18.7513 26.8266 18.5337C26.3092 18.2247 26.1028 17.6477 26.1028 17.0612ZM28.8105 14.5735C28.8105 14.6271 28.7947 14.6208 28.8042 14.7091L28.8105 15.2577C28.7439 15.2136 28.6391 15.0086 28.2614 14.8226C27.6805 14.5325 26.9282 14.5577 26.3568 14.8446C26.0457 14.9991 25.8013 15.2325 25.6235 15.5162C25.4267 15.8347 25.3029 16.1658 25.2585 16.5504L25.2235 17.077C25.2267 17.1432 25.2362 17.1338 25.2394 17.2C25.2426 17.2441 25.2362 17.2946 25.2394 17.3387C25.2553 17.5468 25.3315 17.84 25.3918 18.0261C25.468 18.2499 25.633 18.5652 25.7886 18.7513C26.3758 19.445 27.4519 19.6184 28.2423 19.2684C28.4391 19.1801 28.5439 19.0918 28.6836 18.9468C28.728 18.9026 28.7629 18.8333 28.8042 18.8017L28.801 19.1107C28.801 19.1139 28.7978 19.1454 28.7978 19.1486L28.8042 19.3314H29.6327V13.0348C29.6327 13.0001 29.6232 12.9875 29.5851 12.9875H28.801L28.8105 14.5735ZM40.473 18.6945C40.0318 18.6945 39.8572 18.6693 39.5175 18.4139C39.4445 18.3603 39.4064 18.3099 39.3493 18.2405C39.2414 18.1112 39.1715 17.9725 39.1017 17.8022C38.8763 17.2473 38.9747 16.2225 39.3271 15.8C39.4445 15.6613 39.5366 15.5667 39.7112 15.4816C40.2191 15.2293 40.9396 15.3365 41.3142 15.7779C41.5301 16.0302 41.6951 16.5063 41.6951 16.8468C41.6951 17.2189 41.711 17.4144 41.5872 17.7833C41.4761 18.1081 41.3047 18.3729 41.0063 18.5432C40.8825 18.6062 40.6603 18.6945 40.473 18.6945ZM41.6761 15.2577C41.6412 15.2356 41.5269 15.0874 41.4348 15.0149C41.1523 14.7974 40.7206 14.6208 40.3302 14.6208C39.8731 14.6208 39.6191 14.646 39.2223 14.8446C38.5684 15.1694 38.2224 15.8473 38.1272 16.5536C37.9399 17.9567 38.6033 19.4418 40.2667 19.4418C40.6825 19.4418 41.1491 19.3188 41.4285 19.0729L41.6761 18.8049V19.3346H42.5046V12.9875H41.6761V15.2577ZM40.473 27.5105C40.1714 27.5105 39.9842 27.5136 39.7143 27.3623C39.4191 27.1983 39.2191 26.9398 39.1049 26.615C38.9652 26.2114 38.9842 26.0821 38.9842 25.6754C38.9842 25.1457 39.235 24.5308 39.708 24.2975C40.2159 24.0453 40.9365 24.1525 41.311 24.5939C41.5269 24.8461 41.6919 25.3222 41.6919 25.6628C41.6919 26.038 41.7078 26.2272 41.584 26.5992C41.4761 26.9208 41.2952 27.192 41.0031 27.3591C40.8825 27.4253 40.6571 27.5105 40.473 27.5105ZM41.6761 24.0736C41.6507 24.0547 41.5174 23.8971 41.4348 23.8309C41.2253 23.6669 41.038 23.5818 40.7746 23.5061C40.1143 23.3201 39.4033 23.4746 38.8763 23.8876C38.5589 24.1367 38.3526 24.5245 38.2224 24.9187C38.1494 25.1331 38.0732 25.6375 38.105 25.8961C38.1272 26.0821 38.0923 26.0538 38.1494 26.4132C38.1716 26.5582 38.2192 26.7348 38.2668 26.8578C38.4033 27.2141 38.5557 27.4663 38.8097 27.7186C38.8604 27.769 38.9017 27.8037 38.962 27.8478L39.2191 28.0118C39.381 28.1001 39.5366 28.16 39.7334 28.201C40.273 28.3082 40.7841 28.2704 41.2666 28.0055C41.3745 27.9456 41.5491 27.7942 41.6158 27.6996C41.6412 27.6618 41.6412 27.6492 41.6792 27.6208V28.1505H42.5077V21.8034H41.6792V24.0736H41.6761ZM32.2864 18.6945H32.0674C31.7023 18.6945 31.3309 18.4896 31.3309 18.1333C31.3309 17.8747 31.3722 17.6635 31.6103 17.509C32.0864 17.1937 32.8546 17.2883 33.3784 17.0896C33.4323 17.0675 33.4736 17.0423 33.5244 17.0329C33.5244 17.5752 33.6101 17.8653 33.3054 18.2626C33.1054 18.518 32.6451 18.6945 32.2864 18.6945ZM30.6262 16.2068H31.4547C31.4547 15.1442 32.8483 15.2924 33.207 15.4753C33.4927 15.6203 33.5181 15.8599 33.5181 16.1279C33.5181 16.2919 33.3657 16.4086 33.2451 16.4653C32.7848 16.6734 31.5563 16.5788 30.8389 17.1527C30.6135 17.3324 30.4485 17.7108 30.4485 17.9945C30.4485 18.3792 30.4675 18.6535 30.7278 18.9625L30.7881 19.0256C31.1087 19.3188 31.4611 19.4386 32.0134 19.4386C32.3689 19.4386 32.6737 19.363 32.9213 19.2526C33.0546 19.1927 33.153 19.1296 33.2673 19.0508C33.2927 19.0319 33.3149 19.0224 33.3403 19.0004L33.5625 18.8017C33.5815 18.8837 33.5879 18.9783 33.6196 19.0571C33.6514 19.1328 33.6926 19.2022 33.7466 19.2589C33.9466 19.467 34.3085 19.4765 34.5719 19.4008C34.6227 19.385 34.6608 19.3787 34.7021 19.3598C34.7497 19.3377 34.7687 19.3157 34.8164 19.3031V18.6504C34.683 18.663 34.3719 18.8301 34.3466 18.4959V17.4081C34.3466 16.9257 34.3466 16.4432 34.3466 15.9608C34.3497 15.223 34.0164 14.8856 33.4133 14.7122C32.8673 14.5546 31.8928 14.5924 31.3976 14.8667C31.3214 14.9077 31.204 14.9802 31.1405 15.0307C30.8008 15.3208 30.6262 15.7243 30.6262 16.2068ZM16.8814 27.5105C16.6179 27.5105 16.3862 27.5168 16.1608 27.356C15.8466 27.1321 15.8688 26.5772 16.2053 26.3249C16.2529 26.2902 16.4021 26.2209 16.4688 26.1988C16.5703 26.1641 16.6814 26.1389 16.7925 26.1168C17.1861 26.038 17.5829 26.0443 17.9861 25.9024C18.0464 25.8803 18.0813 25.8583 18.1321 25.8457C18.1321 26.1767 18.1829 26.5677 18.0559 26.842C17.9893 26.9902 17.8496 27.1573 17.7258 27.2456C17.6528 27.2992 17.5766 27.337 17.4845 27.3812C17.3417 27.4506 17.0909 27.5105 16.8814 27.5105ZM15.2403 25.0227H16.0688C16.0688 23.9412 17.4909 24.1146 17.8337 24.2975C18.1035 24.4394 18.1353 24.6664 18.1353 24.9313C18.1353 25.1047 17.9924 25.2277 17.8591 25.2813C17.5734 25.3948 17.1354 25.4294 16.8084 25.4831C16.3323 25.5619 15.7863 25.6785 15.4371 25.9875C15.1387 26.2492 15.0657 26.5898 15.0657 26.9871C15.0657 27.4411 15.2593 27.7343 15.5133 27.9393C15.9132 28.2609 16.6148 28.3176 17.11 28.2073C17.3639 28.1505 17.4972 28.0969 17.7004 27.9866C17.7702 27.9487 17.8147 27.9235 17.875 27.8794L18.1797 27.624C18.2337 28.283 18.8336 28.3586 19.3034 28.1821C19.3542 28.1631 19.3828 28.1348 19.4304 28.1222V27.4695C19.3034 27.4789 19.3955 27.5168 19.1161 27.5168C18.913 27.5168 18.9606 27.1353 18.9606 26.9555V24.7642C18.9606 24.5182 18.9289 24.329 18.8495 24.1588C18.5416 23.484 17.7163 23.443 17.0655 23.443C16.564 23.443 16.0402 23.6196 15.7641 23.8435C15.4561 24.0926 15.2403 24.4646 15.2403 25.0227ZM17.3195 18.6788C17.0592 18.6788 16.8592 18.6725 16.6497 18.5369C16.3132 18.3193 16.3386 17.7455 16.6814 17.5027C17.1163 17.1937 17.9988 17.2567 18.4591 17.0739C18.5098 17.0518 18.5575 17.0266 18.6051 17.0171C18.6051 17.2599 18.6114 17.509 18.6051 17.7486C18.6019 17.9441 18.4781 18.1427 18.3797 18.2563C18.1702 18.5022 17.7797 18.6788 17.3195 18.6788ZM15.7101 16.191H16.5386C16.5418 16.068 16.5799 15.8978 16.6211 15.8063C16.7259 15.5825 16.8973 15.4563 17.1449 15.3933C17.6591 15.264 18.6209 15.2608 18.6209 16.0491C18.6209 16.2478 18.5162 16.3613 18.3765 16.4275C18.1004 16.5631 17.5893 16.5883 17.3099 16.645C16.6656 16.7743 15.9482 16.8626 15.6466 17.5279C15.4022 18.0671 15.5387 18.9121 16.1831 19.2337C16.7195 19.5017 17.4972 19.4796 18.021 19.2337C18.2019 19.1486 18.3733 19.0445 18.5225 18.9089C18.5733 18.8616 18.6114 18.8112 18.6686 18.7734C18.6686 19.1517 18.9162 19.426 19.2939 19.426C19.5669 19.426 19.6875 19.4008 19.9034 19.2873V18.6346C19.7923 18.6441 19.8589 18.6819 19.5891 18.6819C19.3891 18.6819 19.4336 18.2909 19.4336 18.1081V15.9009C19.4336 15.6739 19.3955 15.4374 19.3129 15.2892C18.9765 14.6681 18.2464 14.6113 17.602 14.6113C17.1258 14.6113 16.6402 14.7217 16.2592 15.0055C15.891 15.2703 15.7196 15.7401 15.7101 16.191ZM27.7789 24.1682C28.1185 24.1682 28.4423 24.2943 28.6677 24.5151C28.8708 24.7137 29.055 25.0732 29.0613 25.3664H26.525C26.5663 25.2813 26.5822 24.5813 27.2615 24.2786C27.4043 24.2155 27.5725 24.1682 27.7789 24.1682ZM25.6489 25.8015C25.6489 25.9844 25.6743 26.1641 25.6965 26.3281C25.741 26.6497 25.8933 27.1195 26.0901 27.3843C26.179 27.5042 26.2393 27.5924 26.3504 27.7028C26.4933 27.8447 26.7028 27.974 26.8869 28.0559C26.9567 28.0875 27.0043 28.1095 27.09 28.1348C27.1631 28.1568 27.2424 28.1789 27.3249 28.1978C28.0233 28.3366 28.6677 28.2388 29.22 27.8226C29.5121 27.6019 29.7279 27.2109 29.8263 26.8546C29.8835 26.6497 29.9469 26.7033 29.0772 26.7033C29.0042 26.7033 29.0105 26.8452 28.9185 26.9965C28.7915 27.2015 28.655 27.3434 28.4169 27.4316C28.0677 27.5641 27.5948 27.5294 27.2583 27.3906C26.7567 27.1825 26.525 26.6497 26.525 26.1137H29.8898C29.9596 26.1137 29.9469 25.9466 29.9438 25.9056C29.9247 25.6218 29.9311 25.4452 29.8485 25.1268C29.7597 24.7736 29.6739 24.5876 29.4962 24.2943C29.4581 24.2313 29.4168 24.184 29.3692 24.1241C29.3406 24.0894 29.3375 24.0831 29.3057 24.0484C28.9565 23.6827 28.4963 23.4367 27.963 23.4367C27.5059 23.4367 27.2392 23.4588 26.8361 23.67C26.0584 24.0736 25.6489 24.9376 25.6489 25.8015ZM35.4163 24.1682C35.8067 24.1682 36.0385 24.2943 36.3051 24.5151C36.4987 24.6727 36.6956 25.0952 36.7019 25.3664H34.1656C34.2196 24.7137 34.7116 24.1682 35.4163 24.1682ZM33.2863 25.8015C33.2863 26.6938 33.6482 27.687 34.518 28.0622C34.6608 28.1222 34.7941 28.1663 34.9592 28.1978C35.5782 28.3208 36.2797 28.2514 36.7654 27.8888C37.0796 27.6555 37.2034 27.46 37.3622 27.1289C37.4003 27.0501 37.4098 27.0123 37.4383 26.9271C37.5304 26.6623 37.5018 26.7222 37.2161 26.7222C37.032 26.7222 36.8511 26.7222 36.667 26.7222C36.5908 27.0501 36.3591 27.3181 36.0385 27.4348C35.5338 27.6208 34.7973 27.5105 34.4481 27.0438L34.318 26.8452C34.2989 26.8073 34.2831 26.7695 34.2672 26.7254C34.1878 26.5236 34.1624 26.3659 34.1624 26.1137H37.5272C37.6034 26.1137 37.5748 25.9907 37.5748 25.7857C37.5748 25.3317 37.4383 24.8808 37.2511 24.5056C37.0543 24.1178 36.8289 23.8813 36.4638 23.67C35.6861 23.2223 34.4704 23.4083 33.8609 24.1651C33.48 24.6349 33.2863 25.1583 33.2863 25.8015ZM10.4947 28.1505H11.3232V25.4925C11.3232 25.1551 11.4628 24.7042 11.7295 24.4804C11.7327 24.4772 11.7358 24.4741 11.739 24.4741C12.4056 23.9191 13.5135 24.1367 13.5135 24.947V28.1505H14.3483V24.947C14.3483 24.5655 14.2372 24.1966 14.0023 23.9065C13.9833 23.8845 13.9833 23.8813 13.961 23.8529C13.8563 23.7363 13.6753 23.6227 13.5198 23.5597C12.8722 23.3043 11.8374 23.4052 11.3803 24.0326L11.3263 24.1052V21.8034H10.4978V28.1505H10.4947ZM21.408 15.3523V14.8383C21.408 14.7721 21.4239 14.7154 21.3604 14.7154H20.6557C20.6208 14.7154 20.6081 14.7248 20.6081 14.7627V19.2873C20.6081 19.322 20.6176 19.3346 20.6557 19.3346H21.408C21.4683 19.3346 21.4556 19.2841 21.4556 19.2274V16.7239C21.4556 16.3707 21.5318 16.0333 21.754 15.7748C22.2809 15.16 23.6491 15.1316 23.6491 16.2414V19.3346H24.4744V16.2541C24.4744 15.6361 24.2554 14.9771 23.6427 14.7469C23.0174 14.5104 22.1349 14.5766 21.6366 15.0685C21.5318 15.1726 21.5064 15.2199 21.4334 15.3176L21.408 15.3523ZM23.284 26.7979C23.284 27.1069 23.3443 27.46 23.5031 27.6996C23.884 28.2703 24.5696 28.2136 25.2108 28.2136C25.2585 28.2136 25.2585 28.1474 25.2585 28.0433L25.2553 27.5767C25.2553 27.5483 25.2553 27.5735 25.2585 27.5294C25.2616 27.4695 25.2553 27.4663 25.2458 27.4222C24.8267 27.4222 24.3696 27.5073 24.1951 27.1731C24.1506 27.0848 24.1189 26.9492 24.1189 26.8136V24.2786H25.214C25.2489 24.2786 25.2616 24.2691 25.2616 24.2313V23.5471H24.1189V22.1786H23.2904L23.284 26.7979ZM14.9736 14.7248L13.8531 14.7217C13.8182 14.6082 13.8436 13.5834 13.8436 13.3753L13.031 13.3596V17.7455C13.031 18.2499 13.0278 18.7008 13.3706 19.0414C13.469 19.1391 13.5674 19.2179 13.7039 19.2684C14.0658 19.4008 14.288 19.3945 14.6721 19.3945C15.0498 19.3945 14.9863 19.4481 14.9863 19.1612C14.9863 18.9751 14.9863 18.7891 14.9863 18.5999C14.6626 18.5999 14.2277 18.6472 14.0372 18.4864C13.8118 18.3004 13.8595 17.9819 13.8595 17.5878V15.4563C14.1737 15.4563 14.4848 15.4532 14.7991 15.4563C14.8911 15.4563 14.9705 15.4816 14.9863 15.409V14.7721C14.98 14.7248 14.9927 14.7627 14.9736 14.7248ZM31.5182 24.3858V23.5313H30.7342V28.1505H31.5627C31.5627 27.6114 31.5309 26.0601 31.5944 25.6155C31.642 25.2749 31.7436 24.9754 31.9658 24.7232C32.0896 24.5813 32.2832 24.4646 32.4832 24.3984C32.5975 24.3606 32.6927 24.3448 32.826 24.3196C32.9498 24.2975 33.1181 24.3227 33.2197 24.2754L33.2038 23.4367C32.9181 23.4367 32.7181 23.4304 32.442 23.5345C32.0737 23.6732 31.8452 23.8908 31.6325 24.2092C31.6103 24.2407 31.5912 24.266 31.5754 24.2943C31.5563 24.3416 31.5627 24.3543 31.5182 24.3858ZM20.9223 24.3858V23.5313H20.1383V28.1505H20.9668V26.0506C20.9668 25.3758 21.1668 24.6349 21.8651 24.4079C22.0968 24.3322 22.3666 24.2975 22.6111 24.2943V23.4399C22.2746 23.4399 22.1857 23.4273 21.8492 23.5376C21.2461 23.7394 20.9826 24.3416 20.9223 24.3858ZM36.3083 15.5698V14.9014C36.3083 14.6555 36.4226 14.7154 35.5242 14.7154V19.3346H36.3083C36.3845 19.3346 36.3559 19.1896 36.3559 19.0382V17.2977C36.3559 17.036 36.3654 16.8721 36.4067 16.6482C36.5464 15.8915 37.1019 15.4816 37.8574 15.4942C37.9272 15.4942 37.997 15.5131 37.997 15.4469V14.6239C37.7113 14.6239 37.5114 14.6176 37.2352 14.7217C37.086 14.7784 36.9685 14.8446 36.8511 14.9298C36.7654 14.9928 36.613 15.1379 36.5495 15.2199C36.5051 15.2766 36.4607 15.3302 36.4257 15.3901L36.3369 15.5352C36.3337 15.5383 36.3305 15.5415 36.3305 15.5446C36.3019 15.5793 36.3305 15.5446 36.3083 15.5698Z" fill="#0071A9"/>
</g>
<path id="Vector_4" d="M51.7403 22.9572C51.5467 22.9004 51.2769 22.7585 51.0832 22.6766C50.515 22.4369 49.6834 22.0712 49.1659 21.8158C48.7819 21.6266 48.3851 21.3144 48.2581 20.8667C48.1883 20.6176 48.1883 20.3055 48.2517 20.0532C48.3438 19.6969 48.5089 19.5866 48.585 19.4604C48.5279 19.4731 48.5089 19.4983 48.4612 19.5298C48.4136 19.5613 48.3851 19.5771 48.3374 19.6086L47.8486 19.9334C47.5883 20.1257 47.3185 20.3591 47.1249 20.6145C46.7312 21.141 46.5979 21.5478 46.5249 22.2257C46.4233 23.1558 46.7217 24.0135 47.3312 24.6188L47.4328 24.7197C47.5788 24.849 47.582 24.8679 47.7565 25.0035C48.1946 25.3472 48.7945 25.6594 49.3024 25.8769L56.8542 29.2286L57.6414 29.6448C58.2128 29.9696 58.4921 30.1461 59.0032 30.5151C59.0571 30.5529 59.0508 30.575 59.127 30.5939C59.2317 30.5182 59.4571 30.1115 59.5174 29.9696C59.911 29.0047 59.9523 27.9579 59.4412 27.0782L58.873 26.3688C58.3366 25.8895 58.0636 25.7603 57.4541 25.4607L56.7462 25.1517C56.6827 25.1265 56.6383 25.1044 56.5716 25.076C55.4702 24.6062 54.2639 24.0387 53.1688 23.5878C53.1021 23.5594 53.0672 23.5405 52.9974 23.509L51.9213 23.0392C51.8609 23.0076 51.807 22.9698 51.7403 22.9572Z" fill="#21A947"/>
<path id="Vector_5" d="M14.972 14.7245C14.9148 14.6961 13.9499 14.7119 13.861 14.7119V13.4065C13.8514 13.3687 13.861 13.3971 13.8451 13.375C13.8451 13.5799 13.8197 14.6047 13.8546 14.7214L14.972 14.7245Z" fill="#00354E"/>
</g>
</g>
</svg>
