<svg width="24" height="24" viewBox="0 0 24 24" fill="none" xmlns="http://www.w3.org/2000/svg">

<g id="Size=24x24px" clip-path="url(#clip0_964_20528)">
<g id="Logo_2">
<path id="Shape" d="M11.9339 23.9999C14.9971 23.9887 17.9396 22.8047 20.1569 20.6912C22.3742 18.5777 23.6978 15.6953 23.8558 12.6362V12.5972C23.8558 12.5132 23.8558 12.4261 23.8558 12.3391V12.2971C23.8558 12.1951 23.8558 12.0931 23.8558 11.997C23.8558 11.901 23.8558 11.793 23.8558 11.697V11.643C23.8558 11.5559 23.8558 11.4719 23.8558 11.3849V11.3579C23.7143 8.63376 22.6433 6.04044 20.8214 4.01024C18.9996 1.98004 16.5369 0.635634 13.8439 0.201136C11.1509 -0.233362 8.3904 0.268303 6.02247 1.6225C3.65455 2.9767 1.82233 5.1016 0.831242 7.64299H3.88298C4.66437 6.20356 5.81972 5.00166 7.22718 4.16405C8.63464 3.32644 10.2421 2.88415 11.8799 2.88384H11.9699C13.901 2.88033 15.782 3.49787 17.3352 4.64527L17.2962 4.68128C18.0099 5.21335 18.6426 5.84608 19.1747 6.55973L19.2227 6.51172C20.4106 8.09547 21.0527 10.0218 21.0527 12.0015C21.0527 13.9813 20.4106 15.9076 19.2227 17.4914L19.1927 17.4614C18.668 18.1752 18.0423 18.809 17.3352 19.3428L17.3532 19.3608C16.0921 20.3002 14.6098 20.8981 13.0498 21.0964C11.4899 21.2947 9.90512 21.0868 8.44909 20.4928C6.99306 19.8988 5.71512 18.9388 4.73903 17.7059C3.76295 16.473 3.12182 15.0089 2.87774 13.4554H5.83045V10.5477H0.087063C0.0278056 11.0285 -0.00125859 11.5126 4.17671e-05 11.997C-1.06613e-05 15.1685 1.2551 18.2111 3.49117 20.4601C5.72725 22.7091 8.76253 23.9817 11.9339 23.9999Z" fill="#F97756"/>
<path id="Vector" d="M9.57694 16.3776L7.53345 14.3281L16.6256 5.21495L18.3361 3.49854L20.3765 5.54203L9.57694 16.3776Z" fill="#F97756"/>
<path id="Rectangle path" d="M20.447 18.5564L18.4065 20.5969L7.54688 9.74027L9.59037 7.69678L20.447 18.5564Z" fill="#F97756"/>
<path id="Vector_2" d="M11.2888 2.9017C11.5019 2.8837 11.7239 2.87769 11.937 2.87769C12.4265 2.87928 12.9151 2.91941 13.3983 2.99772H13.4944C13.5604 2.99772 13.6234 3.01873 13.6864 3.03673C13.7494 3.05474 13.8815 3.07274 13.9865 3.09675H14.0195C15.2189 3.38089 16.3474 3.90786 17.3353 4.64512L17.3683 4.67813C18.0597 5.18861 18.675 5.79482 19.1957 6.47856L19.2227 6.50557C19.6189 7.02897 19.956 7.59453 20.228 8.19198C20.228 8.22798 20.261 8.26099 20.276 8.3L20.315 8.38402C20.6554 9.17377 20.8846 10.0069 20.9962 10.8596C20.8155 8.29117 19.8137 5.84891 18.1386 3.89344C16.4636 1.93798 14.2042 0.572981 11.6939 0C9.32678 0.0558609 7.02934 0.812348 5.09209 2.17382C3.15485 3.53528 1.66478 5.44059 0.810303 7.64884H3.87704C4.61021 6.29535 5.67469 5.14993 6.97092 4.31972C8.26715 3.4895 9.75277 3.00162 11.2888 2.9017Z" fill="url(#paint0_linear_964_20528)"/>
<path id="Vector_3" d="M9.34131 23.6996C11.9503 23.6366 14.4673 22.7232 16.5093 21.0982C18.5514 19.4732 20.0068 17.2256 20.654 14.6974C20.3435 15.7044 19.8602 16.6498 19.2257 17.4911L19.1957 17.4581C18.6692 18.1714 18.0426 18.8051 17.3352 19.3396H17.3532C16.0932 20.2788 14.612 20.8769 13.0531 21.076C11.4941 21.2751 9.9102 21.0685 8.4545 20.4762C6.99881 19.8838 5.72064 18.9258 4.74367 17.6947C3.7667 16.4637 3.124 15.0013 2.87775 13.4491H5.83047V10.5444H0.0870803C0.0275712 11.0262 -0.00149372 11.5113 5.90654e-05 11.9968C0.000340791 14.7174 0.924856 17.3571 2.62206 19.4834C4.31926 21.6097 6.68846 23.0963 9.34131 23.6996Z" fill="url(#paint1_linear_964_20528)"/>
<path id="Vector_4" d="M9.57694 16.3783L7.53345 14.3288L17.3188 4.52246L19.3083 6.60496L9.57694 16.3783Z" fill="url(#paint2_linear_964_20528)"/>
<path id="Vector_5" d="M7.56494 9.74027L9.60843 7.69678L21.2542 19.3816L19.2168 21.4281L7.56494 9.74027Z" fill="url(#paint3_linear_964_20528)"/>
<path id="Vector_6" d="M0.912354 7.64268H3.87707C4.56668 6.37389 5.54803 5.28722 6.74018 4.47228C7.93234 3.65733 9.30115 3.13746 10.7337 2.95555C10.3178 2.90129 9.89884 2.87422 9.47942 2.87453C7.7631 2.87158 6.07463 3.30826 4.57494 4.14293C3.07525 4.97761 1.81433 6.18247 0.912354 7.64268Z" fill="url(#paint4_linear_964_20528)"/>
<path id="Vector_7" d="M3.17176 10.5444H0.0930176C0.429099 13.6712 2.79367 17.146 5.59935 18.6284C3.83192 17.002 2.33156 14.5864 3.17176 10.5444Z" fill="url(#paint5_linear_964_20528)"/>
<path id="Vector_8" d="M20.8521 5.04704L18.9526 2.87451L11.8799 9.97422L9.58734 7.66367L7.57385 9.67715C7.5724 9.69813 7.5724 9.71919 7.57385 9.74017L9.8334 12.0177L7.53784 14.3223L9.57533 16.3688L11.8739 14.0642L17.2242 19.4295L19.2317 17.353L13.9144 12.0177L20.8521 5.04704Z" fill="url(#paint6_linear_964_20528)"/>
<path id="Vector_9" d="M23.8722 11.6368C23.8722 11.5497 23.8722 11.4627 23.8722 11.3787V11.3517C23.7394 8.79753 22.7931 6.35283 21.1715 4.375C17.1415 4.57005 12.8955 7.94286 12.8955 12.0358L13.9308 12.0118L19.3141 6.61054C20.4646 8.17641 21.085 10.0687 21.085 12.0118C21.085 13.9549 20.4646 15.8473 19.3141 17.4131L13.9458 12.0118L12.9105 12.0358C12.9105 16.1138 17.1685 19.4236 21.1865 19.6127C22.8086 17.6352 23.755 15.1903 23.8872 12.636V12.597C23.8872 12.513 23.8872 12.4259 23.8872 12.3389V12.2969C23.8872 12.1949 23.8872 12.0929 23.8872 11.9968C23.8872 11.9008 23.8872 11.7928 23.8872 11.6968L23.8722 11.6368ZM18.1708 5.43125C18.3538 5.6083 18.5249 5.78534 18.6989 5.98039L18.1708 5.43125ZM19.212 6.51452C19.212 6.53552 19.242 6.55353 19.254 6.57753L19.212 6.51452Z" fill="url(#paint7_linear_964_20528)"/>
</g>
</g>
<defs>
<linearGradient id="paint0_linear_964_20528" x1="1.14938" y1="6.37423" x2="21.3786" y2="6.37423" gradientUnits="userSpaceOnUse">
<stop stop-color="#F97756"/>
<stop offset="0.11" stop-color="#F97F53"/>
<stop offset="0.7" stop-color="#F9A942"/>
<stop offset="1" stop-color="#F9B93B"/>
</linearGradient>
<linearGradient id="paint1_linear_964_20528" x1="1.15708" y1="17.9855" x2="18.997" y2="10.1889" gradientUnits="userSpaceOnUse">
<stop stop-color="#F97756"/>
<stop offset="0.58" stop-color="#F9A045"/>
<stop offset="1" stop-color="#F9B93B"/>
</linearGradient>
<linearGradient id="paint2_linear_964_20528" x1="19.2664" y1="10.248" x2="7.74392" y2="10.6368" gradientUnits="userSpaceOnUse">
<stop stop-color="#F97756"/>
<stop offset="0.49" stop-color="#F97955"/>
<stop offset="0.67" stop-color="#F98052"/>
<stop offset="0.79" stop-color="#F98B4E"/>
<stop offset="0.89" stop-color="#F99C47"/>
<stop offset="0.98" stop-color="#F9B23E"/>
<stop offset="1" stop-color="#F9B93B"/>
</linearGradient>
<linearGradient id="paint3_linear_964_20528" x1="-68350.6" y1="-247604" x2="-68958.7" y2="-247627" gradientUnits="userSpaceOnUse">
<stop stop-color="#F97756"/>
<stop offset="0.49" stop-color="#F97955"/>
<stop offset="0.67" stop-color="#F98052"/>
<stop offset="0.79" stop-color="#F98B4E"/>
<stop offset="0.89" stop-color="#F99C47"/>
<stop offset="0.98" stop-color="#F9B23E"/>
<stop offset="1" stop-color="#F9B93B"/>
</linearGradient>
<linearGradient id="paint4_linear_964_20528" x1="-34007.6" y1="-28764.7" x2="-34327.7" y2="-28764.7" gradientUnits="userSpaceOnUse">
<stop stop-color="#F97756"/>
<stop offset="0.58" stop-color="#F9A045"/>
<stop offset="1" stop-color="#F9B93B"/>
</linearGradient>
<linearGradient id="paint5_linear_964_20528" x1="-9641.58" y1="-84579.5" x2="-9807.46" y2="-84657.5" gradientUnits="userSpaceOnUse">
<stop stop-color="#F97756"/>
<stop offset="0.58" stop-color="#F9A045"/>
<stop offset="1" stop-color="#F9B93B"/>
</linearGradient>
<linearGradient id="paint6_linear_964_20528" x1="20.7847" y1="10.6754" x2="7.50111" y2="10.6754" gradientUnits="userSpaceOnUse">
<stop offset="0.23" stop-color="#F97756"/>
<stop offset="0.28" stop-color="#F98052"/>
<stop offset="0.44" stop-color="#F99948"/>
<stop offset="0.61" stop-color="#F9AB41"/>
<stop offset="0.79" stop-color="#F9B63C"/>
<stop offset="1" stop-color="#F9B93B"/>
</linearGradient>
<linearGradient id="paint7_linear_964_20528" x1="23.8328" y1="12.1225" x2="12.8096" y2="12.1225" gradientUnits="userSpaceOnUse">
<stop stop-color="#F97756"/>
<stop offset="0.27" stop-color="#F98451"/>
<stop offset="0.78" stop-color="#F9A742"/>
<stop offset="1" stop-color="#F9B93B"/>
</linearGradient>
<clipPath id="clip0_964_20528">
<rect width="24" height="24" fill="white"/>
</clipPath>
</defs>
</svg>
