<svg width="24" height="24" viewBox="0 0 24 24" fill="none" xmlns="http://www.w3.org/2000/svg">

<g id="Size=24x24px">
<g id="Logo_2">
<path id="Vector" d="M10.2877 6.33396C10.0632 6.29916 10.0537 6.29505 10.1594 6.27884C10.3618 6.24768 10.8397 6.29013 11.1691 6.36842C11.938 6.55121 12.6377 7.01943 13.3846 7.85095L13.583 8.07189L13.8668 8.02625C15.0626 7.83409 16.2791 7.9868 17.2965 8.45682C17.5764 8.58613 18.0178 8.84356 18.0729 8.90971C18.0905 8.93077 18.1227 9.06649 18.1446 9.21128C18.2201 9.71223 18.1823 10.0962 18.0291 10.383C17.9457 10.5391 17.9411 10.5886 17.9971 10.7221C18.0419 10.8287 18.1666 10.9076 18.2902 10.9074C18.543 10.9071 18.8152 10.4984 18.9412 9.92963L18.9913 9.70374L19.0906 9.81611C19.6349 10.4328 20.0624 11.2737 20.1358 11.8724L20.1549 12.0284L20.0634 11.8865C19.906 11.6424 19.7478 11.4762 19.5452 11.3421C19.18 11.1005 18.7939 11.0183 17.7713 10.9644C16.8477 10.9157 16.325 10.8368 15.8067 10.6678C14.9249 10.3803 14.4804 9.9974 13.4329 8.62305C12.9676 8.01265 12.68 7.67489 12.394 7.4029C11.744 6.7849 11.1052 6.46078 10.2877 6.33396Z" fill="#FF007A"/>
<path id="Vector_2" d="M18.2812 7.69683C18.3044 7.28781 18.3599 7.01797 18.4714 6.77161C18.5156 6.67407 18.557 6.59424 18.5633 6.59424C18.5697 6.59424 18.5505 6.66623 18.5207 6.7542C18.4396 6.99335 18.4263 7.32039 18.4821 7.70094C18.553 8.18376 18.5933 8.25341 19.1037 8.77499C19.343 9.01963 19.6214 9.32815 19.7224 9.46061L19.9059 9.70148L19.7224 9.52934C19.4979 9.31885 18.9818 8.90833 18.8678 8.84963C18.7914 8.81029 18.78 8.81095 18.7328 8.85789C18.6894 8.90115 18.6802 8.96611 18.6742 9.27333C18.6648 9.75211 18.5996 10.0594 18.4421 10.3667C18.3569 10.5329 18.3434 10.4975 18.4205 10.3099C18.4781 10.1698 18.4839 10.1082 18.4835 9.6447C18.4826 8.71345 18.3721 8.48955 17.7237 8.106C17.5594 8.00885 17.2887 7.86871 17.1223 7.7946C16.9557 7.72049 16.8234 7.65592 16.8283 7.65111C16.8466 7.63283 17.479 7.81738 17.7335 7.91527C18.112 8.0609 18.1745 8.07977 18.2205 8.06221C18.2513 8.05045 18.2662 7.96067 18.2812 7.69683Z" fill="#FF007A"/>
<path id="Vector_3" d="M10.7223 9.28993C10.2666 8.66262 9.98473 7.70079 10.0457 6.98179L10.0646 6.75928L10.1683 6.77822C10.3631 6.81375 10.6989 6.93876 10.8562 7.03426C11.2877 7.29634 11.4746 7.6414 11.6646 8.52747C11.7203 8.78698 11.7933 9.08067 11.827 9.18013C11.8811 9.34017 12.0855 9.71401 12.2518 9.9568C12.3715 10.1316 12.292 10.2145 12.0273 10.1906C11.6231 10.1541 11.0755 9.77624 10.7223 9.28993Z" fill="#FF007A"/>
<path id="Vector_4" d="M17.7294 13.9589C15.5999 13.1015 14.85 12.3573 14.85 11.1016C14.85 10.9168 14.8564 10.7656 14.8641 10.7656C14.8718 10.7656 14.9542 10.8266 15.0472 10.9012C15.479 11.2475 15.9625 11.3954 17.3011 11.5907C18.0888 11.7056 18.5321 11.7985 18.941 11.9341C20.2407 12.3651 21.0449 13.2398 21.2366 14.4313C21.2923 14.7775 21.2597 15.4267 21.1693 15.7689C21.098 16.0391 20.8804 16.5263 20.8226 16.5449C20.8066 16.5501 20.7909 16.4888 20.7868 16.4053C20.7649 15.958 20.5388 15.5224 20.1592 15.1961C19.7275 14.8252 19.1475 14.5298 17.7294 13.9589Z" fill="#FF007A"/>
<path id="Vector_5" d="M16.2323 14.3146C16.2056 14.1558 16.1593 13.9531 16.1294 13.864L16.0751 13.7021L16.176 13.8154C16.3157 13.9722 16.426 14.1728 16.5196 14.4399C16.5909 14.6439 16.599 14.7045 16.5984 15.0359C16.5979 15.3612 16.589 15.4294 16.5231 15.6129C16.4191 15.9023 16.2901 16.1075 16.0736 16.3278C15.6847 16.7237 15.1846 16.9428 14.4629 17.0338C14.3374 17.0496 13.9718 17.0762 13.6504 17.0929C12.8403 17.135 12.3072 17.2221 11.8281 17.3903C11.7592 17.4145 11.6977 17.4292 11.6915 17.4229C11.6721 17.4037 11.9983 17.2092 12.2677 17.0794C12.6476 16.8964 13.0257 16.7966 13.873 16.6555C14.2915 16.5858 14.7238 16.5012 14.8335 16.4676C15.87 16.1498 16.4027 15.3297 16.2323 14.3146Z" fill="#FF007A"/>
<path id="Vector_6" d="M17.2097 16.0487C16.9268 15.4405 16.8618 14.8533 17.0168 14.3056C17.0334 14.2471 17.0601 14.1992 17.0761 14.1992C17.0921 14.1992 17.1589 14.2353 17.2244 14.2794C17.3548 14.3672 17.6163 14.515 18.3129 14.8948C19.1822 15.3688 19.6778 15.7358 20.0149 16.155C20.3101 16.5223 20.4927 16.9405 20.5807 17.4504C20.6304 17.7393 20.6013 18.4344 20.5271 18.7253C20.2934 19.6425 19.7502 20.3629 18.9754 20.7833C18.8619 20.8449 18.76 20.8955 18.749 20.8957C18.738 20.8959 18.7793 20.7908 18.8409 20.662C19.1015 20.1172 19.1312 19.5872 18.9342 18.9973C18.8135 18.6361 18.5675 18.1954 18.0708 17.4506C17.4934 16.5846 17.3518 16.3541 17.2097 16.0487Z" fill="#FF007A"/>
<path id="Vector_7" d="M9.21024 19.3302C10.0005 18.663 10.9837 18.189 11.8793 18.0435C12.2653 17.9808 12.9082 18.0057 13.2657 18.0971C13.8386 18.2438 14.3511 18.5722 14.6176 18.9634C14.8781 19.3458 14.9899 19.6791 15.1062 20.4205C15.1521 20.713 15.2021 21.0066 15.2172 21.0731C15.3045 21.4574 15.4746 21.7645 15.6853 21.9188C16.0199 22.1637 16.5962 22.179 17.1631 21.9578C17.2593 21.9203 17.3429 21.8943 17.3487 21.9002C17.3693 21.9206 17.0839 22.1117 16.8824 22.2123C16.6115 22.3477 16.396 22.4 16.1097 22.4C15.5905 22.4 15.1594 22.1359 14.7997 21.5973C14.729 21.4913 14.5698 21.1738 14.4462 20.8919C14.0664 20.0256 13.8789 19.7618 13.4379 19.473C13.0542 19.2217 12.5593 19.1767 12.187 19.3593C11.698 19.599 11.5615 20.224 11.9118 20.6201C12.051 20.7775 12.3106 20.9132 12.5229 20.9396C12.92 20.989 13.2613 20.6869 13.2613 20.286C13.2613 20.0256 13.1612 19.877 12.9093 19.7634C12.5653 19.6081 12.1955 19.7896 12.1972 20.1128C12.198 20.2506 12.258 20.3372 12.3962 20.3997C12.4848 20.4398 12.4869 20.443 12.4146 20.4279C12.0989 20.3625 12.0249 19.9819 12.2788 19.7293C12.5835 19.426 13.2136 19.5598 13.43 19.9738C13.5209 20.1477 13.5315 20.494 13.4522 20.7032C13.2748 21.1712 12.7576 21.4174 12.2329 21.2834C11.8757 21.1922 11.7303 21.0935 11.2996 20.6498C10.5512 19.8789 10.2607 19.7295 9.18173 19.5611L8.97498 19.5288L9.21024 19.3302Z" fill="#FF007A"/>
<path id="Vector_8" fill-rule="evenodd" clip-rule="evenodd" d="M3.56803 2.06121C6.06732 5.09461 9.92046 9.81743 10.1118 10.0818C10.2697 10.3002 10.2103 10.4964 9.9397 10.6503C9.78923 10.7358 9.47986 10.8225 9.32496 10.8225C9.14978 10.8225 8.95244 10.7381 8.80872 10.6018C8.70711 10.5054 8.29713 9.89322 7.35066 8.42464C6.62647 7.30095 6.02041 6.36878 6.00389 6.35318C5.96567 6.31707 5.96632 6.3183 7.27682 8.66313C8.09971 10.1355 8.3775 10.6561 8.3775 10.7257C8.3775 10.8673 8.33889 10.9417 8.16421 11.1365C7.87301 11.4614 7.74286 11.8264 7.64889 12.5818C7.54351 13.4286 7.24732 14.0268 6.42644 15.0506C5.94592 15.6499 5.86728 15.7597 5.74604 16.0013C5.5933 16.3054 5.55131 16.4758 5.53429 16.8599C5.51631 17.266 5.55135 17.5283 5.67543 17.9166C5.78404 18.2565 5.8974 18.481 6.18726 18.9299C6.43739 19.3173 6.58145 19.6053 6.58145 19.7179C6.58145 19.8075 6.59854 19.8076 6.98617 19.7201C7.91373 19.5106 8.66696 19.1422 9.09058 18.6907C9.35274 18.4113 9.41428 18.257 9.41628 17.874C9.41758 17.6235 9.40879 17.5711 9.3411 17.427C9.23088 17.1925 9.03023 16.9975 8.58798 16.6952C8.00854 16.2991 7.76106 15.9802 7.69268 15.5416C7.63659 15.1818 7.70167 14.9279 8.02222 14.256C8.35402 13.5606 8.43623 13.2643 8.49186 12.5633C8.52778 12.1104 8.57753 11.9318 8.70765 11.7885C8.84333 11.639 8.9655 11.5884 9.30134 11.5425C9.84885 11.4677 10.1975 11.326 10.4841 11.062C10.7327 10.8329 10.8367 10.6121 10.8527 10.2798L10.8648 10.028L10.7259 9.86602C10.2228 9.2794 3.23111 1.6001 3.20014 1.6001C3.19353 1.6001 3.35908 1.80762 3.56803 2.06121ZM6.86385 17.3194C6.9776 17.1179 6.91717 16.8589 6.72689 16.7324C6.5471 16.6129 6.26782 16.6692 6.26782 16.825C6.26782 16.8725 6.29413 16.9071 6.35337 16.9376C6.4531 16.9889 6.46036 17.0466 6.38187 17.1646C6.30239 17.2841 6.30881 17.3891 6.39997 17.4605C6.54691 17.5756 6.7549 17.5123 6.86385 17.3194Z" fill="#FF007A"/>
<path id="Vector_9" fill-rule="evenodd" clip-rule="evenodd" d="M11.2103 11.6744C10.9533 11.7534 10.7034 12.0258 10.6261 12.3114C10.5789 12.4857 10.6057 12.7914 10.6764 12.8858C10.7905 13.0382 10.9009 13.0784 11.1999 13.0763C11.7853 13.0722 12.2941 12.8212 12.3533 12.5073C12.4018 12.2501 12.1783 11.8935 11.8705 11.737C11.7116 11.6563 11.3738 11.6242 11.2103 11.6744ZM11.8946 12.2095C11.9849 12.0812 11.9454 11.9426 11.7919 11.8489C11.4995 11.6703 11.0574 11.818 11.0574 12.0943C11.0574 12.2318 11.2879 12.3817 11.4993 12.3817C11.6399 12.3817 11.8324 12.2979 11.8946 12.2095Z" fill="#FF007A"/>
</g>
</g>
</svg>
