<svg width="24" height="24" viewBox="0 0 24 24" fill="none" xmlns="http://www.w3.org/2000/svg">
<rect width="24" height="24" fill="#F5F5F5"/>
<g id="Logo">
<path d="M-352 -615C-352 -616.105 -351.105 -617 -350 -617H3691C3692.1 -617 3693 -616.105 3693 -615V1343C3693 1344.1 3692.1 1345 3691 1345H-350C-351.105 1345 -352 1344.1 -352 1343V-615Z" fill="white"/>
<path d="M-350 -617V-616H3691V-617V-618H-350V-617ZM3693 -615H3692V1343H3693H3694V-615H3693ZM3691 1345V1344H-350V1345V1346H3691V1345ZM-352 1343H-351V-615H-352H-353V1343H-352ZM-350 1345V1344C-350.552 1344 -351 1343.55 -351 1343H-352H-353C-353 1344.66 -351.657 1346 -350 1346V1345ZM3693 1343H3692C3692 1343.55 3691.55 1344 3691 1344V1345V1346C3692.66 1346 3694 1344.66 3694 1343H3693ZM3691 -617V-616C3691.55 -616 3692 -615.552 3692 -615H3693H3694C3694 -616.657 3692.66 -618 3691 -618V-617ZM-350 -617V-618C-351.657 -618 -353 -616.657 -353 -615H-352H-351C-351 -615.552 -350.552 -616 -350 -616V-617Z" fill="black" fill-opacity="0.1"/>
<g id="XIDR">
<rect x="-201.5" y="-24.5" width="427" height="71" rx="4.5" fill="white"/>
<rect x="-201.5" y="-24.5" width="427" height="71" rx="4.5" stroke="#9747FF" stroke-dasharray="10 5"/>
<g id="size=24x24px" clip-path="url(#clip0_964_20528)">
<path id="Vector" d="M11.9996 23.9993C18.6269 23.9993 23.9993 18.6269 23.9993 11.9996C23.9993 5.37243 18.6269 0 11.9996 0C5.37243 0 0 5.37243 0 11.9996C0 18.6269 5.37243 23.9993 11.9996 23.9993Z" fill="#DF1312"/>
<g id="Group">
<path id="Vector_2" d="M4.74558 6.26324C4.81715 6.26324 4.88451 6.23096 4.93082 6.17623C6.6205 4.15045 9.16203 2.85863 12.0004 2.85863C14.8387 2.85863 17.3803 4.15045 19.0699 6.17623C19.1155 6.23096 19.1836 6.26324 19.2552 6.26324H19.78C19.8565 6.26324 19.9007 6.17553 19.8544 6.11448C18.0532 3.74136 15.2029 2.20605 12.0004 2.20605C8.79785 2.20605 5.94828 3.74136 4.14633 6.11448C4.10002 6.17553 4.14423 6.26324 4.22071 6.26324H4.74558Z" fill="white"/>
<path id="Vector_3" d="M19.3534 17.7422C19.2804 17.7422 19.2117 17.7759 19.1661 17.8327C17.4778 19.9259 14.892 21.2668 11.9997 21.2668C9.10729 21.2668 6.52225 19.9259 4.83328 17.8327C4.78767 17.7759 4.7189 17.7422 4.64592 17.7422H4.13018C4.0544 17.7422 4.00949 17.8285 4.0544 17.8895C5.85003 20.3314 8.74241 21.9187 11.999 21.9187C15.2555 21.9187 18.1479 20.3307 19.9435 17.8895C19.9884 17.8285 19.9435 17.7422 19.8677 17.7422H19.352H19.3534Z" fill="white"/>
</g>
<g id="Group_2">
<path id="Vector_4" d="M10.985 14.0509V9.95166H11.9926V14.0509H10.985Z" fill="white"/>
<path id="Vector_5" d="M10.1142 7.90402H9.11567C8.43292 7.90402 7.79579 8.24715 7.41968 8.81692L6.3089 10.501L4.64519 8.13558C4.54274 7.98963 4.37574 7.90332 4.19751 7.90332H2.87481C2.66571 7.90332 2.54291 8.13909 2.66361 8.3103L5.14058 11.8265L3.30916 14.4852C2.95621 14.9911 2.74781 15.3202 2.47976 15.5693C2.35697 15.6837 2.23557 15.7777 2.12611 15.8528C2.01524 15.9293 2.06857 16.1026 2.20329 16.1026H3.2018C3.88455 16.1026 4.52169 15.7595 4.8978 15.1897L6.15663 13.2804L7.98595 15.8717C8.08839 16.017 8.2554 16.1033 8.43292 16.1033H9.75702C9.96612 16.1033 10.0889 15.8675 9.96823 15.6963L7.33197 11.9549L9.00831 9.52213C9.36126 9.01621 9.56967 8.68711 9.83771 8.43801C9.96051 8.32363 10.0819 8.22961 10.1914 8.15453C10.3022 8.07804 10.2489 7.90472 10.1142 7.90472V7.90402Z" fill="white"/>
<path id="Vector_6" d="M13.2578 14.0509V9.95166H14.9208C15.2253 9.95166 15.5081 10.0043 15.7698 10.1095C16.0315 10.2148 16.261 10.3614 16.4582 10.5488C16.6553 10.7362 16.8097 10.9551 16.9206 11.2049C17.0322 11.4547 17.0876 11.7241 17.0876 12.0132C17.0876 12.3023 17.0322 12.5641 16.9206 12.8097C16.809 13.0559 16.6553 13.2714 16.4582 13.4566C16.261 13.6419 16.0315 13.7878 15.7698 13.8931C15.5081 13.9983 15.2253 14.0509 14.9208 14.0509H13.2578ZM14.2647 13.1605H14.8969C15.0569 13.1605 15.2064 13.131 15.3446 13.0728C15.4828 13.0145 15.6049 12.9325 15.7109 12.8265C15.8168 12.7205 15.8982 12.5991 15.9572 12.4602C16.0154 12.322 16.0449 12.1725 16.0449 12.0125C16.0449 11.8525 16.0154 11.6954 15.9572 11.5529C15.8989 11.4105 15.8168 11.2863 15.7109 11.181C15.6056 11.0758 15.4835 10.993 15.3446 10.9319C15.2057 10.8716 15.0569 10.8414 14.8969 10.8414H14.2647V13.1605Z" fill="white"/>
<path id="Vector_7" d="M17.9717 14.0509V9.95166H20.0684C20.3498 9.95166 20.5996 10.0071 20.8178 10.1187C21.0367 10.2302 21.2072 10.3839 21.33 10.5811C21.4528 10.7783 21.5146 11.0035 21.5146 11.2575C21.5146 11.5115 21.4444 11.7459 21.3041 11.9487C21.1637 12.1515 20.9778 12.3058 20.7476 12.4111L21.6437 14.0509H20.5196L19.7463 12.5577H18.9794V14.0509H17.9717ZM18.9794 11.7375H19.9751C20.1309 11.7375 20.2572 11.6947 20.3526 11.6084C20.448 11.5227 20.4957 11.4112 20.4957 11.2744C20.4957 11.1375 20.448 11.0267 20.3526 10.9403C20.2572 10.8547 20.1309 10.8112 19.9751 10.8112H18.9794V11.7368V11.7375Z" fill="white"/>
</g>
</g>
</g>
</g>
<defs>
<clipPath id="clip0_964_20528">
<rect width="24" height="24" fill="white"/>
</clipPath>
</defs>
</svg>
