<svg xmlns="http://www.w3.org/2000/svg" width="71.845" height="71.990" viewBox="0 0 71.845 71.990" fill="none">
  <path d="M 70.652 0 L 61.892 0 C 55.902 0 50.302 3.01 47.002 8.02 L 37.252 22.81 L 22.642 2.05 C 21.742 0.77 20.272 0.01 18.712 0.01 L 7.102 0.01 C 5.262 0.01 4.192 2.08 5.252 3.58 L 26.992 34.45 L 10.912 57.79 C 7.812 62.23 5.982 65.12 3.632 67.31 C 2.552 68.31 1.482 69.14 0.522 69.8 C -0.448 70.47 0.022 71.99 1.202 71.99 L 9.962 71.99 C 15.952 71.99 21.552 68.98 24.852 63.97 L 35.902 47.21 L 51.962 69.96 C 52.862 71.23 54.322 71.99 55.882 71.99 L 67.502 71.99 C 69.342 71.99 70.412 69.92 69.352 68.42 L 46.212 35.57 L 60.932 14.21 C 64.032 9.77 65.862 6.88 68.212 4.69 C 69.292 3.69 70.362 2.86 71.322 2.2 C 72.292 1.53 71.822 0.01 70.642 0.01 L 70.652 0 Z" fill="currentColor" fill-rule="nonzero"></path>
</svg>